<svg width="370" height="120" viewBox="0 0 370 120" fill="none" xmlns="http://www.w3.org/2000/svg">
<rect x="330" y="100" width="20" height="20" rx="2" fill="#17C5CC"/>
<rect x="338.5" y="102.5" width="3" height="15" rx="1.5" fill="white" stroke="white"/>
<rect x="332.5" y="108.5" width="15" height="3" rx="1.5" fill="white" stroke="white"/>
<rect x="330" y="80" width="20" height="20" rx="2" fill="#17C5CC"/>
<rect x="338.5" y="82.5" width="3" height="15" rx="1.5" fill="white" stroke="white"/>
<rect x="332.5" y="88.5" width="15" height="3" rx="1.5" fill="white" stroke="white"/>
<rect x="350" y="60" width="20" height="20" rx="2" fill="#17C5CC"/>
<rect x="358.5" y="62.5" width="3" height="15" rx="1.5" fill="white" stroke="white"/>
<rect x="352.5" y="68.5" width="15" height="3" rx="1.5" fill="white" stroke="white"/>
<rect x="330" y="60" width="20" height="20" rx="2" fill="#17C5CC"/>
<rect x="338.5" y="62.5" width="3" height="15" rx="1.5" fill="white" stroke="white"/>
<rect x="332.5" y="68.5" width="15" height="3" rx="1.5" fill="white" stroke="white"/>
<rect x="310" y="60" width="20" height="20" rx="2" fill="#17C5CC"/>
<rect x="318.5" y="62.5" width="3" height="15" rx="1.5" fill="white" stroke="white"/>
<rect x="312.5" y="68.5" width="15" height="3" rx="1.5" fill="white" stroke="white"/>
<rect x="290" y="60" width="20" height="20" rx="2" fill="#17C5CC"/>
<rect x="298.5" y="62.5" width="3" height="15" rx="1.5" fill="white" stroke="white"/>
<rect x="292.5" y="68.5" width="15" height="3" rx="1.5" fill="white" stroke="white"/>
<rect x="270" y="60" width="20" height="20" rx="2" fill="#17C5CC"/>
<rect x="278.5" y="62.5" width="3" height="15" rx="1.5" fill="white" stroke="white"/>
<rect x="272.5" y="68.5" width="15" height="3" rx="1.5" fill="white" stroke="white"/>
<rect x="330" y="40" width="20" height="20" rx="2" fill="#17C5CC"/>
<rect x="338.5" y="42.5" width="3" height="15" rx="1.5" fill="white" stroke="white"/>
<rect x="332.5" y="48.5" width="15" height="3" rx="1.5" fill="white" stroke="white"/>
<rect x="270" y="40" width="20" height="20" rx="2" fill="#17C5CC"/>
<rect x="278.5" y="42.5" width="3" height="15" rx="1.5" fill="white" stroke="white"/>
<rect x="272.5" y="48.5" width="15" height="3" rx="1.5" fill="white" stroke="white"/>
<rect x="330" y="20" width="20" height="20" rx="2" fill="#17C5CC"/>
<rect x="338.5" y="22.5" width="3" height="15" rx="1.5" fill="white" stroke="white"/>
<rect x="332.5" y="28.5" width="15" height="3" rx="1.5" fill="white" stroke="white"/>
<rect x="290" y="20" width="20" height="20" rx="2" fill="#17C5CC"/>
<rect x="298.5" y="22.5" width="3" height="15" rx="1.5" fill="white" stroke="white"/>
<rect x="292.5" y="28.5" width="15" height="3" rx="1.5" fill="white" stroke="white"/>
<rect x="330" width="20" height="20" rx="2" fill="#17C5CC"/>
<rect x="338.5" y="2.5" width="3" height="15" rx="1.5" fill="white" stroke="white"/>
<rect x="332.5" y="8.5" width="15" height="3" rx="1.5" fill="white" stroke="white"/>
<rect x="310" width="20" height="20" rx="2" fill="#17C5CC"/>
<rect x="318.5" y="2.5" width="3" height="15" rx="1.5" fill="white" stroke="white"/>
<rect x="312.5" y="8.5" width="15" height="3" rx="1.5" fill="white" stroke="white"/>
<rect x="195" y="100" width="20" height="20" rx="2" fill="#17C5CC"/>
<rect x="203.5" y="102.5" width="3" height="15" rx="1.5" fill="white" stroke="white"/>
<rect x="197.5" y="108.5" width="15" height="3" rx="1.5" fill="white" stroke="white"/>
<rect x="175" y="100" width="20" height="20" rx="2" fill="#17C5CC"/>
<rect x="183.5" y="102.5" width="3" height="15" rx="1.5" fill="white" stroke="white"/>
<rect x="177.5" y="108.5" width="15" height="3" rx="1.5" fill="white" stroke="white"/>
<rect x="155" y="100" width="20" height="20" rx="2" fill="#17C5CC"/>
<rect x="163.5" y="102.5" width="3" height="15" rx="1.5" fill="white" stroke="white"/>
<rect x="157.5" y="108.5" width="15" height="3" rx="1.5" fill="white" stroke="white"/>
<rect x="215" y="80" width="20" height="20" rx="2" fill="#17C5CC"/>
<rect x="223.5" y="82.5" width="3" height="15" rx="1.5" fill="white" stroke="white"/>
<rect x="217.5" y="88.5" width="15" height="3" rx="1.5" fill="white" stroke="white"/>
<rect x="135" y="80" width="20" height="20" rx="2" fill="#17C5CC"/>
<rect x="143.5" y="82.5" width="3" height="15" rx="1.5" fill="white" stroke="white"/>
<rect x="137.5" y="88.5" width="15" height="3" rx="1.5" fill="white" stroke="white"/>
<rect x="215" y="60" width="20" height="20" rx="2" fill="#17C5CC"/>
<rect x="223.5" y="62.5" width="3" height="15" rx="1.5" fill="white" stroke="white"/>
<rect x="217.5" y="68.5" width="15" height="3" rx="1.5" fill="white" stroke="white"/>
<rect x="135" y="60" width="20" height="20" rx="2" fill="#17C5CC"/>
<rect x="143.5" y="62.5" width="3" height="15" rx="1.5" fill="white" stroke="white"/>
<rect x="137.5" y="68.5" width="15" height="3" rx="1.5" fill="white" stroke="white"/>
<rect x="215" y="40" width="20" height="20" rx="2" fill="#17C5CC"/>
<rect x="223.5" y="42.5" width="3" height="15" rx="1.5" fill="white" stroke="white"/>
<rect x="217.5" y="48.5" width="15" height="3" rx="1.5" fill="white" stroke="white"/>
<rect x="135" y="40" width="20" height="20" rx="2" fill="#17C5CC"/>
<rect x="143.5" y="42.5" width="3" height="15" rx="1.5" fill="white" stroke="white"/>
<rect x="137.5" y="48.5" width="15" height="3" rx="1.5" fill="white" stroke="white"/>
<rect x="215" y="20" width="20" height="20" rx="2" fill="#17C5CC"/>
<rect x="223.5" y="22.5" width="3" height="15" rx="1.5" fill="white" stroke="white"/>
<rect x="217.5" y="28.5" width="15" height="3" rx="1.5" fill="white" stroke="white"/>
<rect x="135" y="20" width="20" height="20" rx="2" fill="#17C5CC"/>
<rect x="143.5" y="22.5" width="3" height="15" rx="1.5" fill="white" stroke="white"/>
<rect x="137.5" y="28.5" width="15" height="3" rx="1.5" fill="white" stroke="white"/>
<rect x="195" width="20" height="20" rx="2" fill="#17C5CC"/>
<rect x="203.5" y="2.5" width="3" height="15" rx="1.5" fill="white" stroke="white"/>
<rect x="197.5" y="8.5" width="15" height="3" rx="1.5" fill="white" stroke="white"/>
<rect x="175" width="20" height="20" rx="2" fill="#17C5CC"/>
<rect x="183.5" y="2.5" width="3" height="15" rx="1.5" fill="white" stroke="white"/>
<rect x="177.5" y="8.5" width="15" height="3" rx="1.5" fill="white" stroke="white"/>
<rect x="155" width="20" height="20" rx="2" fill="#17C5CC"/>
<rect x="163.5" y="2.5" width="3" height="15" rx="1.5" fill="white" stroke="white"/>
<rect x="157.5" y="8.5" width="15" height="3" rx="1.5" fill="white" stroke="white"/>
<rect x="60" y="100" width="20" height="20" rx="2" fill="#17C5CC"/>
<rect x="68.5" y="102.5" width="3" height="15" rx="1.5" fill="white" stroke="white"/>
<rect x="62.5" y="108.5" width="15" height="3" rx="1.5" fill="white" stroke="white"/>
<rect x="60" y="80" width="20" height="20" rx="2" fill="#17C5CC"/>
<rect x="68.5" y="82.5" width="3" height="15" rx="1.5" fill="white" stroke="white"/>
<rect x="62.5" y="88.5" width="15" height="3" rx="1.5" fill="white" stroke="white"/>
<rect x="80" y="60" width="20" height="20" rx="2" fill="#17C5CC"/>
<rect x="88.5" y="62.5" width="3" height="15" rx="1.5" fill="white" stroke="white"/>
<rect x="82.5" y="68.5" width="15" height="3" rx="1.5" fill="white" stroke="white"/>
<rect x="60" y="60" width="20" height="20" rx="2" fill="#17C5CC"/>
<rect x="68.5" y="62.5" width="3" height="15" rx="1.5" fill="white" stroke="white"/>
<rect x="62.5" y="68.5" width="15" height="3" rx="1.5" fill="white" stroke="white"/>
<rect x="40" y="60" width="20" height="20" rx="2" fill="#17C5CC"/>
<rect x="48.5" y="62.5" width="3" height="15" rx="1.5" fill="white" stroke="white"/>
<rect x="42.5" y="68.5" width="15" height="3" rx="1.5" fill="white" stroke="white"/>
<rect x="20" y="60" width="20" height="20" rx="2" fill="#17C5CC"/>
<rect x="28.5" y="62.5" width="3" height="15" rx="1.5" fill="white" stroke="white"/>
<rect x="22.5" y="68.5" width="15" height="3" rx="1.5" fill="white" stroke="white"/>
<rect y="60" width="20" height="20" rx="2" fill="#17C5CC"/>
<rect x="8.5" y="62.5" width="3" height="15" rx="1.5" fill="white" stroke="white"/>
<rect x="2.5" y="68.5" width="15" height="3" rx="1.5" fill="white" stroke="white"/>
<rect x="60" y="40" width="20" height="20" rx="2" fill="#17C5CC"/>
<rect x="68.5" y="42.5" width="3" height="15" rx="1.5" fill="white" stroke="white"/>
<rect x="62.5" y="48.5" width="15" height="3" rx="1.5" fill="white" stroke="white"/>
<rect y="40" width="20" height="20" rx="2" fill="#17C5CC"/>
<rect x="8.5" y="42.5" width="3" height="15" rx="1.5" fill="white" stroke="white"/>
<rect x="2.5" y="48.5" width="15" height="3" rx="1.5" fill="white" stroke="white"/>
<rect x="60" y="20" width="20" height="20" rx="2" fill="#17C5CC"/>
<rect x="68.5" y="22.5" width="3" height="15" rx="1.5" fill="white" stroke="white"/>
<rect x="62.5" y="28.5" width="15" height="3" rx="1.5" fill="white" stroke="white"/>
<rect x="20" y="20" width="20" height="20" rx="2" fill="#17C5CC"/>
<rect x="28.5" y="22.5" width="3" height="15" rx="1.5" fill="white" stroke="white"/>
<rect x="22.5" y="28.5" width="15" height="3" rx="1.5" fill="white" stroke="white"/>
<rect x="60" width="20" height="20" rx="2" fill="#17C5CC"/>
<rect x="68.5" y="2.5" width="3" height="15" rx="1.5" fill="white" stroke="white"/>
<rect x="62.5" y="8.5" width="15" height="3" rx="1.5" fill="white" stroke="white"/>
<rect x="40" width="20" height="20" rx="2" fill="#17C5CC"/>
<rect x="48.5" y="2.5" width="3" height="15" rx="1.5" fill="white" stroke="white"/>
<rect x="42.5" y="8.5" width="15" height="3" rx="1.5" fill="white" stroke="white"/>
</svg>
