<svg width="170" height="50" viewBox="0 0 170 50" fill="none" xmlns="http://www.w3.org/2000/svg">
<path d="M156.497 0H13.5033C13.0769 0 12.5084 0 11.9398 0C11.5134 0 11.087 0 10.6605 0C9.66555 0 8.81271 0.125 7.81773 0.25C6.82274 0.375 5.9699 0.625 5.11706 1C4.26421 1.375 3.55351 1.875 2.84281 2.5C2.13211 3.125 1.56355 3.75 1.13712 4.5C0.710702 5.25 0.426421 6.125 0.284281 6.875C0.14214 7.75 0 8.625 0 9.375C0 9.75 0 10.125 0 10.5C0 11 0 11.375 0 11.875V38C0 38.5 0 38.875 0 39.375C0 39.75 0 40.125 0 40.5C0 41.375 0.14214 42.125 0.284281 43C0.426421 43.875 0.710702 44.625 1.13712 45.375C1.56355 46.25 2.13211 46.875 2.84281 47.5C3.55351 48.125 4.26421 48.625 5.11706 49C5.9699 49.375 6.82274 49.625 7.81773 49.75C8.81271 49.875 9.66555 50 10.6605 50C11.087 50 11.5134 50 11.9398 50C12.5084 50 12.9348 50 13.5033 50H156.497C157.065 50 157.492 50 158.06 50C158.487 50 158.913 50 159.339 50C160.334 50 161.187 49.875 162.182 49.75C163.177 49.625 164.03 49.375 164.883 49C165.736 48.625 166.446 48.125 167.157 47.5C167.868 46.875 168.436 46.25 168.863 45.5C169.289 44.75 169.574 44 169.716 43.125C169.858 42.25 170 41.5 170 40.625C170 40.25 170 39.875 170 39.5C170 39 170 38.625 170 38.125V11.875C170 11.375 170 11 170 10.5C170 10.125 170 9.75 170 9.375C170 8.5 169.858 7.75 169.716 6.875C169.574 6 169.289 5.25 168.863 4.5C168.436 3.75 167.868 3.125 167.157 2.5C166.446 1.875 165.736 1.375 164.883 1C164.03 0.625 163.177 0.375 162.182 0.25C161.187 0.125 160.334 0 159.339 0C158.913 0 158.487 0 158.06 0C157.634 0 157.065 0 156.497 0Z" fill="#E8F8FF"/>
<path d="M11.8203 49C11.3932 49 10.9661 49 10.539 49C9.68475 49 8.83051 49 7.8339 48.7487C6.97966 48.623 6.12542 48.3717 5.41356 48.1204C4.7017 47.7435 3.98983 47.3665 3.42034 46.8639C2.85085 46.3613 2.28136 45.733 1.99661 45.1047C1.56949 44.4764 1.42712 43.8482 1.28475 42.9686C1.14237 42.089 1 41.2094 1 40.5812C1 40.3298 1 39.4503 1 39.4503V10.4241C1 10.4241 1 9.5445 1 9.29319C1 8.66492 1 7.78534 1.28475 6.90576C1.56949 6.27749 1.71186 5.52356 2.13898 4.89529C2.5661 4.26702 2.99322 3.63874 3.56271 3.13613C4.1322 2.63351 4.84407 2.25654 5.55593 1.87958C6.2678 1.50262 7.12203 1.37696 7.97627 1.25131C8.83051 1 9.82712 1 10.539 1H11.8203H158.18H159.461C160.173 1 161.169 1 162.166 1.25131C163.02 1.37696 163.732 1.62827 164.586 1.87958C165.298 2.25654 166.01 2.63351 166.58 3.13613C167.149 3.63874 167.719 4.26702 168.003 4.89529C168.43 5.52356 168.573 6.27749 168.715 6.90576C168.858 7.65969 169 8.53927 169 9.29319C169 9.67016 169 10.0471 169 10.4241C169 10.9267 169 11.3037 169 11.8063V38.0681C169 38.5707 169 38.9476 169 39.4503C169 39.8272 169 40.2042 169 40.5812C169 41.3351 168.858 42.089 168.715 42.9686C168.573 43.7225 168.288 44.4764 168.003 45.1047C167.576 45.733 167.149 46.3613 166.58 46.8639C166.01 47.3665 165.298 47.8691 164.586 48.1204C163.875 48.4974 163.163 48.623 162.166 48.7487C161.312 48.8743 160.315 48.8743 159.461 49C159.034 49 158.607 49 158.18 49H156.614H11.8203Z" fill="#45B1F4"/>
<path d="M59.75 33.5H53.875L52.5 37.75H50L55.625 22.25H58.125L63.75 37.75H61.25L59.75 33.5ZM54.5 31.625H59.25L56.875 24.75H56.75L54.5 31.625Z" fill="#E8F8FF"/>
<path d="M75.875 32.1251C75.875 35.6251 74 37.8751 71.125 37.8751C69.5 37.8751 68.25 37.1251 67.625 35.8751V41.5001H65.25V26.5001H67.5V28.3751C68.125 27.1251 69.5 26.3751 71.125 26.3751C73.875 26.2501 75.875 28.6251 75.875 32.1251ZM73.375 32.1251C73.375 29.8751 72.25 28.3751 70.375 28.3751C68.625 28.3751 67.375 29.8751 67.375 32.1251C67.375 34.3751 68.625 35.8751 70.375 35.8751C72.25 35.8751 73.375 34.3751 73.375 32.1251Z" fill="#E8F8FF"/>
<path d="M88.25 32.1251C88.25 35.6251 86.375 37.8751 83.5 37.8751C81.875 37.8751 80.625 37.1251 80 35.8751V41.5001H77.625V26.5001H79.875V28.3751C80.5 27.1251 81.875 26.3751 83.5 26.3751C86.375 26.2501 88.25 28.6251 88.25 32.1251ZM85.875 32.1251C85.875 29.8751 84.75 28.3751 82.875 28.3751C81.125 28.3751 79.875 29.8751 79.875 32.1251C79.875 34.3751 81.125 35.8751 82.875 35.8751C84.75 35.8751 85.875 34.3751 85.875 32.1251Z" fill="#E8F8FF"/>
<path d="M96.5 33.375C96.625 34.875 98.125 35.875 100.25 35.875C102.25 35.875 103.625 34.875 103.625 33.5C103.625 32.25 102.75 31.625 100.75 31.125L98.75 30.625C95.875 29.875 94.625 28.625 94.625 26.5C94.625 23.875 97 22 100.25 22C103.5 22 105.75 23.875 105.875 26.5H103.5C103.375 25 102.125 24 100.25 24C98.375 24 97.125 25 97.125 26.375C97.125 27.5 98 28.125 100 28.625L101.75 29C104.875 29.75 106.25 31 106.25 33.25C106.25 36.125 103.875 38 100.25 38C96.75 38 94.5 36.25 94.375 33.375H96.5Z" fill="#E8F8FF"/>
<path d="M111 23.75V26.375H113.125V28.25H111V34.5C111 35.5 111.375 35.875 112.375 35.875C112.625 35.875 113 35.875 113.125 35.875V37.75C112.875 37.875 112.375 37.875 111.875 37.875C109.625 37.875 108.75 37 108.75 34.875V28.375H107.125V26.5H108.75V23.875H111V23.75Z" fill="#E8F8FF"/>
<path d="M114.5 32.125C114.5 28.625 116.625 26.375 119.875 26.375C123.125 26.375 125.25 28.625 125.25 32.125C125.25 35.75 123.125 37.875 119.875 37.875C116.5 37.875 114.5 35.625 114.5 32.125ZM122.875 32.125C122.875 29.625 121.75 28.25 119.875 28.25C118 28.25 116.875 29.625 116.875 32.125C116.875 34.625 118 36 119.875 36C121.75 36 122.875 34.5 122.875 32.125Z" fill="#E8F8FF"/>
<path d="M127.125 26.375H129.375V28.375C129.75 27.125 130.75 26.375 132.125 26.375C132.5 26.375 132.75 26.375 132.875 26.5V28.625C132.75 28.5 132.25 28.5 131.875 28.5C130.375 28.5 129.5 29.5 129.5 31.125V37.875H127.125V26.375Z" fill="#E8F8FF"/>
<path d="M143.625 34.375C143.375 36.375 141.25 37.875 138.75 37.875C135.5 37.875 133.375 35.625 133.375 32.125C133.375 28.625 135.375 26.25 138.625 26.25C141.75 26.25 143.75 28.375 143.75 31.875V32.625H135.75V32.75C135.75 34.625 137 36 138.75 36C140 36 141 35.375 141.375 34.375H143.625ZM135.75 31H141.375C141.375 29.25 140.25 28.125 138.625 28.125C137 28.125 135.875 29.375 135.75 31Z" fill="#E8F8FF"/>
<path d="M51.75 13.375H52.75C53.625 13.375 54.125 12.875 54.125 12.125C54.125 11.375 53.625 11 52.75 11C51.875 11 51.25 11.5 51.25 12.125H50.125C50.25 10.75 51.25 10 52.75 10C54.25 10 55.25 10.875 55.25 12C55.25 12.875 54.75 13.5 53.875 13.75V13.875C54.875 14 55.5 14.625 55.5 15.625C55.5 16.875 54.25 17.875 52.75 17.875C51.125 17.875 50 17 50 15.625H51.125C51.25 16.375 51.875 16.75 52.875 16.75C53.875 16.75 54.5 16.25 54.5 15.5C54.5 14.75 53.875 14.25 52.875 14.25H51.875V13.375H51.75Z" fill="#E8F8FF"/>
<path d="M56.875 16C56.875 15 57.625 14.375 59 14.375L60.5 14.25V13.75C60.5 13.125 60.125 12.875 59.375 12.875C58.75 12.875 58.375 13.125 58.25 13.5H57.125C57.25 12.5 58.125 11.875 59.375 11.875C60.75 11.875 61.625 12.625 61.625 13.75V17.625H60.5V16.875H60.375C60 17.5 59.375 17.75 58.625 17.75C57.75 17.75 56.875 17 56.875 16ZM60.5 15.5V15L59.125 15.125C58.375 15.125 58 15.5 58 15.875C58 16.375 58.5 16.625 59 16.625C59.875 16.75 60.5 16.25 60.5 15.5Z" fill="#E8F8FF"/>
<path d="M64.625 12.875V17.625H63.5V12H67.25V12.875H64.625Z" fill="#E8F8FF"/>
<path d="M73.875 14.75C73.875 16.5 73 17.625 71.5 17.625C70.75 17.625 70 17.25 69.75 16.625H69.625V19.375H68.5V11.875H69.625V12.75H69.75C70.125 12.125 70.75 11.75 71.5 11.75C73 11.875 73.875 13 73.875 14.75ZM72.75 14.75C72.75 13.5 72.125 12.875 71.25 12.875C70.375 12.875 69.75 13.625 69.75 14.75C69.75 15.875 70.375 16.625 71.25 16.625C72.25 16.75 72.75 16 72.75 14.75Z" fill="#E8F8FF"/>
<path d="M75.375 19.625V18.625C75.5 18.625 75.625 18.625 75.75 18.625C76.25 18.625 76.625 18.375 76.75 17.875L76.875 17.625L74.875 12H76.125L77.5 16.5H77.625L79 12H80.125L78 17.875C77.5 19.25 77 19.625 75.875 19.625C75.75 19.625 75.5 19.625 75.375 19.625Z" fill="#E8F8FF"/>
<path d="M81 16H82.125C82.25 16.5 82.75 16.75 83.375 16.75C84.125 16.75 84.625 16.375 84.625 15.875C84.625 15.375 84.25 15.125 83.375 15.125H82.5V14.25H83.375C84 14.25 84.375 14 84.375 13.5C84.375 13.125 84 12.75 83.375 12.75C82.75 12.75 82.25 13 82.25 13.5H81.125C81.25 12.5 82.125 11.875 83.375 11.875C84.75 11.875 85.5 12.5 85.5 13.375C85.5 14 85.125 14.375 84.625 14.5V14.625C85.375 14.75 85.75 15.25 85.75 15.875C85.75 17 84.875 17.625 83.5 17.625C82.125 17.75 81.125 17.125 81 16Z" fill="#E8F8FF"/>
<path d="M87.25 17.625V12H88.375V15.875L91 12H92.125V17.625H91V13.75H90.875L88.25 17.625H87.25Z" fill="#E8F8FF"/>
<path d="M98.125 12.875H96.375V17.625H95.25V12.875H93.5V12H98.125V12.875Z" fill="#E8F8FF"/>
<path d="M104.125 16.125C103.875 17.125 103 17.75 101.625 17.75C100 17.75 99 16.625 99 14.875C99 13.125 100 11.875 101.625 11.875C103.25 11.875 104.125 13 104.125 14.75V15.125H100.125C100.125 16.125 100.75 16.75 101.625 16.75C102.25 16.75 102.75 16.5 103 16.125H104.125ZM100.25 14.25H103.125C103.125 13.375 102.5 12.75 101.75 12.75C100.875 12.875 100.25 13.375 100.25 14.25Z" fill="#E8F8FF"/>
<path d="M108.875 12H111.375C112.5 12 113.125 12.5 113.125 13.375C113.125 14 112.75 14.5 112.125 14.625V14.75C112.875 14.875 113.375 15.375 113.375 16C113.375 17 112.625 17.625 111.375 17.625H108.75V12H108.875ZM110 12.875V14.25H111.125C111.75 14.25 112.125 14 112.125 13.5C112.125 13 111.875 12.75 111.25 12.75H110V12.875ZM110 15.125V16.75H111.375C112 16.75 112.375 16.5 112.375 15.875C112.375 15.25 112 15 111.25 15H110V15.125Z" fill="#E8F8FF"/>
<path d="M31.2324 24.9677C31.2324 21.3548 34.2205 19.6774 34.3504 19.5484C32.6615 17.0968 30.0632 16.8387 29.1538 16.7097C26.9452 16.4516 24.8665 18 23.6973 18C22.5281 18 20.8392 16.7097 19.0203 16.7097C16.6818 16.7097 14.4733 18.129 13.1741 20.1935C10.7057 24.4516 12.5245 30.9032 14.9929 34.3871C16.1622 36.0645 17.5913 38 19.4101 38C21.2289 37.871 21.8785 36.8387 24.0871 36.8387C26.2956 36.8387 26.8153 38 28.764 38C30.7128 38 31.882 36.3226 33.0513 34.5161C34.4803 32.5806 35 30.6452 35 30.5161C35 30.6452 31.2324 29.2258 31.2324 24.9677Z" fill="#E8F8FF"/>
<path d="M27.5948 14.5161C28.5042 13.3548 29.2837 11.6774 29.0239 10C27.5948 10 25.9059 10.9032 24.8665 12.1935C23.9571 13.2258 23.1776 14.9032 23.4375 16.5806C24.9965 16.5806 26.6854 15.6774 27.5948 14.5161Z" fill="#E8F8FF"/>
</svg>
