<svg width="130" height="40" viewBox="0 0 130 40" fill="none" xmlns="http://www.w3.org/2000/svg">
<path d="M119.674 0H10.3261C10 0 9.56522 0 9.13043 0C8.80435 0 8.47826 0 8.15217 0C7.3913 0 6.73913 0.1 5.97826 0.2C5.21739 0.3 4.56522 0.5 3.91304 0.8C3.26087 1.1 2.71739 1.5 2.17391 2C1.63043 2.5 1.19565 3 0.869565 3.6C0.543478 4.2 0.326087 4.9 0.217391 5.5C0.108696 6.2 0 6.9 0 7.5C0 7.8 0 8.1 0 8.4C0 8.8 0 9.1 0 9.5V30.4C0 30.8 0 31.1 0 31.5C0 31.8 0 32.1 0 32.4C0 33.1 0.108696 33.7 0.217391 34.4C0.326087 35.1 0.543478 35.7 0.869565 36.3C1.19565 37 1.63043 37.5 2.17391 38C2.71739 38.5 3.26087 38.9 3.91304 39.2C4.56522 39.5 5.21739 39.7 5.97826 39.8C6.73913 39.9 7.3913 40 8.15217 40C8.47826 40 8.80435 40 9.13043 40C9.56522 40 9.8913 40 10.3261 40H119.674C120.109 40 120.435 40 120.87 40C121.196 40 121.522 40 121.848 40C122.609 40 123.261 39.9 124.022 39.8C124.783 39.7 125.435 39.5 126.087 39.2C126.739 38.9 127.283 38.5 127.826 38C128.37 37.5 128.804 37 129.13 36.4C129.457 35.8 129.674 35.2 129.783 34.5C129.891 33.8 130 33.2 130 32.5C130 32.2 130 31.9 130 31.6C130 31.2 130 30.9 130 30.5V9.5C130 9.1 130 8.8 130 8.4C130 8.1 130 7.8 130 7.5C130 6.8 129.891 6.2 129.783 5.5C129.674 4.8 129.457 4.2 129.13 3.6C128.804 3 128.37 2.5 127.826 2C127.283 1.5 126.739 1.1 126.087 0.8C125.435 0.5 124.783 0.3 124.022 0.2C123.261 0.1 122.609 0 121.848 0C121.522 0 121.196 0 120.87 0C120.543 0 120.109 0 119.674 0Z" fill="white"/>
<path d="M9.24407 39C8.91864 39 8.59322 39 8.2678 39C7.61695 39 6.9661 39 6.20678 38.8011C5.55593 38.7016 4.90508 38.5026 4.36271 38.3037C3.82034 38.0052 3.27797 37.7068 2.84407 37.3089C2.41017 36.911 1.97627 36.4136 1.75932 35.9162C1.4339 35.4188 1.32542 34.9215 1.21695 34.2251C1.10847 33.5288 1 32.8325 1 32.3351C1 32.1361 1 31.4398 1 31.4398V8.46073C1 8.46073 1 7.7644 1 7.56545C1 7.06806 1 6.37173 1.21695 5.67539C1.4339 5.17801 1.54237 4.58115 1.8678 4.08377C2.19322 3.58639 2.51864 3.08901 2.95254 2.6911C3.38644 2.29319 3.92881 1.99476 4.47119 1.69634C5.01356 1.39791 5.66441 1.29843 6.31525 1.19895C6.9661 1 7.72542 1 8.2678 1H9.24407H120.756H121.732C122.275 1 123.034 1 123.793 1.19895C124.444 1.29843 124.986 1.49738 125.637 1.69634C126.18 1.99476 126.722 2.29319 127.156 2.6911C127.59 3.08901 128.024 3.58639 128.241 4.08377C128.566 4.58115 128.675 5.17801 128.783 5.67539C128.892 6.27225 129 6.96859 129 7.56545C129 7.86387 129 8.1623 129 8.46073C129 8.85864 129 9.15707 129 9.55498V30.3456C129 30.7435 129 31.0419 129 31.4398C129 31.7382 129 32.0367 129 32.3351C129 32.9319 128.892 33.5288 128.783 34.2251C128.675 34.822 128.458 35.4188 128.241 35.9162C127.915 36.4136 127.59 36.911 127.156 37.3089C126.722 37.7068 126.18 38.1047 125.637 38.3037C125.095 38.6021 124.553 38.7016 123.793 38.8011C123.142 38.9005 122.383 38.9005 121.732 39C121.407 39 121.081 39 120.756 39H119.563H9.24407Z" fill="#45B1F4"/>
<path d="M47.8 27.2002H43.1L42 30.6002H40L44.5 18.2002H46.5L51 30.6002H49L47.8 27.2002ZM43.6 25.7002H47.4L45.5 20.2002H45.4L43.6 25.7002Z" fill="white"/>
<path d="M60.7 26.0999C60.7 28.8999 59.2 30.6999 56.9 30.6999C55.6 30.6999 54.6 30.0999 54.1 29.0999V33.5999H52.2V21.5999H54V23.0999C54.5 22.0999 55.6 21.4999 56.9 21.4999C59.1 21.3999 60.7 23.2999 60.7 26.0999ZM58.7 26.0999C58.7 24.2999 57.8 23.0999 56.3 23.0999C54.9 23.0999 53.9 24.2999 53.9 26.0999C53.9 27.8999 54.9 29.0999 56.3 29.0999C57.8 29.0999 58.7 27.8999 58.7 26.0999Z" fill="white"/>
<path d="M70.6 26.0999C70.6 28.8999 69.1 30.6999 66.8 30.6999C65.5 30.6999 64.5 30.0999 64 29.0999V33.5999H62.1V21.5999H63.9V23.0999C64.4 22.0999 65.5 21.4999 66.8 21.4999C69.1 21.3999 70.6 23.2999 70.6 26.0999ZM68.7 26.0999C68.7 24.2999 67.8 23.0999 66.3 23.0999C64.9 23.0999 63.9 24.2999 63.9 26.0999C63.9 27.8999 64.9 29.0999 66.3 29.0999C67.8 29.0999 68.7 27.8999 68.7 26.0999Z" fill="white"/>
<path d="M77.2 27.1C77.3 28.3 78.5 29.1 80.2 29.1C81.8 29.1 82.9 28.3 82.9 27.2C82.9 26.2 82.2 25.7 80.6 25.3L79 24.9C76.7 24.3 75.7 23.3 75.7 21.6C75.7 19.5 77.6 18 80.2 18C82.8 18 84.6 19.5 84.7 21.6H82.8C82.7 20.4 81.7 19.6 80.2 19.6C78.7 19.6 77.7 20.4 77.7 21.5C77.7 22.4 78.4 22.9 80 23.3L81.4 23.6C83.9 24.2 85 25.2 85 27C85 29.3 83.1 30.8 80.2 30.8C77.4 30.8 75.6 29.4 75.5 27.1H77.2Z" fill="white"/>
<path d="M88.8 19.3999V21.4999H90.5V22.9999H88.8V27.9999C88.8 28.7999 89.1 29.0999 89.9 29.0999C90.1 29.0999 90.4 29.0999 90.5 29.0999V30.5999C90.3 30.6999 89.9 30.6999 89.5 30.6999C87.7 30.6999 87 29.9999 87 28.2999V23.0999H85.7V21.5999H87V19.4999H88.8V19.3999Z" fill="white"/>
<path d="M91.6 26.1C91.6 23.3 93.3 21.5 95.9 21.5C98.5 21.5 100.2 23.3 100.2 26.1C100.2 29 98.5 30.7 95.9 30.7C93.2 30.7 91.6 28.9 91.6 26.1ZM98.3 26.1C98.3 24.1 97.4 23 95.9 23C94.4 23 93.5 24.1 93.5 26.1C93.5 28.1 94.4 29.2 95.9 29.2C97.4 29.2 98.3 28 98.3 26.1Z" fill="white"/>
<path d="M101.7 21.5H103.5V23.1C103.8 22.1 104.6 21.5 105.7 21.5C106 21.5 106.2 21.5 106.3 21.6V23.3C106.2 23.2 105.8 23.2 105.5 23.2C104.3 23.2 103.6 24 103.6 25.3V30.7H101.7V21.5Z" fill="white"/>
<path d="M114.9 27.8999C114.7 29.4999 113 30.6999 111 30.6999C108.4 30.6999 106.7 28.8999 106.7 26.0999C106.7 23.2999 108.3 21.3999 110.9 21.3999C113.4 21.3999 115 23.0999 115 25.8999V26.4999H108.6V26.5999C108.6 28.0999 109.6 29.1999 111 29.1999C112 29.1999 112.8 28.6999 113.1 27.8999H114.9ZM108.6 25.1999H113.1C113.1 23.7999 112.2 22.8999 110.9 22.8999C109.6 22.8999 108.7 23.8999 108.6 25.1999Z" fill="white"/>
<path d="M41.4 11.7H42.2C42.9 11.7 43.3 11.3 43.3 10.7C43.3 10.1 42.9 9.8 42.2 9.8C41.5 9.8 41 10.2 41 10.7H40.1C40.2 9.6 41 9 42.2 9C43.4 9 44.2 9.7 44.2 10.6C44.2 11.3 43.8 11.8 43.1 12V12.1C43.9 12.2 44.4 12.7 44.4 13.5C44.4 14.5 43.4 15.3 42.2 15.3C40.9 15.3 40 14.6 40 13.5H40.9C41 14.1 41.5 14.4 42.3 14.4C43.1 14.4 43.6 14 43.6 13.4C43.6 12.8 43.1 12.4 42.3 12.4H41.5V11.7H41.4Z" fill="white"/>
<path d="M45.5 13.8C45.5 13 46.1 12.5 47.2 12.5L48.4 12.4V12C48.4 11.5 48.1 11.3 47.5 11.3C47 11.3 46.7 11.5 46.6 11.8H45.7C45.8 11 46.5 10.5 47.5 10.5C48.6 10.5 49.3 11.1 49.3 12V15.1H48.4V14.5H48.3C48 15 47.5 15.2 46.9 15.2C46.2 15.2 45.5 14.6 45.5 13.8ZM48.4 13.4V13L47.3 13.1C46.7 13.1 46.4 13.4 46.4 13.7C46.4 14.1 46.8 14.3 47.2 14.3C47.9 14.4 48.4 14 48.4 13.4Z" fill="white"/>
<path d="M51.7 11.3001V15.1001H50.8V10.6001H53.8V11.3001H51.7Z" fill="white"/>
<path d="M59.1 12.7999C59.1 14.1999 58.4 15.0999 57.2 15.0999C56.6 15.0999 56 14.7999 55.8 14.2999H55.7V16.4999H54.8V10.4999H55.7V11.1999H55.8C56.1 10.6999 56.6 10.3999 57.2 10.3999C58.4 10.4999 59.1 11.3999 59.1 12.7999ZM58.2 12.7999C58.2 11.7999 57.7 11.2999 57 11.2999C56.3 11.2999 55.8 11.8999 55.8 12.7999C55.8 13.6999 56.3 14.2999 57 14.2999C57.8 14.3999 58.2 13.7999 58.2 12.7999Z" fill="white"/>
<path d="M60.3 16.7001V15.9001C60.4 15.9001 60.5 15.9001 60.6 15.9001C61 15.9001 61.3 15.7001 61.4 15.3001L61.5 15.1001L59.9 10.6001H60.9L62 14.2001H62.1L63.2 10.6001H64.1L62.4 15.3001C62 16.4001 61.6 16.7001 60.7 16.7001C60.6 16.7001 60.4 16.7001 60.3 16.7001Z" fill="white"/>
<path d="M64.8 13.8H65.7C65.8 14.2 66.2 14.4 66.7 14.4C67.3 14.4 67.7 14.1 67.7 13.7C67.7 13.3 67.4 13.1 66.7 13.1H66V12.4H66.7C67.2 12.4 67.5 12.2 67.5 11.8C67.5 11.5 67.2 11.2 66.7 11.2C66.2 11.2 65.8 11.4 65.8 11.8H64.9C65 11 65.7 10.5 66.7 10.5C67.8 10.5 68.4 11 68.4 11.7C68.4 12.2 68.1 12.5 67.7 12.6V12.7C68.3 12.8 68.6 13.2 68.6 13.7C68.6 14.6 67.9 15.1 66.8 15.1C65.7 15.2 64.9 14.7 64.8 13.8Z" fill="white"/>
<path d="M69.8 15.1001V10.6001H70.7V13.7001L72.8 10.6001H73.7V15.1001H72.8V12.0001H72.7L70.6 15.1001H69.8Z" fill="white"/>
<path d="M78.5 11.3001H77.1V15.1001H76.2V11.3001H74.8V10.6001H78.5V11.3001Z" fill="white"/>
<path d="M83.3 13.9C83.1 14.7 82.4 15.2 81.3 15.2C80 15.2 79.2 14.3 79.2 12.9C79.2 11.5 80 10.5 81.3 10.5C82.6 10.5 83.3 11.4 83.3 12.8V13.1H80.1C80.1 13.9 80.6 14.4 81.3 14.4C81.8 14.4 82.2 14.2 82.4 13.9H83.3ZM80.2 12.4H82.5C82.5 11.7 82 11.2 81.4 11.2C80.7 11.3 80.2 11.7 80.2 12.4Z" fill="white"/>
<path d="M87.1 10.6001H89.1C90 10.6001 90.5 11.0001 90.5 11.7001C90.5 12.2001 90.2 12.6001 89.7 12.7001V12.8001C90.3 12.9001 90.7 13.3001 90.7 13.8001C90.7 14.6001 90.1 15.1001 89.1 15.1001H87V10.6001H87.1ZM88 11.3001V12.4001H88.9C89.4 12.4001 89.7 12.2001 89.7 11.8001C89.7 11.4001 89.5 11.2001 89 11.2001H88V11.3001ZM88 13.1001V14.4001H89.1C89.6 14.4001 89.9 14.2001 89.9 13.7001C89.9 13.2001 89.6 13.0001 89 13.0001H88V13.1001Z" fill="white"/>
<path d="M26.0477 20.7603C26.0477 17.9216 28.3862 16.6036 28.4879 16.5022C27.1661 14.576 25.1327 14.3732 24.4209 14.2718C22.6925 14.0691 21.0657 15.2856 20.1507 15.2856C19.2356 15.2856 17.9138 14.2718 16.4904 14.2718C14.6603 14.2718 12.9318 15.387 11.9151 17.0091C9.98332 20.3548 11.4067 25.4239 13.3385 28.1612C14.2536 29.4792 15.372 30.9999 16.7954 30.9999C18.2189 30.8985 18.7272 30.0875 20.4557 30.0875C22.1841 30.0875 22.5908 30.9999 24.1159 30.9999C25.641 30.9999 26.5561 29.682 27.4711 28.2626C28.5896 26.7419 28.9962 25.2211 28.9962 25.1197C28.9962 25.2211 26.0477 24.1059 26.0477 20.7603Z" fill="white"/>
<path d="M23.2008 12.5484C23.9126 11.6359 24.5226 10.318 24.3193 9C23.2009 9 21.8791 9.70968 21.0657 10.7235C20.354 11.5346 19.744 12.8525 19.9473 14.1705C21.1674 14.1705 22.4891 13.4608 23.2008 12.5484Z" fill="white"/>
</svg>
