<svg width="130" height="40" viewBox="0 0 130 40" fill="none" xmlns="http://www.w3.org/2000/svg">
<path d="M125.185 40H4.81482C2.11852 40 0 37.8 0 35V5C0 2.2 2.11852 0 4.81482 0H125.185C127.881 0 130 2.2 130 5V35C130 37.8 127.881 40 125.185 40Z" fill="#304960"/>
<path d="M125.185 0.8C127.4 0.8 129.23 2.7 129.23 5V35C129.23 37.3 127.4 39.2 125.185 39.2H4.81482C2.6 39.2 0.77037 37.3 0.77037 35V5C0.77037 2.7 2.6 0.8 4.81482 0.8H125.185ZM125.185 0H4.81482C2.11852 0 0 2.3 0 5V35C0 37.8 2.11852 40 4.81482 40H125.185C127.881 40 130 37.8 130 35V5C130 2.3 127.881 0 125.185 0Z" fill="white"/>
<path d="M63.9645 22.1716C61.8343 22.1716 60.1479 23.7692 60.1479 25.9882C60.1479 28.1183 61.8343 29.8047 63.9645 29.8047C66.0947 29.8047 67.7811 28.2071 67.7811 25.9882C67.7811 23.6805 66.0947 22.1716 63.9645 22.1716ZM63.9645 28.2071C62.8106 28.2071 61.8343 27.2308 61.8343 25.8994C61.8343 24.568 62.8106 23.5917 63.9645 23.5917C65.1183 23.5917 66.0947 24.4793 66.0947 25.8994C66.0947 27.2308 65.1183 28.2071 63.9645 28.2071ZM55.7101 22.1716C53.5799 22.1716 51.8935 23.7692 51.8935 25.9882C51.8935 28.1183 53.5799 29.8047 55.7101 29.8047C57.8402 29.8047 59.5266 28.2071 59.5266 25.9882C59.5266 23.6805 57.8402 22.1716 55.7101 22.1716ZM55.7101 28.2071C54.5562 28.2071 53.5799 27.2308 53.5799 25.8994C53.5799 24.568 54.5562 23.5917 55.7101 23.5917C56.8639 23.5917 57.8402 24.4793 57.8402 25.8994C57.8402 27.2308 56.8639 28.2071 55.7101 28.2071ZM45.858 23.3254V24.9231H49.6746C49.5858 25.8107 49.2308 26.5207 48.787 26.9645C48.2544 27.497 47.3669 28.1183 45.858 28.1183C43.4615 28.1183 41.6864 26.2544 41.6864 23.858C41.6864 21.4615 43.5503 19.5976 45.858 19.5976C47.1006 19.5976 48.0769 20.1302 48.787 20.7515L49.9408 19.5976C48.9645 18.7101 47.7219 18 45.9467 18C42.7515 18 40 20.6627 40 23.858C40 27.0533 42.7515 29.716 45.9467 29.716C47.7219 29.716 48.9645 29.1834 50.0296 28.0296C51.0947 26.9645 51.4497 25.4556 51.4497 24.3018C51.4497 23.9467 51.4497 23.5917 51.3609 23.3254H45.858ZM86.1538 24.568C85.7988 23.6805 84.9112 22.1716 82.9586 22.1716C81.0059 22.1716 79.4083 23.6805 79.4083 25.9882C79.4083 28.1183 81.0059 29.8047 83.1361 29.8047C84.8225 29.8047 85.8876 28.7396 86.2426 28.1183L85 27.2308C84.5562 27.8521 84.0237 28.2959 83.1361 28.2959C82.2485 28.2959 81.716 27.9408 81.2722 27.142L86.3314 25.0118L86.1538 24.568ZM81.0059 25.8107C81.0059 24.3905 82.1598 23.5917 82.9586 23.5917C83.5799 23.5917 84.2012 23.9467 84.3787 24.3905L81.0059 25.8107ZM76.8343 29.4497H78.5207V18.355H76.8343V29.4497ZM74.1716 22.9704C73.7278 22.5266 73.0178 22.0828 72.1302 22.0828C70.2663 22.0828 68.4911 23.7692 68.4911 25.8994C68.4911 28.0296 70.1775 29.6272 72.1302 29.6272C73.0178 29.6272 73.7278 29.1834 74.0828 28.7396H74.1716V29.2722C74.1716 30.6923 73.3728 31.4911 72.1302 31.4911C71.1538 31.4911 70.4438 30.7811 70.2663 30.1598L68.8462 30.7811C69.2899 31.7574 70.355 33 72.2189 33C74.1716 33 75.7692 31.8462 75.7692 29.0947V22.3491H74.1716V22.9704ZM72.2189 28.2071C71.0651 28.2071 70.0888 27.2308 70.0888 25.8994C70.0888 24.568 71.0651 23.5917 72.2189 23.5917C73.3728 23.5917 74.2603 24.568 74.2603 25.8994C74.2603 27.2308 73.3728 28.2071 72.2189 28.2071ZM93.8757 18.355H89.8817V29.4497H91.568V25.2781H93.8757C95.7396 25.2781 97.5148 23.9467 97.5148 21.8166C97.5148 19.6864 95.7396 18.355 93.8757 18.355ZM93.9645 23.6805H91.568V19.8639H93.9645C95.2071 19.8639 95.9172 20.929 95.9172 21.7278C95.8284 22.7041 95.1183 23.6805 93.9645 23.6805ZM104.172 22.0828C102.929 22.0828 101.686 22.6154 101.243 23.7692L102.751 24.3905C103.107 23.7692 103.639 23.5917 104.26 23.5917C105.148 23.5917 105.947 24.1243 106.035 25.0118V25.1006C105.769 24.9231 105.059 24.6568 104.349 24.6568C102.751 24.6568 101.154 25.5444 101.154 27.142C101.154 28.6509 102.485 29.6272 103.905 29.6272C105.059 29.6272 105.592 29.0947 106.035 28.5621H106.124V29.4497H107.722V25.1893C107.544 23.2367 106.035 22.0828 104.172 22.0828ZM103.994 28.2071C103.462 28.2071 102.663 27.9408 102.663 27.2308C102.663 26.3432 103.639 26.0769 104.438 26.0769C105.148 26.0769 105.503 26.2544 105.947 26.432C105.769 27.497 104.882 28.2071 103.994 28.2071ZM113.314 22.3491L111.45 27.142H111.361L109.408 22.3491H107.633L110.562 29.0947L108.876 32.8225H110.562L115.089 22.3491H113.314ZM98.4024 29.4497H100.089V18.355H98.4024V29.4497Z" fill="white"/>
<path d="M40.8 14.3H40V12.3H40.6C41.1 11.9 41.4 11.1 41.4 10V7H45.4V12.3H46.1V14.3H45.4V13H40.8V14.3ZM42 10C42 10.9 41.9 11.7 41.5 12.3H44.5V7.7H42V10Z" fill="white" stroke="white" stroke-width="0.2" stroke-miterlimit="10"/>
<path d="M52 12.1999C51.4 12.7999 50.7 13.0999 49.8 13.0999C48.9 13.0999 48.2 12.7999 47.6 12.1999C47 11.5999 46.7 10.8999 46.7 9.9999C46.7 9.0999 47 8.3999 47.6 7.7999C48.2 7.1999 48.9 6.8999 49.8 6.8999C50.7 6.8999 51.4 7.1999 52 7.7999C52.6 8.3999 52.9 9.0999 52.9 9.9999C52.9 10.8999 52.6 11.5999 52 12.1999ZM48.2 11.6999C48.6 12.0999 49.2 12.3999 49.8 12.3999C50.4 12.3999 51 12.1999 51.4 11.6999C51.8 11.2999 52.1 10.6999 52.1 9.9999C52.1 9.2999 51.9 8.6999 51.4 8.2999C51 7.8999 50.4 7.5999 49.8 7.5999C49.2 7.5999 48.6 7.7999 48.2 8.2999C47.8 8.6999 47.5 9.2999 47.5 9.9999C47.5 10.6999 47.7 11.2999 48.2 11.6999Z" fill="white" stroke="white" stroke-width="0.2" stroke-miterlimit="10"/>
<path d="M56.8 13.0999C55.9 13.0999 55.2 12.7999 54.6 12.1999C54 11.5999 53.7 10.8999 53.7 9.9999C53.7 9.0999 54 8.3999 54.6 7.7999C55.2 7.1999 55.9 6.8999 56.8 6.8999C57.7 6.8999 58.4 7.1999 59 7.8999L58.5 8.3999C58.1 7.8999 57.5 7.5999 56.8 7.5999C56.1 7.5999 55.6 7.7999 55.1 8.2999C54.6 8.6999 54.4 9.2999 54.4 9.9999C54.4 10.6999 54.6 11.2999 55.1 11.6999C55.5 12.0999 56.1 12.3999 56.8 12.3999C57.5 12.3999 58.1 12.0999 58.6 11.4999L59.1 11.9999C58.8 12.2999 58.5 12.5999 58.1 12.7999C57.7 12.9999 57.3 13.0999 56.8 13.0999Z" fill="white" stroke="white" stroke-width="0.2" stroke-miterlimit="10"/>
<path d="M62.2 13H61.5V7.7H59.8V7H63.9V7.7H62.2V13Z" fill="white" stroke="white" stroke-width="0.2" stroke-miterlimit="10"/>
<path d="M69.2 7L66.9 12.1C66.6 12.8 66.1 13.2 65.5 13.2C65.3 13.2 65.1 13.2 64.9 13.1L65.1 12.4C65.2 12.5 65.4 12.5 65.5 12.5C65.7 12.5 65.8 12.5 65.9 12.4C66 12.3 66.1 12.2 66.2 12L66.4 11.5L64.4 7.1H65.3L66.8 10.5L68.3 7H69.2Z" fill="white" stroke="white" stroke-width="0.2" stroke-miterlimit="10"/>
<path d="M70.1 13V7H74.4V13H73.6V7.7H70.8V13H70.1Z" fill="white" stroke="white" stroke-width="0.2" stroke-miterlimit="10"/>
<path d="M75.8 13V7H76.6V9.6H79.6V7H80.4V13H79.6V10.3H76.6V13H75.8Z" fill="white" stroke="white" stroke-width="0.2" stroke-miterlimit="10"/>
<path d="M86.7 12.1999C86.1 12.7999 85.4 13.0999 84.5 13.0999C83.6 13.0999 82.9 12.7999 82.3 12.1999C81.7 11.5999 81.4 10.8999 81.4 9.9999C81.4 9.0999 81.7 8.3999 82.3 7.7999C82.9 7.1999 83.6 6.8999 84.5 6.8999C85.4 6.8999 86.1 7.1999 86.7 7.7999C87.3 8.3999 87.6 9.0999 87.6 9.9999C87.5 10.9999 87.2 11.5999 86.7 12.1999ZM82.8 11.6999C83.2 12.0999 83.8 12.3999 84.4 12.3999C85 12.3999 85.6 12.1999 86 11.6999C86.4 11.2999 86.7 10.6999 86.7 9.9999C86.7 9.2999 86.5 8.6999 86 8.2999C85.6 7.8999 85 7.5999 84.4 7.5999C83.8 7.5999 83.2 7.7999 82.8 8.2999C82.4 8.6999 82.1 9.2999 82.1 9.9999C82.1 10.6999 82.4 11.2999 82.8 11.6999Z" fill="white" stroke="white" stroke-width="0.2" stroke-miterlimit="10"/>
<path d="M90.7 13V7H92.9C93.4 7 93.8 7.2 94.1 7.5C94.4 7.8 94.6 8.2 94.6 8.6C94.6 8.9 94.5 9.1 94.4 9.4C94.3 9.6 94.1 9.8 93.8 9.9C94.1 10 94.3 10.2 94.5 10.4C94.7 10.6 94.8 10.9 94.8 11.3C94.8 11.8 94.6 12.2 94.3 12.5C93.9 12.8 93.5 13 93 13H90.7ZM91.5 9.6H92.9C93.2 9.6 93.4 9.5 93.6 9.3C93.8 9.1 93.9 8.9 93.9 8.7C93.9 8.5 93.8 8.27344 93.6 8C93.4 7.8 93.2 7.7 92.9 7.7H91.5V9.6ZM91.5 12.3H93.1C93.4 12.3 93.6 12.2 93.8 12C94 11.8 94.1 11.6 94.1 11.3C94.1 11.1 94 10.8 93.8 10.6C93.6 10.4 93.4 10.3 93.1 10.3H91.6V12.3H91.5Z" fill="white" stroke="white" stroke-width="0.2" stroke-miterlimit="10"/>
<path d="M10.4 7.35303C10.1 7.65303 10 8.15303 10 8.75303V30.853C10 31.453 10.2 31.953 10.5 32.253L10.6 32.353L23 19.953V19.853V19.753L10.4 7.35303Z" fill="url(#paint0_linear)"/>
<path d="M27 24.1528L22.9 20.0528V19.8528V19.7528L27 15.6528L27.1 15.7528L32 18.5528C33.4 19.3528 33.4 20.6528 32 21.4528L27 24.1528Z" fill="url(#paint1_linear)"/>
<path d="M27.1 24.053L22.9 19.853L10.4 32.353C10.9 32.853 11.6 32.853 12.5 32.453L27.1 24.053Z" fill="url(#paint2_linear)"/>
<path d="M27.1 15.6527L12.5 7.35265C11.6 6.85265 10.9 6.95265 10.4 7.45265L22.9 19.8527L27.1 15.6527Z" fill="url(#paint3_linear)"/>
<path opacity="0.2" d="M27 23.9526L12.5 32.1526C11.7 32.6526 11 32.5526 10.5 32.1526L10.4 32.2526L10.5 32.3526C11 32.7526 11.7 32.8526 12.5 32.3526L27 23.9526Z" fill="#304960"/>
<path opacity="0.12" d="M10.4 32.1524C10.1 31.8524 10 31.3524 10 30.7524V30.8524C10 31.4524 10.2 31.9524 10.5 32.2524V32.1524H10.4Z" fill="#304960"/>
<path opacity="0.12" d="M32 21.153L27 23.953L27.1 24.053L32 21.253C32.7 20.853 33 20.353 33 19.853C33 20.353 32.6 20.753 32 21.153Z" fill="#304960"/>
<path opacity="0.25" d="M12.5 7.45281L32 18.5528C32.6 18.9528 33 19.3528 33 19.8528C33 19.3528 32.7 18.8528 32 18.4528L12.5 7.35281C11.1 6.55281 10 7.15281 10 8.75281V8.85281C10 7.35281 11.1 6.65281 12.5 7.45281Z" fill="white"/>
<defs>
<linearGradient id="paint0_linear" x1="21.7996" y1="8.56283" x2="5.0172" y2="25.3452" gradientUnits="userSpaceOnUse">
<stop stop-color="#00A0FF"/>
<stop offset="0.00657445" stop-color="#00A1FF"/>
<stop offset="0.2601" stop-color="#00BEFF"/>
<stop offset="0.5122" stop-color="#00D2FF"/>
<stop offset="0.7604" stop-color="#00DFFF"/>
<stop offset="1" stop-color="#00E3FF"/>
</linearGradient>
<linearGradient id="paint1_linear" x1="33.8343" y1="19.8543" x2="9.63739" y2="19.8543" gradientUnits="userSpaceOnUse">
<stop stop-color="#FFE000"/>
<stop offset="0.4087" stop-color="#FFBD00"/>
<stop offset="0.7754" stop-color="#FFA500"/>
<stop offset="1" stop-color="#FF9C00"/>
</linearGradient>
<linearGradient id="paint2_linear" x1="24.8269" y1="22.1492" x2="2.0686" y2="44.9075" gradientUnits="userSpaceOnUse">
<stop stop-color="#FF3A44"/>
<stop offset="1" stop-color="#C31162"/>
</linearGradient>
<linearGradient id="paint3_linear" x1="7.29719" y1="0.0289507" x2="17.4598" y2="10.1915" gradientUnits="userSpaceOnUse">
<stop stop-color="#32A071"/>
<stop offset="0.0685" stop-color="#2DA771"/>
<stop offset="0.4762" stop-color="#15CF74"/>
<stop offset="0.8009" stop-color="#06E775"/>
<stop offset="1" stop-color="#00F076"/>
</linearGradient>
</defs>
</svg>
