<svg width="26" height="26" viewBox="0 0 26 26" fill="none" xmlns="http://www.w3.org/2000/svg">
<path d="M22.6 13V25H3.40002V13" stroke="#17C5CC" stroke-width="2" stroke-linecap="round" stroke-linejoin="round"/>
<path d="M25 7H1V12.9999H25V7Z" stroke="#17C5CC" stroke-width="2" stroke-linecap="round" stroke-linejoin="round"/>
<path d="M13 24.9999V7" stroke="#17C5CC" stroke-width="2" stroke-linecap="round" stroke-linejoin="round"/>
<path d="M13 7.00012H7.59998C6.80433 7.00012 6.04127 6.68404 5.47866 6.12142C4.91605 5.5588 4.59998 4.79573 4.59998 4.00006C4.59998 3.20439 4.91605 2.44132 5.47866 1.8787C6.04127 1.31608 6.80433 1 7.59998 1C11.8 1 13 7.00012 13 7.00012Z" stroke="#17C5CC" stroke-width="2" stroke-linecap="round" stroke-linejoin="round"/>
<path d="M13 7.00012H18.4C19.1957 7.00012 19.9587 6.68404 20.5213 6.12142C21.084 5.5588 21.4 4.79573 21.4 4.00006C21.4 3.20439 21.084 2.44132 20.5213 1.8787C19.9587 1.31608 19.1957 1 18.4 1C14.2 1 13 7.00012 13 7.00012Z" stroke="#17C5CC" stroke-width="2" stroke-linecap="round" stroke-linejoin="round"/>
</svg>
