<svg width="170" height="50" viewBox="0 0 170 50" fill="none" xmlns="http://www.w3.org/2000/svg">
<path d="M163.704 50H6.2963C2.77037 50 0 47.25 0 43.75V6.25C0 2.75 2.77037 0 6.2963 0H163.704C167.23 0 170 2.75 170 6.25V43.75C170 47.25 167.23 50 163.704 50Z" fill="#45B1F4"/>
<path d="M163.704 1C166.6 1 168.993 3.375 168.993 6.25V43.75C168.993 46.625 166.6 49 163.704 49H6.2963C3.4 49 1.00741 46.625 1.00741 43.75V6.25C1.00741 3.375 3.4 1 6.2963 1H163.704ZM163.704 0H6.2963C2.77037 0 0 2.875 0 6.25V43.75C0 47.25 2.77037 50 6.2963 50H163.704C167.23 50 170 47.25 170 43.75V6.25C170 2.875 167.23 0 163.704 0Z" fill="#E8F8FF"/>
<path d="M81.9527 26.5621C79.1124 26.5621 76.8639 28.6923 76.8639 31.6509C76.8639 34.4911 79.1124 36.7396 81.9527 36.7396C84.7929 36.7396 87.0414 34.6095 87.0414 31.6509C87.0414 28.574 84.7929 26.5621 81.9527 26.5621ZM81.9527 34.6095C80.4142 34.6095 79.1124 33.3077 79.1124 31.5325C79.1124 29.7574 80.4142 28.4556 81.9527 28.4556C83.4911 28.4556 84.7929 29.6391 84.7929 31.5325C84.7929 33.3077 83.4911 34.6095 81.9527 34.6095ZM70.9467 26.5621C68.1065 26.5621 65.858 28.6923 65.858 31.6509C65.858 34.4911 68.1065 36.7396 70.9467 36.7396C73.787 36.7396 76.0355 34.6095 76.0355 31.6509C76.0355 28.574 73.787 26.5621 70.9467 26.5621ZM70.9467 34.6095C69.4083 34.6095 68.1065 33.3077 68.1065 31.5325C68.1065 29.7574 69.4083 28.4556 70.9467 28.4556C72.4852 28.4556 73.787 29.6391 73.787 31.5325C73.787 33.3077 72.4852 34.6095 70.9467 34.6095ZM57.8107 28.1006V30.2308H62.8994C62.7811 31.4142 62.3077 32.3609 61.716 32.9527C61.0059 33.6627 59.8225 34.4911 57.8107 34.4911C54.6154 34.4911 52.2485 32.0059 52.2485 28.8107C52.2485 25.6154 54.7337 23.1302 57.8107 23.1302C59.4675 23.1302 60.7692 23.8402 61.716 24.6686L63.2544 23.1302C61.9527 21.9467 60.2959 21 57.929 21C53.6686 21 50 24.5503 50 28.8107C50 33.071 53.6686 36.6213 57.929 36.6213C60.2959 36.6213 61.9527 35.9112 63.3728 34.3728C64.7929 32.9527 65.2663 30.9408 65.2663 29.4024C65.2663 28.929 65.2663 28.4556 65.1479 28.1006H57.8107ZM111.538 29.7574C111.065 28.574 109.882 26.5621 107.278 26.5621C104.675 26.5621 102.544 28.574 102.544 31.6509C102.544 34.4911 104.675 36.7396 107.515 36.7396C109.763 36.7396 111.183 35.3195 111.657 34.4911L110 33.3077C109.408 34.1361 108.698 34.7278 107.515 34.7278C106.331 34.7278 105.621 34.2544 105.03 33.1893L111.775 30.3491L111.538 29.7574ZM104.675 31.4142C104.675 29.5207 106.213 28.4556 107.278 28.4556C108.107 28.4556 108.935 28.929 109.172 29.5207L104.675 31.4142ZM99.1124 36.2663H101.361V21.4734H99.1124V36.2663ZM95.5621 27.6272C94.9704 27.0355 94.0237 26.4438 92.8402 26.4438C90.355 26.4438 87.9882 28.6923 87.9882 31.5325C87.9882 34.3728 90.2367 36.503 92.8402 36.503C94.0237 36.503 94.9704 35.9112 95.4438 35.3195H95.5621V36.0296C95.5621 37.9231 94.497 38.9882 92.8402 38.9882C91.5385 38.9882 90.5917 38.0414 90.355 37.213L88.4615 38.0414C89.0533 39.3432 90.4734 41 92.9586 41C95.5621 41 97.6923 39.4615 97.6923 35.7929V26.7988H95.5621V27.6272ZM92.9586 34.6095C91.4201 34.6095 90.1183 33.3077 90.1183 31.5325C90.1183 29.7574 91.4201 28.4556 92.9586 28.4556C94.497 28.4556 95.6805 29.7574 95.6805 31.5325C95.6805 33.3077 94.497 34.6095 92.9586 34.6095ZM121.834 21.4734H116.509V36.2663H118.757V30.7041H121.834C124.32 30.7041 126.686 28.929 126.686 26.0888C126.686 23.2485 124.32 21.4734 121.834 21.4734ZM121.953 28.574H118.757V23.4852H121.953C123.609 23.4852 124.556 24.9053 124.556 25.9704C124.438 27.2722 123.491 28.574 121.953 28.574ZM135.562 26.4438C133.905 26.4438 132.249 27.1538 131.657 28.6923L133.669 29.5207C134.142 28.6923 134.852 28.4556 135.68 28.4556C136.864 28.4556 137.929 29.1657 138.047 30.3491V30.4675C137.692 30.2308 136.746 29.8757 135.799 29.8757C133.669 29.8757 131.538 31.0592 131.538 33.1893C131.538 35.2012 133.314 36.503 135.207 36.503C136.746 36.503 137.456 35.7929 138.047 35.0828H138.166V36.2663H140.296V30.5858C140.059 27.9822 138.047 26.4438 135.562 26.4438ZM135.325 34.6095C134.615 34.6095 133.55 34.2544 133.55 33.3077C133.55 32.1243 134.852 31.7692 135.917 31.7692C136.864 31.7692 137.337 32.0059 137.929 32.2426C137.692 33.6627 136.509 34.6095 135.325 34.6095ZM147.751 26.7988L145.266 33.1893H145.148L142.544 26.7988H140.178L144.083 35.7929L141.834 40.7633H144.083L150.118 26.7988H147.751ZM127.87 36.2663H130.118V21.4734H127.87V36.2663Z" fill="#E8F8FF"/>
<path d="M50.8513 18H50V15.5675H50.7297C51.3378 15.081 51.7027 14.1081 51.7027 12.7702V9.12158H56.5676V15.5675H57.4189V18H56.5676V16.4189H50.973V18H50.8513ZM52.4324 12.7702C52.4324 13.8648 52.3108 14.8378 51.8243 15.5675H55.473V9.97293H52.4324V12.7702Z" fill="#E8F8FF" stroke="#E8F8FF" stroke-width="0.2" stroke-miterlimit="10"/>
<path d="M64.5946 15.4459C63.8648 16.1757 63.0135 16.5405 61.9189 16.5405C60.8243 16.5405 59.9729 16.1757 59.2432 15.4459C58.5135 14.7162 58.1486 13.8649 58.1486 12.7703C58.1486 11.6757 58.5135 10.8243 59.2432 10.0946C59.9729 9.36486 60.8243 9 61.9189 9C63.0135 9 63.8648 9.36486 64.5946 10.0946C65.3243 10.8243 65.6892 11.6757 65.6892 12.7703C65.6892 13.8649 65.3243 14.7162 64.5946 15.4459ZM59.9729 14.8378C60.4594 15.3243 61.1892 15.6892 61.9189 15.6892C62.6486 15.6892 63.3784 15.4459 63.8648 14.8378C64.3513 14.3514 64.7162 13.6216 64.7162 12.7703C64.7162 11.9189 64.4729 11.1892 63.8648 10.7027C63.3784 10.2162 62.6486 9.85135 61.9189 9.85135C61.1892 9.85135 60.4594 10.0946 59.9729 10.7027C59.4865 11.1892 59.1216 11.9189 59.1216 12.7703C59.1216 13.6216 59.3648 14.3514 59.9729 14.8378Z" fill="#E8F8FF" stroke="#E8F8FF" stroke-width="0.2" stroke-miterlimit="10"/>
<path d="M70.4324 16.5405C69.3378 16.5405 68.4865 16.1757 67.7568 15.4459C67.027 14.7162 66.6622 13.8649 66.6622 12.7703C66.6622 11.6757 67.027 10.8243 67.7568 10.0946C68.4865 9.36486 69.3378 9 70.4324 9C71.527 9 72.3784 9.36486 73.1081 10.2162L72.5 10.8243C72.0135 10.2162 71.2838 9.85135 70.4324 9.85135C69.5811 9.85135 68.973 10.0946 68.3649 10.7027C67.7568 11.1892 67.5135 11.9189 67.5135 12.7703C67.5135 13.6216 67.7568 14.3514 68.3649 14.8378C68.8514 15.3243 69.5811 15.6892 70.4324 15.6892C71.2838 15.6892 72.0135 15.3243 72.6216 14.5946L73.2297 15.2027C72.8649 15.5676 72.5 15.9324 72.0135 16.1757C71.527 16.4189 71.0406 16.5405 70.4324 16.5405Z" fill="#E8F8FF" stroke="#E8F8FF" stroke-width="0.2" stroke-miterlimit="10"/>
<path d="M77.1216 16.4189H76.1486V9.97293H74.0811V9.12158H79.0675V9.97293H77V16.4189H77.1216Z" fill="#E8F8FF" stroke="#E8F8FF" stroke-width="0.2" stroke-miterlimit="10"/>
<path d="M85.5135 9.12158L82.7162 15.3243C82.3513 16.1756 81.7432 16.6621 81.0135 16.6621C80.7703 16.6621 80.527 16.6621 80.2838 16.5405L80.527 15.6891C80.6486 15.8108 80.8919 15.8108 81.0135 15.8108C81.2567 15.8108 81.3784 15.8108 81.5 15.6891C81.6216 15.5675 81.7432 15.4459 81.8648 15.2027L82.1081 14.5946L79.6757 9.2432H80.7702L82.5946 13.3783L84.4189 9.12158H85.5135Z" fill="#E8F8FF" stroke="#E8F8FF" stroke-width="0.2" stroke-miterlimit="10"/>
<path d="M86.6081 16.4189V9.12158H91.8378V16.4189H90.8649V9.97293H87.4594V16.4189H86.6081Z" fill="#E8F8FF" stroke="#E8F8FF" stroke-width="0.2" stroke-miterlimit="10"/>
<path d="M93.5405 16.4189V9.12158H94.5135V12.2837H98.1622V9.12158H99.1351V16.4189H98.1622V13.1351H94.5135V16.4189H93.5405Z" fill="#E8F8FF" stroke="#E8F8FF" stroke-width="0.2" stroke-miterlimit="10"/>
<path d="M106.797 15.4459C106.068 16.1757 105.216 16.5405 104.122 16.5405C103.027 16.5405 102.176 16.1757 101.446 15.4459C100.716 14.7162 100.351 13.8649 100.351 12.7703C100.351 11.6757 100.716 10.8243 101.446 10.0946C102.176 9.36486 103.027 9 104.122 9C105.216 9 106.068 9.36486 106.797 10.0946C107.527 10.8243 107.892 11.6757 107.892 12.7703C107.77 13.8649 107.405 14.7162 106.797 15.4459ZM102.054 14.8378C102.541 15.3243 103.27 15.6892 104 15.6892C104.73 15.6892 105.459 15.4459 105.946 14.8378C106.432 14.3514 106.797 13.6216 106.797 12.7703C106.797 11.9189 106.554 11.1892 105.946 10.7027C105.459 10.2162 104.73 9.85135 104 9.85135C103.27 9.85135 102.541 10.0946 102.054 10.7027C101.568 11.1892 101.203 11.9189 101.203 12.7703C101.203 13.6216 101.568 14.3514 102.054 14.8378Z" fill="#E8F8FF" stroke="#E8F8FF" stroke-width="0.2" stroke-miterlimit="10"/>
<path d="M111.662 16.4189V9.12158H114.338C114.946 9.12158 115.432 9.36483 115.797 9.72969C116.162 10.0946 116.405 10.581 116.405 11.0675C116.405 11.4324 116.284 11.6756 116.162 12.0405C116.041 12.2837 115.797 12.527 115.432 12.6486C115.797 12.7702 116.041 13.0135 116.284 13.2567C116.527 13.5 116.649 13.8648 116.649 14.3513C116.649 14.9594 116.405 15.4459 116.041 15.8108C115.554 16.1756 115.068 16.4189 114.459 16.4189H111.662ZM112.635 12.2837H114.338C114.703 12.2837 114.946 12.1621 115.189 11.9189C115.432 11.6756 115.554 11.4324 115.554 11.1891C115.554 10.9459 115.311 10.581 115.189 10.3378C114.946 10.0946 114.703 9.97293 114.338 9.97293H112.635V12.2837ZM112.635 15.5675H114.581C114.946 15.5675 115.189 15.4459 115.432 15.2027C115.676 14.9594 115.797 14.7162 115.797 14.3513C115.797 14.1081 115.676 13.7432 115.432 13.5C115.189 13.2567 114.946 13.1351 114.581 13.1351H112.757V15.5675H112.635Z" fill="#E8F8FF" stroke="#E8F8FF" stroke-width="0.2" stroke-miterlimit="10"/>
<path d="M12.4973 9.43848C12.1243 9.81142 12 10.433 12 11.1789V38.6522C12 39.3981 12.2486 40.0196 12.6216 40.3926L12.7459 40.5169L28.1608 25.102V24.9777V24.8534L12.4973 9.43848Z" fill="url(#paint0_linear)"/>
<path d="M33.1333 30.3232L28.0364 25.2264V24.9778V24.8534L33.1333 19.7566L33.2576 19.8809L39.349 23.3617C41.0894 24.3562 41.0894 25.9723 39.349 26.9668L33.1333 30.3232Z" fill="url(#paint1_linear)"/>
<path d="M33.2576 30.199L28.0365 24.9778L12.4973 40.517C13.1188 41.1385 13.989 41.1385 15.1078 40.6413L33.2576 30.199Z" fill="url(#paint2_linear)"/>
<path d="M33.2576 19.7567L15.1078 9.43868C13.989 8.81711 13.1188 8.94143 12.4973 9.56299L28.0365 24.9779L33.2576 19.7567Z" fill="url(#paint3_linear)"/>
<path opacity="0.2" d="M33.1333 30.0747L15.1078 40.2684C14.1133 40.89 13.2431 40.7657 12.6216 40.2684L12.4973 40.3927L12.6216 40.517C13.2431 41.0143 14.1133 41.1386 15.1078 40.517L33.1333 30.0747Z" fill="black"/>
<path opacity="0.12" d="M12.4973 40.2685C12.1243 39.8955 12 39.274 12 38.5281V38.6524C12 39.3983 12.2486 40.0198 12.6216 40.3928V40.2685H12.4973Z" fill="black"/>
<path opacity="0.12" d="M39.349 26.5939L33.1333 30.0746L33.2576 30.199L39.349 26.7182C40.2192 26.2209 40.5921 25.5994 40.5921 24.9778C40.5921 25.5994 40.0949 26.0966 39.349 26.5939Z" fill="black"/>
<path opacity="0.25" d="M15.1078 9.5629L39.349 23.3617C40.0949 23.859 40.5921 24.3562 40.5921 24.9778C40.5921 24.3562 40.2192 23.7347 39.349 23.2374L15.1078 9.43859C13.3674 8.44408 12 9.18996 12 11.179V11.3033C12 9.43859 13.3674 8.56839 15.1078 9.5629Z" fill="white"/>
<defs>
<linearGradient id="paint0_linear" x1="26.6685" y1="10.9424" x2="5.8057" y2="31.8052" gradientUnits="userSpaceOnUse">
<stop stop-color="#00A0FF"/>
<stop offset="0.00657445" stop-color="#00A1FF"/>
<stop offset="0.2601" stop-color="#00BEFF"/>
<stop offset="0.5122" stop-color="#00D2FF"/>
<stop offset="0.7604" stop-color="#00DFFF"/>
<stop offset="1" stop-color="#00E3FF"/>
</linearGradient>
<linearGradient id="paint1_linear" x1="41.6293" y1="24.9796" x2="11.5492" y2="24.9796" gradientUnits="userSpaceOnUse">
<stop stop-color="#FFE000"/>
<stop offset="0.4087" stop-color="#FFBD00"/>
<stop offset="0.7754" stop-color="#FFA500"/>
<stop offset="1" stop-color="#FF9C00"/>
</linearGradient>
<linearGradient id="paint2_linear" x1="30.4319" y1="27.8323" x2="2.14019" y2="56.1239" gradientUnits="userSpaceOnUse">
<stop stop-color="#FF3A44"/>
<stop offset="1" stop-color="#C31162"/>
</linearGradient>
<linearGradient id="paint3_linear" x1="8.64005" y1="0.334324" x2="21.2735" y2="12.9677" gradientUnits="userSpaceOnUse">
<stop stop-color="#32A071"/>
<stop offset="0.0685" stop-color="#2DA771"/>
<stop offset="0.4762" stop-color="#15CF74"/>
<stop offset="0.8009" stop-color="#06E775"/>
<stop offset="1" stop-color="#00F076"/>
</linearGradient>
</defs>
</svg>
