<svg width="210" height="30" viewBox="0 0 210 30" fill="none" xmlns="http://www.w3.org/2000/svg">
<path d="M46.654 7.832C46.654 7.084 46.06 6.49 45.312 6.49C44.564 6.49 43.97 7.084 43.97 7.832V12.892H34.84V7.832C34.84 7.084 34.246 6.49 33.498 6.49C32.728 6.49 32.134 7.084 32.134 7.832V20.834C32.134 21.582 32.728 22.176 33.498 22.176C34.246 22.176 34.84 21.582 34.84 20.834V15.422H43.97V20.834C43.97 21.582 44.564 22.176 45.312 22.176C46.06 22.176 46.654 21.582 46.654 20.834V7.832ZM59.3153 18.744L60.6133 21.406C60.8333 21.868 61.2733 22.176 61.8893 22.176C62.6593 22.176 63.2753 21.516 63.2753 20.812C63.2753 20.636 63.2313 20.438 63.1433 20.262L56.2573 6.424L49.5253 20.262C49.4373 20.46 49.3933 20.658 49.3933 20.856C49.3933 21.538 49.9433 22.176 50.7133 22.176C51.2193 22.176 51.6813 21.89 51.9013 21.45L53.1553 18.744H59.3153ZM56.1913 12.144L58.1053 16.214H54.3433L56.1913 12.144ZM83.6809 7.832C83.6809 7.084 83.0869 6.49 82.3389 6.49C81.5689 6.49 80.9749 7.084 80.9749 7.832V19.47H76.2009V7.832C76.2009 7.084 75.6069 6.49 74.8589 6.49C74.0889 6.49 73.4949 7.084 73.4949 7.832V19.47H68.7209V7.832C68.7209 7.084 68.1269 6.49 67.3789 6.49C66.6089 6.49 66.0149 7.084 66.0149 7.832V20.658C66.0149 21.406 66.6089 22 67.3569 22H82.3389C83.0869 22 83.6809 21.406 83.6809 20.658V7.832ZM96.3544 18.744L97.6524 21.406C97.8724 21.868 98.3124 22.176 98.9284 22.176C99.6984 22.176 100.314 21.516 100.314 20.812C100.314 20.636 100.27 20.438 100.182 20.262L93.2964 6.424L86.5644 20.262C86.4764 20.46 86.4324 20.658 86.4324 20.856C86.4324 21.538 86.9824 22.176 87.7524 22.176C88.2584 22.176 88.7204 21.89 88.9404 21.45L90.1944 18.744H96.3544ZM93.2304 12.144L95.1444 16.214H91.3824L93.2304 12.144ZM113.634 6.424C109.96 6.424 106.572 10.164 106.572 14.3C106.572 18.876 109.96 22.176 113.92 22.176C114.712 22.176 115.35 21.78 115.35 20.878C115.35 20.086 114.778 19.712 114.008 19.624C111.324 19.316 109.432 17.314 109.432 14.3C109.432 11.33 110.994 9.372 113.722 8.976C114.47 8.866 115.042 8.492 115.042 7.634C115.042 6.864 114.448 6.424 113.634 6.424ZM131.27 6.358L120.82 16.302V7.832C120.82 7.084 120.226 6.49 119.478 6.49C118.708 6.49 118.114 7.084 118.114 7.832V22.242L128.564 12.474V20.834C128.564 21.582 129.158 22.176 129.928 22.176C130.676 22.176 131.27 21.582 131.27 20.834V6.358ZM136.154 22H148.562V23.518C148.562 24.2 149.112 24.75 149.838 24.75C150.542 24.75 151.092 24.2 151.092 23.518V20.702C151.092 20.02 150.542 19.47 149.86 19.47H148.826L142.226 6.358L135.758 19.47H134.856C134.174 19.47 133.624 20.02 133.624 20.702V23.518C133.624 24.2 134.174 24.75 134.9 24.75C135.604 24.75 136.154 24.2 136.154 23.518V22ZM142.16 12.254L145.636 19.47H138.794L142.16 12.254ZM156.162 19.47V15.488H158.824C159.506 15.488 160.056 14.938 160.056 14.212C160.056 13.508 159.506 12.958 158.824 12.958H156.162V9.13H159.55C160.232 9.13 160.782 8.58 160.782 7.854C160.782 7.15 160.232 6.6 159.55 6.6H154.688C154.006 6.6 153.456 7.15 153.456 7.832V20.768C153.456 21.45 154.006 22 154.688 22H159.704C160.386 22 160.936 21.45 160.936 20.724C160.936 20.02 160.386 19.47 159.704 19.47H156.162ZM174.224 21.318C174.532 21.934 175.016 22.176 175.5 22.176C176.424 22.176 176.908 21.472 176.908 20.768C176.908 20.548 176.864 20.306 176.754 20.108L169.846 6.358L163.004 20.262C162.894 20.482 162.85 20.702 162.85 20.9C162.85 21.604 163.378 22.176 164.192 22.176C164.742 22.176 165.182 21.89 165.424 21.384L169.78 12.298L174.224 21.318ZM182.266 18.81L184.928 15.422L188.272 21.296C188.536 21.758 188.976 22.176 189.68 22.176C190.516 22.176 191.088 21.626 191.088 20.834C191.088 20.526 190.956 20.196 190.758 19.844L186.864 13.068L190.12 8.624C190.34 8.338 190.45 8.008 190.45 7.7C190.45 7.062 189.988 6.49 189.108 6.49C188.58 6.49 188.184 6.798 187.854 7.26L182.266 14.828V7.832C182.266 7.084 181.672 6.49 180.924 6.49C180.154 6.49 179.56 7.084 179.56 7.832V20.834C179.56 21.582 180.154 22.176 180.924 22.176C181.672 22.176 182.266 21.582 182.266 20.834V18.81ZM202.487 18.744L203.785 21.406C204.005 21.868 204.445 22.176 205.061 22.176C205.831 22.176 206.447 21.516 206.447 20.812C206.447 20.636 206.403 20.438 206.315 20.262L199.429 6.424L192.697 20.262C192.609 20.46 192.565 20.658 192.565 20.856C192.565 21.538 193.115 22.176 193.885 22.176C194.391 22.176 194.853 21.89 195.073 21.45L196.327 18.744H202.487ZM199.363 12.144L201.277 16.214H197.515L199.363 12.144Z" fill="#2884C9"/>
<rect x="7" y="7" width="16" height="16" rx="2" fill="#17C5CC"/>
<rect x="14" y="9" width="2" height="12" rx="1" fill="white" stroke="white" stroke-width="0.5"/>
<rect x="9" y="14" width="12" height="2" rx="1" fill="white" stroke="white" stroke-width="0.5"/>
</svg>
