<svg width="290" height="470" viewBox="0 0 290 470" fill="none" xmlns="http://www.w3.org/2000/svg">
<g clip-path="url(#clip0)">
<path d="M278 12H12V566.444H278V12Z" fill="#E8F8FF"/>
<path d="M278 12H12V566.444H278V12Z" fill="#D4F1F4"/>
<path d="M267.194 406.844H151.65C150.273 406.844 149.156 407.96 149.156 409.337V445.912C149.156 447.29 150.273 448.406 151.65 448.406H267.194C268.571 448.406 269.688 447.29 269.688 445.912V409.337C269.688 407.96 268.571 406.844 267.194 406.844Z" fill="#2884C9"/>
<path d="M176.646 429.653C176.007 430.145 175.223 430.398 174.438 430.398C172.536 430.398 171.219 429.068 171.219 427.126C171.219 425.105 172.523 423.854 174.252 423.854C175.183 423.854 175.794 424.107 176.353 424.48L177.085 423.269C176.473 422.711 175.462 422.325 174.252 422.325C171.179 422.325 169.49 424.453 169.49 427.126C169.49 430.026 171.445 431.928 174.292 431.928C175.502 431.928 176.686 431.502 177.271 430.877L176.646 429.653ZM177.816 427.126C177.816 430.026 179.891 431.928 182.657 431.928C185.424 431.928 187.512 429.919 187.512 427.126C187.512 424.227 185.424 422.325 182.657 422.325C179.798 422.325 177.816 424.426 177.816 427.126ZM179.545 427.126C179.545 425.198 180.875 423.854 182.657 423.854C184.413 423.854 185.783 425.198 185.783 427.126C185.783 428.962 184.612 430.398 182.657 430.398C180.915 430.398 179.545 428.988 179.545 427.126ZM196.24 422.471H194.325L192.077 425.836L189.789 422.471H187.874L190.986 427.033L187.728 431.781H189.643L192.037 428.283L194.444 431.781H196.36L193.101 427.033L196.24 422.471ZM199.418 431.781V428.416C199.817 428.456 200.349 428.456 200.628 428.456C202.849 428.456 204.033 427.02 204.033 425.437C204.033 423.908 203.168 422.445 200.429 422.445C199.777 422.445 198.301 422.471 197.782 422.471V431.781H199.418ZM200.588 423.974C201.705 423.974 202.304 424.453 202.304 425.424C202.304 426.461 201.546 426.927 200.575 426.927C200.202 426.927 199.803 426.9 199.418 426.86V424.001C199.857 423.987 200.256 423.974 200.588 423.974ZM203.872 431.781H205.521L206.492 429.401H210.468L211.439 431.781H213.182L209.245 422.445H207.808L203.872 431.781ZM208.487 424.559L209.843 427.871H207.117L208.487 424.559ZM220.467 431.781H222.09V422.471H220.467V426.275H216.211V422.471H214.576V431.781H216.211V427.805H220.467V431.781ZM226.104 431.781L230.985 425.171V431.781H232.621V422.471H231.185L226.304 429.095V422.471H224.668V431.781H226.104ZM234.044 424.001H237.063V431.781H238.699V424.001H241.718V422.471H234.044V424.001ZM245.704 427.126C246.848 427.126 247.619 427.592 247.619 428.642C247.619 429.786 246.875 430.278 245.678 430.278C245.358 430.278 245.066 430.252 244.773 430.238V427.193C245.146 427.153 245.465 427.126 245.704 427.126ZM244.773 422.471H243.137V431.781C243.683 431.781 244.6 431.808 245.491 431.808C247.965 431.808 249.348 430.571 249.348 428.603C249.348 426.78 248.245 425.597 245.837 425.597C245.585 425.597 245.186 425.61 244.773 425.663V422.471Z" fill="#E8F8FF"/>
<path d="M138.35 406.844H22.8063C21.429 406.844 20.3125 407.96 20.3125 409.337V445.912C20.3125 447.29 21.429 448.406 22.8063 448.406H138.35C139.727 448.406 140.844 447.29 140.844 445.912V409.337C140.844 407.96 139.727 406.844 138.35 406.844Z" fill="#304960"/>
<path d="M57.5577 422.471H55.9085L53.6874 427.672L50.6417 422.471H48.793L52.9027 429.281L52.7697 429.6C52.5835 429.999 52.2909 430.252 51.852 430.252C51.586 430.252 51.4131 430.199 51.1604 430.026L50.5885 431.409C50.8412 431.608 51.3865 431.781 51.8653 431.781C53.0224 431.781 53.7539 431.036 54.3923 429.613L57.5577 422.471ZM56.9366 433.444H58.4661V431.781H64.9698V433.444H66.4993V430.252H65.2358V422.471H59.4636L59.3705 424.333C59.2109 427.805 58.3198 429.773 57.9341 430.252H56.9366V433.444ZM60.9 425.623L61.0463 424.001H63.6132V430.252H59.7296C60.0621 429.839 60.7271 428.031 60.9 425.623ZM66.923 431.781H68.5722L69.5431 429.401H73.5198L74.4907 431.781H76.233L72.2962 422.445H70.8598L66.923 431.781ZM71.5381 424.559L72.8947 427.871H70.1682L71.5381 424.559ZM83.0425 431.781H84.6651V422.471H78.7998L78.6668 424.333C78.2545 429.946 77.3102 430.252 76.592 430.159L76.5521 431.781C78.3875 432.047 79.5978 431.169 80.1431 425.756L80.3293 424.001H83.0425V431.781ZM88.6752 431.781L93.5563 425.171V431.781H95.1923V422.471H93.7558L88.8747 429.095V422.471H87.2388V431.781H88.6752ZM96.6154 424.001H99.6345V431.781H101.27V424.001H104.289V422.471H96.6154V424.001ZM108.275 427.126C109.419 427.126 110.191 427.592 110.191 428.642C110.191 429.786 109.446 430.278 108.249 430.278C107.93 430.278 107.637 430.252 107.344 430.238V427.193C107.717 427.153 108.036 427.126 108.275 427.126ZM107.344 422.471H105.708V431.781C106.254 431.781 107.171 431.808 108.063 431.808C110.536 431.808 111.92 430.571 111.92 428.603C111.92 426.78 110.816 425.597 108.408 425.597C108.156 425.597 107.757 425.61 107.344 425.663V422.471Z" fill="#E8F8FF"/>
<path d="M267.194 349.072H22.8062C21.6584 349.072 20.728 350.002 20.728 351.15V454.225C20.728 455.373 21.6584 456.303 22.8062 456.303H267.194C268.341 456.303 269.272 455.373 269.272 454.225V351.15C269.272 350.002 268.341 349.072 267.194 349.072Z" fill="#E8F8FF" stroke="#17C5CC"/>
<path d="M33.5861 444.356H34.7166V443.133H34.7565C37.3633 443.133 39.1854 441.803 39.1854 439.462C39.1854 437.148 37.4032 435.804 34.7166 435.791V434.834H33.5861V435.791C30.9261 435.804 29.1572 437.121 29.1572 439.462C29.1572 441.816 30.9527 443.133 33.5728 443.133H33.5861V444.356ZM34.7299 436.842C36.8047 436.842 37.9884 437.826 37.9884 439.462C37.9884 441.204 36.7382 442.095 34.7432 442.095H34.7166V436.842H34.7299ZM30.3542 439.462C30.3542 437.826 31.5645 436.842 33.5861 436.842V442.095H33.5728C31.6177 442.095 30.3542 441.191 30.3542 439.462ZM40.1589 441.257C40.1589 443.053 41.4357 444.383 43.3509 444.383C45.2661 444.383 46.5429 443.053 46.5429 441.257C46.5429 439.462 45.2661 438.132 43.3509 438.132C41.4357 438.132 40.1589 439.462 40.1589 441.257ZM41.2894 441.257C41.2894 439.994 42.1805 439.129 43.3509 439.129C44.5479 439.129 45.4124 440.007 45.4124 441.257C45.4124 442.534 44.5479 443.385 43.3509 443.385C42.1539 443.385 41.2894 442.508 41.2894 441.257ZM47.0863 439.329H49.2808V444.25H50.3448V439.329H52.5393V438.265H47.0863V439.329ZM53.1083 441.257C53.1083 443.053 54.3851 444.383 56.3003 444.383C58.2155 444.383 59.4923 443.053 59.4923 441.257C59.4923 439.462 58.2155 438.132 56.3003 438.132C54.3851 438.132 53.1083 439.462 53.1083 441.257ZM54.2388 441.257C54.2388 439.994 55.1299 439.129 56.3003 439.129C57.4973 439.129 58.3618 440.007 58.3618 441.257C58.3618 442.534 57.4973 443.385 56.3003 443.385C55.1033 443.385 54.2388 442.508 54.2388 441.257ZM60.6284 441.257C60.6284 443.053 61.9052 444.383 63.8204 444.383C65.7356 444.383 67.0124 443.053 67.0124 441.257C67.0124 439.462 65.7356 438.132 63.8204 438.132C61.9052 438.132 60.6284 439.462 60.6284 441.257ZM61.7589 441.257C61.7589 439.994 62.65 439.129 63.8204 439.129C65.0174 439.129 65.8819 440.007 65.8819 441.257C65.8819 442.534 65.0174 443.385 63.8204 443.385C62.6234 443.385 61.7589 442.508 61.7589 441.257ZM67.5558 439.329H69.7503V444.25H70.8143V439.329H73.0088V438.265H67.5558V439.329ZM78.667 438.265H77.603V440.991C77.337 441.178 76.8316 441.364 76.2331 441.364C75.4218 441.364 74.943 440.912 74.943 439.954V438.265H73.8125V440.074C73.8125 441.617 74.5041 442.361 75.9405 442.361C76.6055 442.361 77.204 442.175 77.603 441.922V444.25H78.667V438.265ZM85.3093 442.76C84.9236 443.119 84.2453 443.385 83.4739 443.385C82.3035 443.385 81.4789 442.72 81.3858 441.59H85.9876C86.0275 441.404 86.0541 441.164 86.0541 440.872C86.0541 439.223 84.8172 438.132 83.2744 438.132C81.306 438.132 80.1888 439.515 80.1888 441.257C80.1888 443.146 81.4523 444.383 83.3941 444.383C84.1921 444.383 85.0566 444.13 85.6418 443.598L85.3093 442.76ZM83.2212 439.129C84.2586 439.129 84.897 439.741 84.9502 440.725H81.3193C81.439 439.808 82.1306 439.129 83.2212 439.129ZM81.2395 436.137C81.2395 436.563 81.5188 436.802 81.8646 436.802C82.1572 436.802 82.4498 436.563 82.4498 436.137C82.4498 435.765 82.1572 435.525 81.8646 435.525C81.5188 435.525 81.2395 435.765 81.2395 436.137ZM83.9394 436.137C83.9394 436.563 84.232 436.802 84.5778 436.802C84.8704 436.802 85.163 436.563 85.163 436.137C85.163 435.765 84.8704 435.525 84.5778 435.525C84.232 435.525 83.9394 435.765 83.9394 436.137ZM86.6226 439.329H88.8171V444.25H89.8811V439.329H92.0756V438.265H86.6226V439.329ZM100.615 444.25H101.679V438.265H100.615V440.725H97.2898V438.265H96.2258V444.25H97.2898V441.723H100.615V444.25ZM109.043 438.265H107.833L106.449 442.055C106.343 442.375 106.25 442.681 106.17 442.973C106.05 442.667 105.944 442.375 105.811 442.069L104.055 438.265H102.779L105.651 444.25L105.518 444.569C105.119 445.527 104.747 445.926 104.242 445.926C104.002 445.926 103.776 445.819 103.577 445.726L103.231 446.538C103.55 446.75 103.909 446.91 104.361 446.91C105.212 446.91 105.771 446.391 106.649 444.25L109.043 438.265ZM117.734 438.265H116.417L114.355 441.151L116.576 444.25H117.893L115.566 441.151L117.734 438.265ZM113.025 444.25H114.089V438.265H113.025V444.25ZM111.549 441.151L109.261 444.25H110.565L112.759 441.151L110.711 438.265H109.381L111.549 441.151ZM123.443 442.76C123.057 443.119 122.379 443.385 121.607 443.385C120.437 443.385 119.612 442.72 119.519 441.59H124.121C124.161 441.404 124.187 441.164 124.187 440.872C124.187 439.223 122.95 438.132 121.408 438.132C119.439 438.132 118.322 439.515 118.322 441.257C118.322 443.146 119.586 444.383 121.527 444.383C122.325 444.383 123.19 444.13 123.775 443.598L123.443 442.76ZM121.354 439.129C122.392 439.129 123.03 439.741 123.083 440.725H119.453C119.572 439.808 120.264 439.129 121.354 439.129ZM130.02 444.25H131.084V438.265H130.02V440.725H126.695V438.265H125.631V444.25H126.695V441.723H130.02V444.25Z" fill="#304960"/>
<path d="M33.5861 411.106H34.7166V409.883H34.7565C37.3633 409.883 39.1854 408.553 39.1854 406.212C39.1854 403.898 37.4032 402.554 34.7166 402.541V401.584H33.5861V402.541C30.9261 402.554 29.1572 403.871 29.1572 406.212C29.1572 408.566 30.9527 409.883 33.5728 409.883H33.5861V411.106ZM34.7299 403.592C36.8047 403.592 37.9884 404.576 37.9884 406.212C37.9884 407.954 36.7382 408.845 34.7432 408.845H34.7166V403.592H34.7299ZM30.3542 406.212C30.3542 404.576 31.5645 403.592 33.5861 403.592V408.845H33.5728C31.6177 408.845 30.3542 407.941 30.3542 406.212ZM40.1589 408.007C40.1589 409.803 41.4357 411.133 43.3509 411.133C45.2661 411.133 46.5429 409.803 46.5429 408.007C46.5429 406.212 45.2661 404.882 43.3509 404.882C41.4357 404.882 40.1589 406.212 40.1589 408.007ZM41.2894 408.007C41.2894 406.744 42.1805 405.879 43.3509 405.879C44.5479 405.879 45.4124 406.757 45.4124 408.007C45.4124 409.284 44.5479 410.135 43.3509 410.135C42.1539 410.135 41.2894 409.258 41.2894 408.007ZM47.0863 406.079H49.2808V411H50.3448V406.079H52.5393V405.015H47.0863V406.079ZM53.1083 408.007C53.1083 409.803 54.3851 411.133 56.3003 411.133C58.2155 411.133 59.4923 409.803 59.4923 408.007C59.4923 406.212 58.2155 404.882 56.3003 404.882C54.3851 404.882 53.1083 406.212 53.1083 408.007ZM54.2388 408.007C54.2388 406.744 55.1299 405.879 56.3003 405.879C57.4973 405.879 58.3618 406.757 58.3618 408.007C58.3618 409.284 57.4973 410.135 56.3003 410.135C55.1033 410.135 54.2388 409.258 54.2388 408.007ZM60.6284 408.007C60.6284 409.803 61.9052 411.133 63.8204 411.133C65.7356 411.133 67.0124 409.803 67.0124 408.007C67.0124 406.212 65.7356 404.882 63.8204 404.882C61.9052 404.882 60.6284 406.212 60.6284 408.007ZM61.7589 408.007C61.7589 406.744 62.65 405.879 63.8204 405.879C65.0174 405.879 65.8819 406.757 65.8819 408.007C65.8819 409.284 65.0174 410.135 63.8204 410.135C62.6234 410.135 61.7589 409.258 61.7589 408.007ZM67.5558 406.079H69.7503V411H70.8143V406.079H73.0088V405.015H67.5558V406.079ZM78.667 405.015H77.603V407.741C77.337 407.928 76.8316 408.114 76.2331 408.114C75.4218 408.114 74.943 407.662 74.943 406.704V405.015H73.8125V406.824C73.8125 408.367 74.5041 409.111 75.9405 409.111C76.6055 409.111 77.204 408.925 77.603 408.673V411H78.667V405.015ZM85.3093 409.51C84.9236 409.869 84.2453 410.135 83.4739 410.135C82.3035 410.135 81.4789 409.47 81.3858 408.34H85.9876C86.0275 408.154 86.0541 407.914 86.0541 407.622C86.0541 405.973 84.8172 404.882 83.2744 404.882C81.306 404.882 80.1888 406.265 80.1888 408.007C80.1888 409.896 81.4523 411.133 83.3941 411.133C84.1921 411.133 85.0566 410.88 85.6418 410.348L85.3093 409.51ZM83.2212 405.879C84.2586 405.879 84.897 406.491 84.9502 407.476H81.3193C81.439 406.558 82.1306 405.879 83.2212 405.879ZM81.2395 402.887C81.2395 403.313 81.5188 403.552 81.8646 403.552C82.1572 403.552 82.4498 403.313 82.4498 402.887C82.4498 402.515 82.1572 402.275 81.8646 402.275C81.5188 402.275 81.2395 402.515 81.2395 402.887ZM83.9394 402.887C83.9394 403.313 84.232 403.552 84.5778 403.552C84.8704 403.552 85.163 403.313 85.163 402.887C85.163 402.515 84.8704 402.275 84.5778 402.275C84.232 402.275 83.9394 402.515 83.9394 402.887ZM86.6226 406.079H88.8171V411H89.8811V406.079H92.0756V405.015H86.6226V406.079ZM100.615 411H101.679V405.015H100.615V407.476H97.2898V405.015H96.2258V411H97.2898V408.473H100.615V411ZM108.325 409.51C107.939 409.869 107.261 410.135 106.489 410.135C105.319 410.135 104.494 409.47 104.401 408.34H109.003C109.043 408.154 109.069 407.914 109.069 407.622C109.069 405.973 107.833 404.882 106.29 404.882C104.321 404.882 103.204 406.265 103.204 408.007C103.204 409.896 104.468 411.133 106.409 411.133C107.207 411.133 108.072 410.88 108.657 410.348L108.325 409.51ZM106.237 405.879C107.274 405.879 107.912 406.491 107.966 407.476H104.335C104.454 406.558 105.146 405.879 106.237 405.879ZM117.889 411H118.953V405.015H117.889V407.476H114.564V405.015H113.5V411H114.564V408.473H117.889V411ZM126.317 405.015H125.107L123.724 408.805C123.617 409.125 123.524 409.431 123.444 409.723C123.325 409.417 123.218 409.125 123.085 408.819L121.33 405.015H120.053L122.926 411L122.793 411.319C122.394 412.277 122.021 412.676 121.516 412.676C121.276 412.676 121.05 412.569 120.851 412.476L120.505 413.288C120.824 413.5 121.183 413.66 121.635 413.66C122.487 413.66 123.045 413.141 123.923 411L126.317 405.015ZM135.008 405.015H133.691L131.63 407.901L133.851 411H135.167L132.84 407.901L135.008 405.015ZM130.3 411H131.364V405.015H130.3V411ZM128.823 407.901L126.536 411H127.839L130.034 407.901L127.985 405.015H126.655L128.823 407.901ZM140.718 409.51C140.332 409.869 139.654 410.135 138.882 410.135C137.712 410.135 136.887 409.47 136.794 408.34H141.396C141.436 408.154 141.462 407.914 141.462 407.622C141.462 405.973 140.226 404.882 138.683 404.882C136.714 404.882 135.597 406.265 135.597 408.007C135.597 409.896 136.861 411.133 138.802 411.133C139.6 411.133 140.465 410.88 141.05 410.348L140.718 409.51ZM138.63 405.879C139.667 405.879 140.305 406.491 140.359 407.476H136.728C136.847 406.558 137.539 405.879 138.63 405.879ZM147.294 411H148.358V405.015H147.294V407.476H143.969V405.015H142.905V411H143.969V408.473H147.294V411Z" fill="#304960"/>
<path d="M36.2725 373.594H37.403V364.284H36.2725V368.314H31.152V364.284H30.0215V373.594H31.152V369.378H36.2725V373.594ZM44.4739 372.104C44.0882 372.463 43.4099 372.729 42.6385 372.729C41.4681 372.729 40.6435 372.064 40.5504 370.934H45.1522C45.1921 370.748 45.2187 370.508 45.2187 370.216C45.2187 368.566 43.9818 367.476 42.439 367.476C40.4706 367.476 39.3534 368.859 39.3534 370.601C39.3534 372.49 40.6169 373.727 42.5587 373.727C43.3567 373.727 44.2212 373.474 44.8064 372.942L44.4739 372.104ZM42.3858 368.473C43.4232 368.473 44.0616 369.085 44.1148 370.069H40.4839C40.6036 369.152 41.2952 368.473 42.3858 368.473ZM46.1852 370.601C46.1852 372.397 47.462 373.727 49.3772 373.727C51.2924 373.727 52.5692 372.397 52.5692 370.601C52.5692 368.806 51.2924 367.476 49.3772 367.476C47.462 367.476 46.1852 368.806 46.1852 370.601ZM47.3157 370.601C47.3157 369.338 48.2068 368.473 49.3772 368.473C50.5742 368.473 51.4387 369.351 51.4387 370.601C51.4387 371.878 50.5742 372.729 49.3772 372.729C48.1802 372.729 47.3157 371.851 47.3157 370.601ZM58.7329 364.151C58.1211 364.949 57.2965 364.576 55.9 365.175C53.9981 365.973 53.6789 368.234 53.6789 370.003C53.6789 372.304 54.9025 373.727 56.8443 373.727C58.6664 373.727 59.9166 372.33 59.9166 370.654C59.9166 368.859 58.8526 367.675 57.1369 367.675C56.1261 367.675 55.1552 368.234 54.7695 369.072H54.7429C54.8227 367.955 55.1419 366.691 56.2591 366.186C57.5758 365.587 58.5733 365.973 59.3048 364.989L58.7329 364.151ZM54.8094 370.202C54.9956 369.431 55.7404 368.673 56.8709 368.673C58.1078 368.673 58.7861 369.537 58.7861 370.708C58.7861 371.825 57.9881 372.729 56.8177 372.729C55.634 372.729 54.8094 371.745 54.8094 370.202ZM66.4381 367.609H65.2012L63.552 369.87L61.9294 367.609H60.626L62.754 370.548L60.493 373.594H61.7299L63.5121 371.173L65.2677 373.594H66.5711L64.2968 370.495L66.4381 367.609ZM67.1354 370.601C67.1354 372.397 68.4122 373.727 70.3274 373.727C72.2426 373.727 73.5194 372.397 73.5194 370.601C73.5194 368.806 72.2426 367.476 70.3274 367.476C68.4122 367.476 67.1354 368.806 67.1354 370.601ZM68.2659 370.601C68.2659 369.338 69.157 368.473 70.3274 368.473C71.5244 368.473 72.3889 369.351 72.3889 370.601C72.3889 371.878 71.5244 372.729 70.3274 372.729C69.1304 372.729 68.2659 371.851 68.2659 370.601ZM73.9962 375.057H74.9937V373.594H79.8349V375.057H80.8324V372.596H79.8349V367.609H75.7518L75.6587 369.191C75.5523 370.827 75.14 372.091 74.741 372.596H73.9962V375.057ZM76.6828 369.604L76.7493 368.606H78.7709V372.596H75.8715C76.1508 372.224 76.5498 371.133 76.6828 369.604ZM83.0543 373.594L86.5123 369.138V373.594H87.5763V367.609H86.5123L83.0543 372.064V367.609H81.9903V373.594H83.0543ZM89.5105 373.594H90.5746V369.231L92.7291 372.011H92.7691L94.8438 369.231V373.594H95.908V367.609H94.9636L92.7824 370.575L90.4815 367.609H89.5105V373.594ZM97.4367 370.601C97.4367 372.397 98.7135 373.727 100.629 373.727C102.544 373.727 103.821 372.397 103.821 370.601C103.821 368.806 102.544 367.476 100.629 367.476C98.7135 367.476 97.4367 368.806 97.4367 370.601ZM98.5672 370.601C98.5672 369.338 99.4583 368.473 100.629 368.473C101.826 368.473 102.69 369.351 102.69 370.601C102.69 371.878 101.826 372.729 100.629 372.729C99.4317 372.729 98.5672 371.851 98.5672 370.601ZM109.958 371.958C109.559 372.41 108.96 372.729 108.242 372.729C107.058 372.729 106.088 371.918 106.088 370.601C106.088 369.338 107.058 368.473 108.136 368.473C108.761 368.473 109.346 368.633 109.851 369.098L110.344 368.26C109.785 367.702 108.947 367.476 107.989 367.476C106.234 367.476 104.957 368.859 104.957 370.601C104.957 372.49 106.26 373.727 108.162 373.727C109.08 373.727 109.958 373.381 110.463 372.729L109.958 371.958ZM111.014 368.673H113.209V373.594H114.273V368.673H116.467V367.609H111.014V368.673ZM117.63 373.594H119.652C121.54 373.594 122.152 372.516 122.152 371.466C122.152 370.402 121.62 369.404 119.785 369.404H118.694V367.609H117.63V373.594ZM119.585 370.402C120.609 370.402 121.022 370.787 121.022 371.506C121.022 372.211 120.623 372.596 119.572 372.596H118.694V370.402H119.585ZM129.559 376.254H130.623V373.727H130.796C132.897 373.727 134.014 372.383 134.014 370.601C134.014 368.846 132.791 367.476 130.796 367.476H130.623V364.284H129.559V367.476H129.399C127.338 367.476 126.167 368.979 126.167 370.601C126.167 372.383 127.351 373.727 129.412 373.727H129.559V376.254ZM127.298 370.601C127.298 369.444 128.016 368.473 129.386 368.473H129.559V372.729H129.452C128.069 372.729 127.298 371.838 127.298 370.601ZM130.796 368.473C132.152 368.473 132.884 369.497 132.884 370.601C132.884 371.851 132.139 372.729 130.742 372.729H130.623V368.473H130.796ZM135.142 370.601C135.142 372.397 136.419 373.727 138.334 373.727C140.249 373.727 141.526 372.397 141.526 370.601C141.526 368.806 140.249 367.476 138.334 367.476C136.419 367.476 135.142 368.806 135.142 370.601ZM136.273 370.601C136.273 369.338 137.164 368.473 138.334 368.473C139.531 368.473 140.396 369.351 140.396 370.601C140.396 371.878 139.531 372.729 138.334 372.729C137.137 372.729 136.273 371.851 136.273 370.601ZM142.069 368.673H144.263V373.594H145.327V368.673H147.522V367.609H142.069V368.673ZM148.091 370.601C148.091 372.397 149.368 373.727 151.283 373.727C153.199 373.727 154.475 372.397 154.475 370.601C154.475 368.806 153.199 367.476 151.283 367.476C149.368 367.476 148.091 368.806 148.091 370.601ZM149.222 370.601C149.222 369.338 150.113 368.473 151.283 368.473C152.48 368.473 153.345 369.351 153.345 370.601C153.345 371.878 152.48 372.729 151.283 372.729C150.086 372.729 149.222 371.851 149.222 370.601ZM155.612 370.601C155.612 372.397 156.889 373.727 158.804 373.727C160.719 373.727 161.996 372.397 161.996 370.601C161.996 368.806 160.719 367.476 158.804 367.476C156.889 367.476 155.612 368.806 155.612 370.601ZM156.742 370.601C156.742 369.338 157.633 368.473 158.804 368.473C160.001 368.473 160.865 369.351 160.865 370.601C160.865 371.878 160.001 372.729 158.804 372.729C157.607 372.729 156.742 371.851 156.742 370.601ZM162.539 368.673H164.733V373.594H165.797V368.673H167.992V367.609H162.539V368.673ZM173.65 367.609H172.586V370.335C172.32 370.521 171.814 370.708 171.216 370.708C170.405 370.708 169.926 370.255 169.926 369.298V367.609H168.795V369.418C168.795 370.96 169.487 371.705 170.923 371.705C171.588 371.705 172.187 371.519 172.586 371.266V373.594H173.65V367.609ZM180.292 372.104C179.907 372.463 179.228 372.729 178.457 372.729C177.287 372.729 176.462 372.064 176.369 370.934H180.971C181.011 370.748 181.037 370.508 181.037 370.216C181.037 368.566 179.8 367.476 178.257 367.476C176.289 367.476 175.172 368.859 175.172 370.601C175.172 372.49 176.435 373.727 178.377 373.727C179.175 373.727 180.04 373.474 180.625 372.942L180.292 372.104ZM178.204 368.473C179.242 368.473 179.88 369.085 179.933 370.069H176.302C176.422 369.152 177.114 368.473 178.204 368.473ZM176.223 365.481C176.223 365.906 176.502 366.146 176.848 366.146C177.14 366.146 177.433 365.906 177.433 365.481C177.433 365.108 177.14 364.869 176.848 364.869C176.502 364.869 176.223 365.108 176.223 365.481ZM178.922 365.481C178.922 365.906 179.215 366.146 179.561 366.146C179.853 366.146 180.146 365.906 180.146 365.481C180.146 365.108 179.853 364.869 179.561 364.869C179.215 364.869 178.922 365.108 178.922 365.481ZM181.606 368.673H183.8V373.594H184.864V368.673H187.059V367.609H181.606V368.673ZM188.541 368.872C189.02 368.62 189.459 368.433 190.19 368.433C191.374 368.433 191.547 369.205 191.547 370.322C191.148 370.029 190.523 369.936 190.057 369.936C188.767 369.936 187.796 370.615 187.796 371.838C187.796 372.995 188.541 373.687 189.631 373.687C190.616 373.687 191.188 373.275 191.547 372.822V373.594H192.557V369.923C192.557 368.367 191.959 367.476 190.257 367.476C189.512 367.476 188.794 367.689 188.262 368.021L188.541 368.872ZM190.004 372.729C189.312 372.729 188.927 372.357 188.927 371.785C188.927 371.093 189.565 370.801 190.203 370.801C190.722 370.801 191.174 370.934 191.547 371.2V371.958C191.241 372.317 190.789 372.729 190.004 372.729Z" fill="#304960"/>
<path d="M253.894 371.931L248.906 366.944L243.919 371.931" stroke="#2884C9" stroke-linecap="round" stroke-linejoin="round"/>
<path d="M267.194 303.353H22.8062C21.6584 303.353 20.728 304.284 20.728 305.431V342.006C20.728 343.154 21.6584 344.084 22.8062 344.084H267.194C268.341 344.084 269.272 343.154 269.272 342.006V305.431C269.272 304.284 268.341 303.353 267.194 303.353Z" fill="#E8F8FF" stroke="#17C5CC"/>
<path d="M243.919 321.225L248.906 326.212L253.894 321.225" stroke="#2884C9" stroke-linecap="round" stroke-linejoin="round"/>
<path d="M30.0215 327.875H35.408V326.811H31.152V323.699H34.876V322.635H31.152V319.629H35.275V318.565H30.0215V327.875ZM44.9467 321.89H43.63L41.5685 324.776L43.7896 327.875H45.1063L42.7788 324.776L44.9467 321.89ZM40.2385 327.875H41.3025V321.89H40.2385V327.875ZM38.7622 324.776L36.4746 327.875H37.778L39.9725 324.776L37.9243 321.89H36.5943L38.7622 324.776ZM50.6564 326.385C50.2707 326.744 49.5924 327.01 48.821 327.01C47.6506 327.01 46.826 326.345 46.7329 325.215H51.3347C51.3746 325.029 51.4012 324.789 51.4012 324.497C51.4012 322.848 50.1643 321.757 48.6215 321.757C46.6531 321.757 45.5359 323.14 45.5359 324.882C45.5359 326.771 46.7994 328.008 48.7412 328.008C49.5392 328.008 50.4037 327.755 50.9889 327.223L50.6564 326.385ZM48.5683 322.754C49.6057 322.754 50.2441 323.366 50.2973 324.35H46.6664C46.7861 323.433 47.4777 322.754 48.5683 322.754ZM51.7862 329.338H52.7837V327.875H57.6249V329.338H58.6224V326.877H57.6249V321.89H53.5418L53.4487 323.473C53.3423 325.109 52.93 326.372 52.531 326.877H51.7862V329.338ZM54.4728 323.885L54.5393 322.887H56.5609V326.877H53.6615C53.9408 326.505 54.3398 325.414 54.4728 323.885ZM64.1693 327.875H65.2333V321.89H64.1693V324.35H60.8443V321.89H59.7803V327.875H60.8443V325.348H64.1693V327.875ZM71.8792 326.385C71.4935 326.744 70.8152 327.01 70.0438 327.01C68.8734 327.01 68.0488 326.345 67.9557 325.215H72.5575C72.5974 325.029 72.624 324.789 72.624 324.497C72.624 322.848 71.3871 321.757 69.8443 321.757C67.8759 321.757 66.7587 323.14 66.7587 324.882C66.7587 326.771 68.0222 328.008 69.964 328.008C70.762 328.008 71.6265 327.755 72.2117 327.223L71.8792 326.385ZM69.7911 322.754C70.8285 322.754 71.4669 323.366 71.5201 324.35H67.8892C68.0089 323.433 68.7005 322.754 69.7911 322.754ZM74.0674 327.875C74.6127 327.875 75.5171 327.928 76.2619 327.928C78.1239 327.928 79.015 327.316 79.015 326.186C79.015 325.441 78.5761 324.949 77.6185 324.776V324.749C78.3367 324.643 78.8155 324.084 78.8155 323.38C78.8155 322.302 77.9111 321.837 76.2353 321.837C75.3708 321.837 74.5861 321.89 74.0674 321.89V327.875ZM76.4082 325.188C77.3658 325.188 77.8845 325.481 77.8845 326.106C77.8845 326.731 77.3392 327.064 76.355 327.064C75.8762 327.064 75.4506 327.037 75.1314 327.024V325.188H76.4082ZM76.3151 322.701C77.0865 322.701 77.685 322.941 77.685 323.592C77.685 324.178 77.1796 324.523 76.4747 324.523H75.1314V322.741C75.3974 322.728 75.8363 322.701 76.3151 322.701ZM85.0285 327.875H86.0925V321.89H85.0285V324.35H81.7035V321.89H80.6395V327.875H81.7035V325.348H85.0285V327.875ZM87.6179 324.882C87.6179 326.678 88.8947 328.008 90.8099 328.008C92.7251 328.008 94.0019 326.678 94.0019 324.882C94.0019 323.087 92.7251 321.757 90.8099 321.757C88.8947 321.757 87.6179 323.087 87.6179 324.882ZM88.7484 324.882C88.7484 323.619 89.6395 322.754 90.8099 322.754C92.0069 322.754 92.8714 323.632 92.8714 324.882C92.8714 326.159 92.0069 327.01 90.8099 327.01C89.6129 327.01 88.7484 326.133 88.7484 324.882Z" fill="#304960"/>
<path d="M267.194 257.634H22.8062C21.6584 257.634 20.728 258.565 20.728 259.712V296.287C20.728 297.435 21.6584 298.366 22.8062 298.366H267.194C268.341 298.366 269.272 297.435 269.272 296.287V259.712C269.272 258.565 268.341 257.634 267.194 257.634Z" fill="#E8F8FF" stroke="#17C5CC"/>
<path d="M243.919 275.506L248.906 280.494L253.894 275.506" stroke="#2884C9" stroke-linecap="round" stroke-linejoin="round"/>
<path d="M30.0215 282.143C30.5668 282.17 31.6973 282.196 32.5219 282.196C34.4504 282.196 35.9001 281.385 35.9001 279.496C35.9001 278.219 35.1287 277.475 33.9716 277.288V277.262C34.8627 276.969 35.5676 276.278 35.5676 275.107C35.5676 273.817 34.7962 272.806 32.5751 272.806C31.7106 272.806 30.5402 272.846 30.0215 272.86V282.143ZM32.6549 277.914C33.9982 277.914 34.7696 278.446 34.7696 279.43C34.7696 280.574 33.9583 281.132 32.5884 281.132C32.0564 281.132 31.4579 281.106 31.152 281.079V277.914H32.6549ZM32.5485 273.87C33.7854 273.87 34.4371 274.389 34.4371 275.36C34.4371 276.371 33.6258 276.916 32.6416 276.916H31.152V273.91C31.4845 273.897 32.0564 273.87 32.5485 273.87ZM37.7912 282.156H39.7197C41.595 282.156 42.2068 281.079 42.2068 280.028C42.2068 278.964 41.6748 277.967 39.8394 277.967H38.8552V276.171H37.7912V282.156ZM43.3506 282.156H44.4146V276.171H43.3506V282.156ZM39.6399 278.964C40.664 278.964 41.0763 279.35 41.0763 280.068C41.0763 280.773 40.6906 281.159 39.6266 281.159H38.8552V278.964H39.6399ZM50.647 282.156H51.711V276.171H46.3245V282.156H47.3885V277.169H50.647V282.156ZM53.2379 279.164C53.2379 280.959 54.5147 282.289 56.4299 282.289C58.3451 282.289 59.6219 280.959 59.6219 279.164C59.6219 277.368 58.3451 276.038 56.4299 276.038C54.5147 276.038 53.2379 277.368 53.2379 279.164ZM54.3684 279.164C54.3684 277.9 55.2595 277.036 56.4299 277.036C57.6269 277.036 58.4914 277.914 58.4914 279.164C58.4914 280.441 57.6269 281.292 56.4299 281.292C55.2329 281.292 54.3684 280.414 54.3684 279.164ZM65.0197 282.156H66.0837V276.171H61.9208L61.8144 278.033C61.6681 280.8 60.8169 281.239 60.3647 281.199L60.4445 282.236C61.6814 282.236 62.5858 281.651 62.8518 278.246L62.9183 277.235H65.0197V282.156ZM72.391 282.156H73.455V276.171H72.391V278.632H69.066V276.171H68.002V282.156H69.066V279.629H72.391V282.156ZM76.4433 282.156L79.9013 277.701V282.156H80.9653V276.171H79.9013L76.4433 280.627V276.171H75.3793V282.156H76.4433ZM82.1414 277.235H84.3359V282.156H85.3999V277.235H87.5944V276.171H82.1414V277.235ZM88.7572 282.156H90.7788C92.6674 282.156 93.2792 281.079 93.2792 280.028C93.2792 278.964 92.7472 277.967 90.9118 277.967H89.8212V276.171H88.7572V282.156ZM90.7123 278.964C91.7364 278.964 92.1487 279.35 92.1487 280.068C92.1487 280.773 91.7497 281.159 90.699 281.159H89.8212V278.964H90.7123ZM103.133 276.171H101.923L100.54 279.962C100.433 280.281 100.34 280.587 100.26 280.879C100.141 280.574 100.034 280.281 99.9014 279.975L98.1458 276.171H96.8689L99.7417 282.156L99.6087 282.475C99.2097 283.433 98.8373 283.832 98.3319 283.832C98.0926 283.832 97.8664 283.726 97.6669 283.633L97.3211 284.444C97.6403 284.657 97.9994 284.816 98.4516 284.816C99.3028 284.816 99.8614 284.298 100.739 282.156L103.133 276.171ZM103.585 277.235H105.78V282.156H106.844V277.235H109.038V276.171H103.585V277.235ZM110.201 284.816H111.265V281.877C111.69 282.156 112.315 282.289 112.954 282.289C114.829 282.289 116.066 280.893 116.066 279.071C116.066 277.302 115.002 276.038 113.299 276.038C112.475 276.038 111.677 276.397 111.265 276.876V276.171H110.201V284.816ZM112.994 277.036C114.23 277.036 114.935 277.9 114.935 279.111C114.935 280.374 114.137 281.292 112.861 281.292C112.289 281.292 111.797 281.185 111.265 280.826V277.86C111.637 277.395 112.289 277.036 112.994 277.036ZM117.192 279.164C117.192 280.959 118.469 282.289 120.384 282.289C122.299 282.289 123.576 280.959 123.576 279.164C123.576 277.368 122.299 276.038 120.384 276.038C118.469 276.038 117.192 277.368 117.192 279.164ZM118.323 279.164C118.323 277.9 119.214 277.036 120.384 277.036C121.581 277.036 122.446 277.914 122.446 279.164C122.446 280.441 121.581 281.292 120.384 281.292C119.187 281.292 118.323 280.414 118.323 279.164ZM125.112 282.156H126.175V277.794L128.33 280.574H128.37L130.445 277.794V282.156H131.509V276.171H130.564L128.383 279.137L126.082 276.171H125.112V282.156Z" fill="#304960"/>
<path d="M267.194 170.353H22.8062C21.6584 170.353 20.728 171.284 20.728 172.431V250.569C20.728 251.716 21.6584 252.647 22.8062 252.647H267.194C268.341 252.647 269.272 251.716 269.272 250.569V172.431C269.272 171.284 268.341 170.353 267.194 170.353Z" fill="#E8F8FF" stroke="#17C5CC"/>
<path d="M31.019 189.887L36.6715 182.439V189.887H37.802V180.577H36.8045L31.152 188.025V180.577H30.0215V189.887H31.019ZM42.1368 190.02C43.6131 190.02 44.6771 189.342 44.6771 188.225C44.6771 187.533 44.2648 186.908 43.4269 186.815V186.789C44.185 186.523 44.4776 185.964 44.4776 185.379C44.4776 184.395 43.6929 183.769 42.2299 183.769C41.2856 183.769 40.3546 184.062 39.8625 184.567L40.2748 185.392C40.6738 185.073 41.2457 184.727 42.0703 184.727C42.8417 184.727 43.3471 185.046 43.3471 185.592C43.3471 186.07 42.9082 186.443 42.3097 186.443H41.3654V187.307H42.3762C43.1076 187.307 43.5466 187.587 43.5466 188.079C43.5466 188.677 42.8816 189.063 41.9772 189.063C41.4585 189.063 40.7137 188.823 40.2083 188.411L39.663 189.209C40.062 189.688 41.259 190.02 42.1368 190.02ZM46.2985 189.887H47.3625V185.525L49.5171 188.305H49.557L51.6318 185.525V189.887H52.6958V183.902H51.7515L49.5703 186.868L47.2694 183.902H46.2985V189.887ZM59.3455 188.398C58.9598 188.757 58.2815 189.023 57.5101 189.023C56.3397 189.023 55.5151 188.358 55.422 187.227H60.0238C60.0637 187.041 60.0903 186.802 60.0903 186.509C60.0903 184.86 58.8534 183.769 57.3106 183.769C55.3422 183.769 54.225 185.153 54.225 186.895C54.225 188.784 55.4885 190.02 57.4303 190.02C58.2283 190.02 59.0928 189.768 59.678 189.236L59.3455 188.398ZM57.2574 184.767C58.2948 184.767 58.9332 185.379 58.9864 186.363H55.3555C55.4752 185.445 56.1668 184.767 57.2574 184.767ZM61.5338 192.547H62.5978V189.608C63.0234 189.887 63.6485 190.02 64.2869 190.02C66.1622 190.02 67.3991 188.624 67.3991 186.802C67.3991 185.033 66.3351 183.769 64.6327 183.769C63.8081 183.769 63.0101 184.129 62.5978 184.607V183.902H61.5338V192.547ZM64.3268 184.767C65.5637 184.767 66.2686 185.631 66.2686 186.842C66.2686 188.105 65.4706 189.023 64.1938 189.023C63.6219 189.023 63.1298 188.917 62.5978 188.557V185.592C62.9702 185.126 63.6219 184.767 64.3268 184.767ZM69.9881 189.887L73.4461 185.432V189.887H74.5101V183.902H73.4461L69.9881 188.358V183.902H68.9241V189.887H69.9881ZM75.6862 184.966H77.8807V189.887H78.9447V184.966H81.1392V183.902H75.6862V184.966ZM82.302 189.887H84.3236C86.2122 189.887 86.824 188.81 86.824 187.759C86.824 186.695 86.292 185.698 84.4566 185.698H83.366V183.902H82.302V189.887ZM84.2571 186.695C85.2812 186.695 85.6935 187.081 85.6935 187.799C85.6935 188.504 85.2945 188.89 84.2438 188.89H83.366V186.695H84.2571ZM91.238 189.887H92.302V184.9H95.0285V183.902H91.238V189.887ZM99.7501 189.887H100.814V183.902H96.6512L96.5448 185.764C96.3985 188.531 95.5473 188.97 95.0954 188.93L95.1749 189.967C96.4118 189.967 97.3162 189.382 97.5822 185.977L97.6487 184.966H99.7501V189.887ZM102.733 189.887H103.863V187.36H105.153C105.339 188.917 106.496 190.02 108.186 190.02C110.034 190.02 111.311 188.69 111.311 186.895C111.311 185.099 110.061 183.769 108.186 183.769C106.55 183.769 105.406 184.82 105.166 186.296H103.863V183.902H102.733V189.887ZM106.324 186.895C106.324 185.658 107.108 184.833 108.225 184.833C109.369 184.833 110.114 185.671 110.114 186.895C110.114 188.145 109.329 188.956 108.225 188.956C107.122 188.956 106.324 188.158 106.324 186.895ZM118.077 183.902H116.681L114.154 186.828L116.854 189.887H118.33L115.457 186.762L118.077 183.902ZM112.837 189.887H113.901V183.902H112.837V189.887ZM118.737 186.895C118.737 188.69 120.014 190.02 121.929 190.02C123.845 190.02 125.121 188.69 125.121 186.895C125.121 185.099 123.845 183.769 121.929 183.769C120.014 183.769 118.737 185.099 118.737 186.895ZM119.868 186.895C119.868 185.631 120.759 184.767 121.929 184.767C123.126 184.767 123.991 185.645 123.991 186.895C123.991 188.172 123.126 189.023 121.929 189.023C120.732 189.023 119.868 188.145 119.868 186.895ZM126.657 189.887H127.721V185.525L129.875 188.305H129.915L131.99 185.525V189.887H133.054V183.902H132.11L129.929 186.868L127.628 183.902H126.657V189.887ZM139.704 188.398C139.318 188.757 138.64 189.023 137.869 189.023C136.698 189.023 135.874 188.358 135.781 187.227H140.382C140.422 187.041 140.449 186.802 140.449 186.509C140.449 184.86 139.212 183.769 137.669 183.769C135.701 183.769 134.584 185.153 134.584 186.895C134.584 188.784 135.847 190.02 137.789 190.02C138.587 190.02 139.451 189.768 140.037 189.236L139.704 188.398ZM137.616 184.767C138.653 184.767 139.292 185.379 139.345 186.363H135.714C135.834 185.445 136.525 184.767 137.616 184.767ZM141.017 184.966H143.212V189.887H144.276V184.966H146.47V183.902H141.017V184.966ZM147.633 192.547H148.697V189.608C149.123 189.887 149.748 190.02 150.386 190.02C152.262 190.02 153.499 188.624 153.499 186.802C153.499 185.033 152.435 183.769 150.732 183.769C149.908 183.769 149.11 184.129 148.697 184.607V183.902H147.633V192.547ZM150.426 184.767C151.663 184.767 152.368 185.631 152.368 186.842C152.368 188.105 151.57 189.023 150.293 189.023C149.721 189.023 149.229 188.917 148.697 188.557V185.592C149.07 185.126 149.721 184.767 150.426 184.767ZM154.624 186.895C154.624 188.69 155.901 190.02 157.816 190.02C159.731 190.02 161.008 188.69 161.008 186.895C161.008 185.099 159.731 183.769 157.816 183.769C155.901 183.769 154.624 185.099 154.624 186.895ZM155.755 186.895C155.755 185.631 156.646 184.767 157.816 184.767C159.013 184.767 159.878 185.645 159.878 186.895C159.878 188.172 159.013 189.023 157.816 189.023C156.619 189.023 155.755 188.145 155.755 186.895ZM162.544 189.887H163.608V185.525L165.762 188.305H165.802L167.877 185.525V189.887H168.941V183.902H167.997L165.815 186.868L163.514 183.902H162.544V189.887ZM179.297 183.902H178.086L176.703 187.693C176.597 188.012 176.504 188.318 176.424 188.611C176.304 188.305 176.198 188.012 176.065 187.706L174.309 183.902H173.032L175.905 189.887L175.772 190.207C175.373 191.164 175.001 191.563 174.495 191.563C174.256 191.563 174.03 191.457 173.83 191.364L173.484 192.175C173.804 192.388 174.163 192.547 174.615 192.547C175.466 192.547 176.025 192.029 176.903 189.887L179.297 183.902ZM180.39 192.547H181.454V189.608C181.879 189.887 182.504 190.02 183.143 190.02C185.018 190.02 186.255 188.624 186.255 186.802C186.255 185.033 185.191 183.769 183.489 183.769C182.664 183.769 181.866 184.129 181.454 184.607V183.902H180.39V192.547ZM183.183 184.767C184.42 184.767 185.124 185.631 185.124 186.842C185.124 188.105 184.326 189.023 183.05 189.023C182.478 189.023 181.986 188.917 181.454 188.557V185.592C181.826 185.126 182.478 184.767 183.183 184.767ZM187.381 186.895C187.381 188.69 188.658 190.02 190.573 190.02C192.488 190.02 193.765 188.69 193.765 186.895C193.765 185.099 192.488 183.769 190.573 183.769C188.658 183.769 187.381 185.099 187.381 186.895ZM188.512 186.895C188.512 185.631 189.403 184.767 190.573 184.767C191.77 184.767 192.635 185.645 192.635 186.895C192.635 188.172 191.77 189.023 190.573 189.023C189.376 189.023 188.512 188.145 188.512 186.895ZM195.3 189.887C195.845 189.887 196.749 189.941 197.494 189.941C199.356 189.941 200.247 189.329 200.247 188.198C200.247 187.454 199.808 186.961 198.851 186.789V186.762C199.569 186.656 200.048 186.097 200.048 185.392C200.048 184.315 199.143 183.849 197.468 183.849C196.603 183.849 195.818 183.902 195.3 183.902V189.887ZM197.641 187.201C198.598 187.201 199.117 187.493 199.117 188.119C199.117 188.744 198.572 189.076 197.587 189.076C197.109 189.076 196.683 189.05 196.364 189.036V187.201H197.641ZM197.547 184.714C198.319 184.714 198.917 184.953 198.917 185.605C198.917 186.19 198.412 186.536 197.707 186.536H196.364V184.754C196.63 184.74 197.069 184.714 197.547 184.714ZM206.594 188.398C206.208 188.757 205.53 189.023 204.759 189.023C203.588 189.023 202.764 188.358 202.67 187.227H207.272C207.312 187.041 207.339 186.802 207.339 186.509C207.339 184.86 206.102 183.769 204.559 183.769C202.591 183.769 201.473 185.153 201.473 186.895C201.473 188.784 202.737 190.02 204.679 190.02C205.477 190.02 206.341 189.768 206.926 189.236L206.594 188.398ZM204.506 184.767C205.543 184.767 206.182 185.379 206.235 186.363H202.604C202.724 185.445 203.415 184.767 204.506 184.767ZM213.171 189.887H214.235V183.902H213.171V186.363H209.846V183.902H208.782V189.887H209.846V187.36H213.171V189.887ZM216.159 189.887H218.181C220.069 189.887 220.681 188.81 220.681 187.759C220.681 186.695 220.149 185.698 218.314 185.698H217.223V183.902H216.159V189.887ZM218.114 186.695C219.138 186.695 219.551 187.081 219.551 187.799C219.551 188.504 219.152 188.89 218.101 188.89H217.223V186.695H218.114ZM34.1844 203.214C33.7854 203.666 33.1869 203.985 32.4687 203.985C31.285 203.985 30.3141 203.174 30.3141 201.857C30.3141 200.594 31.285 199.729 32.3623 199.729C32.9874 199.729 33.5726 199.889 34.078 200.355L34.5701 199.517C34.0115 198.958 33.1736 198.732 32.216 198.732C30.4604 198.732 29.1836 200.115 29.1836 201.857C29.1836 203.746 30.487 204.983 32.3889 204.983C33.3066 204.983 34.1844 204.637 34.6898 203.985L34.1844 203.214ZM36.3959 200.128C36.8747 199.876 37.3136 199.69 38.0451 199.69C39.2288 199.69 39.4017 200.461 39.4017 201.578C39.0027 201.286 38.3776 201.192 37.9121 201.192C36.622 201.192 35.6511 201.871 35.6511 203.094C35.6511 204.251 36.3959 204.943 37.4865 204.943C38.4707 204.943 39.0426 204.531 39.4017 204.079V204.85H40.4125V201.179C40.4125 199.623 39.814 198.732 38.1116 198.732C37.3668 198.732 36.6486 198.945 36.1166 199.277L36.3959 200.128ZM37.8589 203.985C37.1673 203.985 36.7816 203.613 36.7816 203.041C36.7816 202.35 37.42 202.057 38.0584 202.057C38.5771 202.057 39.0293 202.19 39.4017 202.456V203.214C39.0958 203.573 38.6436 203.985 37.8589 203.985ZM47.5142 198.865H46.2773L44.6281 201.126L43.0055 198.865H41.7021L43.8301 201.804L41.5691 204.85H42.806L44.5882 202.429L46.3438 204.85H47.6472L45.3729 201.751L47.5142 198.865ZM49.2544 200.128C49.7331 199.876 50.1721 199.69 50.9036 199.69C52.0873 199.69 52.2602 200.461 52.2602 201.578C51.8612 201.286 51.2361 201.192 50.7706 201.192C49.4805 201.192 48.5096 201.871 48.5096 203.094C48.5096 204.251 49.2544 204.943 50.345 204.943C51.3292 204.943 51.9011 204.531 52.2602 204.079V204.85H53.271V201.179C53.271 199.623 52.6725 198.732 50.9701 198.732C50.2253 198.732 49.5071 198.945 48.9751 199.277L49.2544 200.128ZM50.7174 203.985C50.0258 203.985 49.64 203.613 49.64 203.041C49.64 202.35 50.2785 202.057 50.9169 202.057C51.4356 202.057 51.8877 202.19 52.2602 202.456V203.214C51.9543 203.573 51.5021 203.985 50.7174 203.985ZM55.0526 207.51H56.1166V204.571C56.5422 204.85 57.1673 204.983 57.8057 204.983C59.681 204.983 60.9179 203.586 60.9179 201.764C60.9179 199.995 59.8539 198.732 58.1515 198.732C57.3269 198.732 56.5289 199.091 56.1166 199.57V198.865H55.0526V207.51ZM57.8456 199.729C59.0825 199.729 59.7874 200.594 59.7874 201.804C59.7874 203.068 58.9894 203.985 57.7126 203.985C57.1407 203.985 56.6486 203.879 56.1166 203.52V200.554C56.489 200.089 57.1407 199.729 57.8456 199.729ZM62.7622 200.128C63.2409 199.876 63.6799 199.69 64.4114 199.69C65.5951 199.69 65.768 200.461 65.768 201.578C65.369 201.286 64.7439 201.192 64.2784 201.192C62.9883 201.192 62.0174 201.871 62.0174 203.094C62.0174 204.251 62.7622 204.943 63.8528 204.943C64.837 204.943 65.4089 204.531 65.768 204.079V204.85H66.7788V201.179C66.7788 199.623 66.1803 198.732 64.4779 198.732C63.7331 198.732 63.0149 198.945 62.4829 199.277L62.7622 200.128ZM64.2252 203.985C63.5336 203.985 63.1478 203.613 63.1478 203.041C63.1478 202.35 63.7863 202.057 64.4247 202.057C64.9434 202.057 65.3955 202.19 65.768 202.456V203.214C65.4621 203.573 65.0099 203.985 64.2252 203.985ZM71.5477 204.85C72.093 204.85 72.9974 204.903 73.7422 204.903C75.6042 204.903 76.4953 204.291 76.4953 203.161C76.4953 202.416 76.0564 201.924 75.0989 201.751V201.724C75.8171 201.618 76.2958 201.059 76.2958 200.355C76.2958 199.277 75.3914 198.812 73.7156 198.812C72.8511 198.812 72.0664 198.865 71.5477 198.865V204.85ZM73.8885 202.163C74.8461 202.163 75.3648 202.456 75.3648 203.081C75.3648 203.706 74.8195 204.039 73.8353 204.039C73.3565 204.039 72.9309 204.012 72.6117 203.999V202.163H73.8885ZM73.7954 199.676C74.5668 199.676 75.1654 199.916 75.1654 200.567C75.1654 201.153 74.66 201.498 73.9551 201.498H72.6117V199.716C72.8777 199.703 73.3167 199.676 73.7954 199.676ZM86.3473 198.865H84.9508L82.4238 201.791L85.1237 204.85H86.6L83.7272 201.724L86.3473 198.865ZM81.1071 204.85H82.1711V198.865H81.1071V204.85ZM87.7311 207.51H88.7951V204.571C89.2207 204.85 89.8458 204.983 90.4842 204.983C92.3595 204.983 93.5964 203.586 93.5964 201.764C93.5964 199.995 92.5324 198.732 90.83 198.732C90.0054 198.732 89.2074 199.091 88.7951 199.57V198.865H87.7311V207.51ZM90.5241 199.729C91.761 199.729 92.4659 200.594 92.4659 201.804C92.4659 203.068 91.6679 203.985 90.3911 203.985C89.8192 203.985 89.3271 203.879 88.7951 203.52V200.554C89.1675 200.089 89.8192 199.729 90.5241 199.729ZM94.7225 201.857C94.7225 203.653 95.9995 204.983 97.9147 204.983C99.8299 204.983 101.107 203.653 101.107 201.857C101.107 200.062 99.8299 198.732 97.9147 198.732C95.9995 198.732 94.7225 200.062 94.7225 201.857ZM95.8532 201.857C95.8532 200.594 96.7443 199.729 97.9147 199.729C99.1117 199.729 99.9762 200.607 99.9762 201.857C99.9762 203.134 99.1117 203.985 97.9147 203.985C96.7177 203.985 95.8532 203.108 95.8532 201.857ZM102.642 204.85C103.187 204.85 104.092 204.903 104.836 204.903C106.698 204.903 107.59 204.291 107.59 203.161C107.59 202.416 107.151 201.924 106.193 201.751V201.724C106.911 201.618 107.39 201.059 107.39 200.355C107.39 199.277 106.486 198.812 104.81 198.812C103.945 198.812 103.161 198.865 102.642 198.865V204.85ZM104.983 202.163C105.94 202.163 106.459 202.456 106.459 203.081C106.459 203.706 105.914 204.039 104.93 204.039C104.451 204.039 104.025 204.012 103.706 203.999V202.163H104.983ZM104.89 199.676C105.661 199.676 106.26 199.916 106.26 200.567C106.26 201.153 105.754 201.498 105.049 201.498H103.706V199.716C103.972 199.703 104.411 199.676 104.89 199.676ZM110.278 204.85L113.736 200.394V204.85H114.8V198.865H113.736L110.278 203.32V198.865H109.214V204.85H110.278ZM116.442 204.132C116.442 204.531 116.734 204.89 117.2 204.89C117.612 204.89 117.905 204.531 117.905 204.132C117.905 203.786 117.612 203.427 117.2 203.427C116.734 203.427 116.442 203.786 116.442 204.132ZM36.206 219.812H37.3365V210.502H30.0215V219.812H31.152V211.566H36.206V219.812ZM39.2885 216.82C39.2885 218.615 40.5653 219.945 42.4805 219.945C44.3957 219.945 45.6725 218.615 45.6725 216.82C45.6725 215.024 44.3957 213.694 42.4805 213.694C40.5653 213.694 39.2885 215.024 39.2885 216.82ZM40.419 216.82C40.419 215.556 41.3101 214.692 42.4805 214.692C43.6775 214.692 44.542 215.57 44.542 216.82C44.542 218.097 43.6775 218.948 42.4805 218.948C41.2835 218.948 40.419 218.07 40.419 216.82ZM52.4479 213.827H51.0514L48.5244 216.754L51.2243 219.812H52.7006L49.8278 216.687L52.4479 213.827ZM47.2077 219.812H48.2717V213.827H47.2077V219.812ZM54.1509 215.091C54.6297 214.838 55.0686 214.652 55.8001 214.652C56.9838 214.652 57.1567 215.423 57.1567 216.541C56.7577 216.248 56.1326 216.155 55.6671 216.155C54.377 216.155 53.4061 216.833 53.4061 218.057C53.4061 219.214 54.1509 219.906 55.2415 219.906C56.2257 219.906 56.7976 219.493 57.1567 219.041V219.812H58.1675V216.142C58.1675 214.586 57.569 213.694 55.8666 213.694C55.1218 213.694 54.4036 213.907 53.8716 214.24L54.1509 215.091ZM55.6139 218.948C54.9223 218.948 54.5366 218.576 54.5366 218.004C54.5366 217.312 55.175 217.019 55.8134 217.019C56.3321 217.019 56.7843 217.152 57.1567 217.418V218.177C56.8508 218.536 56.3986 218.948 55.6139 218.948ZM61.9309 219.945C63.4072 219.945 64.4712 219.267 64.4712 218.15C64.4712 217.458 64.0589 216.833 63.221 216.74V216.714C63.9791 216.448 64.2717 215.889 64.2717 215.304C64.2717 214.32 63.487 213.694 62.024 213.694C61.0797 213.694 60.1487 213.987 59.6566 214.493L60.0689 215.317C60.4679 214.998 61.0398 214.652 61.8644 214.652C62.6358 214.652 63.1412 214.971 63.1412 215.517C63.1412 215.995 62.7023 216.368 62.1038 216.368H61.1595V217.232H62.1703C62.9018 217.232 63.3407 217.512 63.3407 218.004C63.3407 218.602 62.6757 218.988 61.7713 218.988C61.2526 218.988 60.5078 218.748 60.0024 218.336L59.4571 219.134C59.8561 219.613 61.0531 219.945 61.9309 219.945ZM66.4119 215.091C66.8907 214.838 67.3296 214.652 68.0611 214.652C69.2448 214.652 69.4177 215.423 69.4177 216.541C69.0187 216.248 68.3936 216.155 67.9281 216.155C66.638 216.155 65.6671 216.833 65.6671 218.057C65.6671 219.214 66.4119 219.906 67.5025 219.906C68.4867 219.906 69.0586 219.493 69.4177 219.041V219.812H70.4285V216.142C70.4285 214.586 69.83 213.694 68.1276 213.694C67.3828 213.694 66.6646 213.907 66.1326 214.24L66.4119 215.091ZM67.8749 218.948C67.1833 218.948 66.7976 218.576 66.7976 218.004C66.7976 217.312 67.436 217.019 68.0744 217.019C68.5931 217.019 69.0453 217.152 69.4177 217.418V218.177C69.1118 218.536 68.6596 218.948 67.8749 218.948ZM76.5992 219.812H77.6632V213.827H76.5992V216.288H73.2742V213.827H72.2102V219.812H73.2742V217.285H76.5992V219.812ZM80.6515 219.812L84.1095 215.357V219.812H85.1735V213.827H84.1095L80.6515 218.283V213.827H79.5875V219.812H80.6515ZM89.7278 213.827C87.7328 213.827 87.0545 214.798 87.0545 215.822C87.0545 216.807 87.7328 217.405 88.3446 217.551L86.6156 219.812H87.9057L89.3687 217.818H90.5258V219.812H91.5898V213.827H89.7278ZM88.185 215.849C88.185 215.29 88.5574 214.825 89.5549 214.825H90.5258V216.82H89.3022C88.7702 216.82 88.185 216.461 88.185 215.849ZM96.1125 216.82C96.1125 218.615 97.3893 219.945 99.3045 219.945C101.22 219.945 102.497 218.615 102.497 216.82C102.497 215.024 101.22 213.694 99.3045 213.694C97.3893 213.694 96.1125 215.024 96.1125 216.82ZM97.243 216.82C97.243 215.556 98.1341 214.692 99.3045 214.692C100.502 214.692 101.366 215.57 101.366 216.82C101.366 218.097 100.502 218.948 99.3045 218.948C98.1075 218.948 97.243 218.07 97.243 216.82ZM108.66 210.369C108.048 211.167 107.224 210.795 105.827 211.394C103.925 212.192 103.606 214.453 103.606 216.221C103.606 218.522 104.829 219.945 106.772 219.945C108.594 219.945 109.844 218.549 109.844 216.873C109.844 215.078 108.78 213.894 107.064 213.894C106.053 213.894 105.083 214.453 104.697 215.29H104.67C104.75 214.173 105.069 212.91 106.186 212.404C107.503 211.806 108.501 212.192 109.232 211.207L108.66 210.369ZM104.736 216.421C104.923 215.65 105.668 214.891 106.798 214.891C108.035 214.891 108.713 215.756 108.713 216.926C108.713 218.044 107.915 218.948 106.745 218.948C105.561 218.948 104.736 217.964 104.736 216.421ZM113.704 213.827C111.709 213.827 111.031 214.798 111.031 215.822C111.031 216.807 111.709 217.405 112.321 217.551L110.592 219.812H111.882L113.345 217.818H114.502V219.812H115.566V213.827H113.704ZM112.161 215.849C112.161 215.29 112.534 214.825 113.531 214.825H114.502V216.82H113.279C112.747 216.82 112.161 216.461 112.161 215.849ZM119.482 219.945C120.959 219.945 122.023 219.267 122.023 218.15C122.023 217.458 121.61 216.833 120.772 216.74V216.714C121.53 216.448 121.823 215.889 121.823 215.304C121.823 214.32 121.038 213.694 119.575 213.694C118.631 213.694 117.7 213.987 117.208 214.493L117.62 215.317C118.019 214.998 118.591 214.652 119.416 214.652C120.187 214.652 120.693 214.971 120.693 215.517C120.693 215.995 120.254 216.368 119.655 216.368H118.711V217.232H119.722C120.453 217.232 120.892 217.512 120.892 218.004C120.892 218.602 120.227 218.988 119.323 218.988C118.804 218.988 118.059 218.748 117.554 218.336L117.008 219.134C117.407 219.613 118.604 219.945 119.482 219.945ZM123.963 215.091C124.442 214.838 124.88 214.652 125.612 214.652C126.796 214.652 126.969 215.423 126.969 216.541C126.57 216.248 125.944 216.155 125.479 216.155C124.189 216.155 123.218 216.833 123.218 218.057C123.218 219.214 123.963 219.906 125.053 219.906C126.038 219.906 126.609 219.493 126.969 219.041V219.812H127.979V216.142C127.979 214.586 127.381 213.694 125.678 213.694C124.934 213.694 124.215 213.907 123.683 214.24L123.963 215.091ZM125.426 218.948C124.734 218.948 124.348 218.576 124.348 218.004C124.348 217.312 124.987 217.019 125.625 217.019C126.144 217.019 126.596 217.152 126.969 217.418V218.177C126.663 218.536 126.21 218.948 125.426 218.948ZM129.003 214.891H131.198V219.812H132.262V214.891H134.456V213.827H129.003V214.891ZM140.145 218.323C139.76 218.682 139.081 218.948 138.31 218.948C137.14 218.948 136.315 218.283 136.222 217.152H140.824C140.864 216.966 140.89 216.727 140.89 216.434C140.89 214.785 139.653 213.694 138.111 213.694C136.142 213.694 135.025 215.078 135.025 216.82C135.025 218.709 136.288 219.945 138.23 219.945C139.028 219.945 139.893 219.693 140.478 219.161L140.145 218.323ZM138.057 214.692C139.095 214.692 139.733 215.304 139.786 216.288H136.155C136.275 215.37 136.967 214.692 138.057 214.692ZM146.196 219.812H147.26V213.827H143.097L142.991 215.689C142.845 218.456 141.993 218.895 141.541 218.855L141.621 219.892C142.858 219.892 143.762 219.307 144.028 215.902L144.095 214.891H146.196V219.812ZM149.179 219.812H151.2C153.089 219.812 153.701 218.735 153.701 217.684C153.701 216.62 153.169 215.623 151.333 215.623H150.243V213.827H149.179V219.812ZM151.134 216.62C152.158 216.62 152.57 217.006 152.57 217.724C152.57 218.429 152.171 218.815 151.12 218.815H150.243V216.62H151.134ZM159.516 219.812H160.58V213.827H159.516V216.288H156.191V213.827H155.127V219.812H156.191V217.285H159.516V219.812ZM162.105 216.82C162.105 218.615 163.382 219.945 165.297 219.945C167.213 219.945 168.489 218.615 168.489 216.82C168.489 215.024 167.213 213.694 165.297 213.694C163.382 213.694 162.105 215.024 162.105 216.82ZM163.236 216.82C163.236 215.556 164.127 214.692 165.297 214.692C166.494 214.692 167.359 215.57 167.359 216.82C167.359 218.097 166.494 218.948 165.297 218.948C164.1 218.948 163.236 218.07 163.236 216.82ZM174.994 219.945C176.47 219.945 177.534 219.267 177.534 218.15C177.534 217.458 177.122 216.833 176.284 216.74V216.714C177.042 216.448 177.335 215.889 177.335 215.304C177.335 214.32 176.55 213.694 175.087 213.694C174.143 213.694 173.212 213.987 172.72 214.493L173.132 215.317C173.531 214.998 174.103 214.652 174.927 214.652C175.699 214.652 176.204 214.971 176.204 215.517C176.204 215.995 175.765 216.368 175.167 216.368H174.223V217.232H175.233C175.965 217.232 176.404 217.512 176.404 218.004C176.404 218.602 175.739 218.988 174.834 218.988C174.316 218.988 173.571 218.748 173.065 218.336L172.52 219.134C172.919 219.613 174.116 219.945 174.994 219.945ZM179.475 215.091C179.953 214.838 180.393 214.652 181.124 214.652C182.308 214.652 182.481 215.423 182.481 216.541C182.082 216.248 181.457 216.155 180.991 216.155C179.701 216.155 178.73 216.833 178.73 218.057C178.73 219.214 179.475 219.906 180.566 219.906C181.55 219.906 182.122 219.493 182.481 219.041V219.812H183.492V216.142C183.492 214.586 182.893 213.694 181.191 213.694C180.446 213.694 179.728 213.907 179.196 214.24L179.475 215.091ZM180.938 218.948C180.247 218.948 179.861 218.576 179.861 218.004C179.861 217.312 180.499 217.019 181.138 217.019C181.656 217.019 182.108 217.152 182.481 217.418V218.177C182.175 218.536 181.723 218.948 180.938 218.948ZM189.596 219.812H190.66V213.827H185.273V219.812H186.337V214.825H189.596V219.812ZM193.65 219.812L197.108 215.357V219.812H198.172V213.827H197.108L193.65 218.283V213.827H192.586V219.812H193.65ZM204.708 218.177C204.309 218.629 203.71 218.948 202.992 218.948C201.808 218.948 200.838 218.137 200.838 216.82C200.838 215.556 201.808 214.692 202.886 214.692C203.511 214.692 204.096 214.852 204.601 215.317L205.094 214.479C204.535 213.921 203.697 213.694 202.739 213.694C200.984 213.694 199.707 215.078 199.707 216.82C199.707 218.709 201.01 219.945 202.912 219.945C203.83 219.945 204.708 219.6 205.213 218.948L204.708 218.177ZM206.919 215.091C207.398 214.838 207.837 214.652 208.568 214.652C209.752 214.652 209.925 215.423 209.925 216.541C209.526 216.248 208.901 216.155 208.435 216.155C207.145 216.155 206.174 216.833 206.174 218.057C206.174 219.214 206.919 219.906 208.01 219.906C208.994 219.906 209.566 219.493 209.925 219.041V219.812H210.936V216.142C210.936 214.586 210.337 213.694 208.635 213.694C207.89 213.694 207.172 213.907 206.64 214.24L206.919 215.091ZM208.382 218.948C207.69 218.948 207.305 218.576 207.305 218.004C207.305 217.312 207.943 217.019 208.581 217.019C209.1 217.019 209.552 217.152 209.925 217.418V218.177C209.619 218.536 209.167 218.948 208.382 218.948ZM211.96 214.891H214.154V219.812H215.218V214.891H217.413V213.827H211.96V214.891ZM218.575 219.812H220.596C222.485 219.812 223.097 218.735 223.097 217.684C223.097 216.62 222.565 215.623 220.729 215.623H219.639V213.827H218.575V219.812ZM220.53 216.62C221.554 216.62 221.966 217.006 221.966 217.724C221.966 218.429 221.567 218.815 220.517 218.815H219.639V216.62H220.53ZM227.511 219.812C228.056 219.812 228.96 219.866 229.705 219.866C231.567 219.866 232.458 219.254 232.458 218.123C232.458 217.379 232.019 216.886 231.062 216.714V216.687C231.78 216.581 232.259 216.022 232.259 215.317C232.259 214.24 231.354 213.774 229.679 213.774C228.814 213.774 228.029 213.827 227.511 213.827V219.812ZM229.851 217.126C230.809 217.126 231.328 217.418 231.328 218.044C231.328 218.669 230.782 219.001 229.798 219.001C229.319 219.001 228.894 218.975 228.575 218.961V217.126H229.851ZM229.758 214.639C230.53 214.639 231.128 214.878 231.128 215.53C231.128 216.115 230.623 216.461 229.918 216.461H228.575V214.679C228.841 214.665 229.28 214.639 229.758 214.639ZM34.8228 228.79H33.4263L30.8993 231.716L33.5992 234.775H35.0755L32.2027 231.649L34.8228 228.79ZM29.5826 234.775H30.6466V228.79H29.5826V234.775ZM35.4829 231.782C35.4829 233.578 36.7597 234.908 38.6749 234.908C40.5901 234.908 41.8669 233.578 41.8669 231.782C41.8669 229.987 40.5901 228.657 38.6749 228.657C36.7597 228.657 35.4829 229.987 35.4829 231.782ZM36.6134 231.782C36.6134 230.519 37.5045 229.654 38.6749 229.654C39.8719 229.654 40.7364 230.532 40.7364 231.782C40.7364 233.059 39.8719 233.91 38.6749 233.91C37.4779 233.91 36.6134 233.033 36.6134 231.782ZM43.4021 234.775H44.4661V230.413L46.6207 233.192H46.6606L48.7354 230.413V234.775H49.7994V228.79H48.8551L46.6739 231.756L44.373 228.79H43.4021V234.775ZM51.7276 234.775H52.7916V230.413L54.9462 233.192H54.9861L57.0609 230.413V234.775H58.1249V228.79H57.1806L54.9994 231.756L52.6985 228.79H51.7276V234.775ZM64.7746 233.285C64.3889 233.645 63.7106 233.91 62.9392 233.91C61.7688 233.91 60.9442 233.245 60.8511 232.115H65.4529C65.4928 231.929 65.5194 231.689 65.5194 231.397C65.5194 229.748 64.2825 228.657 62.7397 228.657C60.7713 228.657 59.6541 230.04 59.6541 231.782C59.6541 233.671 60.9176 234.908 62.8594 234.908C63.6574 234.908 64.5219 234.655 65.1071 234.123L64.7746 233.285ZM62.6865 229.654C63.7239 229.654 64.3623 230.266 64.4155 231.251H60.7846C60.9043 230.333 61.5959 229.654 62.6865 229.654ZM71.3519 234.775H72.4159V228.79H71.3519V231.251H68.0269V228.79H66.9629V234.775H68.0269V232.248H71.3519V234.775ZM73.5821 229.854H75.7766V234.775H76.8406V229.854H79.0351V228.79H73.5821V229.854ZM80.5171 230.054C80.9959 229.801 81.4348 229.615 82.1663 229.615C83.35 229.615 83.5229 230.386 83.5229 231.503C83.1239 231.211 82.4988 231.118 82.0333 231.118C80.7432 231.118 79.7723 231.796 79.7723 233.019C79.7723 234.177 80.5171 234.868 81.6077 234.868C82.5919 234.868 83.1638 234.456 83.5229 234.004V234.775H84.5337V231.104C84.5337 229.548 83.9352 228.657 82.2328 228.657C81.488 228.657 80.7698 228.87 80.2378 229.202L80.5171 230.054ZM81.9801 233.91C81.2885 233.91 80.9028 233.538 80.9028 232.966C80.9028 232.275 81.5412 231.982 82.1796 231.982C82.6983 231.982 83.1505 232.115 83.5229 232.381V233.139C83.217 233.498 82.7648 233.91 81.9801 233.91ZM86.3154 237.435H87.3794V234.496C87.805 234.775 88.4301 234.908 89.0685 234.908C90.9438 234.908 92.1807 233.511 92.1807 231.689C92.1807 229.92 91.1167 228.657 89.4143 228.657C88.5897 228.657 87.7917 229.016 87.3794 229.495V228.79H86.3154V237.435ZM89.1084 229.654C90.3453 229.654 91.0502 230.519 91.0502 231.729C91.0502 232.993 90.2522 233.91 88.9754 233.91C88.4035 233.91 87.9114 233.804 87.3794 233.445V230.479C87.7518 230.014 88.4035 229.654 89.1084 229.654ZM94.7697 234.775L98.2281 230.32V234.775H99.292V228.79H98.2281L94.7697 233.246V228.79H93.7057V234.775H94.7697ZM103.846 228.79C101.851 228.79 101.173 229.761 101.173 230.785C101.173 231.769 101.851 232.368 102.463 232.514L100.734 234.775H102.024L103.487 232.78H104.644V234.775H105.708V228.79H103.846ZM102.304 230.812C102.304 230.253 102.676 229.787 103.674 229.787H104.644V231.782H103.421C102.889 231.782 102.304 231.423 102.304 230.812ZM112.962 228.79H111.725L110.076 231.051L108.453 228.79H107.15L109.278 231.729L107.017 234.775H108.254L110.036 232.354L111.792 234.775H113.095L110.821 231.676L112.962 228.79ZM122.61 228.79H121.214L118.687 231.716L121.387 234.775H122.863L119.99 231.649L122.61 228.79ZM117.37 234.775H118.434V228.79H117.37V234.775ZM128.964 234.908C130.44 234.908 131.504 234.23 131.504 233.113C131.504 232.421 131.092 231.796 130.254 231.703V231.676C131.012 231.41 131.304 230.851 131.304 230.266C131.304 229.282 130.52 228.657 129.057 228.657C128.112 228.657 127.181 228.95 126.689 229.455L127.102 230.28C127.501 229.96 128.072 229.615 128.897 229.615C129.668 229.615 130.174 229.934 130.174 230.479C130.174 230.958 129.735 231.33 129.136 231.33H128.192V232.195H129.203C129.934 232.195 130.373 232.474 130.373 232.966C130.373 233.565 129.708 233.95 128.804 233.95C128.285 233.95 127.54 233.711 127.035 233.299L126.49 234.097C126.889 234.575 128.086 234.908 128.964 234.908ZM133.445 230.054C133.923 229.801 134.362 229.615 135.094 229.615C136.278 229.615 136.451 230.386 136.451 231.503C136.052 231.211 135.426 231.118 134.961 231.118C133.671 231.118 132.7 231.796 132.7 233.019C132.7 234.177 133.445 234.868 134.535 234.868C135.52 234.868 136.091 234.456 136.451 234.004V234.775H137.461V231.104C137.461 229.548 136.863 228.657 135.16 228.657C134.416 228.657 133.697 228.87 133.165 229.202L133.445 230.054ZM134.908 233.91C134.216 233.91 133.83 233.538 133.83 232.966C133.83 232.275 134.469 231.982 135.107 231.982C135.626 231.982 136.077 232.115 136.451 232.381V233.139C136.145 233.498 135.692 233.91 134.908 233.91ZM138.418 236.238H139.416V234.775H144.257V236.238H145.254V233.777H144.257V228.79H140.174L140.081 230.373C139.974 232.009 139.562 233.272 139.163 233.777H138.418V236.238ZM141.105 230.785L141.171 229.787H143.193V233.777H140.293C140.573 233.405 140.972 232.315 141.105 230.785ZM146.731 230.054C147.21 229.801 147.649 229.615 148.381 229.615C149.564 229.615 149.737 230.386 149.737 231.503C149.338 231.211 148.713 231.118 148.248 231.118C146.958 231.118 145.987 231.796 145.987 233.019C145.987 234.177 146.731 234.868 147.822 234.868C148.806 234.868 149.378 234.456 149.737 234.004V234.775H150.748V231.104C150.748 229.548 150.15 228.657 148.447 228.657C147.702 228.657 146.984 228.87 146.452 229.202L146.731 230.054ZM148.194 233.91C147.503 233.91 147.117 233.538 147.117 232.966C147.117 232.275 147.756 231.982 148.394 231.982C148.913 231.982 149.365 232.115 149.737 232.381V233.139C149.431 233.498 148.979 233.91 148.194 233.91ZM156.918 234.775H157.982V228.79H156.918V231.251H153.593V228.79H152.529V234.775H153.593V232.248H156.918V234.775ZM160.971 234.775L164.429 230.32V234.775H165.493V228.79H164.429L160.971 233.246V228.79H159.907V234.775H160.971ZM167.427 234.775H168.558V232.248H169.848C170.034 233.804 171.191 234.908 172.88 234.908C174.729 234.908 176.006 233.578 176.006 231.782C176.006 229.987 174.755 228.657 172.88 228.657C171.244 228.657 170.1 229.708 169.861 231.184H168.558V228.79H167.427V234.775ZM171.018 231.782C171.018 230.546 171.803 229.721 172.92 229.721C174.064 229.721 174.809 230.559 174.809 231.782C174.809 233.033 174.024 233.844 172.92 233.844C171.816 233.844 171.018 233.046 171.018 231.782ZM177.239 234.057C177.239 234.456 177.532 234.815 177.997 234.815C178.41 234.815 178.702 234.456 178.702 234.057C178.702 233.711 178.41 233.352 177.997 233.352C177.532 233.352 177.239 233.711 177.239 234.057Z" fill="#304960"/>
<path d="M267.194 124.634H22.8062C21.6584 124.634 20.728 125.565 20.728 126.712V163.287C20.728 164.435 21.6584 165.366 22.8062 165.366H267.194C268.341 165.366 269.272 164.435 269.272 163.287V126.712C269.272 125.565 268.341 124.634 267.194 124.634Z" fill="#E8F8FF" stroke="#17C5CC"/>
<path d="M243.919 142.506L248.906 147.494L253.894 142.506" stroke="#2884C9" stroke-linecap="round" stroke-linejoin="round"/>
<path d="M30.0215 149.156H31.152V141.668L34.4903 146.257H34.6632L37.9616 141.628V149.156H39.0921V139.846H38.0148L34.6632 144.621L31.1653 139.846H30.0215V149.156ZM41.7601 144.435C42.2389 144.182 42.6778 143.996 43.4093 143.996C44.593 143.996 44.7659 144.767 44.7659 145.884C44.3669 145.592 43.7418 145.499 43.2763 145.499C41.9862 145.499 41.0153 146.177 41.0153 147.401C41.0153 148.558 41.7601 149.249 42.8507 149.249C43.8349 149.249 44.4068 148.837 44.7659 148.385V149.156H45.7767V145.485C45.7767 143.929 45.1782 143.038 43.4758 143.038C42.731 143.038 42.0128 143.251 41.4808 143.584L41.7601 144.435ZM43.2231 148.292C42.5315 148.292 42.1458 147.919 42.1458 147.347C42.1458 146.656 42.7842 146.363 43.4226 146.363C43.9413 146.363 44.3935 146.496 44.7659 146.762V147.52C44.46 147.879 44.0078 148.292 43.2231 148.292ZM47.5584 151.816H48.6224V148.877C49.048 149.156 49.6731 149.289 50.3115 149.289C52.1868 149.289 53.4237 147.893 53.4237 146.071C53.4237 144.302 52.3597 143.038 50.6573 143.038C49.8327 143.038 49.0347 143.397 48.6224 143.876V143.171H47.5584V151.816ZM50.3514 144.036C51.5883 144.036 52.2932 144.9 52.2932 146.111C52.2932 147.374 51.4952 148.292 50.2184 148.292C49.6465 148.292 49.1544 148.185 48.6224 147.826V144.86C48.9948 144.395 49.6465 144.036 50.3514 144.036ZM56.0127 149.156L59.4707 144.701V149.156H60.5347V143.171H59.4707L56.0127 147.627V143.171H54.9487V149.156H56.0127ZM65.089 143.171C63.094 143.171 62.4157 144.142 62.4157 145.166C62.4157 146.15 63.094 146.749 63.7058 146.895L61.9768 149.156H63.2669L64.7299 147.161H65.887V149.156H66.951V143.171H65.089ZM63.5462 145.193C63.5462 144.634 63.9186 144.169 64.9161 144.169H65.887V146.164H64.6634C64.1314 146.164 63.5462 145.805 63.5462 145.193ZM78.7884 147.401C78.15 147.919 77.2988 148.225 76.4077 148.225C74.2531 148.225 72.7768 146.722 72.7768 144.501C72.7768 142.293 74.2132 140.777 76.2348 140.777C77.2057 140.777 77.9239 141.017 78.5357 141.469L79.0544 140.618C78.3894 140.046 77.4185 139.713 76.2215 139.713C73.3088 139.713 71.5798 141.828 71.5798 144.501C71.5798 147.401 73.5083 149.289 76.3013 149.289C77.4584 149.289 78.6155 148.89 79.2406 148.252L78.7884 147.401ZM80.9198 144.435C81.3986 144.182 81.8375 143.996 82.569 143.996C83.7527 143.996 83.9256 144.767 83.9256 145.884C83.5266 145.592 82.9015 145.499 82.436 145.499C81.1459 145.499 80.175 146.177 80.175 147.401C80.175 148.558 80.9198 149.249 82.0104 149.249C82.9946 149.249 83.5665 148.837 83.9256 148.385V149.156H84.9364V145.485C84.9364 143.929 84.3379 143.038 82.6355 143.038C81.8907 143.038 81.1725 143.251 80.6404 143.584L80.9198 144.435ZM82.3828 148.292C81.6912 148.292 81.3055 147.919 81.3055 147.347C81.3055 146.656 81.9439 146.363 82.5823 146.363C83.101 146.363 83.5532 146.496 83.9256 146.762V147.52C83.6197 147.879 83.1674 148.292 82.3828 148.292ZM89.7106 151.816H90.7746V149.289H90.9475C93.0489 149.289 94.1661 147.946 94.1661 146.164C94.1661 144.408 92.9425 143.038 90.9475 143.038H90.7746V139.846H89.7106V143.038H89.551C87.4895 143.038 86.3191 144.541 86.3191 146.164C86.3191 147.946 87.5028 149.289 89.5643 149.289H89.7106V151.816ZM87.4496 146.164C87.4496 145.007 88.1678 144.036 89.5377 144.036H89.7106V148.292H89.6042C88.221 148.292 87.4496 147.401 87.4496 146.164ZM90.9475 144.036C92.3041 144.036 93.0356 145.06 93.0356 146.164C93.0356 147.414 92.2908 148.292 90.8943 148.292H90.7746V144.036H90.9475ZM95.6927 151.816H96.7567V148.877C97.1823 149.156 97.8074 149.289 98.4458 149.289C100.321 149.289 101.558 147.893 101.558 146.071C101.558 144.302 100.494 143.038 98.7916 143.038C97.967 143.038 97.169 143.397 96.7567 143.876V143.171H95.6927V151.816ZM98.4857 144.036C99.7226 144.036 100.428 144.9 100.428 146.111C100.428 147.374 99.6295 148.292 98.3527 148.292C97.7808 148.292 97.2887 148.185 96.7567 147.826V144.86C97.1291 144.395 97.7808 144.036 98.4857 144.036ZM102.684 146.164C102.684 147.959 103.961 149.289 105.876 149.289C107.792 149.289 109.068 147.959 109.068 146.164C109.068 144.368 107.792 143.038 105.876 143.038C103.961 143.038 102.684 144.368 102.684 146.164ZM103.815 146.164C103.815 144.9 104.706 144.036 105.876 144.036C107.073 144.036 107.938 144.914 107.938 146.164C107.938 147.441 107.073 148.292 105.876 148.292C104.679 148.292 103.815 147.414 103.815 146.164ZM114.993 149.156H116.057V143.171H114.993V145.632H111.668V143.171H110.604V149.156H111.668V146.629H114.993V149.156ZM117.582 146.164C117.582 147.959 118.859 149.289 120.774 149.289C122.689 149.289 123.966 147.959 123.966 146.164C123.966 144.368 122.689 143.038 120.774 143.038C118.859 143.038 117.582 144.368 117.582 146.164ZM118.713 146.164C118.713 144.9 119.604 144.036 120.774 144.036C121.971 144.036 122.836 144.914 122.836 146.164C122.836 147.441 121.971 148.292 120.774 148.292C119.577 148.292 118.713 147.414 118.713 146.164ZM125.501 149.156C126.047 149.156 126.951 149.209 127.696 149.209C129.558 149.209 130.449 148.598 130.449 147.467C130.449 146.722 130.01 146.23 129.052 146.057V146.031C129.771 145.924 130.249 145.366 130.249 144.661C130.249 143.584 129.345 143.118 127.669 143.118C126.805 143.118 126.02 143.171 125.501 143.171V149.156ZM127.842 146.47C128.8 146.47 129.318 146.762 129.318 147.387C129.318 148.012 128.773 148.345 127.789 148.345C127.31 148.345 126.885 148.318 126.565 148.305V146.47H127.842ZM127.749 143.983C128.52 143.983 129.119 144.222 129.119 144.874C129.119 145.459 128.614 145.805 127.909 145.805H126.565V144.022C126.831 144.009 127.27 143.983 127.749 143.983ZM132.392 144.435C132.871 144.182 133.31 143.996 134.042 143.996C135.225 143.996 135.398 144.767 135.398 145.884C134.999 145.592 134.374 145.499 133.909 145.499C132.619 145.499 131.648 146.177 131.648 147.401C131.648 148.558 132.392 149.249 133.483 149.249C134.467 149.249 135.039 148.837 135.398 148.385V149.156H136.409V145.485C136.409 143.929 135.811 143.038 134.108 143.038C133.363 143.038 132.645 143.251 132.113 143.584L132.392 144.435ZM133.855 148.292C133.164 148.292 132.778 147.919 132.778 147.347C132.778 146.656 133.417 146.363 134.055 146.363C134.574 146.363 135.026 146.496 135.398 146.762V147.52C135.092 147.879 134.64 148.292 133.855 148.292Z" fill="#304960"/>
<path d="M267.194 78.9156H22.8062C21.6584 78.9156 20.728 79.846 20.728 80.9937V117.569C20.728 118.716 21.6584 119.647 22.8062 119.647H267.194C268.341 119.647 269.272 118.716 269.272 117.569V80.9937C269.272 79.846 268.341 78.9156 267.194 78.9156Z" fill="#E8F8FF" stroke="#17C5CC"/>
<path d="M243.919 96.7875L248.906 101.775L253.894 96.7875" stroke="#2884C9" stroke-linecap="round" stroke-linejoin="round"/>
<path d="M28.8247 103.437H29.9685L31.1522 100.618H35.3949L36.5919 103.437H37.8022L33.7989 94.0743H32.828L28.8247 103.437ZM33.2802 95.5772L34.956 99.5539H31.6044L33.2802 95.5772ZM43.3494 103.437H44.4134V97.4525H43.3494V99.913H40.0244V97.4525H38.9604V103.437H40.0244V100.91H43.3494V103.437ZM46.6569 98.716C47.1356 98.4633 47.5746 98.2771 48.3061 98.2771C49.4898 98.2771 49.6627 99.0485 49.6627 100.166C49.2637 99.8731 48.6386 99.78 48.1731 99.78C46.883 99.78 45.9121 100.458 45.9121 101.682C45.9121 102.839 46.6569 103.531 47.7475 103.531C48.7317 103.531 49.3036 103.118 49.6627 102.666V103.437H50.6735V99.7667C50.6735 98.2106 50.075 97.3195 48.3726 97.3195C47.6278 97.3195 46.9096 97.5323 46.3776 97.8648L46.6569 98.716ZM48.1199 102.573C47.4283 102.573 47.0425 102.201 47.0425 101.629C47.0425 100.937 47.681 100.644 48.3194 100.644C48.8381 100.644 49.2902 100.777 49.6627 101.043V101.802C49.3568 102.161 48.9046 102.573 48.1199 102.573ZM57.0569 101.802C56.6579 102.254 56.0594 102.573 55.3412 102.573C54.1575 102.573 53.1866 101.762 53.1866 100.445C53.1866 99.1815 54.1576 98.317 55.2348 98.317C55.86 98.317 56.4452 98.4766 56.9506 98.9421L57.4426 98.1042C56.884 97.5456 56.0462 97.3195 55.0886 97.3195C53.333 97.3195 52.0561 98.7027 52.0561 100.445C52.0561 102.334 53.3595 103.57 55.2614 103.57C56.1791 103.57 57.057 103.225 57.5624 102.573L57.0569 101.802ZM58.1133 98.5165H60.3078V103.437H61.3718V98.5165H63.5663V97.4525H58.1133V98.5165ZM65.0483 98.716C65.5271 98.4633 65.966 98.2771 66.6975 98.2771C67.8812 98.2771 68.0541 99.0485 68.0541 100.166C67.6551 99.8731 67.03 99.78 66.5645 99.78C65.2744 99.78 64.3035 100.458 64.3035 101.682C64.3035 102.839 65.0483 103.531 66.1389 103.531C67.1231 103.531 67.695 103.118 68.0541 102.666V103.437H69.0649V99.7667C69.0649 98.2106 68.4664 97.3195 66.764 97.3195C66.0192 97.3195 65.301 97.5323 64.769 97.8648L65.0483 98.716ZM66.5113 102.573C65.8197 102.573 65.434 102.201 65.434 101.629C65.434 100.937 66.0724 100.644 66.7108 100.644C67.2295 100.644 67.6817 100.777 68.0541 101.043V101.802C67.7482 102.161 67.296 102.573 66.5113 102.573ZM75.4484 101.802C75.0494 102.254 74.4509 102.573 73.7327 102.573C72.549 102.573 71.5781 101.762 71.5781 100.445C71.5781 99.1815 72.549 98.317 73.6263 98.317C74.2514 98.317 74.8366 98.4766 75.342 98.9421L75.8341 98.1042C75.2755 97.5456 74.4376 97.3195 73.48 97.3195C71.7244 97.3195 70.4476 98.7027 70.4476 100.445C70.4476 102.334 71.751 103.57 73.6529 103.57C74.5706 103.57 75.4484 103.225 75.9538 102.573L75.4484 101.802ZM78.4047 103.437L81.8627 98.982V103.437H82.9267V97.4525H81.8627L78.4047 101.908V97.4525H77.3407V103.437H78.4047ZM87.481 97.4525C85.486 97.4525 84.8077 98.4234 84.8077 99.4475C84.8077 100.432 85.486 101.03 86.0978 101.176L84.3688 103.437H85.6589L87.1219 101.442H88.279V103.437H89.343V97.4525H87.481ZM85.9382 99.4741C85.9382 98.9155 86.3106 98.45 87.3081 98.45H88.279V100.445H87.0554C86.5234 100.445 85.9382 100.086 85.9382 99.4741ZM94.7034 103.437H95.8343V95.9496L99.1726 100.538H99.3455L102.644 95.9097V103.437H103.774V94.1275H102.697L99.3455 98.9022L95.8476 94.1275H94.7034V103.437ZM106.442 98.716C106.921 98.4633 107.36 98.2771 108.091 98.2771C109.275 98.2771 109.448 99.0485 109.448 100.166C109.049 99.8731 108.424 99.78 107.958 99.78C106.668 99.78 105.697 100.458 105.697 101.682C105.697 102.839 106.442 103.531 107.532 103.531C108.517 103.531 109.089 103.118 109.448 102.666V103.437H110.458V99.7667C110.458 98.2106 109.86 97.3195 108.158 97.3195C107.413 97.3195 106.695 97.5323 106.163 97.8648L106.442 98.716ZM107.905 102.573C107.213 102.573 106.828 102.201 106.828 101.629C106.828 100.937 107.466 100.644 108.104 100.644C108.623 100.644 109.075 100.777 109.448 101.043V101.802C109.142 102.161 108.69 102.573 107.905 102.573ZM111.483 98.5165H113.677V103.437H114.741V98.5165H116.936V97.4525H111.483V98.5165ZM118.098 103.437C118.643 103.437 119.547 103.491 120.292 103.491C122.154 103.491 123.045 102.879 123.045 101.748C123.045 101.004 122.606 100.511 121.649 100.339V100.312C122.367 100.206 122.846 99.647 122.846 98.9421C122.846 97.8648 121.941 97.3993 120.266 97.3993C119.401 97.3993 118.616 97.4525 118.098 97.4525V103.437ZM120.438 100.751C121.396 100.751 121.915 101.043 121.915 101.669C121.915 102.294 121.369 102.626 120.385 102.626C119.906 102.626 119.481 102.6 119.162 102.586V100.751H120.438ZM120.345 98.2638C121.117 98.2638 121.715 98.5032 121.715 99.1549C121.715 99.7401 121.21 100.086 120.505 100.086H119.162V98.3037C119.428 98.2904 119.867 98.2638 120.345 98.2638ZM129.392 101.948C129.006 102.307 128.328 102.573 127.556 102.573C126.386 102.573 125.561 101.908 125.468 100.777H130.07C130.11 100.591 130.137 100.352 130.137 100.059C130.137 98.4101 128.9 97.3195 127.357 97.3195C125.389 97.3195 124.271 98.7027 124.271 100.445C124.271 102.334 125.535 103.57 127.477 103.57C128.275 103.57 129.139 103.318 129.724 102.786L129.392 101.948ZM127.304 98.317C128.341 98.317 128.98 98.9288 129.033 99.913H125.402C125.522 98.9953 126.213 98.317 127.304 98.317ZM136.223 101.948C135.837 102.307 135.159 102.573 134.388 102.573C133.217 102.573 132.393 101.908 132.3 100.777H136.901C136.941 100.591 136.968 100.352 136.968 100.059C136.968 98.4101 135.731 97.3195 134.188 97.3195C132.22 97.3195 131.103 98.7027 131.103 100.445C131.103 102.334 132.366 103.57 134.308 103.57C135.106 103.57 135.97 103.318 136.556 102.786L136.223 101.948ZM134.135 98.317C135.172 98.317 135.811 98.9288 135.864 99.913H132.233C132.353 98.9953 133.044 98.317 134.135 98.317ZM138.412 103.437C138.957 103.437 139.861 103.491 140.606 103.491C142.468 103.491 143.359 102.879 143.359 101.748C143.359 101.004 142.92 100.511 141.963 100.339V100.312C142.681 100.206 143.16 99.647 143.16 98.9421C143.16 97.8648 142.255 97.3993 140.58 97.3993C139.715 97.3993 138.93 97.4525 138.412 97.4525V103.437ZM140.753 100.751C141.71 100.751 142.229 101.043 142.229 101.669C142.229 102.294 141.684 102.626 140.699 102.626C140.221 102.626 139.795 102.6 139.476 102.586V100.751H140.753ZM140.659 98.2638C141.431 98.2638 142.029 98.5032 142.029 99.1549C142.029 99.7401 141.524 100.086 140.819 100.086H139.476V98.3037C139.742 98.2904 140.181 98.2638 140.659 98.2638ZM149.373 103.437H150.437V97.4525H149.373V99.913H146.048V97.4525H144.984V103.437H146.048V100.91H149.373V103.437ZM152.68 98.716C153.159 98.4633 153.598 98.2771 154.329 98.2771C155.513 98.2771 155.686 99.0485 155.686 100.166C155.287 99.8731 154.662 99.78 154.196 99.78C152.906 99.78 151.935 100.458 151.935 101.682C151.935 102.839 152.68 103.531 153.771 103.531C154.755 103.531 155.327 103.118 155.686 102.666V103.437H156.697V99.7667C156.697 98.2106 156.098 97.3195 154.396 97.3195C153.651 97.3195 152.933 97.5323 152.401 97.8648L152.68 98.716ZM154.143 102.573C153.452 102.573 153.066 102.201 153.066 101.629C153.066 100.937 153.704 100.644 154.343 100.644C154.861 100.644 155.314 100.777 155.686 101.043V101.802C155.38 102.161 154.928 102.573 154.143 102.573Z" fill="#304960"/>
<path d="M278 12H12V61.875H278V12Z" fill="#17C5CC"/>
<path d="M253.063 45.25C257.653 45.25 261.375 41.5283 261.375 36.9375C261.375 32.3467 257.653 28.625 253.063 28.625C248.472 28.625 244.75 32.3467 244.75 36.9375C244.75 41.5283 248.472 45.25 253.063 45.25Z" stroke="#E8F8FF" stroke-linecap="round" stroke-linejoin="round"/>
<path d="M250.644 34.4438C250.839 33.8882 251.225 33.4197 251.732 33.1214C252.24 32.823 252.837 32.7139 253.417 32.8134C253.998 32.913 254.525 33.2148 254.904 33.6653C255.283 34.1159 255.491 34.6861 255.49 35.275C255.49 36.9375 252.996 37.7688 252.996 37.7688" stroke="#E8F8FF" stroke-linecap="round" stroke-linejoin="round"/>
<path d="M253.062 41.0938H253.071" stroke="#E8F8FF" stroke-linecap="round" stroke-linejoin="round"/>
<path d="M64.7036 42.7562H66.2331V41.0937H72.7368V42.7562H74.2663V39.5642H73.0028V31.7838H67.2306L67.1375 33.6458C66.9779 37.1171 66.0868 39.0854 65.7011 39.5642H64.7036V42.7562ZM68.667 34.9358L68.8133 33.3132H71.3802V39.5642H67.4966C67.8291 39.1519 68.4941 37.3431 68.667 34.9358ZM75.0136 36.4387C75.0136 39.3381 77.0884 41.24 79.8548 41.24C82.6212 41.24 84.7093 39.2317 84.7093 36.4387C84.7093 33.5394 82.6212 31.6375 79.8548 31.6375C76.9953 31.6375 75.0136 33.7389 75.0136 36.4387ZM76.7426 36.4387C76.7426 34.5102 78.0726 33.167 79.8548 33.167C81.6104 33.167 82.9803 34.5102 82.9803 36.4387C82.9803 38.2741 81.8099 39.7105 79.8548 39.7105C78.1125 39.7105 76.7426 38.3007 76.7426 36.4387ZM86.6024 41.0937C87.1477 41.0937 87.9457 41.1469 89.023 41.1469C91.3106 41.1469 92.614 40.043 92.614 38.1145C92.614 36.3988 91.4303 35.3083 89.4885 35.3083C89.156 35.3083 88.5974 35.3348 88.2383 35.388V33.3132H92.0421V31.7838H86.6024V41.0937ZM89.3555 36.8377C90.4993 36.8377 90.9914 37.4362 90.9914 38.2342C90.9914 39.0588 90.486 39.6174 89.2757 39.6174C88.9299 39.6174 88.6107 39.5908 88.2383 39.5642V36.9175C88.6506 36.8643 89.0496 36.8377 89.3555 36.8377ZM93.575 41.0937H95.2239L96.1948 38.7131H100.171L101.142 41.0937H102.885L98.9479 31.7572H97.5115L93.575 41.0937ZM98.1898 33.8719L99.5464 37.1835H96.8199L98.1898 33.8719ZM104.28 41.0805C104.825 41.1203 106.022 41.1469 106.873 41.1469C108.841 41.1469 110.331 40.2691 110.331 38.3539C110.331 37.1171 109.613 36.4122 108.695 36.1861V36.1594C109.493 35.787 110.025 35.1088 110.025 34.0448C110.025 32.7547 109.187 31.7439 106.966 31.7439C106.035 31.7439 104.798 31.7838 104.28 31.8104V41.0805ZM107.073 37.0904C108.097 37.0904 108.695 37.4894 108.695 38.2741C108.695 39.1519 108.097 39.6174 106.993 39.6174C106.527 39.6174 106.142 39.5775 105.915 39.551V37.0904H107.073ZM106.939 33.2733C107.817 33.2733 108.403 33.6723 108.403 34.4304C108.403 35.2816 107.777 35.6673 107.019 35.6673H105.915V33.3132C106.208 33.2866 106.567 33.2733 106.939 33.2733ZM117.981 41.0937H119.604V31.7838H113.738L113.605 33.6458C113.193 39.2583 112.249 39.5642 111.53 39.4711L111.491 41.0937C113.326 41.3597 114.536 40.4819 115.082 35.0689L115.268 33.3132H117.981V41.0937ZM122.177 41.0937H127.697V39.5642H123.813V37.1569H127.165V35.6274H123.813V33.3132H127.564V31.7838H122.177V41.0937ZM135.719 41.0937H137.342V31.7838H135.719V35.5875H131.463V31.7838H129.827V41.0937H131.463V37.117H135.719V41.0937ZM141.356 41.0937L146.237 34.4837V41.0937H147.873V31.7838H146.436L141.555 38.4071V31.7838H139.919V41.0937H141.356ZM150.453 41.0937H155.972V39.5642H152.089V37.1569H155.44V35.6274H152.089V33.3132H155.839V31.7838H150.453V41.0937ZM163.289 41.24C164.978 41.24 166.548 40.2026 166.548 38.4869C166.548 37.4229 166.055 36.5584 164.938 36.2792V36.2392C165.803 35.7339 166.189 34.9092 166.189 34.191C166.189 32.5418 165.031 31.6375 163.396 31.6375C162.119 31.6375 160.988 32.236 160.376 33.0872L161.321 34.1778C161.839 33.4862 162.438 33.167 163.209 33.167C163.981 33.167 164.566 33.5527 164.566 34.3507C164.566 35.1221 163.914 35.5743 163.223 35.5743H162.318V37.1038H163.276C164.366 37.1038 164.925 37.5959 164.925 38.3274C164.925 39.2849 164.1 39.7105 163.209 39.7105C162.451 39.7105 161.56 39.2184 160.988 38.5667L160.097 39.6706C160.589 40.4154 161.64 41.24 163.289 41.24ZM167.504 41.0937H169.154L170.124 38.7131H174.101L175.072 41.0937H176.814L172.878 31.7572H171.441L167.504 41.0937ZM172.119 33.8719L173.476 37.1835H170.75L172.119 33.8719ZM177.026 42.7562H178.556V41.0937H185.06V42.7562H186.589V39.5642H185.326V31.7838H179.553L179.46 33.6458C179.301 37.1171 178.41 39.0854 178.024 39.5642H177.026V42.7562ZM180.99 34.9358L181.136 33.3132H183.703V39.5642H179.819C180.152 39.1519 180.817 37.3431 180.99 34.9358ZM187.013 41.0937H188.662L189.633 38.7131H193.61L194.581 41.0937H196.323L192.386 31.7572H190.95L187.013 41.0937ZM191.628 33.8719L192.985 37.1835H190.258L191.628 33.8719ZM203.609 41.0937H205.231V31.7838H203.609V35.5875H199.353V31.7838H197.717V41.0937H199.353V37.117H203.609V41.0937ZM209.246 41.0937L214.127 34.4837V41.0937H215.763V31.7838H214.326L209.445 38.4071V31.7838H207.809V41.0937H209.246ZM222.546 41.0937H224.168V31.7838C223.623 31.7838 222.452 31.7439 221.854 31.7439C219.141 31.7439 218.024 33.2468 218.024 34.9625C218.024 36.2526 218.795 37.1038 219.659 37.5427L217.279 41.0937H219.114L221.202 37.8751H222.546V41.0937ZM221.056 36.3456C220.391 36.2126 219.753 35.694 219.753 34.8561C219.753 33.9251 220.444 33.2733 221.521 33.2733C221.801 33.2733 222.319 33.2999 222.546 33.3132V36.3456H221.056Z" fill="#E8F8FF"/>
<path d="M39.4313 41.925L34.4438 36.9375L39.4313 31.95" stroke="#E8F8FF" stroke-linecap="round" stroke-linejoin="round"/>
</g>
<path fill-rule="evenodd" clip-rule="evenodd" d="M277 41C277 25.3632 264.594 13 249 13H224C220.882 13 221 13 218 13H213C208 13 211.608 13 203 13H86C77.3917 13 77 13 74 13H72C69.5 13 69 13 66 13C63 13 41 13 41 13C25.4063 13 13 25.401 13 41.0377V559C13 574.637 25.4063 587 41 587H249C264.594 587 277 574.599 277 558.962V41ZM40.9246 0H249.075C271.655 0 290 18.3962 290 41.0377V558.962C290 581.604 271.655 600 249.075 600H40.9246C18.3455 600 0 581.604 0 558.962V41.0377C0 18.3962 18.3455 0 40.9246 0Z" fill="#304960"/>
<defs>
<clipPath id="clip0">
<rect width="266" height="554.444" fill="white" transform="translate(12 12)"/>
</clipPath>
</defs>
</svg>
