<svg width="290" height="470" viewBox="0 0 290 470" fill="none" xmlns="http://www.w3.org/2000/svg">
<g clip-path="url(#clip0)">
<path d="M278 12H12V566.444H278V12Z" fill="#E8F8FF"/>
<path d="M278 12H12V566.444H278V12Z" fill="#D4F1F4"/>
<path d="M267.194 406.844H151.65C150.273 406.844 149.156 407.96 149.156 409.337V445.912C149.156 447.29 150.273 448.406 151.65 448.406H267.194C268.571 448.406 269.688 447.29 269.688 445.912V409.337C269.688 407.96 268.571 406.844 267.194 406.844Z" fill="#2884C9"/>
<path d="M176.646 429.653C176.007 430.145 175.223 430.398 174.438 430.398C172.536 430.398 171.219 429.068 171.219 427.126C171.219 425.105 172.523 423.854 174.252 423.854C175.183 423.854 175.794 424.107 176.353 424.48L177.085 423.269C176.473 422.711 175.462 422.325 174.252 422.325C171.179 422.325 169.49 424.453 169.49 427.126C169.49 430.026 171.445 431.928 174.292 431.928C175.502 431.928 176.686 431.502 177.271 430.877L176.646 429.653ZM177.816 427.126C177.816 430.026 179.891 431.928 182.657 431.928C185.424 431.928 187.512 429.919 187.512 427.126C187.512 424.227 185.424 422.325 182.657 422.325C179.798 422.325 177.816 424.426 177.816 427.126ZM179.545 427.126C179.545 425.198 180.875 423.854 182.657 423.854C184.413 423.854 185.783 425.198 185.783 427.126C185.783 428.962 184.612 430.398 182.657 430.398C180.915 430.398 179.545 428.988 179.545 427.126ZM196.24 422.471H194.325L192.077 425.836L189.789 422.471H187.874L190.986 427.033L187.728 431.781H189.643L192.037 428.283L194.444 431.781H196.36L193.101 427.033L196.24 422.471ZM199.418 431.781V428.416C199.817 428.456 200.349 428.456 200.628 428.456C202.849 428.456 204.033 427.02 204.033 425.437C204.033 423.908 203.168 422.445 200.429 422.445C199.777 422.445 198.301 422.471 197.782 422.471V431.781H199.418ZM200.588 423.974C201.705 423.974 202.304 424.453 202.304 425.424C202.304 426.461 201.546 426.927 200.575 426.927C200.202 426.927 199.803 426.9 199.418 426.86V424.001C199.857 423.987 200.256 423.974 200.588 423.974ZM203.872 431.781H205.521L206.492 429.401H210.468L211.439 431.781H213.182L209.245 422.445H207.808L203.872 431.781ZM208.487 424.559L209.843 427.871H207.117L208.487 424.559ZM220.467 431.781H222.09V422.471H220.467V426.275H216.211V422.471H214.576V431.781H216.211V427.805H220.467V431.781ZM226.104 431.781L230.985 425.171V431.781H232.621V422.471H231.185L226.304 429.095V422.471H224.668V431.781H226.104ZM234.044 424.001H237.063V431.781H238.699V424.001H241.718V422.471H234.044V424.001ZM245.704 427.126C246.848 427.126 247.619 427.592 247.619 428.642C247.619 429.786 246.875 430.278 245.678 430.278C245.358 430.278 245.066 430.252 244.773 430.238V427.193C245.146 427.153 245.465 427.126 245.704 427.126ZM244.773 422.471H243.137V431.781C243.683 431.781 244.6 431.808 245.491 431.808C247.965 431.808 249.348 430.571 249.348 428.603C249.348 426.78 248.245 425.597 245.837 425.597C245.585 425.597 245.186 425.61 244.773 425.663V422.471Z" fill="#E8F8FF"/>
<path d="M138.35 406.844H22.8063C21.429 406.844 20.3125 407.96 20.3125 409.337V445.912C20.3125 447.29 21.429 448.406 22.8063 448.406H138.35C139.727 448.406 140.844 447.29 140.844 445.912V409.337C140.844 407.96 139.727 406.844 138.35 406.844Z" fill="#304960"/>
<path d="M57.5577 422.471H55.9085L53.6874 427.672L50.6417 422.471H48.793L52.9027 429.281L52.7697 429.6C52.5835 429.999 52.2909 430.252 51.852 430.252C51.586 430.252 51.4131 430.199 51.1604 430.026L50.5885 431.409C50.8412 431.608 51.3865 431.781 51.8653 431.781C53.0224 431.781 53.7539 431.036 54.3923 429.613L57.5577 422.471ZM56.9366 433.444H58.4661V431.781H64.9698V433.444H66.4993V430.252H65.2358V422.471H59.4636L59.3705 424.333C59.2109 427.805 58.3198 429.773 57.9341 430.252H56.9366V433.444ZM60.9 425.623L61.0463 424.001H63.6132V430.252H59.7296C60.0621 429.839 60.7271 428.031 60.9 425.623ZM66.923 431.781H68.5722L69.5431 429.401H73.5198L74.4907 431.781H76.233L72.2962 422.445H70.8598L66.923 431.781ZM71.5381 424.559L72.8947 427.871H70.1682L71.5381 424.559ZM83.0425 431.781H84.6651V422.471H78.7998L78.6668 424.333C78.2545 429.946 77.3102 430.252 76.592 430.159L76.5521 431.781C78.3875 432.047 79.5978 431.169 80.1431 425.756L80.3293 424.001H83.0425V431.781ZM88.6752 431.781L93.5563 425.171V431.781H95.1923V422.471H93.7558L88.8747 429.095V422.471H87.2388V431.781H88.6752ZM96.6154 424.001H99.6345V431.781H101.27V424.001H104.289V422.471H96.6154V424.001ZM108.275 427.126C109.419 427.126 110.191 427.592 110.191 428.642C110.191 429.786 109.446 430.278 108.249 430.278C107.93 430.278 107.637 430.252 107.344 430.238V427.193C107.717 427.153 108.036 427.126 108.275 427.126ZM107.344 422.471H105.708V431.781C106.254 431.781 107.171 431.808 108.063 431.808C110.536 431.808 111.92 430.571 111.92 428.603C111.92 426.78 110.816 425.597 108.408 425.597C108.156 425.597 107.757 425.61 107.344 425.663V422.471Z" fill="#E8F8FF"/>
<path d="M267.194 349.072H22.8062C21.6584 349.072 20.728 350.002 20.728 351.15V387.725C20.728 388.873 21.6584 389.803 22.8062 389.803H267.194C268.341 389.803 269.272 388.873 269.272 387.725V351.15C269.272 350.002 268.341 349.072 267.194 349.072Z" fill="#E8F8FF" stroke="#17C5CC"/>
<path d="M243.919 366.944L248.906 371.931L253.894 366.944" stroke="#2884C9" stroke-linecap="round" stroke-linejoin="round"/>
<path d="M33.5861 373.7H34.7166V372.477H34.7565C37.3633 372.477 39.1854 371.147 39.1854 368.806C39.1854 366.492 37.4032 365.148 34.7166 365.135V364.177H33.5861V365.135C30.9261 365.148 29.1572 366.465 29.1572 368.806C29.1572 371.16 30.9527 372.477 33.5728 372.477H33.5861V373.7ZM34.7299 366.186C36.8047 366.186 37.9884 367.17 37.9884 368.806C37.9884 370.548 36.7382 371.439 34.7432 371.439H34.7166V366.186H34.7299ZM30.3542 368.806C30.3542 367.17 31.5645 366.186 33.5861 366.186V371.439H33.5728C31.6177 371.439 30.3542 370.535 30.3542 368.806ZM40.1589 370.601C40.1589 372.397 41.4357 373.727 43.3509 373.727C45.2661 373.727 46.5429 372.397 46.5429 370.601C46.5429 368.806 45.2661 367.476 43.3509 367.476C41.4357 367.476 40.1589 368.806 40.1589 370.601ZM41.2894 370.601C41.2894 369.338 42.1805 368.473 43.3509 368.473C44.5479 368.473 45.4124 369.351 45.4124 370.601C45.4124 371.878 44.5479 372.729 43.3509 372.729C42.1539 372.729 41.2894 371.851 41.2894 370.601ZM47.0863 368.673H49.2808V373.594H50.3448V368.673H52.5393V367.609H47.0863V368.673ZM53.1083 370.601C53.1083 372.397 54.3851 373.727 56.3003 373.727C58.2155 373.727 59.4923 372.397 59.4923 370.601C59.4923 368.806 58.2155 367.476 56.3003 367.476C54.3851 367.476 53.1083 368.806 53.1083 370.601ZM54.2388 370.601C54.2388 369.338 55.1299 368.473 56.3003 368.473C57.4973 368.473 58.3618 369.351 58.3618 370.601C58.3618 371.878 57.4973 372.729 56.3003 372.729C55.1033 372.729 54.2388 371.851 54.2388 370.601ZM60.6284 370.601C60.6284 372.397 61.9052 373.727 63.8204 373.727C65.7356 373.727 67.0124 372.397 67.0124 370.601C67.0124 368.806 65.7356 367.476 63.8204 367.476C61.9052 367.476 60.6284 368.806 60.6284 370.601ZM61.7589 370.601C61.7589 369.338 62.65 368.473 63.8204 368.473C65.0174 368.473 65.8819 369.351 65.8819 370.601C65.8819 371.878 65.0174 372.729 63.8204 372.729C62.6234 372.729 61.7589 371.851 61.7589 370.601ZM67.5558 368.673H69.7503V373.594H70.8143V368.673H73.0088V367.609H67.5558V368.673ZM78.667 367.609H77.603V370.335C77.337 370.521 76.8316 370.708 76.2331 370.708C75.4218 370.708 74.943 370.255 74.943 369.298V367.609H73.8125V369.418C73.8125 370.96 74.5041 371.705 75.9405 371.705C76.6055 371.705 77.204 371.519 77.603 371.266V373.594H78.667V367.609ZM85.3093 372.104C84.9236 372.463 84.2453 372.729 83.4739 372.729C82.3035 372.729 81.4789 372.064 81.3858 370.934H85.9876C86.0275 370.748 86.0541 370.508 86.0541 370.216C86.0541 368.566 84.8172 367.476 83.2744 367.476C81.306 367.476 80.1888 368.859 80.1888 370.601C80.1888 372.49 81.4523 373.727 83.3941 373.727C84.1921 373.727 85.0566 373.474 85.6418 372.942L85.3093 372.104ZM83.2212 368.473C84.2586 368.473 84.897 369.085 84.9502 370.069H81.3193C81.439 369.152 82.1306 368.473 83.2212 368.473ZM81.2395 365.481C81.2395 365.906 81.5188 366.146 81.8646 366.146C82.1572 366.146 82.4498 365.906 82.4498 365.481C82.4498 365.108 82.1572 364.869 81.8646 364.869C81.5188 364.869 81.2395 365.108 81.2395 365.481ZM83.9394 365.481C83.9394 365.906 84.232 366.146 84.5778 366.146C84.8704 366.146 85.163 365.906 85.163 365.481C85.163 365.108 84.8704 364.869 84.5778 364.869C84.232 364.869 83.9394 365.108 83.9394 365.481ZM86.6226 368.673H88.8171V373.594H89.8811V368.673H92.0756V367.609H86.6226V368.673ZM100.615 373.594H101.679V367.609H100.615V370.069H97.2898V367.609H96.2258V373.594H97.2898V371.067H100.615V373.594ZM108.325 372.104C107.939 372.463 107.261 372.729 106.489 372.729C105.319 372.729 104.494 372.064 104.401 370.934H109.003C109.043 370.748 109.069 370.508 109.069 370.216C109.069 368.566 107.833 367.476 106.29 367.476C104.321 367.476 103.204 368.859 103.204 370.601C103.204 372.49 104.468 373.727 106.409 373.727C107.207 373.727 108.072 373.474 108.657 372.942L108.325 372.104ZM106.237 368.473C107.274 368.473 107.912 369.085 107.966 370.069H104.335C104.454 369.152 105.146 368.473 106.237 368.473ZM117.889 373.594H118.953V367.609H117.889V370.069H114.564V367.609H113.5V373.594H114.564V371.067H117.889V373.594ZM126.317 367.609H125.107L123.724 371.399C123.617 371.718 123.524 372.024 123.444 372.317C123.325 372.011 123.218 371.718 123.085 371.413L121.33 367.609H120.053L122.926 373.594L122.793 373.913C122.394 374.871 122.021 375.27 121.516 375.27C121.276 375.27 121.05 375.163 120.851 375.07L120.505 375.881C120.824 376.094 121.183 376.254 121.635 376.254C122.487 376.254 123.045 375.735 123.923 373.594L126.317 367.609ZM135.008 367.609H133.691L131.63 370.495L133.851 373.594H135.167L132.84 370.495L135.008 367.609ZM130.3 373.594H131.364V367.609H130.3V373.594ZM128.823 370.495L126.536 373.594H127.839L130.034 370.495L127.985 367.609H126.655L128.823 370.495ZM140.718 372.104C140.332 372.463 139.654 372.729 138.882 372.729C137.712 372.729 136.887 372.064 136.794 370.934H141.396C141.436 370.748 141.462 370.508 141.462 370.216C141.462 368.566 140.226 367.476 138.683 367.476C136.714 367.476 135.597 368.859 135.597 370.601C135.597 372.49 136.861 373.727 138.802 373.727C139.6 373.727 140.465 373.474 141.05 372.942L140.718 372.104ZM138.63 368.473C139.667 368.473 140.305 369.085 140.359 370.069H136.728C136.847 369.152 137.539 368.473 138.63 368.473ZM147.294 373.594H148.358V367.609H147.294V370.069H143.969V367.609H142.905V373.594H143.969V371.067H147.294V373.594Z" fill="#304960"/>
<path d="M267.194 303.353H22.8062C21.6584 303.353 20.728 304.284 20.728 305.431V475.006C20.728 476.154 21.6584 477.084 22.8062 477.084H267.194C268.341 477.084 269.272 476.154 269.272 475.006V305.431C269.272 304.284 268.341 303.353 267.194 303.353Z" fill="#E8F8FF" stroke="#17C5CC"/>
<path d="M30.0215 465.031H35.408V463.967H31.152V460.855H34.876V459.791H31.152V456.785H35.275V455.721H30.0215V465.031ZM44.9467 459.046H43.63L41.5685 461.932L43.7896 465.031H45.1063L42.7788 461.932L44.9467 459.046ZM40.2385 465.031H41.3025V459.046H40.2385V465.031ZM38.7622 461.932L36.4746 465.031H37.778L39.9725 461.932L37.9243 459.046H36.5943L38.7622 461.932ZM50.6564 463.542C50.2707 463.901 49.5924 464.167 48.8209 464.167C47.6506 464.167 46.826 463.502 46.7329 462.371H51.3347C51.3746 462.185 51.4011 461.946 51.4011 461.653C51.4011 460.004 50.1643 458.913 48.6215 458.913C46.6531 458.913 45.5359 460.296 45.5359 462.039C45.5359 463.927 46.7994 465.164 48.7412 465.164C49.5392 465.164 50.4037 464.912 50.9889 464.38L50.6564 463.542ZM48.5683 459.911C49.6057 459.911 50.2441 460.523 50.2973 461.507H46.6664C46.7861 460.589 47.4777 459.911 48.5683 459.911ZM52.8446 465.031H53.9086V460.669L56.0632 463.449H56.1031L58.1779 460.669V465.031H59.2419V459.046H58.2976L56.1164 462.012L53.8155 459.046H52.8446V465.031ZM65.8916 463.542C65.5059 463.901 64.8276 464.167 64.0562 464.167C62.8858 464.167 62.0612 463.502 61.9681 462.371H66.5699C66.6098 462.185 66.6364 461.946 66.6364 461.653C66.6364 460.004 65.3995 458.913 63.8567 458.913C61.8883 458.913 60.7711 460.296 60.7711 462.039C60.7711 463.927 62.0346 465.164 63.9764 465.164C64.7744 465.164 65.6389 464.912 66.2241 464.38L65.8916 463.542ZM63.8035 459.911C64.8409 459.911 65.4793 460.523 65.5325 461.507H61.9016C62.0213 460.589 62.7129 459.911 63.8035 459.911ZM72.6038 463.395C72.2048 463.847 71.6063 464.167 70.8881 464.167C69.7044 464.167 68.7335 463.355 68.7335 462.039C68.7335 460.775 69.7044 459.911 70.7817 459.911C71.4068 459.911 71.992 460.07 72.4974 460.536L72.9895 459.698C72.4309 459.139 71.593 458.913 70.6354 458.913C68.8798 458.913 67.603 460.296 67.603 462.039C67.603 463.927 68.9064 465.164 70.8083 465.164C71.726 465.164 72.6038 464.818 73.1092 464.167L72.6038 463.395ZM76.8304 459.046C74.8354 459.046 74.1571 460.017 74.1571 461.041C74.1571 462.025 74.8354 462.624 75.4472 462.77L73.7182 465.031H75.0083L76.4713 463.036H77.6284V465.031H78.6924V459.046H76.8304ZM75.2876 461.068C75.2876 460.509 75.66 460.044 76.6575 460.044H77.6284V462.039H76.4048C75.8728 462.039 75.2876 461.68 75.2876 461.068ZM85.122 459.046H84.058V461.773C83.792 461.959 83.2866 462.145 82.6881 462.145C81.8768 462.145 81.398 461.693 81.398 460.735V459.046H80.2675V460.855C80.2675 462.398 80.9591 463.143 82.3955 463.143C83.0605 463.143 83.659 462.956 84.058 462.704V465.031H85.122V459.046ZM91.4317 465.031H92.4957V459.046H91.4317V461.507H88.1067V459.046H87.0427V465.031H88.1067V462.504H91.4317V465.031ZM94.0211 462.039C94.0211 463.834 95.2979 465.164 97.2131 465.164C99.1283 465.164 100.405 463.834 100.405 462.039C100.405 460.243 99.1283 458.913 97.2131 458.913C95.2979 458.913 94.0211 460.243 94.0211 462.039ZM95.1516 462.039C95.1516 460.775 96.0427 459.911 97.2131 459.911C98.4101 459.911 99.2746 460.789 99.2746 462.039C99.2746 463.316 98.4101 464.167 97.2131 464.167C96.0161 464.167 95.1516 463.289 95.1516 462.039Z" fill="#304960"/>
<path d="M30.0215 431.781H35.408V430.717H31.152V427.605H34.876V426.541H31.152V423.535H35.275V422.471H30.0215V431.781ZM44.9467 425.796H43.63L41.5685 428.682L43.7896 431.781H45.1063L42.7788 428.682L44.9467 425.796ZM40.2385 431.781H41.3025V425.796H40.2385V431.781ZM38.7622 428.682L36.4746 431.781H37.778L39.9725 428.682L37.9243 425.796H36.5943L38.7622 428.682ZM50.6564 430.292C50.2707 430.651 49.5924 430.917 48.8209 430.917C47.6506 430.917 46.826 430.252 46.7329 429.121H51.3347C51.3746 428.935 51.4011 428.696 51.4011 428.403C51.4011 426.754 50.1643 425.663 48.6215 425.663C46.6531 425.663 45.5359 427.046 45.5359 428.789C45.5359 430.677 46.7994 431.914 48.7412 431.914C49.5392 431.914 50.4037 431.661 50.9889 431.129L50.6564 430.292ZM48.5683 426.661C49.6057 426.661 50.2441 427.273 50.2973 428.257H46.6664C46.7861 427.339 47.4777 426.661 48.5683 426.661ZM57.2336 431.781H58.2976V425.796H57.2336V428.257H53.9086V425.796H52.8446V431.781H53.9086V429.254H57.2336V431.781ZM64.9435 430.292C64.5578 430.651 63.8795 430.917 63.1081 430.917C61.9377 430.917 61.1131 430.252 61.02 429.121H65.6218C65.6617 428.935 65.6883 428.696 65.6883 428.403C65.6883 426.754 64.4514 425.663 62.9086 425.663C60.9402 425.663 59.823 427.046 59.823 428.789C59.823 430.677 61.0865 431.914 63.0283 431.914C63.8263 431.914 64.6908 431.661 65.276 431.129L64.9435 430.292ZM62.8554 426.661C63.8928 426.661 64.5312 427.273 64.5844 428.257H60.9535C61.0732 427.339 61.7648 426.661 62.8554 426.661ZM66.0733 433.244H67.0708V431.781H71.912V433.244H72.9095V430.784H71.912V425.796H67.8289L67.7358 427.379C67.6294 429.015 67.2171 430.278 66.8181 430.784H66.0733V433.244ZM68.7599 427.791L68.8264 426.794H70.848V430.784H67.9486C68.2279 430.411 68.6269 429.321 68.7599 427.791ZM78.7889 430.292C78.4032 430.651 77.7249 430.917 76.9535 430.917C75.7831 430.917 74.9585 430.252 74.8654 429.121H79.4672C79.5071 428.935 79.5337 428.696 79.5337 428.403C79.5337 426.754 78.2968 425.663 76.754 425.663C74.7856 425.663 73.6684 427.046 73.6684 428.789C73.6684 430.677 74.9319 431.914 76.8737 431.914C77.6717 431.914 78.5362 431.661 79.1214 431.129L78.7889 430.292ZM76.7008 426.661C77.7382 426.661 78.3766 427.273 78.4298 428.257H74.7989C74.9186 427.339 75.6102 426.661 76.7008 426.661ZM84.8398 431.781H85.9038V425.796H81.7409L81.6345 427.658C81.4882 430.425 80.637 430.863 80.1848 430.824L80.2646 431.861C81.5015 431.861 82.4059 431.276 82.6719 427.871L82.7384 426.86H84.8398V431.781ZM87.822 431.781H89.8436C91.7322 431.781 92.344 430.704 92.344 429.653C92.344 428.589 91.812 427.592 89.9766 427.592H88.886V425.796H87.822V431.781ZM89.7771 428.589C90.8012 428.589 91.2135 428.975 91.2135 429.693C91.2135 430.398 90.8145 430.784 89.7638 430.784H88.886V428.589H89.7771ZM98.1599 431.781H99.2239V425.796H98.1599V428.257H94.8347V425.796H93.7707V431.781H94.8347V429.254H98.1599V431.781ZM100.749 428.789C100.749 430.584 102.026 431.914 103.941 431.914C105.856 431.914 107.133 430.584 107.133 428.789C107.133 426.993 105.856 425.663 103.941 425.663C102.026 425.663 100.749 426.993 100.749 428.789ZM101.88 428.789C101.88 427.525 102.771 426.661 103.941 426.661C105.138 426.661 106.003 427.538 106.003 428.789C106.003 430.065 105.138 430.917 103.941 430.917C102.744 430.917 101.88 430.039 101.88 428.789Z" fill="#304960"/>
<path d="M35.8733 389.221H34.7428V393.411C34.2507 393.743 33.4793 394.116 32.5749 394.116C31.4444 394.116 30.6198 393.517 30.6198 391.908V389.221H29.4893V392.214C29.4893 394.382 30.806 395.18 32.2823 395.18C33.3596 395.18 34.264 394.807 34.7428 394.461V398.531H35.8733V389.221ZM42.9541 397.042C42.5684 397.401 41.8901 397.667 41.1187 397.667C39.9483 397.667 39.1237 397.002 39.0305 395.871H43.6324C43.6723 395.685 43.6989 395.446 43.6989 395.153C43.6989 393.504 42.462 392.413 40.9192 392.413C38.9508 392.413 37.8336 393.796 37.8336 395.539C37.8336 397.427 39.0971 398.664 41.0389 398.664C41.8369 398.664 42.7014 398.412 43.2866 397.88L42.9541 397.042ZM40.866 393.411C41.9034 393.411 42.5418 394.023 42.595 395.007H38.9641C39.0838 394.089 39.7754 393.411 40.866 393.411ZM45.1424 401.191H46.2064V398.252C46.632 398.531 47.2571 398.664 47.8955 398.664C49.7708 398.664 51.0077 397.268 51.0077 395.446C51.0077 393.677 49.9437 392.413 48.2413 392.413C47.4167 392.413 46.6187 392.772 46.2064 393.251V392.546H45.1424V401.191ZM47.9354 393.411C49.1723 393.411 49.8772 394.275 49.8772 395.486C49.8772 396.749 49.0792 397.667 47.8024 397.667C47.2305 397.667 46.7384 397.56 46.2064 397.201V394.235C46.5788 393.77 47.2305 393.411 47.9354 393.411ZM57.2542 397.042C56.8685 397.401 56.1902 397.667 55.4188 397.667C54.2484 397.667 53.4238 397.002 53.3307 395.871H57.9325C57.9724 395.685 57.999 395.446 57.999 395.153C57.999 393.504 56.7621 392.413 55.2193 392.413C53.2509 392.413 52.1337 393.796 52.1337 395.539C52.1337 397.427 53.3972 398.664 55.339 398.664C56.137 398.664 57.0015 398.412 57.5867 397.88L57.2542 397.042ZM55.1661 393.411C56.2035 393.411 56.8419 394.023 56.8951 395.007H53.2642C53.3839 394.089 54.0755 393.411 55.1661 393.411ZM61.4241 398.664C62.9004 398.664 63.9644 397.986 63.9644 396.869C63.9644 396.177 63.5521 395.552 62.7142 395.459V395.432C63.4723 395.166 63.7649 394.608 63.7649 394.023C63.7649 393.038 62.9802 392.413 61.5172 392.413C60.5729 392.413 59.6419 392.706 59.1498 393.211L59.5621 394.036C59.9611 393.717 60.533 393.371 61.3576 393.371C62.129 393.371 62.6344 393.69 62.6344 394.235C62.6344 394.714 62.1955 395.087 61.597 395.087H60.6527V395.951H61.6635C62.395 395.951 62.8339 396.23 62.8339 396.722C62.8339 397.321 62.1689 397.707 61.2645 397.707C60.7458 397.707 60.001 397.467 59.4956 397.055L58.9503 397.853C59.3493 398.332 60.5463 398.664 61.4241 398.664ZM67.7486 399.994H68.7461V398.531H73.5873V399.994H74.5848V397.534H73.5873V392.546H69.5042L69.4111 394.129C69.3047 395.765 68.8924 397.028 68.4933 397.534H67.7486V399.994ZM70.4352 394.541L70.5017 393.544H72.5233V397.534H69.6239C69.9032 397.161 70.3022 396.071 70.4352 394.541ZM80.4642 397.042C80.0785 397.401 79.4002 397.667 78.6288 397.667C77.4584 397.667 76.6339 397.002 76.5407 395.871H81.1425C81.1824 395.685 81.209 395.446 81.209 395.153C81.209 393.504 79.9721 392.413 78.4293 392.413C76.4609 392.413 75.3437 393.796 75.3437 395.539C75.3437 397.427 76.6073 398.664 78.549 398.664C79.347 398.664 80.2115 398.412 80.7967 397.88L80.4642 397.042ZM78.3761 393.411C79.4136 393.411 80.0519 394.023 80.1051 395.007H76.4742C76.5939 394.089 77.2855 393.411 78.3761 393.411ZM87.0415 398.531H88.1055V392.546H87.0415V395.007H83.7165V392.546H82.6525V398.531H83.7165V396.004H87.0415V398.531ZM90.0299 398.531H92.0515C93.9401 398.531 94.5519 397.454 94.5519 396.403C94.5519 395.339 94.0199 394.342 92.1845 394.342H91.0939V392.546H90.0299V398.531ZM91.985 395.339C93.0091 395.339 93.4214 395.725 93.4214 396.443C93.4214 397.148 93.0224 397.534 91.9717 397.534H91.0939V395.339H91.985Z" fill="#304960"/>
<path d="M30.0215 365.281H35.408V364.217H31.152V361.105H34.876V360.041H31.152V357.035H35.275V355.971H30.0215V365.281ZM44.9467 359.296H43.63L41.5685 362.182L43.7896 365.281H45.1063L42.7788 362.182L44.9467 359.296ZM40.2385 365.281H41.3025V359.296H40.2385V365.281ZM38.7622 362.182L36.4746 365.281H37.778L39.9725 362.182L37.9243 359.296H36.5943L38.7622 362.182ZM50.6564 363.792C50.2707 364.151 49.5924 364.417 48.8209 364.417C47.6506 364.417 46.826 363.752 46.7329 362.621H51.3347C51.3746 362.435 51.4011 362.196 51.4011 361.903C51.4011 360.254 50.1643 359.163 48.6215 359.163C46.6531 359.163 45.5359 360.546 45.5359 362.289C45.5359 364.177 46.7994 365.414 48.7412 365.414C49.5392 365.414 50.4037 365.162 50.9889 364.63L50.6564 363.792ZM48.5683 360.161C49.6057 360.161 50.2441 360.773 50.2973 361.757H46.6664C46.7861 360.839 47.4777 360.161 48.5683 360.161ZM51.7862 366.744H52.7837V365.281H57.6249V366.744H58.6224V364.284H57.6249V359.296H53.5418L53.4487 360.879C53.3423 362.515 52.93 363.778 52.531 364.284H51.7862V366.744ZM54.4728 361.291L54.5393 360.294H56.5609V364.284H53.6615C53.9408 363.911 54.3398 362.821 54.4728 361.291ZM64.1693 365.281H65.2333V359.296H64.1693V361.757H60.8443V359.296H59.7803V365.281H60.8443V362.754H64.1693V365.281ZM71.8792 363.792C71.4935 364.151 70.8152 364.417 70.0438 364.417C68.8734 364.417 68.0488 363.752 67.9557 362.621H72.5575C72.5974 362.435 72.624 362.196 72.624 361.903C72.624 360.254 71.3871 359.163 69.8443 359.163C67.8759 359.163 66.7587 360.546 66.7587 362.289C66.7587 364.177 68.0222 365.414 69.964 365.414C70.762 365.414 71.6265 365.162 72.2117 364.63L71.8792 363.792ZM69.7911 360.161C70.8285 360.161 71.4669 360.773 71.5201 361.757H67.8892C68.0089 360.839 68.7005 360.161 69.7911 360.161ZM74.0674 365.281C74.6127 365.281 75.5171 365.334 76.2619 365.334C78.1239 365.334 79.015 364.723 79.015 363.592C79.015 362.847 78.5761 362.355 77.6185 362.182V362.156C78.3367 362.049 78.8155 361.491 78.8155 360.786C78.8155 359.709 77.9111 359.243 76.2353 359.243C75.3708 359.243 74.5861 359.296 74.0674 359.296V365.281ZM76.4082 362.595C77.3658 362.595 77.8845 362.887 77.8845 363.512C77.8845 364.137 77.3392 364.47 76.355 364.47C75.8762 364.47 75.4506 364.443 75.1314 364.43V362.595H76.4082ZM76.3151 360.108C77.0865 360.108 77.685 360.347 77.685 360.999C77.685 361.584 77.1796 361.93 76.4747 361.93H75.1314V360.147C75.3974 360.134 75.8363 360.108 76.3151 360.108ZM85.0285 365.281H86.0925V359.296H85.0285V361.757H81.7035V359.296H80.6395V365.281H81.7035V362.754H85.0285V365.281ZM87.6179 362.289C87.6179 364.084 88.8947 365.414 90.8099 365.414C92.7251 365.414 94.0019 364.084 94.0019 362.289C94.0019 360.493 92.7251 359.163 90.8099 359.163C88.8947 359.163 87.6179 360.493 87.6179 362.289ZM88.7484 362.289C88.7484 361.025 89.6395 360.161 90.8099 360.161C92.0069 360.161 92.8714 361.039 92.8714 362.289C92.8714 363.566 92.0069 364.417 90.8099 364.417C89.6129 364.417 88.7484 363.539 88.7484 362.289Z" fill="#304960"/>
<path d="M28.8247 327.875H29.9685L31.1522 325.055H35.3949L36.5919 327.875H37.8022L33.7989 318.512H32.828L28.8247 327.875ZM33.2802 320.015L34.956 323.991H31.6044L33.2802 320.015ZM38.9604 327.875C39.5057 327.875 40.4101 327.928 41.1549 327.928C43.0169 327.928 43.908 327.316 43.908 326.186C43.908 325.441 43.4691 324.949 42.5115 324.776V324.749C43.2297 324.643 43.7085 324.084 43.7085 323.38C43.7085 322.302 42.8041 321.837 41.1283 321.837C40.2638 321.837 39.4791 321.89 38.9604 321.89V327.875ZM41.3012 325.188C42.2588 325.188 42.7775 325.481 42.7775 326.106C42.7775 326.731 42.2322 327.064 41.248 327.064C40.7692 327.064 40.3436 327.037 40.0244 327.024V325.188H41.3012ZM41.2081 322.701C41.9795 322.701 42.578 322.941 42.578 323.592C42.578 324.178 42.0726 324.523 41.3677 324.523H40.0244V322.741C40.2904 322.728 40.7293 322.701 41.2081 322.701ZM44.7743 322.954H46.9688V327.875H48.0328V322.954H50.2273V321.89H44.7743V322.954ZM50.7963 324.882C50.7963 326.678 52.0731 328.008 53.9883 328.008C55.9035 328.008 57.1803 326.678 57.1803 324.882C57.1803 323.087 55.9035 321.757 53.9883 321.757C52.0731 321.757 50.7963 323.087 50.7963 324.882ZM51.9268 324.882C51.9268 323.619 52.8179 322.754 53.9883 322.754C55.1853 322.754 56.0498 323.632 56.0498 324.882C56.0498 326.159 55.1853 327.01 53.9883 327.01C52.7913 327.01 51.9268 326.133 51.9268 324.882ZM63.038 327.875H64.102V321.89H58.7155V327.875H59.7795V322.887H63.038V327.875ZM65.629 324.882C65.629 326.678 66.9058 328.008 68.821 328.008C70.7362 328.008 72.013 326.678 72.013 324.882C72.013 323.087 70.7362 321.757 68.821 321.757C66.9058 321.757 65.629 323.087 65.629 324.882ZM66.7595 324.882C66.7595 323.619 67.6506 322.754 68.821 322.754C70.018 322.754 70.8825 323.632 70.8825 324.882C70.8825 326.159 70.018 327.01 68.821 327.01C67.624 327.01 66.7595 326.133 66.7595 324.882ZM73.5481 327.875C74.0934 327.875 74.9978 327.928 75.7426 327.928C77.6046 327.928 78.4957 327.316 78.4957 326.186C78.4957 325.441 78.0568 324.949 77.0992 324.776V324.749C77.8174 324.643 78.2962 324.084 78.2962 323.38C78.2962 322.302 77.3918 321.837 75.716 321.837C74.8515 321.837 74.0668 321.89 73.5481 321.89V327.875ZM75.8889 325.188C76.8465 325.188 77.3652 325.481 77.3652 326.106C77.3652 326.731 76.8199 327.064 75.8357 327.064C75.3569 327.064 74.9313 327.037 74.6121 327.024V325.188H75.8889ZM75.7958 322.701C76.5672 322.701 77.1657 322.941 77.1657 323.592C77.1657 324.178 76.6603 324.523 75.9554 324.523H74.6121V322.741C74.8781 322.728 75.317 322.701 75.7958 322.701ZM79.3621 322.954H81.5566V327.875H82.6206V322.954H84.8151V321.89H79.3621V322.954ZM85.3841 324.882C85.3841 326.678 86.6609 328.008 88.5761 328.008C90.4913 328.008 91.7681 326.678 91.7681 324.882C91.7681 323.087 90.4913 321.757 88.5761 321.757C86.6609 321.757 85.3841 323.087 85.3841 324.882ZM86.5146 324.882C86.5146 323.619 87.4057 322.754 88.5761 322.754C89.7731 322.754 90.6376 323.632 90.6376 324.882C90.6376 326.159 89.7731 327.01 88.5761 327.01C87.3791 327.01 86.5146 326.133 86.5146 324.882ZM93.3034 330.535H94.3674V327.596C94.793 327.875 95.4178 328.008 96.0562 328.008C97.9315 328.008 99.1684 326.611 99.1684 324.789C99.1684 323.02 98.1044 321.757 96.402 321.757C95.5774 321.757 94.7797 322.116 94.3674 322.595V321.89H93.3034V330.535ZM96.0961 322.754C97.333 322.754 98.0379 323.619 98.0379 324.829C98.0379 326.093 97.2399 327.01 95.9631 327.01C95.3912 327.01 94.8994 326.904 94.3674 326.545V323.579C94.7398 323.114 95.3912 322.754 96.0961 322.754ZM105.415 326.385C105.03 326.744 104.351 327.01 103.58 327.01C102.409 327.01 101.585 326.345 101.492 325.215H106.094C106.133 325.029 106.16 324.789 106.16 324.497C106.16 322.848 104.923 321.757 103.38 321.757C101.412 321.757 100.295 323.14 100.295 324.882C100.295 326.771 101.558 328.008 103.5 328.008C104.298 328.008 105.163 327.755 105.748 327.223L105.415 326.385ZM103.327 322.754C104.365 322.754 105.003 323.366 105.056 324.35H101.425C101.545 323.433 102.237 322.754 103.327 322.754ZM111.992 327.875H113.056V321.89H111.992V324.35H108.667V321.89H107.603V327.875H108.667V325.348H111.992V327.875ZM116.044 327.875L119.502 323.42V327.875H120.566V321.89H119.502L116.044 326.345V321.89H114.98V327.875H116.044ZM127.222 326.385C126.837 326.744 126.158 327.01 125.387 327.01C124.216 327.01 123.392 326.345 123.299 325.215H127.901C127.94 325.029 127.967 324.789 127.967 324.497C127.967 322.848 126.73 321.757 125.187 321.757C123.219 321.757 122.102 323.14 122.102 324.882C122.102 326.771 123.365 328.008 125.307 328.008C126.105 328.008 126.97 327.755 127.555 327.223L127.222 326.385ZM125.134 322.754C126.172 322.754 126.81 323.366 126.863 324.35H123.232C123.352 323.433 124.044 322.754 125.134 322.754ZM134.38 328.008C135.856 328.008 136.92 327.33 136.92 326.212C136.92 325.521 136.508 324.896 135.67 324.803V324.776C136.428 324.51 136.721 323.951 136.721 323.366C136.721 322.382 135.936 321.757 134.473 321.757C133.529 321.757 132.598 322.05 132.106 322.555L132.518 323.38C132.917 323.06 133.489 322.715 134.314 322.715C135.085 322.715 135.59 323.034 135.59 323.579C135.59 324.058 135.152 324.43 134.553 324.43H133.609V325.295H134.62C135.35 325.295 135.79 325.574 135.79 326.066C135.79 326.665 135.125 327.05 134.221 327.05C133.702 327.05 132.957 326.811 132.452 326.399L131.906 327.197C132.305 327.675 133.502 328.008 134.38 328.008ZM138.861 323.153C139.339 322.901 139.778 322.715 140.51 322.715C141.694 322.715 141.866 323.486 141.866 324.603C141.467 324.311 140.842 324.217 140.377 324.217C139.087 324.217 138.116 324.896 138.116 326.119C138.116 327.276 138.861 327.968 139.951 327.968C140.935 327.968 141.507 327.556 141.866 327.104V327.875H142.877V324.204C142.877 322.648 142.279 321.757 140.576 321.757C139.831 321.757 139.113 321.97 138.581 322.302L138.861 323.153ZM140.324 327.01C139.632 327.01 139.246 326.638 139.246 326.066C139.246 325.375 139.885 325.082 140.523 325.082C141.042 325.082 141.494 325.215 141.866 325.481V326.239C141.56 326.598 141.108 327.01 140.324 327.01ZM143.835 329.338H144.832V327.875H149.673V329.338H150.671V326.877H149.673V321.89H145.59L145.497 323.473C145.391 325.109 144.979 326.372 144.579 326.877H143.835V329.338ZM146.521 323.885L146.588 322.887H148.609V326.877H145.71C145.989 326.505 146.388 325.415 146.521 323.885ZM152.148 323.153C152.626 322.901 153.066 322.715 153.797 322.715C154.981 322.715 155.154 323.486 155.154 324.603C154.755 324.311 154.13 324.217 153.664 324.217C152.374 324.217 151.403 324.896 151.403 326.119C151.403 327.276 152.148 327.968 153.239 327.968C154.223 327.968 154.795 327.556 155.154 327.104V327.875H156.165V324.204C156.165 322.648 155.566 321.757 153.864 321.757C153.119 321.757 152.401 321.97 151.869 322.302L152.148 323.153ZM153.611 327.01C152.92 327.01 152.533 326.638 152.533 326.066C152.533 325.375 153.172 325.082 153.811 325.082C154.329 325.082 154.781 325.215 155.154 325.481V326.239C154.848 326.598 154.396 327.01 153.611 327.01ZM162.335 327.875H163.399V321.89H162.335V324.35H159.01V321.89H157.946V327.875H159.01V325.348H162.335V327.875ZM166.387 327.875L169.845 323.42V327.875H170.909V321.89H169.845L166.387 326.345V321.89H165.323V327.875H166.387ZM175.464 321.89C173.469 321.89 172.791 322.861 172.791 323.885C172.791 324.869 173.469 325.468 174.081 325.614L172.352 327.875H173.642L175.105 325.88H176.262V327.875H177.326V321.89H175.464ZM173.921 323.912C173.921 323.353 174.293 322.887 175.291 322.887H176.262V324.882H175.038C174.506 324.882 173.921 324.523 173.921 323.912Z" fill="#304960"/>
<path d="M253.894 326.212L248.906 321.225L243.919 326.212" stroke="#2884C9" stroke-linecap="round" stroke-linejoin="round"/>
<path d="M267.194 257.634H22.8062C21.6584 257.634 20.728 258.565 20.728 259.712V296.287C20.728 297.435 21.6584 298.366 22.8062 298.366H267.194C268.341 298.366 269.272 297.435 269.272 296.287V259.712C269.272 258.565 268.341 257.634 267.194 257.634Z" fill="#E8F8FF" stroke="#17C5CC"/>
<path d="M243.919 275.506L248.906 280.494L253.894 275.506" stroke="#2884C9" stroke-linecap="round" stroke-linejoin="round"/>
<path d="M30.0215 282.143C30.5668 282.17 31.6973 282.196 32.5219 282.196C34.4504 282.196 35.9001 281.385 35.9001 279.496C35.9001 278.219 35.1287 277.475 33.9716 277.288V277.262C34.8627 276.969 35.5676 276.278 35.5676 275.107C35.5676 273.817 34.7962 272.806 32.5751 272.806C31.7106 272.806 30.5402 272.846 30.0215 272.86V282.143ZM32.6549 277.914C33.9982 277.914 34.7696 278.446 34.7696 279.43C34.7696 280.574 33.9583 281.132 32.5884 281.132C32.0564 281.132 31.4579 281.106 31.152 281.079V277.914H32.6549ZM32.5485 273.87C33.7854 273.87 34.4371 274.389 34.4371 275.36C34.4371 276.371 33.6258 276.916 32.6416 276.916H31.152V273.91C31.4845 273.897 32.0564 273.87 32.5485 273.87ZM37.7912 282.156H39.7197C41.595 282.156 42.2068 281.079 42.2068 280.028C42.2068 278.964 41.6748 277.967 39.8394 277.967H38.8552V276.171H37.7912V282.156ZM43.3506 282.156H44.4146V276.171H43.3506V282.156ZM39.6399 278.964C40.664 278.964 41.0763 279.35 41.0763 280.068C41.0763 280.773 40.6906 281.159 39.6266 281.159H38.8552V278.964H39.6399ZM50.647 282.156H51.711V276.171H46.3245V282.156H47.3885V277.169H50.647V282.156ZM53.2379 279.164C53.2379 280.959 54.5147 282.289 56.4299 282.289C58.3451 282.289 59.6219 280.959 59.6219 279.164C59.6219 277.368 58.3451 276.038 56.4299 276.038C54.5147 276.038 53.2379 277.368 53.2379 279.164ZM54.3684 279.164C54.3684 277.9 55.2595 277.036 56.4299 277.036C57.6269 277.036 58.4914 277.914 58.4914 279.164C58.4914 280.441 57.6269 281.292 56.4299 281.292C55.2329 281.292 54.3684 280.414 54.3684 279.164ZM65.0197 282.156H66.0837V276.171H61.9208L61.8144 278.033C61.6681 280.8 60.8169 281.239 60.3647 281.199L60.4445 282.236C61.6814 282.236 62.5858 281.651 62.8518 278.246L62.9183 277.235H65.0197V282.156ZM72.391 282.156H73.455V276.171H72.391V278.632H69.066V276.171H68.002V282.156H69.066V279.629H72.391V282.156ZM76.4433 282.156L79.9013 277.701V282.156H80.9653V276.171H79.9013L76.4433 280.627V276.171H75.3793V282.156H76.4433ZM82.1414 277.235H84.3359V282.156H85.3999V277.235H87.5944V276.171H82.1414V277.235ZM88.7572 282.156H90.7788C92.6674 282.156 93.2792 281.079 93.2792 280.028C93.2792 278.964 92.7472 277.967 90.9118 277.967H89.8212V276.171H88.7572V282.156ZM90.7123 278.964C91.7364 278.964 92.1487 279.35 92.1487 280.068C92.1487 280.773 91.7497 281.159 90.699 281.159H89.8212V278.964H90.7123ZM103.133 276.171H101.923L100.54 279.962C100.433 280.281 100.34 280.587 100.26 280.879C100.141 280.574 100.034 280.281 99.9014 279.975L98.1458 276.171H96.8689L99.7417 282.156L99.6087 282.475C99.2097 283.433 98.8373 283.832 98.3319 283.832C98.0926 283.832 97.8664 283.726 97.6669 283.633L97.3211 284.444C97.6403 284.657 97.9994 284.816 98.4516 284.816C99.3028 284.816 99.8614 284.298 100.739 282.156L103.133 276.171ZM103.585 277.235H105.78V282.156H106.844V277.235H109.038V276.171H103.585V277.235ZM110.201 284.816H111.265V281.877C111.69 282.156 112.315 282.289 112.954 282.289C114.829 282.289 116.066 280.893 116.066 279.071C116.066 277.302 115.002 276.038 113.299 276.038C112.475 276.038 111.677 276.397 111.265 276.876V276.171H110.201V284.816ZM112.994 277.036C114.23 277.036 114.935 277.9 114.935 279.111C114.935 280.374 114.137 281.292 112.861 281.292C112.289 281.292 111.797 281.185 111.265 280.826V277.86C111.637 277.395 112.289 277.036 112.994 277.036ZM117.192 279.164C117.192 280.959 118.469 282.289 120.384 282.289C122.299 282.289 123.576 280.959 123.576 279.164C123.576 277.368 122.299 276.038 120.384 276.038C118.469 276.038 117.192 277.368 117.192 279.164ZM118.323 279.164C118.323 277.9 119.214 277.036 120.384 277.036C121.581 277.036 122.446 277.914 122.446 279.164C122.446 280.441 121.581 281.292 120.384 281.292C119.187 281.292 118.323 280.414 118.323 279.164ZM125.112 282.156H126.175V277.794L128.33 280.574H128.37L130.445 277.794V282.156H131.509V276.171H130.564L128.383 279.137L126.082 276.171H125.112V282.156Z" fill="#304960"/>
<path d="M267.194 170.353H22.8062C21.6584 170.353 20.728 171.284 20.728 172.431V250.569C20.728 251.716 21.6584 252.647 22.8062 252.647H267.194C268.341 252.647 269.272 251.716 269.272 250.569V172.431C269.272 171.284 268.341 170.353 267.194 170.353Z" fill="#E8F8FF" stroke="#17C5CC"/>
<path d="M31.019 189.887L36.6715 182.439V189.887H37.802V180.577H36.8045L31.152 188.025V180.577H30.0215V189.887H31.019ZM42.1368 190.02C43.6131 190.02 44.6771 189.342 44.6771 188.225C44.6771 187.533 44.2648 186.908 43.4269 186.815V186.789C44.185 186.523 44.4776 185.964 44.4776 185.379C44.4776 184.395 43.6929 183.769 42.2299 183.769C41.2856 183.769 40.3546 184.062 39.8625 184.567L40.2748 185.392C40.6738 185.073 41.2457 184.727 42.0703 184.727C42.8417 184.727 43.3471 185.046 43.3471 185.592C43.3471 186.07 42.9082 186.443 42.3097 186.443H41.3654V187.307H42.3762C43.1076 187.307 43.5466 187.587 43.5466 188.079C43.5466 188.677 42.8816 189.063 41.9772 189.063C41.4585 189.063 40.7137 188.823 40.2083 188.411L39.663 189.209C40.062 189.688 41.259 190.02 42.1368 190.02ZM46.2985 189.887H47.3625V185.525L49.5171 188.305H49.557L51.6318 185.525V189.887H52.6958V183.902H51.7515L49.5703 186.868L47.2694 183.902H46.2985V189.887ZM59.3455 188.398C58.9598 188.757 58.2815 189.023 57.5101 189.023C56.3397 189.023 55.5151 188.358 55.422 187.227H60.0238C60.0637 187.041 60.0903 186.802 60.0903 186.509C60.0903 184.86 58.8534 183.769 57.3106 183.769C55.3422 183.769 54.225 185.153 54.225 186.895C54.225 188.784 55.4885 190.02 57.4303 190.02C58.2283 190.02 59.0928 189.768 59.678 189.236L59.3455 188.398ZM57.2574 184.767C58.2948 184.767 58.9332 185.379 58.9864 186.363H55.3555C55.4752 185.445 56.1668 184.767 57.2574 184.767ZM61.5338 192.547H62.5978V189.608C63.0234 189.887 63.6485 190.02 64.2869 190.02C66.1622 190.02 67.3991 188.624 67.3991 186.802C67.3991 185.033 66.3351 183.769 64.6327 183.769C63.8081 183.769 63.0101 184.129 62.5978 184.607V183.902H61.5338V192.547ZM64.3268 184.767C65.5637 184.767 66.2686 185.631 66.2686 186.842C66.2686 188.105 65.4706 189.023 64.1938 189.023C63.6219 189.023 63.1298 188.917 62.5978 188.557V185.592C62.9702 185.126 63.6219 184.767 64.3268 184.767ZM69.9881 189.887L73.4461 185.432V189.887H74.5101V183.902H73.4461L69.9881 188.358V183.902H68.9241V189.887H69.9881ZM75.6862 184.966H77.8807V189.887H78.9447V184.966H81.1392V183.902H75.6862V184.966ZM82.302 189.887H84.3236C86.2122 189.887 86.8241 188.81 86.8241 187.759C86.8241 186.695 86.292 185.698 84.4566 185.698H83.3661V183.902H82.302V189.887ZM84.2572 186.695C85.2813 186.695 85.6936 187.081 85.6936 187.799C85.6936 188.504 85.2945 188.89 84.2438 188.89H83.3661V186.695H84.2572ZM91.238 189.887H92.302V184.9H95.0285V183.902H91.238V189.887ZM99.7501 189.887H100.814V183.902H96.6512L96.5448 185.764C96.3985 188.531 95.5473 188.97 95.0954 188.93L95.1749 189.967C96.4118 189.967 97.3162 189.382 97.5822 185.977L97.6487 184.966H99.7501V189.887ZM102.733 189.887H103.863V187.36H105.153C105.339 188.917 106.496 190.02 108.186 190.02C110.034 190.02 111.311 188.69 111.311 186.895C111.311 185.099 110.061 183.769 108.186 183.769C106.55 183.769 105.406 184.82 105.166 186.296H103.863V183.902H102.733V189.887ZM106.324 186.895C106.324 185.658 107.108 184.833 108.225 184.833C109.369 184.833 110.114 185.671 110.114 186.895C110.114 188.145 109.329 188.956 108.225 188.956C107.122 188.956 106.324 188.158 106.324 186.895ZM118.077 183.902H116.681L114.154 186.828L116.854 189.887H118.33L115.457 186.762L118.077 183.902ZM112.837 189.887H113.901V183.902H112.837V189.887ZM118.737 186.895C118.737 188.69 120.014 190.02 121.929 190.02C123.845 190.02 125.121 188.69 125.121 186.895C125.121 185.099 123.845 183.769 121.929 183.769C120.014 183.769 118.737 185.099 118.737 186.895ZM119.868 186.895C119.868 185.631 120.759 184.767 121.929 184.767C123.126 184.767 123.991 185.645 123.991 186.895C123.991 188.172 123.126 189.023 121.929 189.023C120.732 189.023 119.868 188.145 119.868 186.895ZM126.657 189.887H127.721V185.525L129.875 188.305H129.915L131.99 185.525V189.887H133.054V183.902H132.11L129.929 186.868L127.628 183.902H126.657V189.887ZM139.704 188.398C139.318 188.757 138.64 189.023 137.869 189.023C136.698 189.023 135.874 188.358 135.781 187.227H140.382C140.422 187.041 140.449 186.802 140.449 186.509C140.449 184.86 139.212 183.769 137.669 183.769C135.701 183.769 134.584 185.153 134.584 186.895C134.584 188.784 135.847 190.02 137.789 190.02C138.587 190.02 139.451 189.768 140.037 189.236L139.704 188.398ZM137.616 184.767C138.653 184.767 139.292 185.379 139.345 186.363H135.714C135.834 185.445 136.525 184.767 137.616 184.767ZM141.017 184.966H143.212V189.887H144.276V184.966H146.47V183.902H141.017V184.966ZM147.633 192.547H148.697V189.608C149.123 189.887 149.748 190.02 150.386 190.02C152.262 190.02 153.499 188.624 153.499 186.802C153.499 185.033 152.435 183.769 150.732 183.769C149.908 183.769 149.11 184.129 148.697 184.607V183.902H147.633V192.547ZM150.426 184.767C151.663 184.767 152.368 185.631 152.368 186.842C152.368 188.105 151.57 189.023 150.293 189.023C149.721 189.023 149.229 188.917 148.697 188.557V185.592C149.07 185.126 149.721 184.767 150.426 184.767ZM154.624 186.895C154.624 188.69 155.901 190.02 157.816 190.02C159.731 190.02 161.008 188.69 161.008 186.895C161.008 185.099 159.731 183.769 157.816 183.769C155.901 183.769 154.624 185.099 154.624 186.895ZM155.755 186.895C155.755 185.631 156.646 184.767 157.816 184.767C159.013 184.767 159.878 185.645 159.878 186.895C159.878 188.172 159.013 189.023 157.816 189.023C156.619 189.023 155.755 188.145 155.755 186.895ZM162.544 189.887H163.608V185.525L165.762 188.305H165.802L167.877 185.525V189.887H168.941V183.902H167.997L165.815 186.868L163.514 183.902H162.544V189.887ZM179.297 183.902H178.086L176.703 187.693C176.597 188.012 176.504 188.318 176.424 188.611C176.304 188.305 176.198 188.012 176.065 187.706L174.309 183.902H173.032L175.905 189.887L175.772 190.207C175.373 191.164 175.001 191.563 174.495 191.563C174.256 191.563 174.03 191.457 173.83 191.364L173.484 192.175C173.804 192.388 174.163 192.547 174.615 192.547C175.466 192.547 176.025 192.029 176.903 189.887L179.297 183.902ZM180.39 192.547H181.454V189.608C181.879 189.887 182.504 190.02 183.143 190.02C185.018 190.02 186.255 188.624 186.255 186.802C186.255 185.033 185.191 183.769 183.489 183.769C182.664 183.769 181.866 184.129 181.454 184.607V183.902H180.39V192.547ZM183.183 184.767C184.42 184.767 185.124 185.631 185.124 186.842C185.124 188.105 184.326 189.023 183.05 189.023C182.478 189.023 181.986 188.917 181.454 188.557V185.592C181.826 185.126 182.478 184.767 183.183 184.767ZM187.381 186.895C187.381 188.69 188.658 190.02 190.573 190.02C192.488 190.02 193.765 188.69 193.765 186.895C193.765 185.099 192.488 183.769 190.573 183.769C188.658 183.769 187.381 185.099 187.381 186.895ZM188.512 186.895C188.512 185.631 189.403 184.767 190.573 184.767C191.77 184.767 192.635 185.645 192.635 186.895C192.635 188.172 191.77 189.023 190.573 189.023C189.376 189.023 188.512 188.145 188.512 186.895ZM195.3 189.887C195.845 189.887 196.749 189.941 197.494 189.941C199.356 189.941 200.247 189.329 200.247 188.198C200.247 187.454 199.808 186.961 198.851 186.789V186.762C199.569 186.656 200.048 186.097 200.048 185.392C200.048 184.315 199.143 183.849 197.468 183.849C196.603 183.849 195.818 183.902 195.3 183.902V189.887ZM197.641 187.201C198.598 187.201 199.117 187.493 199.117 188.119C199.117 188.744 198.572 189.076 197.587 189.076C197.109 189.076 196.683 189.05 196.364 189.036V187.201H197.641ZM197.547 184.714C198.319 184.714 198.917 184.953 198.917 185.605C198.917 186.19 198.412 186.536 197.707 186.536H196.364V184.754C196.63 184.74 197.069 184.714 197.547 184.714ZM206.594 188.398C206.208 188.757 205.53 189.023 204.759 189.023C203.588 189.023 202.764 188.358 202.67 187.227H207.272C207.312 187.041 207.339 186.802 207.339 186.509C207.339 184.86 206.102 183.769 204.559 183.769C202.591 183.769 201.473 185.153 201.473 186.895C201.473 188.784 202.737 190.02 204.679 190.02C205.477 190.02 206.341 189.768 206.926 189.236L206.594 188.398ZM204.506 184.767C205.543 184.767 206.182 185.379 206.235 186.363H202.604C202.724 185.445 203.415 184.767 204.506 184.767ZM213.171 189.887H214.235V183.902H213.171V186.363H209.846V183.902H208.782V189.887H209.846V187.36H213.171V189.887ZM216.159 189.887H218.181C220.069 189.887 220.681 188.81 220.681 187.759C220.681 186.695 220.149 185.698 218.314 185.698H217.223V183.902H216.159V189.887ZM218.114 186.695C219.138 186.695 219.551 187.081 219.551 187.799C219.551 188.504 219.152 188.89 218.101 188.89H217.223V186.695H218.114ZM34.1844 203.214C33.7854 203.666 33.1869 203.985 32.4687 203.985C31.285 203.985 30.3141 203.174 30.3141 201.857C30.3141 200.594 31.285 199.729 32.3623 199.729C32.9874 199.729 33.5726 199.889 34.078 200.355L34.5701 199.517C34.0115 198.958 33.1736 198.732 32.216 198.732C30.4604 198.732 29.1836 200.115 29.1836 201.857C29.1836 203.746 30.487 204.983 32.3889 204.983C33.3066 204.983 34.1844 204.637 34.6898 203.985L34.1844 203.214ZM36.3959 200.128C36.8747 199.876 37.3136 199.69 38.0451 199.69C39.2288 199.69 39.4017 200.461 39.4017 201.578C39.0027 201.286 38.3776 201.192 37.9121 201.192C36.622 201.192 35.6511 201.871 35.6511 203.094C35.6511 204.251 36.3959 204.943 37.4865 204.943C38.4707 204.943 39.0426 204.531 39.4017 204.079V204.85H40.4125V201.179C40.4125 199.623 39.814 198.732 38.1116 198.732C37.3668 198.732 36.6486 198.945 36.1166 199.277L36.3959 200.128ZM37.8589 203.985C37.1673 203.985 36.7816 203.613 36.7816 203.041C36.7816 202.35 37.42 202.057 38.0584 202.057C38.5771 202.057 39.0293 202.19 39.4017 202.456V203.214C39.0958 203.573 38.6436 203.985 37.8589 203.985ZM47.5142 198.865H46.2773L44.6281 201.126L43.0055 198.865H41.7021L43.8301 201.804L41.5691 204.85H42.806L44.5882 202.429L46.3438 204.85H47.6472L45.3729 201.751L47.5142 198.865ZM49.2544 200.128C49.7331 199.876 50.1721 199.69 50.9036 199.69C52.0873 199.69 52.2602 200.461 52.2602 201.578C51.8612 201.286 51.2361 201.192 50.7706 201.192C49.4805 201.192 48.5096 201.871 48.5096 203.094C48.5096 204.251 49.2544 204.943 50.345 204.943C51.3292 204.943 51.9011 204.531 52.2602 204.079V204.85H53.271V201.179C53.271 199.623 52.6725 198.732 50.9701 198.732C50.2253 198.732 49.5071 198.945 48.9751 199.277L49.2544 200.128ZM50.7174 203.985C50.0258 203.985 49.64 203.613 49.64 203.041C49.64 202.35 50.2785 202.057 50.9169 202.057C51.4356 202.057 51.8877 202.19 52.2602 202.456V203.214C51.9543 203.573 51.5021 203.985 50.7174 203.985ZM55.0526 207.51H56.1166V204.571C56.5422 204.85 57.1673 204.983 57.8057 204.983C59.681 204.983 60.9179 203.586 60.9179 201.764C60.9179 199.995 59.8539 198.732 58.1515 198.732C57.3269 198.732 56.5289 199.091 56.1166 199.57V198.865H55.0526V207.51ZM57.8456 199.729C59.0825 199.729 59.7874 200.594 59.7874 201.804C59.7874 203.068 58.9894 203.985 57.7126 203.985C57.1407 203.985 56.6486 203.879 56.1166 203.52V200.554C56.489 200.089 57.1407 199.729 57.8456 199.729ZM62.7622 200.128C63.2409 199.876 63.6799 199.69 64.4114 199.69C65.5951 199.69 65.768 200.461 65.768 201.578C65.369 201.286 64.7439 201.192 64.2784 201.192C62.9883 201.192 62.0174 201.871 62.0174 203.094C62.0174 204.251 62.7622 204.943 63.8528 204.943C64.837 204.943 65.4089 204.531 65.768 204.079V204.85H66.7788V201.179C66.7788 199.623 66.1803 198.732 64.4779 198.732C63.7331 198.732 63.0149 198.945 62.4829 199.277L62.7622 200.128ZM64.2252 203.985C63.5336 203.985 63.1478 203.613 63.1478 203.041C63.1478 202.35 63.7863 202.057 64.4247 202.057C64.9434 202.057 65.3955 202.19 65.768 202.456V203.214C65.4621 203.573 65.0099 203.985 64.2252 203.985ZM71.5477 204.85C72.093 204.85 72.9974 204.903 73.7422 204.903C75.6042 204.903 76.4954 204.291 76.4954 203.161C76.4954 202.416 76.0565 201.924 75.0989 201.751V201.724C75.8171 201.618 76.2958 201.059 76.2958 200.355C76.2958 199.277 75.3915 198.812 73.7157 198.812C72.8512 198.812 72.0664 198.865 71.5477 198.865V204.85ZM73.8885 202.163C74.8461 202.163 75.3649 202.456 75.3649 203.081C75.3649 203.706 74.8195 204.039 73.8354 204.039C73.3565 204.039 72.931 204.012 72.6117 203.999V202.163H73.8885ZM73.7955 199.676C74.5669 199.676 75.1654 199.916 75.1654 200.567C75.1654 201.153 74.66 201.498 73.9551 201.498H72.6117V199.716C72.8778 199.703 73.3167 199.676 73.7955 199.676ZM86.3473 198.865H84.9508L82.4238 201.791L85.1237 204.85H86.6L83.7272 201.724L86.3473 198.865ZM81.1071 204.85H82.1711V198.865H81.1071V204.85ZM87.7311 207.51H88.7951V204.571C89.2207 204.85 89.8458 204.983 90.4842 204.983C92.3595 204.983 93.5964 203.586 93.5964 201.764C93.5964 199.995 92.5324 198.732 90.83 198.732C90.0054 198.732 89.2074 199.091 88.7951 199.57V198.865H87.7311V207.51ZM90.5241 199.729C91.761 199.729 92.4659 200.594 92.4659 201.804C92.4659 203.068 91.6679 203.985 90.3911 203.985C89.8192 203.985 89.3271 203.879 88.7951 203.52V200.554C89.1675 200.089 89.8192 199.729 90.5241 199.729ZM94.7225 201.857C94.7225 203.653 95.9995 204.983 97.9147 204.983C99.8299 204.983 101.107 203.653 101.107 201.857C101.107 200.062 99.8299 198.732 97.9147 198.732C95.9995 198.732 94.7225 200.062 94.7225 201.857ZM95.8532 201.857C95.8532 200.594 96.7443 199.729 97.9147 199.729C99.1117 199.729 99.9762 200.607 99.9762 201.857C99.9762 203.134 99.1117 203.985 97.9147 203.985C96.7177 203.985 95.8532 203.108 95.8532 201.857ZM102.642 204.85C103.187 204.85 104.092 204.903 104.836 204.903C106.698 204.903 107.59 204.291 107.59 203.161C107.59 202.416 107.151 201.924 106.193 201.751V201.724C106.911 201.618 107.39 201.059 107.39 200.355C107.39 199.277 106.486 198.812 104.81 198.812C103.945 198.812 103.161 198.865 102.642 198.865V204.85ZM104.983 202.163C105.94 202.163 106.459 202.456 106.459 203.081C106.459 203.706 105.914 204.039 104.93 204.039C104.451 204.039 104.025 204.012 103.706 203.999V202.163H104.983ZM104.89 199.676C105.661 199.676 106.26 199.916 106.26 200.567C106.26 201.153 105.754 201.498 105.049 201.498H103.706V199.716C103.972 199.703 104.411 199.676 104.89 199.676ZM110.278 204.85L113.736 200.394V204.85H114.8V198.865H113.736L110.278 203.32V198.865H109.214V204.85H110.278ZM116.442 204.132C116.442 204.531 116.734 204.89 117.2 204.89C117.612 204.89 117.905 204.531 117.905 204.132C117.905 203.786 117.612 203.427 117.2 203.427C116.734 203.427 116.442 203.786 116.442 204.132ZM36.206 219.812H37.3365V210.502H30.0215V219.812H31.152V211.566H36.206V219.812ZM39.2885 216.82C39.2885 218.615 40.5653 219.945 42.4805 219.945C44.3957 219.945 45.6725 218.615 45.6725 216.82C45.6725 215.024 44.3957 213.694 42.4805 213.694C40.5653 213.694 39.2885 215.024 39.2885 216.82ZM40.419 216.82C40.419 215.556 41.3101 214.692 42.4805 214.692C43.6775 214.692 44.542 215.57 44.542 216.82C44.542 218.097 43.6775 218.948 42.4805 218.948C41.2835 218.948 40.419 218.07 40.419 216.82ZM52.4479 213.827H51.0514L48.5244 216.754L51.2243 219.812H52.7006L49.8278 216.687L52.4479 213.827ZM47.2077 219.812H48.2717V213.827H47.2077V219.812ZM54.1509 215.091C54.6297 214.838 55.0686 214.652 55.8001 214.652C56.9838 214.652 57.1567 215.423 57.1567 216.541C56.7577 216.248 56.1326 216.155 55.6671 216.155C54.377 216.155 53.4061 216.833 53.4061 218.057C53.4061 219.214 54.1509 219.906 55.2415 219.906C56.2257 219.906 56.7976 219.493 57.1567 219.041V219.812H58.1675V216.142C58.1675 214.586 57.569 213.694 55.8666 213.694C55.1218 213.694 54.4036 213.907 53.8716 214.24L54.1509 215.091ZM55.6139 218.948C54.9223 218.948 54.5366 218.576 54.5366 218.004C54.5366 217.312 55.175 217.019 55.8134 217.019C56.3321 217.019 56.7843 217.152 57.1567 217.418V218.177C56.8508 218.536 56.3986 218.948 55.6139 218.948ZM61.9309 219.945C63.4072 219.945 64.4712 219.267 64.4712 218.15C64.4712 217.458 64.0589 216.833 63.221 216.74V216.714C63.9791 216.448 64.2717 215.889 64.2717 215.304C64.2717 214.32 63.487 213.694 62.024 213.694C61.0797 213.694 60.1487 213.987 59.6566 214.493L60.0689 215.317C60.4679 214.998 61.0398 214.652 61.8644 214.652C62.6358 214.652 63.1412 214.971 63.1412 215.517C63.1412 215.995 62.7023 216.368 62.1038 216.368H61.1595V217.232H62.1703C62.9018 217.232 63.3407 217.512 63.3407 218.004C63.3407 218.602 62.6757 218.988 61.7713 218.988C61.2526 218.988 60.5078 218.748 60.0024 218.336L59.4571 219.134C59.8561 219.613 61.0531 219.945 61.9309 219.945ZM66.4119 215.091C66.8907 214.838 67.3296 214.652 68.0611 214.652C69.2448 214.652 69.4177 215.423 69.4177 216.541C69.0187 216.248 68.3936 216.155 67.9281 216.155C66.638 216.155 65.6671 216.833 65.6671 218.057C65.6671 219.214 66.4119 219.906 67.5025 219.906C68.4867 219.906 69.0586 219.493 69.4177 219.041V219.812H70.4285V216.142C70.4285 214.586 69.83 213.694 68.1276 213.694C67.3828 213.694 66.6646 213.907 66.1326 214.24L66.4119 215.091ZM67.8749 218.948C67.1833 218.948 66.7976 218.576 66.7976 218.004C66.7976 217.312 67.436 217.019 68.0744 217.019C68.5931 217.019 69.0453 217.152 69.4177 217.418V218.177C69.1118 218.536 68.6596 218.948 67.8749 218.948ZM76.5992 219.812H77.6632V213.827H76.5992V216.288H73.2742V213.827H72.2102V219.812H73.2742V217.285H76.5992V219.812ZM80.6515 219.812L84.1095 215.357V219.812H85.1735V213.827H84.1095L80.6515 218.283V213.827H79.5875V219.812H80.6515ZM89.7278 213.827C87.7328 213.827 87.0545 214.798 87.0545 215.822C87.0545 216.807 87.7328 217.405 88.3446 217.551L86.6156 219.812H87.9057L89.3687 217.818H90.5258V219.812H91.5898V213.827H89.7278ZM88.185 215.849C88.185 215.29 88.5574 214.825 89.5549 214.825H90.5258V216.82H89.3022C88.7702 216.82 88.185 216.461 88.185 215.849ZM96.1125 216.82C96.1125 218.615 97.3893 219.945 99.3045 219.945C101.22 219.945 102.497 218.615 102.497 216.82C102.497 215.024 101.22 213.694 99.3045 213.694C97.3893 213.694 96.1125 215.024 96.1125 216.82ZM97.243 216.82C97.243 215.556 98.1341 214.692 99.3045 214.692C100.502 214.692 101.366 215.57 101.366 216.82C101.366 218.097 100.502 218.948 99.3045 218.948C98.1075 218.948 97.243 218.07 97.243 216.82ZM108.66 210.369C108.048 211.167 107.224 210.795 105.827 211.394C103.925 212.192 103.606 214.453 103.606 216.221C103.606 218.522 104.829 219.945 106.772 219.945C108.594 219.945 109.844 218.549 109.844 216.873C109.844 215.078 108.78 213.894 107.064 213.894C106.053 213.894 105.083 214.453 104.697 215.29H104.67C104.75 214.173 105.069 212.91 106.186 212.404C107.503 211.806 108.501 212.192 109.232 211.207L108.66 210.369ZM104.736 216.421C104.923 215.65 105.668 214.891 106.798 214.891C108.035 214.891 108.713 215.756 108.713 216.926C108.713 218.044 107.915 218.948 106.745 218.948C105.561 218.948 104.736 217.964 104.736 216.421ZM113.704 213.827C111.709 213.827 111.031 214.798 111.031 215.822C111.031 216.807 111.709 217.405 112.321 217.551L110.592 219.812H111.882L113.345 217.818H114.502V219.812H115.566V213.827H113.704ZM112.161 215.849C112.161 215.29 112.534 214.825 113.531 214.825H114.502V216.82H113.279C112.747 216.82 112.161 216.461 112.161 215.849ZM119.482 219.945C120.959 219.945 122.023 219.267 122.023 218.15C122.023 217.458 121.61 216.833 120.772 216.74V216.714C121.53 216.448 121.823 215.889 121.823 215.304C121.823 214.32 121.038 213.694 119.575 213.694C118.631 213.694 117.7 213.987 117.208 214.493L117.62 215.317C118.019 214.998 118.591 214.652 119.416 214.652C120.187 214.652 120.693 214.971 120.693 215.517C120.693 215.995 120.254 216.368 119.655 216.368H118.711V217.232H119.722C120.453 217.232 120.892 217.512 120.892 218.004C120.892 218.602 120.227 218.988 119.323 218.988C118.804 218.988 118.059 218.748 117.554 218.336L117.008 219.134C117.407 219.613 118.604 219.945 119.482 219.945ZM123.963 215.091C124.442 214.838 124.88 214.652 125.612 214.652C126.796 214.652 126.969 215.423 126.969 216.541C126.57 216.248 125.944 216.155 125.479 216.155C124.189 216.155 123.218 216.833 123.218 218.057C123.218 219.214 123.963 219.906 125.053 219.906C126.038 219.906 126.609 219.493 126.969 219.041V219.812H127.979V216.142C127.979 214.586 127.381 213.694 125.678 213.694C124.934 213.694 124.215 213.907 123.683 214.24L123.963 215.091ZM125.426 218.948C124.734 218.948 124.348 218.576 124.348 218.004C124.348 217.312 124.987 217.019 125.625 217.019C126.144 217.019 126.596 217.152 126.969 217.418V218.177C126.663 218.536 126.21 218.948 125.426 218.948ZM129.003 214.891H131.198V219.812H132.262V214.891H134.456V213.827H129.003V214.891ZM140.146 218.323C139.76 218.682 139.081 218.948 138.31 218.948C137.14 218.948 136.315 218.283 136.222 217.152H140.824C140.864 216.966 140.89 216.727 140.89 216.434C140.89 214.785 139.653 213.694 138.111 213.694C136.142 213.694 135.025 215.078 135.025 216.82C135.025 218.709 136.288 219.945 138.23 219.945C139.028 219.945 139.893 219.693 140.478 219.161L140.146 218.323ZM138.057 214.692C139.095 214.692 139.733 215.304 139.786 216.288H136.155C136.275 215.37 136.967 214.692 138.057 214.692ZM146.196 219.812H147.26V213.827H143.097L142.991 215.689C142.845 218.456 141.993 218.895 141.541 218.855L141.621 219.892C142.858 219.892 143.762 219.307 144.028 215.902L144.095 214.891H146.196V219.812ZM149.179 219.812H151.2C153.089 219.812 153.701 218.735 153.701 217.684C153.701 216.62 153.169 215.623 151.333 215.623H150.243V213.827H149.179V219.812ZM151.134 216.62C152.158 216.62 152.57 217.006 152.57 217.724C152.57 218.429 152.171 218.815 151.12 218.815H150.243V216.62H151.134ZM159.516 219.812H160.58V213.827H159.516V216.288H156.191V213.827H155.127V219.812H156.191V217.285H159.516V219.812ZM162.105 216.82C162.105 218.615 163.382 219.945 165.297 219.945C167.213 219.945 168.489 218.615 168.489 216.82C168.489 215.024 167.213 213.694 165.297 213.694C163.382 213.694 162.105 215.024 162.105 216.82ZM163.236 216.82C163.236 215.556 164.127 214.692 165.297 214.692C166.494 214.692 167.359 215.57 167.359 216.82C167.359 218.097 166.494 218.948 165.297 218.948C164.1 218.948 163.236 218.07 163.236 216.82ZM174.994 219.945C176.47 219.945 177.534 219.267 177.534 218.15C177.534 217.458 177.122 216.833 176.284 216.74V216.714C177.042 216.448 177.335 215.889 177.335 215.304C177.335 214.32 176.55 213.694 175.087 213.694C174.143 213.694 173.212 213.987 172.72 214.493L173.132 215.317C173.531 214.998 174.103 214.652 174.927 214.652C175.699 214.652 176.204 214.971 176.204 215.517C176.204 215.995 175.765 216.368 175.167 216.368H174.223V217.232H175.233C175.965 217.232 176.404 217.512 176.404 218.004C176.404 218.602 175.739 218.988 174.834 218.988C174.316 218.988 173.571 218.748 173.065 218.336L172.52 219.134C172.919 219.613 174.116 219.945 174.994 219.945ZM179.475 215.091C179.953 214.838 180.393 214.652 181.124 214.652C182.308 214.652 182.481 215.423 182.481 216.541C182.082 216.248 181.457 216.155 180.991 216.155C179.701 216.155 178.73 216.833 178.73 218.057C178.73 219.214 179.475 219.906 180.566 219.906C181.55 219.906 182.122 219.493 182.481 219.041V219.812H183.492V216.142C183.492 214.586 182.893 213.694 181.191 213.694C180.446 213.694 179.728 213.907 179.196 214.24L179.475 215.091ZM180.938 218.948C180.247 218.948 179.861 218.576 179.861 218.004C179.861 217.312 180.499 217.019 181.138 217.019C181.656 217.019 182.108 217.152 182.481 217.418V218.177C182.175 218.536 181.723 218.948 180.938 218.948ZM189.596 219.812H190.66V213.827H185.273V219.812H186.337V214.825H189.596V219.812ZM193.65 219.812L197.108 215.357V219.812H198.172V213.827H197.108L193.65 218.283V213.827H192.586V219.812H193.65ZM204.708 218.177C204.309 218.629 203.71 218.948 202.992 218.948C201.808 218.948 200.838 218.137 200.838 216.82C200.838 215.556 201.808 214.692 202.886 214.692C203.511 214.692 204.096 214.852 204.601 215.317L205.094 214.479C204.535 213.921 203.697 213.694 202.739 213.694C200.984 213.694 199.707 215.078 199.707 216.82C199.707 218.709 201.01 219.945 202.912 219.945C203.83 219.945 204.708 219.6 205.213 218.948L204.708 218.177ZM206.919 215.091C207.398 214.838 207.837 214.652 208.568 214.652C209.752 214.652 209.925 215.423 209.925 216.541C209.526 216.248 208.901 216.155 208.435 216.155C207.145 216.155 206.174 216.833 206.174 218.057C206.174 219.214 206.919 219.906 208.01 219.906C208.994 219.906 209.566 219.493 209.925 219.041V219.812H210.936V216.142C210.936 214.586 210.337 213.694 208.635 213.694C207.89 213.694 207.172 213.907 206.64 214.24L206.919 215.091ZM208.382 218.948C207.69 218.948 207.305 218.576 207.305 218.004C207.305 217.312 207.943 217.019 208.581 217.019C209.1 217.019 209.552 217.152 209.925 217.418V218.177C209.619 218.536 209.167 218.948 208.382 218.948ZM211.96 214.891H214.154V219.812H215.218V214.891H217.413V213.827H211.96V214.891ZM218.575 219.812H220.596C222.485 219.812 223.097 218.735 223.097 217.684C223.097 216.62 222.565 215.623 220.729 215.623H219.639V213.827H218.575V219.812ZM220.53 216.62C221.554 216.62 221.966 217.006 221.966 217.724C221.966 218.429 221.567 218.815 220.517 218.815H219.639V216.62H220.53ZM227.511 219.812C228.056 219.812 228.96 219.866 229.705 219.866C231.567 219.866 232.458 219.254 232.458 218.123C232.458 217.379 232.019 216.886 231.062 216.714V216.687C231.78 216.581 232.259 216.022 232.259 215.317C232.259 214.24 231.354 213.774 229.679 213.774C228.814 213.774 228.029 213.827 227.511 213.827V219.812ZM229.852 217.126C230.809 217.126 231.328 217.418 231.328 218.044C231.328 218.669 230.783 219.001 229.798 219.001C229.32 219.001 228.894 218.975 228.575 218.961V217.126H229.852ZM229.758 214.639C230.53 214.639 231.128 214.878 231.128 215.53C231.128 216.115 230.623 216.461 229.918 216.461H228.575V214.679C228.841 214.665 229.28 214.639 229.758 214.639ZM34.8228 228.79H33.4263L30.8993 231.716L33.5992 234.775H35.0755L32.2027 231.649L34.8228 228.79ZM29.5826 234.775H30.6466V228.79H29.5826V234.775ZM35.4829 231.782C35.4829 233.578 36.7597 234.908 38.6749 234.908C40.5901 234.908 41.8669 233.578 41.8669 231.782C41.8669 229.987 40.5901 228.657 38.6749 228.657C36.7597 228.657 35.4829 229.987 35.4829 231.782ZM36.6134 231.782C36.6134 230.519 37.5045 229.654 38.6749 229.654C39.8719 229.654 40.7364 230.532 40.7364 231.782C40.7364 233.059 39.8719 233.91 38.6749 233.91C37.4779 233.91 36.6134 233.033 36.6134 231.782ZM43.4021 234.775H44.4661V230.413L46.6207 233.192H46.6606L48.7354 230.413V234.775H49.7994V228.79H48.8551L46.6739 231.756L44.373 228.79H43.4021V234.775ZM51.7276 234.775H52.7916V230.413L54.9462 233.192H54.9861L57.0609 230.413V234.775H58.1249V228.79H57.1806L54.9994 231.756L52.6985 228.79H51.7276V234.775ZM64.7746 233.285C64.3889 233.645 63.7106 233.91 62.9392 233.91C61.7688 233.91 60.9442 233.245 60.8511 232.115H65.4529C65.4928 231.929 65.5194 231.689 65.5194 231.397C65.5194 229.748 64.2825 228.657 62.7397 228.657C60.7713 228.657 59.6541 230.04 59.6541 231.782C59.6541 233.671 60.9176 234.908 62.8594 234.908C63.6574 234.908 64.5219 234.655 65.1071 234.123L64.7746 233.285ZM62.6865 229.654C63.7239 229.654 64.3623 230.266 64.4155 231.251H60.7846C60.9043 230.333 61.5959 229.654 62.6865 229.654ZM71.3519 234.775H72.4159V228.79H71.3519V231.251H68.0269V228.79H66.9629V234.775H68.0269V232.248H71.3519V234.775ZM73.5822 229.854H75.7767V234.775H76.8407V229.854H79.0352V228.79H73.5822V229.854ZM80.5171 230.054C80.9959 229.801 81.4348 229.615 82.1663 229.615C83.35 229.615 83.5229 230.386 83.5229 231.503C83.1239 231.211 82.4988 231.118 82.0333 231.118C80.7432 231.118 79.7723 231.796 79.7723 233.019C79.7723 234.177 80.5171 234.868 81.6077 234.868C82.5919 234.868 83.1638 234.456 83.5229 234.004V234.775H84.5337V231.104C84.5337 229.548 83.9352 228.657 82.2328 228.657C81.488 228.657 80.7698 228.87 80.2378 229.202L80.5171 230.054ZM81.9801 233.91C81.2885 233.91 80.9028 233.538 80.9028 232.966C80.9028 232.275 81.5412 231.982 82.1796 231.982C82.6983 231.982 83.1505 232.115 83.5229 232.381V233.139C83.217 233.498 82.7648 233.91 81.9801 233.91ZM86.3154 237.435H87.3794V234.496C87.805 234.775 88.4301 234.908 89.0685 234.908C90.9438 234.908 92.1807 233.511 92.1807 231.689C92.1807 229.92 91.1167 228.657 89.4143 228.657C88.5897 228.657 87.7917 229.016 87.3794 229.495V228.79H86.3154V237.435ZM89.1084 229.654C90.3453 229.654 91.0502 230.519 91.0502 231.729C91.0502 232.993 90.2522 233.91 88.9754 233.91C88.4035 233.91 87.9114 233.804 87.3794 233.445V230.479C87.7518 230.014 88.4035 229.654 89.1084 229.654ZM94.7697 234.775L98.2281 230.32V234.775H99.2921V228.79H98.2281L94.7697 233.246V228.79H93.7057V234.775H94.7697ZM103.846 228.79C101.851 228.79 101.173 229.761 101.173 230.785C101.173 231.769 101.851 232.368 102.463 232.514L100.734 234.775H102.024L103.487 232.78H104.644V234.775H105.708V228.79H103.846ZM102.304 230.812C102.304 230.253 102.676 229.787 103.674 229.787H104.644V231.782H103.421C102.889 231.782 102.304 231.423 102.304 230.812ZM112.962 228.79H111.725L110.076 231.051L108.453 228.79H107.15L109.278 231.729L107.017 234.775H108.254L110.036 232.354L111.792 234.775H113.095L110.821 231.676L112.962 228.79ZM122.61 228.79H121.214L118.687 231.716L121.387 234.775H122.863L119.99 231.649L122.61 228.79ZM117.37 234.775H118.434V228.79H117.37V234.775ZM128.964 234.908C130.44 234.908 131.504 234.23 131.504 233.113C131.504 232.421 131.092 231.796 130.254 231.703V231.676C131.012 231.41 131.304 230.851 131.304 230.266C131.304 229.282 130.52 228.657 129.057 228.657C128.112 228.657 127.181 228.95 126.689 229.455L127.102 230.28C127.501 229.96 128.072 229.615 128.897 229.615C129.668 229.615 130.174 229.934 130.174 230.479C130.174 230.958 129.735 231.33 129.136 231.33H128.192V232.195H129.203C129.934 232.195 130.373 232.474 130.373 232.966C130.373 233.565 129.708 233.95 128.804 233.95C128.285 233.95 127.54 233.711 127.035 233.299L126.49 234.097C126.889 234.575 128.086 234.908 128.964 234.908ZM133.445 230.054C133.923 229.801 134.362 229.615 135.094 229.615C136.278 229.615 136.451 230.386 136.451 231.503C136.052 231.211 135.426 231.118 134.961 231.118C133.671 231.118 132.7 231.796 132.7 233.019C132.7 234.177 133.445 234.868 134.535 234.868C135.52 234.868 136.091 234.456 136.451 234.004V234.775H137.461V231.104C137.461 229.548 136.863 228.657 135.16 228.657C134.416 228.657 133.697 228.87 133.165 229.202L133.445 230.054ZM134.908 233.91C134.216 233.91 133.83 233.538 133.83 232.966C133.83 232.275 134.469 231.982 135.107 231.982C135.626 231.982 136.077 232.115 136.451 232.381V233.139C136.145 233.498 135.692 233.91 134.908 233.91ZM138.418 236.238H139.416V234.775H144.257V236.238H145.254V233.777H144.257V228.79H140.174L140.081 230.373C139.974 232.009 139.562 233.272 139.163 233.777H138.418V236.238ZM141.105 230.785L141.171 229.787H143.193V233.777H140.293C140.573 233.405 140.972 232.315 141.105 230.785ZM146.731 230.054C147.21 229.801 147.649 229.615 148.381 229.615C149.564 229.615 149.737 230.386 149.737 231.503C149.338 231.211 148.713 231.118 148.248 231.118C146.958 231.118 145.987 231.796 145.987 233.019C145.987 234.177 146.731 234.868 147.822 234.868C148.806 234.868 149.378 234.456 149.737 234.004V234.775H150.748V231.104C150.748 229.548 150.15 228.657 148.447 228.657C147.702 228.657 146.984 228.87 146.452 229.202L146.731 230.054ZM148.194 233.91C147.503 233.91 147.117 233.538 147.117 232.966C147.117 232.275 147.756 231.982 148.394 231.982C148.913 231.982 149.365 232.115 149.737 232.381V233.139C149.431 233.498 148.979 233.91 148.194 233.91ZM156.918 234.775H157.982V228.79H156.918V231.251H153.593V228.79H152.529V234.775H153.593V232.248H156.918V234.775ZM160.971 234.775L164.429 230.32V234.775H165.493V228.79H164.429L160.971 233.246V228.79H159.907V234.775H160.971ZM167.427 234.775H168.558V232.248H169.848C170.034 233.804 171.191 234.908 172.88 234.908C174.729 234.908 176.006 233.578 176.006 231.782C176.006 229.987 174.755 228.657 172.88 228.657C171.244 228.657 170.1 229.708 169.861 231.184H168.558V228.79H167.427V234.775ZM171.018 231.782C171.018 230.546 171.803 229.721 172.92 229.721C174.064 229.721 174.809 230.559 174.809 231.782C174.809 233.033 174.024 233.844 172.92 233.844C171.816 233.844 171.018 233.046 171.018 231.782ZM177.239 234.057C177.239 234.456 177.532 234.815 177.997 234.815C178.41 234.815 178.702 234.456 178.702 234.057C178.702 233.711 178.41 233.352 177.997 233.352C177.532 233.352 177.239 233.711 177.239 234.057Z" fill="#304960"/>
<path d="M267.194 124.634H22.8062C21.6584 124.634 20.728 125.565 20.728 126.712V163.287C20.728 164.435 21.6584 165.366 22.8062 165.366H267.194C268.341 165.366 269.272 164.435 269.272 163.287V126.712C269.272 125.565 268.341 124.634 267.194 124.634Z" fill="#E8F8FF" stroke="#17C5CC"/>
<path d="M243.919 142.506L248.906 147.494L253.894 142.506" stroke="#2884C9" stroke-linecap="round" stroke-linejoin="round"/>
<path d="M30.0215 149.156H31.152V141.668L34.4903 146.257H34.6632L37.9616 141.628V149.156H39.0921V139.846H38.0148L34.6632 144.621L31.1653 139.846H30.0215V149.156ZM41.7601 144.435C42.2389 144.182 42.6778 143.996 43.4093 143.996C44.593 143.996 44.7659 144.767 44.7659 145.884C44.3669 145.592 43.7418 145.499 43.2763 145.499C41.9862 145.499 41.0153 146.177 41.0153 147.401C41.0153 148.558 41.7601 149.249 42.8507 149.249C43.8349 149.249 44.4068 148.837 44.7659 148.385V149.156H45.7767V145.485C45.7767 143.929 45.1782 143.038 43.4758 143.038C42.731 143.038 42.0128 143.251 41.4808 143.584L41.7601 144.435ZM43.2231 148.292C42.5315 148.292 42.1458 147.919 42.1458 147.347C42.1458 146.656 42.7842 146.363 43.4226 146.363C43.9413 146.363 44.3935 146.496 44.7659 146.762V147.52C44.46 147.879 44.0078 148.292 43.2231 148.292ZM47.5584 151.816H48.6224V148.877C49.048 149.156 49.6731 149.289 50.3115 149.289C52.1868 149.289 53.4237 147.893 53.4237 146.071C53.4237 144.302 52.3597 143.038 50.6573 143.038C49.8327 143.038 49.0347 143.397 48.6224 143.876V143.171H47.5584V151.816ZM50.3514 144.036C51.5883 144.036 52.2932 144.9 52.2932 146.111C52.2932 147.374 51.4952 148.292 50.2184 148.292C49.6465 148.292 49.1544 148.185 48.6224 147.826V144.86C48.9948 144.395 49.6465 144.036 50.3514 144.036ZM56.0127 149.156L59.4707 144.701V149.156H60.5347V143.171H59.4707L56.0127 147.627V143.171H54.9487V149.156H56.0127ZM65.089 143.171C63.094 143.171 62.4157 144.142 62.4157 145.166C62.4157 146.15 63.094 146.749 63.7058 146.895L61.9768 149.156H63.2669L64.7299 147.161H65.887V149.156H66.951V143.171H65.089ZM63.5462 145.193C63.5462 144.634 63.9186 144.169 64.9161 144.169H65.887V146.164H64.6634C64.1314 146.164 63.5462 145.805 63.5462 145.193ZM78.7884 147.401C78.15 147.919 77.2988 148.225 76.4077 148.225C74.2531 148.225 72.7768 146.722 72.7768 144.501C72.7768 142.293 74.2132 140.777 76.2348 140.777C77.2057 140.777 77.9239 141.017 78.5357 141.469L79.0544 140.618C78.3894 140.046 77.4185 139.713 76.2215 139.713C73.3088 139.713 71.5798 141.828 71.5798 144.501C71.5798 147.401 73.5083 149.289 76.3013 149.289C77.4584 149.289 78.6155 148.89 79.2406 148.252L78.7884 147.401ZM80.9198 144.435C81.3986 144.182 81.8374 143.996 82.5689 143.996C83.7526 143.996 83.9255 144.767 83.9255 145.884C83.5266 145.592 82.9015 145.499 82.436 145.499C81.1459 145.499 80.1749 146.177 80.1749 147.401C80.1749 148.558 80.9198 149.249 82.0103 149.249C82.9945 149.249 83.5665 148.837 83.9255 148.385V149.156H84.9363V145.485C84.9363 143.929 84.3378 143.038 82.6354 143.038C81.8906 143.038 81.1724 143.251 80.6404 143.584L80.9198 144.435ZM82.3827 148.292C81.6911 148.292 81.3055 147.919 81.3055 147.347C81.3055 146.656 81.9439 146.363 82.5823 146.363C83.101 146.363 83.5532 146.496 83.9255 146.762V147.52C83.6197 147.879 83.1674 148.292 82.3827 148.292ZM89.7105 151.816H90.7746V149.289H90.9475C93.0489 149.289 94.166 147.946 94.166 146.164C94.166 144.408 92.9425 143.038 90.9475 143.038H90.7746V139.846H89.7105V143.038H89.551C87.4895 143.038 86.3191 144.541 86.3191 146.164C86.3191 147.946 87.5028 149.289 89.5643 149.289H89.7105V151.816ZM87.4496 146.164C87.4496 145.007 88.1677 144.036 89.5376 144.036H89.7105V148.292H89.6041C88.221 148.292 87.4496 147.401 87.4496 146.164ZM90.9475 144.036C92.3041 144.036 93.0355 145.06 93.0355 146.164C93.0355 147.414 92.2908 148.292 90.8943 148.292H90.7746V144.036H90.9475ZM95.6927 151.816H96.7567V148.877C97.1823 149.156 97.8074 149.289 98.4458 149.289C100.321 149.289 101.558 147.893 101.558 146.071C101.558 144.302 100.494 143.038 98.7916 143.038C97.967 143.038 97.169 143.397 96.7567 143.876V143.171H95.6927V151.816ZM98.4857 144.036C99.7226 144.036 100.428 144.9 100.428 146.111C100.428 147.374 99.6295 148.292 98.3527 148.292C97.7808 148.292 97.2887 148.185 96.7567 147.826V144.86C97.1291 144.395 97.7808 144.036 98.4857 144.036ZM102.684 146.164C102.684 147.959 103.961 149.289 105.876 149.289C107.792 149.289 109.068 147.959 109.068 146.164C109.068 144.368 107.792 143.038 105.876 143.038C103.961 143.038 102.684 144.368 102.684 146.164ZM103.815 146.164C103.815 144.9 104.706 144.036 105.876 144.036C107.073 144.036 107.938 144.914 107.938 146.164C107.938 147.441 107.073 148.292 105.876 148.292C104.679 148.292 103.815 147.414 103.815 146.164ZM114.993 149.156H116.057V143.171H114.993V145.632H111.668V143.171H110.604V149.156H111.668V146.629H114.993V149.156ZM117.582 146.164C117.582 147.959 118.859 149.289 120.774 149.289C122.689 149.289 123.966 147.959 123.966 146.164C123.966 144.368 122.689 143.038 120.774 143.038C118.859 143.038 117.582 144.368 117.582 146.164ZM118.713 146.164C118.713 144.9 119.604 144.036 120.774 144.036C121.971 144.036 122.836 144.914 122.836 146.164C122.836 147.441 121.971 148.292 120.774 148.292C119.577 148.292 118.713 147.414 118.713 146.164ZM125.501 149.156C126.047 149.156 126.951 149.209 127.696 149.209C129.558 149.209 130.449 148.598 130.449 147.467C130.449 146.722 130.01 146.23 129.052 146.057V146.031C129.771 145.924 130.249 145.366 130.249 144.661C130.249 143.584 129.345 143.118 127.669 143.118C126.805 143.118 126.02 143.171 125.501 143.171V149.156ZM127.842 146.47C128.8 146.47 129.318 146.762 129.318 147.387C129.318 148.012 128.773 148.345 127.789 148.345C127.31 148.345 126.885 148.318 126.565 148.305V146.47H127.842ZM127.749 143.983C128.52 143.983 129.119 144.222 129.119 144.874C129.119 145.459 128.614 145.805 127.909 145.805H126.565V144.022C126.831 144.009 127.27 143.983 127.749 143.983ZM132.392 144.435C132.871 144.182 133.31 143.996 134.042 143.996C135.225 143.996 135.398 144.767 135.398 145.884C134.999 145.592 134.374 145.499 133.909 145.499C132.619 145.499 131.648 146.177 131.648 147.401C131.648 148.558 132.392 149.249 133.483 149.249C134.467 149.249 135.039 148.837 135.398 148.385V149.156H136.409V145.485C136.409 143.929 135.811 143.038 134.108 143.038C133.363 143.038 132.645 143.251 132.113 143.584L132.392 144.435ZM133.855 148.292C133.164 148.292 132.778 147.919 132.778 147.347C132.778 146.656 133.417 146.363 134.055 146.363C134.574 146.363 135.026 146.496 135.398 146.762V147.52C135.092 147.879 134.64 148.292 133.855 148.292Z" fill="#304960"/>
<path d="M267.194 78.9156H22.8062C21.6584 78.9156 20.728 79.846 20.728 80.9937V117.569C20.728 118.716 21.6584 119.647 22.8062 119.647H267.194C268.341 119.647 269.272 118.716 269.272 117.569V80.9937C269.272 79.846 268.341 78.9156 267.194 78.9156Z" fill="#E8F8FF" stroke="#17C5CC"/>
<path d="M243.919 96.7875L248.906 101.775L253.894 96.7875" stroke="#2884C9" stroke-linecap="round" stroke-linejoin="round"/>
<path d="M28.8247 103.437H29.9685L31.1522 100.618H35.3949L36.5919 103.437H37.8022L33.7989 94.0743H32.828L28.8247 103.437ZM33.2802 95.5772L34.956 99.5539H31.6044L33.2802 95.5772ZM43.3494 103.437H44.4134V97.4525H43.3494V99.913H40.0244V97.4525H38.9604V103.437H40.0244V100.91H43.3494V103.437ZM46.6569 98.716C47.1356 98.4633 47.5746 98.2771 48.3061 98.2771C49.4898 98.2771 49.6627 99.0485 49.6627 100.166C49.2637 99.8731 48.6386 99.78 48.1731 99.78C46.883 99.78 45.9121 100.458 45.9121 101.682C45.9121 102.839 46.6569 103.531 47.7475 103.531C48.7317 103.531 49.3036 103.118 49.6627 102.666V103.437H50.6735V99.7667C50.6735 98.2106 50.075 97.3195 48.3726 97.3195C47.6278 97.3195 46.9096 97.5323 46.3776 97.8648L46.6569 98.716ZM48.1199 102.573C47.4283 102.573 47.0425 102.201 47.0425 101.629C47.0425 100.937 47.681 100.644 48.3194 100.644C48.8381 100.644 49.2902 100.777 49.6627 101.043V101.802C49.3568 102.161 48.9046 102.573 48.1199 102.573ZM57.0569 101.802C56.6579 102.254 56.0594 102.573 55.3412 102.573C54.1575 102.573 53.1866 101.762 53.1866 100.445C53.1866 99.1815 54.1576 98.317 55.2348 98.317C55.86 98.317 56.4452 98.4766 56.9506 98.9421L57.4426 98.1042C56.884 97.5456 56.0462 97.3195 55.0886 97.3195C53.333 97.3195 52.0561 98.7027 52.0561 100.445C52.0561 102.334 53.3595 103.57 55.2614 103.57C56.1791 103.57 57.057 103.225 57.5624 102.573L57.0569 101.802ZM58.1133 98.5165H60.3078V103.437H61.3718V98.5165H63.5663V97.4525H58.1133V98.5165ZM65.0483 98.716C65.5271 98.4633 65.966 98.2771 66.6975 98.2771C67.8812 98.2771 68.0541 99.0485 68.0541 100.166C67.6551 99.8731 67.03 99.78 66.5645 99.78C65.2744 99.78 64.3035 100.458 64.3035 101.682C64.3035 102.839 65.0483 103.531 66.1389 103.531C67.1231 103.531 67.695 103.118 68.0541 102.666V103.437H69.0649V99.7667C69.0649 98.2106 68.4664 97.3195 66.764 97.3195C66.0192 97.3195 65.301 97.5323 64.769 97.8648L65.0483 98.716ZM66.5113 102.573C65.8197 102.573 65.434 102.201 65.434 101.629C65.434 100.937 66.0724 100.644 66.7108 100.644C67.2295 100.644 67.6817 100.777 68.0541 101.043V101.802C67.7482 102.161 67.296 102.573 66.5113 102.573ZM75.4484 101.802C75.0494 102.254 74.4509 102.573 73.7327 102.573C72.549 102.573 71.5781 101.762 71.5781 100.445C71.5781 99.1815 72.549 98.317 73.6263 98.317C74.2514 98.317 74.8366 98.4766 75.342 98.9421L75.8341 98.1042C75.2755 97.5456 74.4376 97.3195 73.48 97.3195C71.7244 97.3195 70.4476 98.7027 70.4476 100.445C70.4476 102.334 71.751 103.57 73.6529 103.57C74.5706 103.57 75.4484 103.225 75.9538 102.573L75.4484 101.802ZM78.4047 103.437L81.8627 98.982V103.437H82.9267V97.4525H81.8627L78.4047 101.908V97.4525H77.3407V103.437H78.4047ZM87.481 97.4525C85.486 97.4525 84.8077 98.4234 84.8077 99.4475C84.8077 100.432 85.486 101.03 86.0978 101.176L84.3688 103.437H85.6589L87.1219 101.442H88.279V103.437H89.343V97.4525H87.481ZM85.9382 99.4741C85.9382 98.9155 86.3106 98.45 87.3081 98.45H88.279V100.445H87.0554C86.5234 100.445 85.9382 100.086 85.9382 99.4741ZM94.7034 103.437H95.8343V95.9496L99.1726 100.538H99.3455L102.644 95.9097V103.437H103.774V94.1275H102.697L99.3455 98.9022L95.8476 94.1275H94.7034V103.437ZM106.442 98.716C106.921 98.4633 107.36 98.2771 108.091 98.2771C109.275 98.2771 109.448 99.0485 109.448 100.166C109.049 99.8731 108.424 99.78 107.958 99.78C106.668 99.78 105.697 100.458 105.697 101.682C105.697 102.839 106.442 103.531 107.532 103.531C108.517 103.531 109.089 103.118 109.448 102.666V103.437H110.458V99.7667C110.458 98.2106 109.86 97.3195 108.158 97.3195C107.413 97.3195 106.695 97.5323 106.163 97.8648L106.442 98.716ZM107.905 102.573C107.213 102.573 106.828 102.201 106.828 101.629C106.828 100.937 107.466 100.644 108.104 100.644C108.623 100.644 109.075 100.777 109.448 101.043V101.802C109.142 102.161 108.69 102.573 107.905 102.573ZM111.483 98.5165H113.677V103.437H114.741V98.5165H116.936V97.4525H111.483V98.5165ZM118.098 103.437C118.643 103.437 119.547 103.491 120.292 103.491C122.154 103.491 123.045 102.879 123.045 101.748C123.045 101.004 122.606 100.511 121.649 100.339V100.312C122.367 100.206 122.846 99.647 122.846 98.9421C122.846 97.8648 121.941 97.3993 120.266 97.3993C119.401 97.3993 118.616 97.4525 118.098 97.4525V103.437ZM120.438 100.751C121.396 100.751 121.915 101.043 121.915 101.669C121.915 102.294 121.369 102.626 120.385 102.626C119.906 102.626 119.481 102.6 119.162 102.586V100.751H120.438ZM120.345 98.2638C121.117 98.2638 121.715 98.5032 121.715 99.1549C121.715 99.7401 121.21 100.086 120.505 100.086H119.162V98.3037C119.428 98.2904 119.867 98.2638 120.345 98.2638ZM129.392 101.948C129.006 102.307 128.328 102.573 127.556 102.573C126.386 102.573 125.561 101.908 125.468 100.777H130.07C130.11 100.591 130.137 100.352 130.137 100.059C130.137 98.4101 128.9 97.3195 127.357 97.3195C125.389 97.3195 124.271 98.7027 124.271 100.445C124.271 102.334 125.535 103.57 127.477 103.57C128.275 103.57 129.139 103.318 129.724 102.786L129.392 101.948ZM127.304 98.317C128.341 98.317 128.98 98.9288 129.033 99.913H125.402C125.522 98.9953 126.213 98.317 127.304 98.317ZM136.223 101.948C135.837 102.307 135.159 102.573 134.388 102.573C133.217 102.573 132.393 101.908 132.3 100.777H136.901C136.941 100.591 136.968 100.352 136.968 100.059C136.968 98.4101 135.731 97.3195 134.188 97.3195C132.22 97.3195 131.103 98.7027 131.103 100.445C131.103 102.334 132.366 103.57 134.308 103.57C135.106 103.57 135.97 103.318 136.556 102.786L136.223 101.948ZM134.135 98.317C135.172 98.317 135.811 98.9288 135.864 99.913H132.233C132.353 98.9953 133.044 98.317 134.135 98.317ZM138.412 103.437C138.957 103.437 139.861 103.491 140.606 103.491C142.468 103.491 143.359 102.879 143.359 101.748C143.359 101.004 142.92 100.511 141.963 100.339V100.312C142.681 100.206 143.16 99.647 143.16 98.9421C143.16 97.8648 142.255 97.3993 140.58 97.3993C139.715 97.3993 138.93 97.4525 138.412 97.4525V103.437ZM140.753 100.751C141.71 100.751 142.229 101.043 142.229 101.669C142.229 102.294 141.684 102.626 140.699 102.626C140.221 102.626 139.795 102.6 139.476 102.586V100.751H140.753ZM140.659 98.2638C141.431 98.2638 142.029 98.5032 142.029 99.1549C142.029 99.7401 141.524 100.086 140.819 100.086H139.476V98.3037C139.742 98.2904 140.181 98.2638 140.659 98.2638ZM149.373 103.437H150.437V97.4525H149.373V99.913H146.048V97.4525H144.984V103.437H146.048V100.91H149.373V103.437ZM152.68 98.716C153.159 98.4633 153.598 98.2771 154.329 98.2771C155.513 98.2771 155.686 99.0485 155.686 100.166C155.287 99.8731 154.662 99.78 154.196 99.78C152.906 99.78 151.935 100.458 151.935 101.682C151.935 102.839 152.68 103.531 153.771 103.531C154.755 103.531 155.327 103.118 155.686 102.666V103.437H156.697V99.7667C156.697 98.2106 156.098 97.3195 154.396 97.3195C153.651 97.3195 152.933 97.5323 152.401 97.8648L152.68 98.716ZM154.143 102.573C153.452 102.573 153.066 102.201 153.066 101.629C153.066 100.937 153.704 100.644 154.343 100.644C154.861 100.644 155.314 100.777 155.686 101.043V101.802C155.38 102.161 154.928 102.573 154.143 102.573Z" fill="#304960"/>
<path d="M278 12H12V61.875H278V12Z" fill="#17C5CC"/>
<path d="M253.063 45.25C257.653 45.25 261.375 41.5283 261.375 36.9375C261.375 32.3467 257.653 28.625 253.063 28.625C248.472 28.625 244.75 32.3467 244.75 36.9375C244.75 41.5283 248.472 45.25 253.063 45.25Z" stroke="#E8F8FF" stroke-linecap="round" stroke-linejoin="round"/>
<path d="M250.644 34.4438C250.839 33.8882 251.225 33.4197 251.732 33.1214C252.24 32.823 252.837 32.7139 253.417 32.8134C253.998 32.913 254.525 33.2148 254.904 33.6653C255.283 34.1159 255.491 34.6861 255.49 35.275C255.49 36.9375 252.996 37.7688 252.996 37.7688" stroke="#E8F8FF" stroke-linecap="round" stroke-linejoin="round"/>
<path d="M253.062 41.0938H253.071" stroke="#E8F8FF" stroke-linecap="round" stroke-linejoin="round"/>
<path d="M64.7036 42.7563H66.2331V41.0938H72.7368V42.7563H74.2663V39.5643H73.0028V31.7838H67.2306L67.1375 33.6458C66.9779 37.1171 66.0868 39.0855 65.7011 39.5643H64.7036V42.7563ZM68.667 34.9359L68.8133 33.3133H71.3802V39.5643H67.4966C67.8291 39.152 68.4941 37.3432 68.667 34.9359ZM75.0136 36.4388C75.0136 39.3382 77.0884 41.2401 79.8548 41.2401C82.6212 41.2401 84.7093 39.2318 84.7093 36.4388C84.7093 33.5394 82.6212 31.6375 79.8548 31.6375C76.9953 31.6375 75.0136 33.7389 75.0136 36.4388ZM76.7426 36.4388C76.7426 34.5103 78.0726 33.167 79.8548 33.167C81.6104 33.167 82.9803 34.5103 82.9803 36.4388C82.9803 38.2742 81.8099 39.7106 79.8548 39.7106C78.1125 39.7106 76.7426 38.3008 76.7426 36.4388ZM86.6024 41.0938C87.1477 41.0938 87.9457 41.147 89.023 41.147C91.3106 41.147 92.614 40.0431 92.614 38.1146C92.614 36.3989 91.4303 35.3083 89.4885 35.3083C89.156 35.3083 88.5974 35.3349 88.2383 35.3881V33.3133H92.0421V31.7838H86.6024V41.0938ZM89.3555 36.8378C90.4993 36.8378 90.9914 37.4363 90.9914 38.2343C90.9914 39.0589 90.486 39.6175 89.2757 39.6175C88.9299 39.6175 88.6107 39.5909 88.2383 39.5643V36.9176C88.6506 36.8644 89.0496 36.8378 89.3555 36.8378ZM93.575 41.0938H95.2239L96.1948 38.7131H100.171L101.142 41.0938H102.885L98.9479 31.7572H97.5115L93.575 41.0938ZM98.1898 33.8719L99.5464 37.1836H96.8199L98.1898 33.8719ZM104.28 41.0805C104.825 41.1204 106.022 41.147 106.873 41.147C108.841 41.147 110.331 40.2692 110.331 38.354C110.331 37.1171 109.613 36.4122 108.695 36.1861V36.1595C109.493 35.7871 110.025 35.1088 110.025 34.0448C110.025 32.7547 109.187 31.7439 106.966 31.7439C106.035 31.7439 104.798 31.7838 104.28 31.8104V41.0805ZM107.073 37.0905C108.097 37.0905 108.695 37.4895 108.695 38.2742C108.695 39.152 108.097 39.6175 106.993 39.6175C106.527 39.6175 106.142 39.5776 105.915 39.551V37.0905H107.073ZM106.94 33.2734C107.817 33.2734 108.403 33.6724 108.403 34.4305C108.403 35.2817 107.777 35.6674 107.019 35.6674H105.915V33.3133C106.208 33.2867 106.567 33.2734 106.94 33.2734ZM117.981 41.0938H119.604V31.7838H113.738L113.605 33.6458C113.193 39.2584 112.249 39.5643 111.531 39.4712L111.491 41.0938C113.326 41.3598 114.536 40.482 115.082 35.0689L115.268 33.3133H117.981V41.0938ZM122.177 41.0938H127.697V39.5643H123.813V37.157H127.165V35.6275H123.813V33.3133H127.564V31.7838H122.177V41.0938ZM135.719 41.0938H137.342V31.7838H135.719V35.5876H131.463V31.7838H129.827V41.0938H131.463V37.1171H135.719V41.0938ZM141.356 41.0938L146.237 34.4837V41.0938H147.873V31.7838H146.436L141.555 38.4072V31.7838H139.919V41.0938H141.356ZM150.453 41.0938H155.972V39.5643H152.089V37.157H155.44V35.6275H152.089V33.3133H155.839V31.7838H150.453V41.0938ZM163.289 41.2401C164.978 41.2401 166.548 40.2027 166.548 38.487C166.548 37.423 166.056 36.5585 164.938 36.2792V36.2393C165.803 35.7339 166.189 34.9093 166.189 34.1911C166.189 32.5419 165.031 31.6375 163.396 31.6375C162.119 31.6375 160.988 32.236 160.376 33.0872L161.321 34.1778C161.839 33.4862 162.438 33.167 163.209 33.167C163.981 33.167 164.566 33.5527 164.566 34.3507C164.566 35.1221 163.914 35.5743 163.223 35.5743H162.318V37.1038H163.276C164.366 37.1038 164.925 37.5959 164.925 38.3274C164.925 39.285 164.1 39.7106 163.209 39.7106C162.451 39.7106 161.56 39.2185 160.988 38.5668L160.097 39.6707C160.589 40.4155 161.64 41.2401 163.289 41.2401ZM167.504 41.0938H169.154L170.124 38.7131H174.101L175.072 41.0938H176.814L172.878 31.7572H171.441L167.504 41.0938ZM172.119 33.8719L173.476 37.1836H170.75L172.119 33.8719ZM177.026 42.7563H178.556V41.0938H185.06V42.7563H186.589V39.5643H185.326V31.7838H179.553L179.46 33.6458C179.301 37.1171 178.41 39.0855 178.024 39.5643H177.026V42.7563ZM180.99 34.9359L181.136 33.3133H183.703V39.5643H179.819C180.152 39.152 180.817 37.3432 180.99 34.9359ZM187.013 41.0938H188.662L189.633 38.7131H193.61L194.581 41.0938H196.323L192.386 31.7572H190.95L187.013 41.0938ZM191.628 33.8719L192.985 37.1836H190.258L191.628 33.8719ZM203.609 41.0938H205.232V31.7838H203.609V35.5876H199.353V31.7838H197.717V41.0938H199.353V37.1171H203.609V41.0938ZM209.246 41.0938L214.127 34.4837V41.0938H215.763V31.7838H214.326L209.445 38.4072V31.7838H207.809V41.0938H209.246ZM222.546 41.0938H224.168V31.7838C223.623 31.7838 222.453 31.7439 221.854 31.7439C219.141 31.7439 218.024 33.2468 218.024 34.9625C218.024 36.2526 218.795 37.1038 219.66 37.5427L217.279 41.0938H219.114L221.202 37.8752H222.546V41.0938ZM221.056 36.3457C220.391 36.2127 219.753 35.694 219.753 34.8561C219.753 33.9251 220.444 33.2734 221.522 33.2734C221.801 33.2734 222.32 33.3 222.546 33.3133V36.3457H221.056Z" fill="#E8F8FF"/>
<path d="M39.4313 41.925L34.4438 36.9375L39.4313 31.95" stroke="#E8F8FF" stroke-linecap="round" stroke-linejoin="round"/>
</g>
<path fill-rule="evenodd" clip-rule="evenodd" d="M277 41C277 25.3632 264.594 13 249 13H224C220.882 13 221 13 218 13H213C208 13 211.608 13 203 13H86C77.3917 13 77 13 74 13H72C69.5 13 69 13 66 13C63 13 41 13 41 13C25.4063 13 13 25.401 13 41.0377V559C13 574.637 25.4063 587 41 587H249C264.594 587 277 574.599 277 558.962V41ZM40.9246 0H249.075C271.655 0 290 18.3962 290 41.0377V558.962C290 581.604 271.655 600 249.075 600H40.9246C18.3455 600 0 581.604 0 558.962V41.0377C0 18.3962 18.3455 0 40.9246 0Z" fill="#304960"/>
<defs>
<clipPath id="clip0">
<rect width="266" height="554.444" fill="white" transform="translate(12 12)"/>
</clipPath>
</defs>
</svg>
