<svg width="290" height="470" viewBox="0 0 290 470" fill="none" xmlns="http://www.w3.org/2000/svg">
<g clip-path="url(#clip0)">
<path d="M278 12H12V566.444H278V12Z" fill="#E8F8FF"/>
<path d="M278 12H12V566.444H278V12Z" fill="#D4F1F4"/>
<path d="M267.194 407.675H151.65C150.732 407.675 149.987 408.419 149.987 409.337V445.912C149.987 446.831 150.732 447.575 151.65 447.575H267.194C268.112 447.575 268.856 446.831 268.856 445.912V409.337C268.856 408.419 268.112 407.675 267.194 407.675Z" fill="#D4F1F4" stroke="#2884C9"/>
<path d="M172.967 433.444H174.497V431.781H181V433.444H182.53V430.252H181.266V422.471H175.494L175.401 424.333C175.242 427.805 174.35 429.773 173.965 430.252H172.967V433.444ZM176.931 425.623L177.077 424.001H179.644V430.252H175.76C176.093 429.839 176.758 428.031 176.931 425.623ZM183.277 427.126C183.277 430.026 185.352 431.928 188.118 431.928C190.885 431.928 192.973 429.919 192.973 427.126C192.973 424.227 190.885 422.325 188.118 422.325C185.259 422.325 183.277 424.426 183.277 427.126ZM185.006 427.126C185.006 425.198 186.336 423.854 188.118 423.854C189.874 423.854 191.244 425.198 191.244 427.126C191.244 428.962 190.074 430.398 188.118 430.398C186.376 430.398 185.006 428.988 185.006 427.126ZM194.867 431.781C195.412 431.781 196.21 431.834 197.287 431.834C199.575 431.834 200.878 430.731 200.878 428.802C200.878 427.086 199.694 425.996 197.753 425.996C197.42 425.996 196.862 426.022 196.502 426.076V424.001H200.306V422.471H194.867V431.781ZM197.62 427.525C198.763 427.525 199.256 428.124 199.256 428.922C199.256 429.746 198.75 430.305 197.54 430.305C197.194 430.305 196.875 430.278 196.502 430.252V427.605C196.915 427.552 197.314 427.525 197.62 427.525ZM201.839 431.781H203.488L204.459 429.401H208.436L209.407 431.781H211.149L207.212 422.445H205.776L201.839 431.781ZM206.454 424.559L207.811 427.871H205.084L206.454 424.559ZM212.543 431.768C213.088 431.808 214.285 431.834 215.137 431.834C217.105 431.834 218.595 430.957 218.595 429.041C218.595 427.805 217.876 427.1 216.959 426.874V426.847C217.757 426.475 218.289 425.796 218.289 424.732C218.289 423.442 217.451 422.431 215.23 422.431C214.299 422.431 213.062 422.471 212.543 422.498V431.768ZM215.336 427.778C216.36 427.778 216.959 428.177 216.959 428.962C216.959 429.839 216.36 430.305 215.256 430.305C214.791 430.305 214.405 430.265 214.179 430.238V427.778H215.336ZM215.203 423.961C216.081 423.961 216.666 424.36 216.666 425.118C216.666 425.969 216.041 426.355 215.283 426.355H214.179V424.001C214.472 423.974 214.831 423.961 215.203 423.961ZM222.188 431.781L227.069 425.171V431.781H228.705V422.471H227.269L222.388 429.095V422.471H220.752V431.781H222.188ZM230.128 424.001H233.147V431.781H234.783V424.001H237.802V422.471H230.128V424.001ZM241.788 427.126C242.932 427.126 243.703 427.592 243.703 428.642C243.703 429.786 242.959 430.278 241.762 430.278C241.442 430.278 241.15 430.252 240.857 430.238V427.193C241.23 427.153 241.549 427.126 241.788 427.126ZM240.857 422.471H239.221V431.781C239.767 431.781 240.684 431.808 241.575 431.808C244.049 431.808 245.432 430.571 245.432 428.603C245.432 426.78 244.328 425.597 241.921 425.597C241.668 425.597 241.269 425.61 240.857 425.663V422.471Z" fill="#2884C9"/>
<path d="M138.35 406.844H22.8063C21.429 406.844 20.3125 407.96 20.3125 409.337V445.912C20.3125 447.29 21.429 448.406 22.8063 448.406H138.35C139.727 448.406 140.844 447.29 140.844 445.912V409.337C140.844 407.96 139.727 406.844 138.35 406.844Z" fill="#45B1F4"/>
<path d="M43.8223 427.126C43.8223 430.026 45.8971 431.928 48.6635 431.928C51.4299 431.928 53.518 429.919 53.518 427.126C53.518 424.227 51.4299 422.325 48.6635 422.325C45.804 422.325 43.8223 424.426 43.8223 427.126ZM45.5513 427.126C45.5513 425.198 46.8813 423.854 48.6635 423.854C50.4191 423.854 51.789 425.198 51.789 427.126C51.789 428.962 50.6186 430.398 48.6635 430.398C46.9212 430.398 45.5513 428.988 45.5513 427.126ZM53.8254 424.001H56.8445V431.781H58.4804V424.001H61.4995V422.471H53.8254V424.001ZM62.9182 431.781H64.5541V425.091L67.52 429.188H67.7594L70.6987 425.051V431.781H72.3213V422.471H70.7785L67.7461 426.82L64.5674 422.471H62.9182V431.781ZM74.9064 431.781H80.4259V430.252H76.5423V427.844H79.8939V426.315H76.5423V424.001H80.2929V422.471H74.9064V431.781ZM88.4484 431.781H90.071V422.471H88.4484V426.275H84.1924V422.471H82.5565V431.781H84.1924V427.805H88.4484V431.781ZM94.0849 431.781L98.9661 425.171V431.781H100.602V422.471H99.1656L94.2844 429.095V422.471H92.6485V431.781H94.0849ZM102.025 424.001H105.044V431.781H106.68V424.001H109.699V422.471H102.025V424.001ZM113.685 427.126C114.829 427.126 115.6 427.592 115.6 428.642C115.6 429.786 114.855 430.278 113.658 430.278C113.338 430.278 113.047 430.252 112.754 430.238V427.193C113.126 427.153 113.446 427.126 113.685 427.126ZM112.754 422.471H111.118V431.781C111.663 431.781 112.581 431.808 113.472 431.808C115.946 431.808 117.329 430.571 117.329 428.603C117.329 426.78 116.225 425.597 113.818 425.597C113.565 425.597 113.166 425.61 112.754 425.663V422.471Z" fill="#E8F8FF"/>
<path d="M267.194 349.072H22.8062C21.6584 349.072 20.728 350.002 20.728 351.15V387.725C20.728 388.873 21.6584 389.803 22.8062 389.803H267.194C268.341 389.803 269.272 388.873 269.272 387.725V351.15C269.272 350.002 268.341 349.072 267.194 349.072Z" fill="#E8F8FF" stroke="#17C5CC"/>
<path d="M243.919 366.944L248.906 371.931L253.894 366.944" stroke="#2884C9" stroke-linecap="round" stroke-linejoin="round"/>
<path d="M36.2725 373.594H37.403V364.284H36.2725V368.314H31.152V364.284H30.0215V373.594H31.152V369.378H36.2725V373.594ZM44.4739 372.104C44.0882 372.463 43.4099 372.729 42.6385 372.729C41.4681 372.729 40.6435 372.064 40.5504 370.934H45.1522C45.1921 370.748 45.2187 370.508 45.2187 370.216C45.2187 368.566 43.9818 367.476 42.439 367.476C40.4706 367.476 39.3534 368.859 39.3534 370.601C39.3534 372.49 40.6169 373.727 42.5587 373.727C43.3567 373.727 44.2212 373.474 44.8064 372.942L44.4739 372.104ZM42.3858 368.473C43.4232 368.473 44.0616 369.085 44.1148 370.069H40.4839C40.6036 369.152 41.2952 368.473 42.3858 368.473ZM46.1852 370.601C46.1852 372.397 47.462 373.727 49.3772 373.727C51.2924 373.727 52.5692 372.397 52.5692 370.601C52.5692 368.806 51.2924 367.476 49.3772 367.476C47.462 367.476 46.1852 368.806 46.1852 370.601ZM47.3157 370.601C47.3157 369.338 48.2068 368.473 49.3772 368.473C50.5742 368.473 51.4387 369.351 51.4387 370.601C51.4387 371.878 50.5742 372.729 49.3772 372.729C48.1802 372.729 47.3157 371.851 47.3157 370.601ZM58.7329 364.151C58.1211 364.949 57.2965 364.576 55.9 365.175C53.9981 365.973 53.6789 368.234 53.6789 370.003C53.6789 372.304 54.9025 373.727 56.8443 373.727C58.6664 373.727 59.9166 372.33 59.9166 370.654C59.9166 368.859 58.8526 367.675 57.1369 367.675C56.1261 367.675 55.1552 368.234 54.7695 369.072H54.7429C54.8227 367.955 55.1419 366.691 56.2591 366.186C57.5758 365.587 58.5733 365.973 59.3048 364.989L58.7329 364.151ZM54.8094 370.202C54.9956 369.431 55.7404 368.673 56.8709 368.673C58.1078 368.673 58.7861 369.537 58.7861 370.708C58.7861 371.825 57.9881 372.729 56.8177 372.729C55.634 372.729 54.8094 371.745 54.8094 370.202ZM66.4381 367.609H65.2012L63.552 369.87L61.9294 367.609H60.626L62.754 370.548L60.493 373.594H61.7299L63.5121 371.173L65.2677 373.594H66.5711L64.2968 370.495L66.4381 367.609ZM67.1354 370.601C67.1354 372.397 68.4122 373.727 70.3274 373.727C72.2426 373.727 73.5194 372.397 73.5194 370.601C73.5194 368.806 72.2426 367.476 70.3274 367.476C68.4122 367.476 67.1354 368.806 67.1354 370.601ZM68.2659 370.601C68.2659 369.338 69.157 368.473 70.3274 368.473C71.5244 368.473 72.3889 369.351 72.3889 370.601C72.3889 371.878 71.5244 372.729 70.3274 372.729C69.1304 372.729 68.2659 371.851 68.2659 370.601ZM73.9962 375.057H74.9937V373.594H79.8349V375.057H80.8324V372.596H79.8349V367.609H75.7518L75.6587 369.191C75.5523 370.827 75.14 372.091 74.741 372.596H73.9962V375.057ZM76.6828 369.604L76.7493 368.606H78.7709V372.596H75.8715C76.1508 372.224 76.5498 371.133 76.6828 369.604ZM83.0543 373.594L86.5123 369.138V373.594H87.5763V367.609H86.5123L83.0543 372.064V367.609H81.9903V373.594H83.0543ZM89.5105 373.594H90.5746V369.231L92.7291 372.011H92.7691L94.8438 369.231V373.594H95.908V367.609H94.9636L92.7824 370.575L90.4815 367.609H89.5105V373.594ZM97.4367 370.601C97.4367 372.397 98.7135 373.727 100.629 373.727C102.544 373.727 103.821 372.397 103.821 370.601C103.821 368.806 102.544 367.476 100.629 367.476C98.7135 367.476 97.4367 368.806 97.4367 370.601ZM98.5672 370.601C98.5672 369.338 99.4583 368.473 100.629 368.473C101.826 368.473 102.69 369.351 102.69 370.601C102.69 371.878 101.826 372.729 100.629 372.729C99.4317 372.729 98.5672 371.851 98.5672 370.601ZM109.958 371.958C109.559 372.41 108.96 372.729 108.242 372.729C107.058 372.729 106.088 371.918 106.088 370.601C106.088 369.338 107.058 368.473 108.136 368.473C108.761 368.473 109.346 368.633 109.851 369.098L110.344 368.26C109.785 367.702 108.947 367.476 107.989 367.476C106.234 367.476 104.957 368.859 104.957 370.601C104.957 372.49 106.26 373.727 108.162 373.727C109.08 373.727 109.958 373.381 110.463 372.729L109.958 371.958ZM111.014 368.673H113.209V373.594H114.273V368.673H116.467V367.609H111.014V368.673ZM117.63 373.594H119.652C121.54 373.594 122.152 372.516 122.152 371.466C122.152 370.402 121.62 369.404 119.785 369.404H118.694V367.609H117.63V373.594ZM119.585 370.402C120.609 370.402 121.022 370.787 121.022 371.506C121.022 372.211 120.623 372.596 119.572 372.596H118.694V370.402H119.585ZM129.559 376.254H130.623V373.727H130.796C132.897 373.727 134.014 372.383 134.014 370.601C134.014 368.846 132.791 367.476 130.796 367.476H130.623V364.284H129.559V367.476H129.399C127.338 367.476 126.167 368.979 126.167 370.601C126.167 372.383 127.351 373.727 129.412 373.727H129.559V376.254ZM127.298 370.601C127.298 369.444 128.016 368.473 129.386 368.473H129.559V372.729H129.452C128.069 372.729 127.298 371.838 127.298 370.601ZM130.796 368.473C132.152 368.473 132.884 369.497 132.884 370.601C132.884 371.851 132.139 372.729 130.742 372.729H130.623V368.473H130.796ZM135.142 370.601C135.142 372.397 136.419 373.727 138.334 373.727C140.249 373.727 141.526 372.397 141.526 370.601C141.526 368.806 140.249 367.476 138.334 367.476C136.419 367.476 135.142 368.806 135.142 370.601ZM136.273 370.601C136.273 369.338 137.164 368.473 138.334 368.473C139.531 368.473 140.396 369.351 140.396 370.601C140.396 371.878 139.531 372.729 138.334 372.729C137.137 372.729 136.273 371.851 136.273 370.601ZM142.069 368.673H144.263V373.594H145.327V368.673H147.522V367.609H142.069V368.673ZM148.091 370.601C148.091 372.397 149.368 373.727 151.283 373.727C153.199 373.727 154.475 372.397 154.475 370.601C154.475 368.806 153.199 367.476 151.283 367.476C149.368 367.476 148.091 368.806 148.091 370.601ZM149.222 370.601C149.222 369.338 150.113 368.473 151.283 368.473C152.48 368.473 153.345 369.351 153.345 370.601C153.345 371.878 152.48 372.729 151.283 372.729C150.086 372.729 149.222 371.851 149.222 370.601ZM155.612 370.601C155.612 372.397 156.889 373.727 158.804 373.727C160.719 373.727 161.996 372.397 161.996 370.601C161.996 368.806 160.719 367.476 158.804 367.476C156.889 367.476 155.612 368.806 155.612 370.601ZM156.742 370.601C156.742 369.338 157.633 368.473 158.804 368.473C160.001 368.473 160.865 369.351 160.865 370.601C160.865 371.878 160.001 372.729 158.804 372.729C157.607 372.729 156.742 371.851 156.742 370.601ZM162.539 368.673H164.733V373.594H165.797V368.673H167.992V367.609H162.539V368.673ZM173.65 367.609H172.586V370.335C172.32 370.521 171.814 370.708 171.216 370.708C170.405 370.708 169.926 370.255 169.926 369.298V367.609H168.795V369.418C168.795 370.96 169.487 371.705 170.923 371.705C171.588 371.705 172.187 371.519 172.586 371.266V373.594H173.65V367.609ZM180.292 372.104C179.907 372.463 179.228 372.729 178.457 372.729C177.287 372.729 176.462 372.064 176.369 370.934H180.971C181.011 370.748 181.037 370.508 181.037 370.216C181.037 368.566 179.8 367.476 178.257 367.476C176.289 367.476 175.172 368.859 175.172 370.601C175.172 372.49 176.435 373.727 178.377 373.727C179.175 373.727 180.04 373.474 180.625 372.942L180.292 372.104ZM178.204 368.473C179.242 368.473 179.88 369.085 179.933 370.069H176.302C176.422 369.152 177.114 368.473 178.204 368.473ZM176.223 365.481C176.223 365.906 176.502 366.146 176.848 366.146C177.14 366.146 177.433 365.906 177.433 365.481C177.433 365.108 177.14 364.869 176.848 364.869C176.502 364.869 176.223 365.108 176.223 365.481ZM178.922 365.481C178.922 365.906 179.215 366.146 179.561 366.146C179.853 366.146 180.146 365.906 180.146 365.481C180.146 365.108 179.853 364.869 179.561 364.869C179.215 364.869 178.922 365.108 178.922 365.481ZM181.606 368.673H183.8V373.594H184.864V368.673H187.059V367.609H181.606V368.673ZM188.541 368.872C189.02 368.62 189.459 368.433 190.19 368.433C191.374 368.433 191.547 369.205 191.547 370.322C191.148 370.029 190.523 369.936 190.057 369.936C188.767 369.936 187.796 370.615 187.796 371.838C187.796 372.995 188.541 373.687 189.631 373.687C190.616 373.687 191.188 373.275 191.547 372.822V373.594H192.557V369.923C192.557 368.367 191.959 367.476 190.257 367.476C189.512 367.476 188.794 367.689 188.262 368.021L188.541 368.872ZM190.004 372.729C189.312 372.729 188.927 372.357 188.927 371.785C188.927 371.093 189.565 370.801 190.203 370.801C190.722 370.801 191.174 370.934 191.547 371.2V371.958C191.241 372.317 190.789 372.729 190.004 372.729Z" fill="#304960"/>
<path d="M267.194 303.353H22.8062C21.6584 303.353 20.728 304.284 20.728 305.431V342.006C20.728 343.154 21.6584 344.084 22.8062 344.084H267.194C268.341 344.084 269.272 343.154 269.272 342.006V305.431C269.272 304.284 268.341 303.353 267.194 303.353Z" fill="#E8F8FF" stroke="#17C5CC"/>
<path d="M243.919 321.225L248.906 326.212L253.894 321.225" stroke="#2884C9" stroke-linecap="round" stroke-linejoin="round"/>
<path d="M28.8247 327.875H29.9685L31.1522 325.055H35.3949L36.5919 327.875H37.8022L33.7989 318.512H32.828L28.8247 327.875ZM33.2802 320.015L34.956 323.991H31.6044L33.2802 320.015ZM38.9604 327.875C39.5057 327.875 40.4101 327.928 41.1549 327.928C43.0169 327.928 43.908 327.316 43.908 326.186C43.908 325.441 43.4691 324.949 42.5115 324.776V324.749C43.2297 324.643 43.7085 324.084 43.7085 323.38C43.7085 322.302 42.8041 321.837 41.1283 321.837C40.2638 321.837 39.4791 321.89 38.9604 321.89V327.875ZM41.3012 325.188C42.2588 325.188 42.7775 325.481 42.7775 326.106C42.7775 326.731 42.2322 327.064 41.248 327.064C40.7692 327.064 40.3436 327.037 40.0244 327.024V325.188H41.3012ZM41.2081 322.701C41.9795 322.701 42.578 322.941 42.578 323.592C42.578 324.178 42.0726 324.523 41.3677 324.523H40.0244V322.741C40.2904 322.728 40.7293 322.701 41.2081 322.701ZM44.7743 322.954H46.9688V327.875H48.0328V322.954H50.2273V321.89H44.7743V322.954ZM50.7963 324.882C50.7963 326.678 52.0731 328.008 53.9883 328.008C55.9035 328.008 57.1803 326.678 57.1803 324.882C57.1803 323.087 55.9035 321.757 53.9883 321.757C52.0731 321.757 50.7963 323.087 50.7963 324.882ZM51.9268 324.882C51.9268 323.619 52.8179 322.754 53.9883 322.754C55.1853 322.754 56.0498 323.632 56.0498 324.882C56.0498 326.159 55.1853 327.01 53.9883 327.01C52.7913 327.01 51.9268 326.133 51.9268 324.882ZM63.038 327.875H64.102V321.89H58.7155V327.875H59.7795V322.887H63.038V327.875ZM65.629 324.882C65.629 326.678 66.9058 328.008 68.821 328.008C70.7362 328.008 72.013 326.678 72.013 324.882C72.013 323.087 70.7362 321.757 68.821 321.757C66.9058 321.757 65.629 323.087 65.629 324.882ZM66.7595 324.882C66.7595 323.619 67.6506 322.754 68.821 322.754C70.018 322.754 70.8825 323.632 70.8825 324.882C70.8825 326.159 70.018 327.01 68.821 327.01C67.624 327.01 66.7595 326.133 66.7595 324.882ZM73.5481 327.875C74.0934 327.875 74.9978 327.928 75.7426 327.928C77.6046 327.928 78.4957 327.316 78.4957 326.186C78.4957 325.441 78.0568 324.949 77.0992 324.776V324.749C77.8174 324.643 78.2962 324.084 78.2962 323.38C78.2962 322.302 77.3918 321.837 75.716 321.837C74.8515 321.837 74.0668 321.89 73.5481 321.89V327.875ZM75.8889 325.188C76.8465 325.188 77.3652 325.481 77.3652 326.106C77.3652 326.731 76.8199 327.064 75.8357 327.064C75.3569 327.064 74.9313 327.037 74.6121 327.024V325.188H75.8889ZM75.7958 322.701C76.5672 322.701 77.1657 322.941 77.1657 323.592C77.1657 324.178 76.6603 324.523 75.9554 324.523H74.6121V322.741C74.8781 322.728 75.317 322.701 75.7958 322.701ZM79.3621 322.954H81.5566V327.875H82.6206V322.954H84.8151V321.89H79.3621V322.954ZM85.3841 324.882C85.3841 326.678 86.6609 328.008 88.5761 328.008C90.4913 328.008 91.7681 326.678 91.7681 324.882C91.7681 323.087 90.4913 321.757 88.5761 321.757C86.6609 321.757 85.3841 323.087 85.3841 324.882ZM86.5146 324.882C86.5146 323.619 87.4057 322.754 88.5761 322.754C89.7731 322.754 90.6376 323.632 90.6376 324.882C90.6376 326.159 89.7731 327.01 88.5761 327.01C87.3791 327.01 86.5146 326.133 86.5146 324.882ZM93.3034 330.535H94.3674V327.596C94.793 327.875 95.4178 328.008 96.0562 328.008C97.9315 328.008 99.1684 326.611 99.1684 324.789C99.1684 323.02 98.1044 321.757 96.402 321.757C95.5774 321.757 94.7797 322.116 94.3674 322.595V321.89H93.3034V330.535ZM96.0961 322.754C97.333 322.754 98.0379 323.619 98.0379 324.829C98.0379 326.093 97.2399 327.01 95.9631 327.01C95.3912 327.01 94.8994 326.904 94.3674 326.545V323.579C94.7398 323.114 95.3912 322.754 96.0961 322.754ZM105.415 326.385C105.03 326.744 104.351 327.01 103.58 327.01C102.409 327.01 101.585 326.345 101.492 325.215H106.094C106.133 325.029 106.16 324.789 106.16 324.497C106.16 322.848 104.923 321.757 103.38 321.757C101.412 321.757 100.295 323.14 100.295 324.882C100.295 326.771 101.558 328.008 103.5 328.008C104.298 328.008 105.163 327.755 105.748 327.223L105.415 326.385ZM103.327 322.754C104.365 322.754 105.003 323.366 105.056 324.35H101.425C101.545 323.433 102.237 322.754 103.327 322.754ZM111.992 327.875H113.056V321.89H111.992V324.35H108.667V321.89H107.603V327.875H108.667V325.348H111.992V327.875ZM116.044 327.875L119.502 323.42V327.875H120.566V321.89H119.502L116.044 326.345V321.89H114.98V327.875H116.044ZM127.222 326.385C126.837 326.744 126.158 327.01 125.387 327.01C124.216 327.01 123.392 326.345 123.299 325.215H127.901C127.94 325.029 127.967 324.789 127.967 324.497C127.967 322.848 126.73 321.757 125.187 321.757C123.219 321.757 122.102 323.14 122.102 324.882C122.102 326.771 123.365 328.008 125.307 328.008C126.105 328.008 126.97 327.755 127.555 327.223L127.222 326.385ZM125.134 322.754C126.172 322.754 126.81 323.366 126.863 324.35H123.232C123.352 323.433 124.044 322.754 125.134 322.754ZM134.38 328.008C135.856 328.008 136.92 327.33 136.92 326.212C136.92 325.521 136.508 324.896 135.67 324.803V324.776C136.428 324.51 136.721 323.951 136.721 323.366C136.721 322.382 135.936 321.757 134.473 321.757C133.529 321.757 132.598 322.05 132.106 322.555L132.518 323.38C132.917 323.06 133.489 322.715 134.314 322.715C135.085 322.715 135.59 323.034 135.59 323.579C135.59 324.058 135.152 324.43 134.553 324.43H133.609V325.295H134.62C135.35 325.295 135.79 325.574 135.79 326.066C135.79 326.665 135.125 327.05 134.221 327.05C133.702 327.05 132.957 326.811 132.452 326.399L131.906 327.197C132.305 327.675 133.502 328.008 134.38 328.008ZM138.861 323.153C139.339 322.901 139.778 322.715 140.51 322.715C141.694 322.715 141.866 323.486 141.866 324.603C141.467 324.311 140.842 324.217 140.377 324.217C139.087 324.217 138.116 324.896 138.116 326.119C138.116 327.276 138.861 327.968 139.951 327.968C140.935 327.968 141.507 327.556 141.866 327.104V327.875H142.877V324.204C142.877 322.648 142.279 321.757 140.576 321.757C139.831 321.757 139.113 321.97 138.581 322.302L138.861 323.153ZM140.324 327.01C139.632 327.01 139.246 326.638 139.246 326.066C139.246 325.375 139.885 325.082 140.523 325.082C141.042 325.082 141.494 325.215 141.866 325.481V326.239C141.56 326.598 141.108 327.01 140.324 327.01ZM143.835 329.338H144.832V327.875H149.673V329.338H150.671V326.877H149.673V321.89H145.59L145.497 323.473C145.391 325.109 144.979 326.372 144.579 326.877H143.835V329.338ZM146.521 323.885L146.588 322.887H148.609V326.877H145.71C145.989 326.505 146.388 325.415 146.521 323.885ZM152.148 323.153C152.626 322.901 153.066 322.715 153.797 322.715C154.981 322.715 155.154 323.486 155.154 324.603C154.755 324.311 154.13 324.217 153.664 324.217C152.374 324.217 151.403 324.896 151.403 326.119C151.403 327.276 152.148 327.968 153.239 327.968C154.223 327.968 154.795 327.556 155.154 327.104V327.875H156.165V324.204C156.165 322.648 155.566 321.757 153.864 321.757C153.119 321.757 152.401 321.97 151.869 322.302L152.148 323.153ZM153.611 327.01C152.92 327.01 152.533 326.638 152.533 326.066C152.533 325.375 153.172 325.082 153.811 325.082C154.329 325.082 154.781 325.215 155.154 325.481V326.239C154.848 326.598 154.396 327.01 153.611 327.01ZM162.335 327.875H163.399V321.89H162.335V324.35H159.01V321.89H157.946V327.875H159.01V325.348H162.335V327.875ZM166.387 327.875L169.845 323.42V327.875H170.909V321.89H169.845L166.387 326.345V321.89H165.323V327.875H166.387ZM175.464 321.89C173.469 321.89 172.791 322.861 172.791 323.885C172.791 324.869 173.469 325.468 174.081 325.614L172.352 327.875H173.642L175.105 325.88H176.262V327.875H177.326V321.89H175.464ZM173.921 323.912C173.921 323.353 174.293 322.887 175.291 322.887H176.262V324.882H175.038C174.506 324.882 173.921 324.523 173.921 323.912Z" fill="#304960"/>
<path d="M267.194 257.634H22.8062C21.6584 257.634 20.728 258.565 20.728 259.712V296.287C20.728 297.435 21.6584 298.366 22.8062 298.366H267.194C268.341 298.366 269.272 297.435 269.272 296.287V259.712C269.272 258.565 268.341 257.634 267.194 257.634Z" fill="#E8F8FF" stroke="#17C5CC"/>
<path d="M243.919 275.506L248.906 280.494L253.894 275.506" stroke="#2884C9" stroke-linecap="round" stroke-linejoin="round"/>
<path d="M30.0213 275.493C30.5666 275.52 31.6971 275.546 32.5217 275.546C34.4502 275.546 35.8999 274.735 35.8999 272.846C35.8999 271.569 35.1285 270.825 33.9714 270.638V270.612C34.8625 270.319 35.5674 269.628 35.5674 268.457C35.5674 267.167 34.796 266.156 32.5749 266.156C31.7104 266.156 30.54 266.196 30.0213 266.21V275.493ZM32.6547 271.264C33.998 271.264 34.7694 271.796 34.7694 272.78C34.7694 273.924 33.9581 274.482 32.5882 274.482C32.0562 274.482 31.4577 274.456 31.1518 274.429V271.264H32.6547ZM32.5483 267.22C33.7852 267.22 34.4369 267.739 34.4369 268.71C34.4369 269.721 33.6256 270.266 32.6414 270.266H31.1518V267.26C31.4843 267.247 32.0562 267.22 32.5483 267.22ZM37.791 278.166H38.855V275.227C39.2806 275.506 39.9057 275.639 40.5441 275.639C42.4194 275.639 43.6563 274.243 43.6563 272.421C43.6563 270.652 42.5923 269.388 40.8899 269.388C40.0653 269.388 39.2673 269.747 38.855 270.226V269.521H37.791V278.166ZM40.584 270.386C41.8209 270.386 42.5258 271.25 42.5258 272.461C42.5258 273.724 41.7278 274.642 40.451 274.642C39.8791 274.642 39.387 274.535 38.855 274.176V271.21C39.2274 270.745 39.8791 270.386 40.584 270.386ZM49.9028 274.017C49.5171 274.376 48.8388 274.642 48.0674 274.642C46.897 274.642 46.0724 273.977 45.9793 272.846H50.5811C50.621 272.66 50.6476 272.421 50.6476 272.128C50.6476 270.479 49.4107 269.388 47.8679 269.388C45.8995 269.388 44.7823 270.771 44.7823 272.514C44.7823 274.402 46.0458 275.639 47.9876 275.639C48.7856 275.639 49.6501 275.387 50.2353 274.855L49.9028 274.017ZM47.8147 270.386C48.8521 270.386 49.4905 270.998 49.5437 271.982H45.9128C46.0325 271.064 46.7241 270.386 47.8147 270.386ZM52.0911 275.506H53.1551V271.144L55.3097 273.924H55.3496L57.4244 271.144V275.506H58.4884V269.521H57.5441L55.3629 272.487L53.062 269.521H52.0911V275.506ZM63.0368 269.521C61.0417 269.521 60.3635 270.492 60.3635 271.516C60.3635 272.5 61.0417 273.099 61.6535 273.245L59.9246 275.506H61.2146L62.6777 273.511H63.8348V275.506H64.8988V269.521H63.0368ZM61.494 271.543C61.494 270.984 61.8664 270.519 62.8638 270.519H63.8348V272.514H62.6111C62.0792 272.514 61.494 272.155 61.494 271.543ZM74.422 273.87C74.023 274.323 73.4245 274.642 72.7063 274.642C71.5226 274.642 70.5517 273.83 70.5517 272.514C70.5517 271.25 71.5226 270.386 72.5999 270.386C73.225 270.386 73.8102 270.545 74.3156 271.011L74.8077 270.173C74.2491 269.614 73.4112 269.388 72.4536 269.388C70.698 269.388 69.4212 270.771 69.4212 272.514C69.4212 274.402 70.7246 275.639 72.6265 275.639C73.5442 275.639 74.422 275.293 74.9274 274.642L74.422 273.87ZM81.6371 269.521H80.4268L79.0436 273.312C78.9371 273.631 78.8441 273.937 78.7643 274.229C78.6446 273.924 78.5382 273.631 78.4052 273.325L76.6496 269.521H75.3727L78.2456 275.506L78.1126 275.825C77.7136 276.783 77.3412 277.182 76.8358 277.182C76.5964 277.182 76.3703 277.076 76.1707 276.983L75.825 277.794C76.1441 278.007 76.5033 278.166 76.9554 278.166C77.8066 278.166 78.3652 277.648 79.243 275.506L81.6371 269.521ZM82.0893 270.585H84.2838V275.506H85.3478V270.585H87.5422V269.521H82.0893V270.585ZM88.1112 272.514C88.1112 274.309 89.388 275.639 91.3032 275.639C93.2184 275.639 94.4952 274.309 94.4952 272.514C94.4952 270.718 93.2184 269.388 91.3032 269.388C89.388 269.388 88.1112 270.718 88.1112 272.514ZM89.2417 272.514C89.2417 271.25 90.1328 270.386 91.3032 270.386C92.5002 270.386 93.3647 271.264 93.3647 272.514C93.3647 273.791 92.5002 274.642 91.3032 274.642C90.1062 274.642 89.2417 273.764 89.2417 272.514ZM101.271 269.521H99.8746L97.3476 272.447L100.047 275.506H101.524L98.651 272.381L101.271 269.521ZM96.0309 275.506H97.0949V269.521H96.0309V275.506ZM104.817 276.969H105.815V275.506H110.656V276.969H111.653V274.509H110.656V269.521H106.573L106.48 271.104C106.373 272.74 105.961 274.003 105.562 274.509H104.817V276.969ZM107.504 271.516L107.57 270.519H109.592V274.509H106.693C106.972 274.136 107.371 273.046 107.504 271.516ZM116.908 275.506H117.972V269.521H113.809L113.702 271.383C113.556 274.15 112.705 274.589 112.253 274.549L112.333 275.586C113.569 275.586 114.474 275.001 114.74 271.596L114.806 270.585H116.908V275.506ZM122.51 269.521C120.515 269.521 119.837 270.492 119.837 271.516C119.837 272.5 120.515 273.099 121.127 273.245L119.398 275.506H120.688L122.151 273.511H123.308V275.506H124.372V269.521H122.51ZM120.968 271.543C120.968 270.984 121.34 270.519 122.337 270.519H123.308V272.514H122.085C121.553 272.514 120.968 272.155 120.968 271.543ZM129.293 275.506C129.839 275.506 130.743 275.559 131.488 275.559C133.35 275.559 134.241 274.948 134.241 273.817C134.241 273.072 133.802 272.58 132.844 272.407V272.381C133.563 272.274 134.041 271.716 134.041 271.011C134.041 269.934 133.137 269.468 131.461 269.468C130.597 269.468 129.812 269.521 129.293 269.521V275.506ZM131.634 272.82C132.592 272.82 133.11 273.112 133.11 273.737C133.11 274.362 132.565 274.695 131.581 274.695C131.102 274.695 130.677 274.668 130.357 274.655V272.82H131.634ZM131.541 270.333C132.312 270.333 132.911 270.572 132.911 271.224C132.911 271.809 132.406 272.155 131.701 272.155H130.357V270.372C130.623 270.359 131.062 270.333 131.541 270.333ZM135.865 275.506H137.794C139.669 275.506 140.281 274.429 140.281 273.378C140.281 272.314 139.749 271.317 137.913 271.317H136.929V269.521H135.865V275.506ZM141.425 275.506H142.489V269.521H141.425V275.506ZM137.714 272.314C138.738 272.314 139.15 272.7 139.15 273.418C139.15 274.123 138.765 274.509 137.701 274.509H136.929V272.314H137.714ZM148.721 275.506H149.785V269.521H144.399V275.506H145.463V270.519H148.721V275.506ZM151.312 272.514C151.312 274.309 152.589 275.639 154.504 275.639C156.42 275.639 157.696 274.309 157.696 272.514C157.696 270.718 156.42 269.388 154.504 269.388C152.589 269.388 151.312 270.718 151.312 272.514ZM152.443 272.514C152.443 271.25 153.334 270.386 154.504 270.386C155.701 270.386 156.566 271.264 156.566 272.514C156.566 273.791 155.701 274.642 154.504 274.642C153.307 274.642 152.443 273.764 152.443 272.514ZM163.094 275.506H164.158V269.521H159.995L159.889 271.383C159.743 274.15 158.892 274.589 158.439 274.549L158.519 275.586C159.756 275.586 160.661 275.001 160.927 271.596L160.993 270.585H163.094V275.506ZM170.465 275.506H171.529V269.521H170.465V271.982H167.14V269.521H166.076V275.506H167.14V272.979H170.465V275.506ZM178.175 274.017C177.789 274.376 177.111 274.642 176.34 274.642C175.169 274.642 174.345 273.977 174.252 272.846H178.853C178.893 272.66 178.92 272.421 178.92 272.128C178.92 270.479 177.683 269.388 176.14 269.388C174.172 269.388 173.055 270.771 173.055 272.514C173.055 274.402 174.318 275.639 176.26 275.639C177.058 275.639 177.922 275.387 178.508 274.855L178.175 274.017ZM176.087 270.386C177.124 270.386 177.763 270.998 177.816 271.982H174.185C174.305 271.064 174.996 270.386 176.087 270.386ZM184.753 275.506H185.817V269.521H184.753V271.982H181.428V269.521H180.364V275.506H181.428V272.979H184.753V275.506ZM188.805 275.506L192.263 271.051V275.506H193.327V269.521H192.263L188.805 273.977V269.521H187.741V275.506H188.805ZM197.881 269.521C195.886 269.521 195.208 270.492 195.208 271.516C195.208 272.5 195.886 273.099 196.498 273.245L194.769 275.506H196.059L197.522 273.511H198.679V275.506H199.743V269.521H197.881ZM196.339 271.543C196.339 270.984 196.711 270.519 197.709 270.519H198.679V272.514H197.456C196.924 272.514 196.339 272.155 196.339 271.543ZM31.5641 288.939C33.0404 288.939 34.1044 288.261 34.1044 287.144C34.1044 286.452 33.6921 285.827 32.8542 285.734V285.707C33.6123 285.441 33.9049 284.883 33.9049 284.298C33.9049 283.313 33.1202 282.688 31.6572 282.688C30.7129 282.688 29.7819 282.981 29.2898 283.486L29.7021 284.311C30.1011 283.992 30.673 283.646 31.4976 283.646C32.269 283.646 32.7744 283.965 32.7744 284.51C32.7744 284.989 32.3355 285.362 31.737 285.362H30.7927V286.226H31.8035C32.535 286.226 32.9739 286.505 32.9739 286.997C32.9739 287.596 32.3089 287.982 31.4045 287.982C30.8858 287.982 30.141 287.742 29.6356 287.33L29.0903 288.128C29.4893 288.607 30.6863 288.939 31.5641 288.939ZM36.0451 284.085C36.5239 283.832 36.9628 283.646 37.6943 283.646C38.878 283.646 39.0509 284.417 39.0509 285.534C38.6519 285.242 38.0268 285.149 37.5613 285.149C36.2712 285.149 35.3003 285.827 35.3003 287.051C35.3003 288.208 36.0451 288.899 37.1357 288.899C38.1199 288.899 38.6918 288.487 39.0509 288.035V288.806H40.0617V285.135C40.0617 283.579 39.4632 282.688 37.7608 282.688C37.016 282.688 36.2978 282.901 35.7658 283.234L36.0451 284.085ZM37.5081 287.942C36.8165 287.942 36.4308 287.569 36.4308 286.997C36.4308 286.306 37.0692 286.013 37.7076 286.013C38.2263 286.013 38.6785 286.146 39.0509 286.412V287.17C38.745 287.529 38.2928 287.942 37.5081 287.942ZM41.0188 290.269H42.0163V288.806H46.8575V290.269H47.855V287.809H46.8575V282.821H42.7744L42.6813 284.404C42.5749 286.04 42.1626 287.303 41.7636 287.809H41.0188V290.269ZM43.7054 284.816L43.7719 283.819H45.7935V287.809H42.8941C43.1734 287.436 43.5724 286.346 43.7054 284.816ZM49.3321 284.085C49.8109 283.832 50.2498 283.646 50.9813 283.646C52.165 283.646 52.3379 284.417 52.3379 285.534C51.9389 285.242 51.3138 285.149 50.8483 285.149C49.5582 285.149 48.5873 285.827 48.5873 287.051C48.5873 288.208 49.3321 288.899 50.4227 288.899C51.4069 288.899 51.9788 288.487 52.3379 288.035V288.806H53.3487V285.135C53.3487 283.579 52.7502 282.688 51.0478 282.688C50.303 282.688 49.5848 282.901 49.0528 283.234L49.3321 284.085ZM50.7951 287.942C50.1035 287.942 49.7178 287.569 49.7178 286.997C49.7178 286.306 50.3562 286.013 50.9946 286.013C51.5133 286.013 51.9655 286.146 52.3379 286.412V287.17C52.032 287.529 51.5798 287.942 50.7951 287.942ZM59.5194 288.806H60.5834V282.821H59.5194V285.282H56.1944V282.821H55.1304V288.806H56.1944V286.279H59.5194V288.806ZM63.5717 288.806L67.0297 284.351V288.806H68.0937V282.821H67.0297L63.5717 287.277V282.821H62.5077V288.806H63.5717ZM72.6481 282.821C70.6531 282.821 69.9748 283.792 69.9748 284.816C69.9748 285.8 70.6531 286.399 71.2649 286.545L69.5359 288.806H70.8259L72.289 286.811H73.4461V288.806H74.5101V282.821H72.6481ZM71.1053 284.843C71.1053 284.284 71.4777 283.819 72.4752 283.819H73.4461V285.814H72.2225C71.6905 285.814 71.1053 285.455 71.1053 284.843Z" fill="#304960"/>
<path d="M267.194 170.353H22.8062C21.6584 170.353 20.728 171.284 20.728 172.431V250.569C20.728 251.716 21.6584 252.647 22.8062 252.647H267.194C268.341 252.647 269.272 251.716 269.272 250.569V172.431C269.272 171.284 268.341 170.353 267.194 170.353Z" fill="#E8F8FF" stroke="#17C5CC"/>
<path d="M36.2723 189.887H37.4028V180.577H36.2723V184.607H31.1518V180.577H30.0213V189.887H31.1518V185.671H36.2723V189.887ZM40.0715 185.166C40.5503 184.913 40.9892 184.727 41.7207 184.727C42.9044 184.727 43.0773 185.498 43.0773 186.616C42.6783 186.323 42.0532 186.23 41.5877 186.23C40.2976 186.23 39.3267 186.908 39.3267 188.132C39.3267 189.289 40.0715 189.981 41.1621 189.981C42.1463 189.981 42.7182 189.568 43.0773 189.116V189.887H44.0881V186.217C44.0881 184.661 43.4896 183.769 41.7872 183.769C41.0424 183.769 40.3242 183.982 39.7922 184.315L40.0715 185.166ZM41.5345 189.023C40.8429 189.023 40.4572 188.651 40.4572 188.079C40.4572 187.387 41.0956 187.094 41.734 187.094C42.2527 187.094 42.7049 187.227 43.0773 187.493V188.252C42.7714 188.611 42.3192 189.023 41.5345 189.023ZM50.1923 189.887H51.2563V183.902H45.8698V189.887H46.9338V184.9H50.1923V189.887ZM54.2461 189.887L57.7041 185.432V189.887H58.7681V183.902H57.7041L54.2461 188.358V183.902H53.1821V189.887H54.2461ZM60.7024 189.887H68.2834V183.902H67.2194V188.89H65.0249V183.902H63.9609V188.89H61.7664V183.902H60.7024V189.887ZM71.2738 189.887L74.7318 185.432V189.887H75.7958V183.902H74.7318L71.2738 188.358V183.902H70.2098V189.887H71.2738ZM76.9719 184.966H79.1664V189.887H80.2304V184.966H82.4249V183.902H76.9719V184.966ZM88.1144 188.398C87.7287 188.757 87.0504 189.023 86.279 189.023C85.1086 189.023 84.284 188.358 84.1909 187.227H88.7927C88.8326 187.041 88.8592 186.802 88.8592 186.509C88.8592 184.86 87.6223 183.769 86.0795 183.769C84.1111 183.769 82.9939 185.153 82.9939 186.895C82.9939 188.784 84.2574 190.02 86.1992 190.02C86.9972 190.02 87.8617 189.768 88.4469 189.236L88.1144 188.398ZM86.0263 184.767C87.0637 184.767 87.7021 185.379 87.7553 186.363H84.1244C84.2441 185.445 84.9357 184.767 86.0263 184.767ZM95.272 190.02C96.7483 190.02 97.8123 189.342 97.8123 188.225C97.8123 187.533 97.4 186.908 96.5621 186.815V186.789C97.3202 186.523 97.6128 185.964 97.6128 185.379C97.6128 184.395 96.8281 183.769 95.3651 183.769C94.4204 183.769 93.4894 184.062 92.9973 184.567L93.4096 185.392C93.8086 185.073 94.3805 184.727 95.2055 184.727C95.9769 184.727 96.4823 185.046 96.4823 185.592C96.4823 186.07 96.0434 186.443 95.4449 186.443H94.5002V187.307H95.5114C96.2429 187.307 96.6818 187.587 96.6818 188.079C96.6818 188.677 96.0168 189.063 95.112 189.063C94.5933 189.063 93.8485 188.823 93.3431 188.411L92.7978 189.209C93.1968 189.688 94.3938 190.02 95.272 190.02ZM98.6086 191.35H99.6061V189.887H104.447V191.35H105.445V188.89H104.447V183.902H100.364L100.271 185.485C100.165 187.121 99.7524 188.385 99.3534 188.89H98.6086V191.35ZM101.295 185.897L101.362 184.9H103.383V188.89H100.484C100.763 188.518 101.162 187.427 101.295 185.897ZM111.324 188.398C110.939 188.757 110.26 189.023 109.489 189.023C108.318 189.023 107.494 188.358 107.401 187.227H112.003C112.042 187.041 112.069 186.802 112.069 186.509C112.069 184.86 110.832 183.769 109.289 183.769C107.321 183.769 106.204 185.153 106.204 186.895C106.204 188.784 107.467 190.02 109.409 190.02C110.207 190.02 111.072 189.768 111.657 189.236L111.324 188.398ZM109.236 184.767C110.274 184.767 110.912 185.379 110.965 186.363H107.334C107.454 185.445 108.146 184.767 109.236 184.767ZM118.037 188.252C117.638 188.704 117.039 189.023 116.321 189.023C115.137 189.023 114.166 188.212 114.166 186.895C114.166 185.631 115.137 184.767 116.214 184.767C116.84 184.767 117.425 184.927 117.93 185.392L118.422 184.554C117.864 183.996 117.026 183.769 116.068 183.769C114.313 183.769 113.036 185.153 113.036 186.895C113.036 188.784 114.339 190.02 116.241 190.02C117.159 190.02 118.037 189.675 118.542 189.023L118.037 188.252ZM119.929 189.887H121.951C123.84 189.887 124.451 188.81 124.451 187.759C124.451 186.695 123.919 185.698 122.084 185.698H120.993V183.902H119.929V189.887ZM121.884 186.695C122.909 186.695 123.321 187.081 123.321 187.799C123.321 188.504 122.922 188.89 121.871 188.89H120.993V186.695H121.884ZM133.188 189.887H134.252V183.902H128.865V189.887H129.929V184.9H133.188V189.887ZM135.778 186.895C135.778 188.69 137.055 190.02 138.97 190.02C140.885 190.02 142.162 188.69 142.162 186.895C142.162 185.099 140.885 183.769 138.97 183.769C137.055 183.769 135.778 185.099 135.778 186.895ZM136.908 186.895C136.908 185.631 137.8 184.767 138.97 184.767C140.167 184.767 141.031 185.645 141.031 186.895C141.031 188.172 140.167 189.023 138.97 189.023C137.773 189.023 136.908 188.145 136.908 186.895ZM142.639 191.35H143.637V189.887H148.478V191.35H149.475V188.89H148.478V183.902H144.395L144.302 185.485C144.195 187.121 143.783 188.385 143.384 188.89H142.639V191.35ZM145.326 185.897L145.392 184.9H147.414V188.89H144.514C144.794 188.518 145.193 187.427 145.326 185.897ZM150.633 192.547H151.697V189.608C152.123 189.887 152.748 190.02 153.386 190.02C155.262 190.02 156.499 188.624 156.499 186.802C156.499 185.033 155.435 183.769 153.732 183.769C152.908 183.769 152.11 184.129 151.697 184.607V183.902H150.633V192.547ZM153.426 184.767C154.663 184.767 155.368 185.631 155.368 186.842C155.368 188.105 154.57 189.023 153.293 189.023C152.721 189.023 152.229 188.917 151.697 188.557V185.592C152.07 185.126 152.721 184.767 153.426 184.767ZM157.625 186.895C157.625 188.69 158.902 190.02 160.817 190.02C162.732 190.02 164.009 188.69 164.009 186.895C164.009 185.099 162.732 183.769 160.817 183.769C158.902 183.769 157.625 185.099 157.625 186.895ZM158.755 186.895C158.755 185.631 159.646 184.767 160.817 184.767C162.014 184.767 162.878 185.645 162.878 186.895C162.878 188.172 162.014 189.023 160.817 189.023C159.62 189.023 158.755 188.145 158.755 186.895ZM170.173 180.444C169.561 181.242 168.736 180.87 167.34 181.469C165.438 182.267 165.119 184.528 165.119 186.296C165.119 188.597 166.341 190.02 168.284 190.02C170.106 190.02 171.356 188.624 171.356 186.948C171.356 185.153 170.292 183.969 168.577 183.969C167.566 183.969 166.595 184.528 166.209 185.365H166.183C166.262 184.248 166.582 182.985 167.699 182.479C169.016 181.881 170.013 182.267 170.744 181.282L170.173 180.444ZM166.248 186.496C166.435 185.725 167.18 184.966 168.311 184.966C169.547 184.966 170.226 185.831 170.226 187.001C170.226 188.119 169.428 189.023 168.257 189.023C167.074 189.023 166.248 188.039 166.248 186.496ZM177.271 189.887H178.335V183.902H177.271V186.363H173.946V183.902H172.882V189.887H173.946V187.36H177.271V189.887ZM179.861 186.895C179.861 188.69 181.138 190.02 183.053 190.02C184.968 190.02 186.245 188.69 186.245 186.895C186.245 185.099 184.968 183.769 183.053 183.769C181.138 183.769 179.861 185.099 179.861 186.895ZM180.991 186.895C180.991 185.631 181.882 184.767 183.053 184.767C184.25 184.767 185.114 185.645 185.114 186.895C185.114 188.172 184.25 189.023 183.053 189.023C181.856 189.023 180.991 188.145 180.991 186.895ZM192.502 188.398C192.116 188.757 191.438 189.023 190.666 189.023C189.496 189.023 188.671 188.358 188.577 187.227H193.18C193.22 187.041 193.246 186.802 193.246 186.509C193.246 184.86 192.01 183.769 190.467 183.769C188.498 183.769 187.381 185.153 187.381 186.895C187.381 188.784 188.645 190.02 190.586 190.02C191.384 190.02 192.249 189.768 192.834 189.236L192.502 188.398ZM190.414 184.767C191.451 184.767 192.089 185.379 192.143 186.363H188.512C188.631 185.445 189.323 184.767 190.414 184.767ZM197.278 186.895C197.278 188.69 198.555 190.02 200.47 190.02C202.385 190.02 203.662 188.69 203.662 186.895C203.662 185.099 202.385 183.769 200.47 183.769C198.555 183.769 197.278 185.099 197.278 186.895ZM198.408 186.895C198.408 185.631 199.3 184.767 200.47 184.767C201.667 184.767 202.531 185.645 202.531 186.895C202.531 188.172 201.667 189.023 200.47 189.023C199.273 189.023 198.408 188.145 198.408 186.895ZM209.52 189.887H210.584V183.902H205.197V189.887H206.261V184.9H209.52V189.887ZM213.574 189.887L217.032 185.432V189.887H218.096V183.902H217.032L213.574 188.358V183.902H212.51V189.887H213.574ZM224.631 188.252C224.232 188.704 223.634 189.023 222.915 189.023C221.732 189.023 220.761 188.212 220.761 186.895C220.761 185.631 221.732 184.767 222.809 184.767C223.434 184.767 224.019 184.927 224.525 185.392L225.017 184.554C224.458 183.996 223.62 183.769 222.663 183.769C220.907 183.769 219.63 185.153 219.63 186.895C219.63 188.784 220.934 190.02 222.836 190.02C223.753 190.02 224.631 189.675 225.137 189.023L224.631 188.252ZM226.843 185.166C227.322 184.913 227.761 184.727 228.492 184.727C229.676 184.727 229.849 185.498 229.849 186.616C229.45 186.323 228.825 186.23 228.359 186.23C227.069 186.23 226.098 186.908 226.098 188.132C226.098 189.289 226.843 189.981 227.934 189.981C228.918 189.981 229.49 189.568 229.849 189.116V189.887H230.86V186.217C230.86 184.661 230.261 183.769 228.559 183.769C227.814 183.769 227.096 183.982 226.564 184.315L226.843 185.166ZM228.306 189.023C227.614 189.023 227.229 188.651 227.229 188.079C227.229 187.387 227.867 187.094 228.506 187.094C229.024 187.094 229.476 187.227 229.849 187.493V188.252C229.543 188.611 229.091 189.023 228.306 189.023ZM237.03 189.887H238.094V183.902H237.03V186.363H233.705V183.902H232.641V189.887H233.705V187.36H237.03V189.887ZM241.082 189.887L244.54 185.432V189.887H245.604V183.902H244.54L241.082 188.358V183.902H240.018V189.887H241.082ZM252.26 188.398C251.874 188.757 251.196 189.023 250.425 189.023C249.254 189.023 248.43 188.358 248.337 187.227H252.939C252.978 187.041 253.005 186.802 253.005 186.509C253.005 184.86 251.768 183.769 250.225 183.769C248.257 183.769 247.14 185.153 247.14 186.895C247.14 188.784 248.403 190.02 250.345 190.02C251.143 190.02 252.007 189.768 252.593 189.236L252.26 188.398ZM250.172 184.767C251.21 184.767 251.848 185.379 251.901 186.363H248.27C248.39 185.445 249.082 184.767 250.172 184.767ZM31.5641 204.983C33.0404 204.983 34.1044 204.305 34.1044 203.187C34.1044 202.496 33.6921 201.871 32.8542 201.778V201.751C33.6123 201.485 33.9049 200.926 33.9049 200.341C33.9049 199.357 33.1202 198.732 31.6572 198.732C30.7129 198.732 29.7819 199.025 29.2898 199.53L29.7021 200.355C30.1011 200.035 30.673 199.69 31.4976 199.69C32.269 199.69 32.7744 200.009 32.7744 200.554C32.7744 201.033 32.3355 201.405 31.737 201.405H30.7927V202.27H31.8035C32.535 202.27 32.9739 202.549 32.9739 203.041C32.9739 203.64 32.3089 204.025 31.4045 204.025C30.8858 204.025 30.141 203.786 29.6356 203.374L29.0903 204.172C29.4893 204.65 30.6863 204.983 31.5641 204.983ZM36.0451 200.128C36.5239 199.876 36.9628 199.69 37.6943 199.69C38.878 199.69 39.0509 200.461 39.0509 201.578C38.6519 201.286 38.0268 201.192 37.5613 201.192C36.2712 201.192 35.3003 201.871 35.3003 203.094C35.3003 204.251 36.0451 204.943 37.1357 204.943C38.1199 204.943 38.6918 204.531 39.0509 204.079V204.85H40.0617V201.179C40.0617 199.623 39.4632 198.732 37.7608 198.732C37.016 198.732 36.2978 198.945 35.7658 199.277L36.0451 200.128ZM37.5081 203.985C36.8165 203.985 36.4308 203.613 36.4308 203.041C36.4308 202.35 37.0692 202.057 37.7076 202.057C38.2263 202.057 38.6785 202.19 39.0509 202.456V203.214C38.745 203.573 38.2928 203.985 37.5081 203.985ZM41.0188 206.313H42.0163V204.85H46.8575V206.313H47.855V203.852H46.8575V198.865H42.7744L42.6813 200.448C42.5749 202.084 42.1626 203.347 41.7636 203.852H41.0188V206.313ZM43.7054 200.86L43.7719 199.862H45.7935V203.852H42.8941C43.1734 203.48 43.5724 202.389 43.7054 200.86ZM49.3321 200.128C49.8109 199.876 50.2498 199.69 50.9813 199.69C52.165 199.69 52.3379 200.461 52.3379 201.578C51.9389 201.286 51.3138 201.192 50.8483 201.192C49.5582 201.192 48.5873 201.871 48.5873 203.094C48.5873 204.251 49.3321 204.943 50.4227 204.943C51.4069 204.943 51.9788 204.531 52.3379 204.079V204.85H53.3487V201.179C53.3487 199.623 52.7502 198.732 51.0478 198.732C50.303 198.732 49.5848 198.945 49.0528 199.277L49.3321 200.128ZM50.7951 203.985C50.1035 203.985 49.7178 203.613 49.7178 203.041C49.7178 202.35 50.3562 202.057 50.9946 202.057C51.5133 202.057 51.9655 202.19 52.3379 202.456V203.214C52.032 203.573 51.5798 203.985 50.7951 203.985ZM59.5194 204.85H60.5834V198.865H59.5194V201.325H56.1944V198.865H55.1304V204.85H56.1944V202.323H59.5194V204.85ZM63.5717 204.85L67.0298 200.394V204.85H68.0938V198.865H67.0298L63.5717 203.32V198.865H62.5077V204.85H63.5717ZM72.6481 198.865C70.6531 198.865 69.9748 199.836 69.9748 200.86C69.9748 201.844 70.6531 202.443 71.2649 202.589L69.5359 204.85H70.8259L72.289 202.855H73.4461V204.85H74.5101V198.865H72.6481ZM71.1053 200.887C71.1053 200.328 71.4777 199.862 72.4752 199.862H73.4461V201.857H72.2225C71.6905 201.857 71.1053 201.498 71.1053 200.887ZM78.6069 206.313H79.6044V204.85H84.4456V206.313H85.4431V203.852H84.4456V198.865H80.3625L80.2694 200.448C80.163 202.084 79.7507 203.347 79.3516 203.852H78.6069V206.313ZM81.2935 200.86L81.36 199.862H83.3816V203.852H80.4822C80.7615 203.48 81.1605 202.389 81.2935 200.86ZM90.6974 204.85H91.7614V198.865H87.5985L87.4921 200.727C87.3458 203.493 86.4946 203.932 86.0424 203.892L86.1222 204.93C87.3591 204.93 88.2635 204.345 88.5295 200.94L88.596 199.929H90.6974V204.85ZM96.2994 198.865C94.3047 198.865 93.6264 199.836 93.6264 200.86C93.6264 201.844 94.3047 202.443 94.9165 202.589L93.1875 204.85H94.4776L95.9403 202.855H97.0974V204.85H98.1614V198.865H96.2994ZM94.7569 200.887C94.7569 200.328 95.129 199.862 96.1265 199.862H97.0974V201.857H95.8738C95.3418 201.857 94.7569 201.498 94.7569 200.887ZM107.685 203.214C107.286 203.666 106.688 203.985 105.969 203.985C104.786 203.985 103.815 203.174 103.815 201.857C103.815 200.594 104.786 199.729 105.863 199.729C106.488 199.729 107.073 199.889 107.579 200.355L108.071 199.517C107.512 198.958 106.674 198.732 105.717 198.732C103.961 198.732 102.684 200.115 102.684 201.857C102.684 203.746 103.988 204.983 105.89 204.983C106.807 204.983 107.685 204.637 108.19 203.985L107.685 203.214ZM110.641 204.85L114.099 200.394V204.85H115.163V198.865H114.099L110.641 203.32V198.865H109.577V204.85H110.641ZM116.273 206.313H117.27V204.85H122.111V206.313H123.109V203.852H122.111V198.865H118.028L117.935 200.448C117.829 202.084 117.416 203.347 117.017 203.852H116.273V206.313ZM118.959 200.86L119.026 199.862H121.047V203.852H118.148C118.427 203.48 118.826 202.389 118.959 200.86ZM128.988 203.36C128.603 203.719 127.924 203.985 127.153 203.985C125.983 203.985 125.158 203.32 125.065 202.19H129.667C129.707 202.004 129.733 201.764 129.733 201.472C129.733 199.823 128.496 198.732 126.953 198.732C124.985 198.732 123.868 200.115 123.868 201.857C123.868 203.746 125.131 204.983 127.073 204.983C127.871 204.983 128.736 204.73 129.321 204.198L128.988 203.36ZM126.9 199.729C127.938 199.729 128.576 200.341 128.629 201.325H124.998C125.118 200.408 125.81 199.729 126.9 199.729ZM135.04 204.85H136.104V198.865H131.94L131.835 200.727C131.688 203.493 130.837 203.932 130.385 203.892L130.465 204.93C131.702 204.93 132.606 204.345 132.872 200.94L132.938 199.929H135.04V204.85ZM143.262 198.865H141.865L139.338 201.791L142.038 204.85H143.514L140.642 201.724L143.262 198.865ZM138.021 204.85H139.085V198.865H138.021V204.85ZM145.71 204.85L149.168 200.394V204.85H150.232V198.865H149.168L145.71 203.32V198.865H144.646V204.85H145.71Z" fill="#304960"/>
<path d="M267.194 124.634H22.8062C21.6584 124.634 20.728 125.565 20.728 126.712V163.287C20.728 164.435 21.6584 165.366 22.8062 165.366H267.194C268.341 165.366 269.272 164.435 269.272 163.287V126.712C269.272 125.565 268.341 124.634 267.194 124.634Z" fill="#E8F8FF" stroke="#17C5CC"/>
<path d="M243.919 142.506L248.906 147.494L253.894 142.506" stroke="#2884C9" stroke-linecap="round" stroke-linejoin="round"/>
<path d="M36.206 142.506H37.3365V133.196H30.0215V142.506H31.152V134.26H36.206V142.506ZM39.2885 139.514C39.2885 141.309 40.5653 142.639 42.4805 142.639C44.3957 142.639 45.6725 141.309 45.6725 139.514C45.6725 137.718 44.3957 136.388 42.4805 136.388C40.5653 136.388 39.2885 137.718 39.2885 139.514ZM40.419 139.514C40.419 138.25 41.3101 137.386 42.4805 137.386C43.6775 137.386 44.542 138.264 44.542 139.514C44.542 140.791 43.6775 141.642 42.4805 141.642C41.2835 141.642 40.419 140.764 40.419 139.514ZM47.2077 142.506H48.2717V138.144L50.4263 140.924H50.4662L52.541 138.144V142.506H53.605V136.521H52.6607L50.4795 139.487L48.1786 136.521H47.2077V142.506ZM55.1342 139.514C55.1342 141.309 56.411 142.639 58.3262 142.639C60.2414 142.639 61.5182 141.309 61.5182 139.514C61.5182 137.718 60.2414 136.388 58.3262 136.388C56.411 136.388 55.1342 137.718 55.1342 139.514ZM56.2647 139.514C56.2647 138.25 57.1558 137.386 58.3262 137.386C59.5232 137.386 60.3877 138.264 60.3877 139.514C60.3877 140.791 59.5232 141.642 58.3262 141.642C57.1292 141.642 56.2647 140.764 56.2647 139.514ZM63.0534 142.506H70.6344V143.969H71.6319V141.509H70.6344V136.521H69.5704V141.509H67.3759V136.521H66.3119V141.509H64.1174V136.521H63.0534V142.506ZM77.1836 142.506H78.2476V136.521H77.1836V138.982H73.8586V136.521H72.7946V142.506H73.8586V139.979H77.1836V142.506ZM81.236 142.506L84.694 138.051V142.506H85.758V136.521H84.694L81.236 140.977V136.521H80.172V142.506H81.236ZM92.9324 136.521H91.5359L89.0089 139.447L91.7088 142.506H93.1851L90.3123 139.381L92.9324 136.521ZM87.6922 142.506H88.7562V136.521H87.6922V142.506ZM95.3802 142.506L98.8382 138.051V142.506H99.9022V136.521H98.8382L95.3802 140.977V136.521H94.3162V142.506H95.3802ZM109.147 142.506H110.211V136.521H104.824V142.506H105.888V137.519H109.147V142.506ZM111.738 139.514C111.738 141.309 113.014 142.639 114.93 142.639C116.845 142.639 118.122 141.309 118.122 139.514C118.122 137.718 116.845 136.388 114.93 136.388C113.014 136.388 111.738 137.718 111.738 139.514ZM112.868 139.514C112.868 138.25 113.759 137.386 114.93 137.386C116.127 137.386 116.991 138.264 116.991 139.514C116.991 140.791 116.127 141.642 114.93 141.642C113.733 141.642 112.868 140.764 112.868 139.514ZM128.083 136.521H126.873L125.49 140.312C125.383 140.631 125.29 140.937 125.21 141.229C125.091 140.924 124.984 140.631 124.851 140.325L123.096 136.521H121.819L124.692 142.506L124.559 142.825C124.16 143.783 123.787 144.182 123.282 144.182C123.043 144.182 122.816 144.076 122.617 143.983L122.271 144.794C122.59 145.007 122.949 145.166 123.402 145.166C124.253 145.166 124.811 144.648 125.689 142.506L128.083 136.521ZM134.38 136.521H133.143L131.494 138.782L129.871 136.521H128.568L130.696 139.461L128.435 142.506H129.672L131.454 140.086L133.21 142.506H134.513L132.239 139.407L134.38 136.521ZM135.077 139.514C135.077 141.309 136.354 142.639 138.269 142.639C140.185 142.639 141.461 141.309 141.461 139.514C141.461 137.718 140.185 136.388 138.269 136.388C136.354 136.388 135.077 137.718 135.077 139.514ZM136.208 139.514C136.208 138.25 137.099 137.386 138.269 137.386C139.466 137.386 140.331 138.264 140.331 139.514C140.331 140.791 139.466 141.642 138.269 141.642C137.072 141.642 136.208 140.764 136.208 139.514ZM141.938 143.969H142.935V142.506H147.776V143.969H148.774V141.509H147.776V136.521H143.693L143.6 138.104C143.494 139.74 143.081 141.003 142.682 141.509H141.938V143.969ZM144.624 138.516L144.691 137.519H146.712V141.509H143.813C144.092 141.136 144.491 140.046 144.624 138.516ZM155.372 136.521H154.161L152.778 140.312C152.672 140.631 152.578 140.937 152.499 141.229C152.379 140.924 152.273 140.631 152.14 140.325L150.384 136.521H149.107L151.98 142.506L151.847 142.825C151.448 143.783 151.076 144.182 150.57 144.182C150.331 144.182 150.105 144.076 149.905 143.983L149.559 144.794C149.879 145.007 150.238 145.166 150.69 145.166C151.541 145.166 152.1 144.648 152.978 142.506L155.372 136.521ZM161.434 142.639C162.91 142.639 163.974 141.961 163.974 140.844C163.974 140.152 163.562 139.527 162.724 139.434V139.407C163.482 139.141 163.775 138.583 163.775 137.998C163.775 137.013 162.99 136.388 161.527 136.388C160.583 136.388 159.652 136.681 159.16 137.186L159.572 138.011C159.971 137.692 160.543 137.346 161.367 137.346C162.139 137.346 162.644 137.665 162.644 138.21C162.644 138.689 162.205 139.062 161.607 139.062H160.662V139.926H161.673C162.405 139.926 162.844 140.205 162.844 140.697C162.844 141.296 162.179 141.682 161.274 141.682C160.756 141.682 160.011 141.442 159.505 141.03L158.96 141.828C159.359 142.307 160.556 142.639 161.434 142.639ZM165.915 137.785C166.394 137.532 166.833 137.346 167.564 137.346C168.748 137.346 168.921 138.117 168.921 139.234C168.522 138.942 167.897 138.849 167.431 138.849C166.141 138.849 165.17 139.527 165.17 140.751C165.17 141.908 165.915 142.599 167.006 142.599C167.99 142.599 168.562 142.187 168.921 141.735V142.506H169.932V138.835C169.932 137.279 169.333 136.388 167.631 136.388C166.886 136.388 166.168 136.601 165.636 136.934L165.915 137.785ZM167.378 141.642C166.686 141.642 166.301 141.269 166.301 140.697C166.301 140.006 166.939 139.713 167.578 139.713C168.096 139.713 168.548 139.846 168.921 140.112V140.87C168.615 141.229 168.163 141.642 167.378 141.642ZM179.196 136.521H178.132V139.248C177.866 139.434 177.361 139.62 176.762 139.62C175.951 139.62 175.472 139.168 175.472 138.21V136.521H174.341V138.33C174.341 139.873 175.033 140.618 176.469 140.618C177.134 140.618 177.733 140.431 178.132 140.179V142.506H179.196V136.521ZM185.213 142.506H186.277V136.521H182.114L182.008 138.383C181.862 141.15 181.011 141.589 180.558 141.549L180.638 142.586C181.875 142.586 182.779 142.001 183.045 138.596L183.112 137.585H185.213V142.506ZM192.917 141.017C192.532 141.376 191.853 141.642 191.082 141.642C189.912 141.642 189.087 140.977 188.993 139.846H193.596C193.636 139.66 193.662 139.421 193.662 139.128C193.662 137.479 192.425 136.388 190.883 136.388C188.914 136.388 187.797 137.771 187.797 139.514C187.797 141.402 189.06 142.639 191.002 142.639C191.8 142.639 192.665 142.387 193.25 141.855L192.917 141.017ZM190.829 137.386C191.867 137.386 192.505 137.998 192.558 138.982H188.927C189.047 138.064 189.739 137.386 190.829 137.386ZM199.494 142.506H200.558V136.521H199.494V138.982H196.169V136.521H195.105V142.506H196.169V139.979H199.494V142.506ZM202.802 137.785C203.281 137.532 203.719 137.346 204.451 137.346C205.635 137.346 205.808 138.117 205.808 139.234C205.409 138.942 204.783 138.849 204.318 138.849C203.028 138.849 202.057 139.527 202.057 140.751C202.057 141.908 202.802 142.599 203.892 142.599C204.877 142.599 205.448 142.187 205.808 141.735V142.506H206.818V138.835C206.818 137.279 206.22 136.388 204.518 136.388C203.773 136.388 203.054 136.601 202.522 136.934L202.802 137.785ZM204.265 141.642C203.573 141.642 203.188 141.269 203.188 140.697C203.188 140.006 203.826 139.713 204.464 139.713C204.983 139.713 205.435 139.846 205.808 140.112V140.87C205.502 141.229 205.049 141.642 204.265 141.642ZM208.6 142.506H209.664V138.144L211.818 140.924H211.858L213.933 138.144V142.506H214.997V136.521H214.053L211.872 139.487L209.571 136.521H208.6V142.506ZM217.99 142.506L221.448 138.051V142.506H222.512V136.521H221.448L217.99 140.977V136.521H216.926V142.506H217.99ZM34.1844 154.17C33.7854 154.623 33.1869 154.942 32.4687 154.942C31.285 154.942 30.3141 154.13 30.3141 152.814C30.3141 151.55 31.285 150.686 32.3623 150.686C32.9874 150.686 33.5726 150.845 34.078 151.311L34.5701 150.473C34.0115 149.914 33.1736 149.688 32.216 149.688C30.4604 149.688 29.1836 151.071 29.1836 152.814C29.1836 154.702 30.487 155.939 32.3889 155.939C33.3066 155.939 34.1844 155.593 34.6898 154.942L34.1844 154.17ZM40.4735 154.317C40.0878 154.676 39.4095 154.942 38.6381 154.942C37.4677 154.942 36.6431 154.277 36.55 153.146H41.1518C41.1917 152.96 41.2183 152.721 41.2183 152.428C41.2183 150.779 39.9814 149.688 38.4386 149.688C36.4702 149.688 35.353 151.071 35.353 152.814C35.353 154.702 36.6165 155.939 38.5583 155.939C39.3563 155.939 40.2208 155.687 40.806 155.155L40.4735 154.317ZM38.3854 150.686C39.4228 150.686 40.0612 151.298 40.1144 152.282H36.4835C36.6032 151.364 37.2948 150.686 38.3854 150.686ZM42.6618 155.806H43.7258V151.444L45.8804 154.224H45.9203L47.9951 151.444V155.806H49.0591V149.821H48.1148L45.9336 152.787L43.6327 149.821H42.6618V155.806ZM50.9873 155.806H53.0089C54.8975 155.806 55.5093 154.729 55.5093 153.678C55.5093 152.614 54.9773 151.617 53.1419 151.617H52.0513V149.821H50.9873V155.806ZM52.9424 152.614C53.9665 152.614 54.3788 153 54.3788 153.718C54.3788 154.423 53.9798 154.809 52.9291 154.809H52.0513V152.614H52.9424ZM58 155.806L61.458 151.351V155.806H62.522V149.821H61.458L58 154.277V149.821H56.936V155.806H58Z" fill="#304960"/>
<path d="M267.194 78.9156H22.8062C21.6584 78.9156 20.728 79.846 20.728 80.9937V117.569C20.728 118.716 21.6584 119.647 22.8062 119.647H267.194C268.341 119.647 269.272 118.716 269.272 117.569V80.9937C269.272 79.846 268.341 78.9156 267.194 78.9156Z" fill="#E8F8FF" stroke="#17C5CC"/>
<path d="M243.919 96.7875L248.906 101.775L253.894 96.7875" stroke="#2884C9" stroke-linecap="round" stroke-linejoin="round"/>
<path d="M31.1519 96.7875V93.2098C31.6174 93.2497 32.176 93.263 32.5484 93.263C34.8227 93.263 35.9 91.8532 35.9 90.337C35.9 88.8873 35.1153 87.4509 32.4553 87.4509C31.8701 87.4509 30.5401 87.4775 30.0214 87.4775V96.7875H31.1519ZM32.5617 88.5149C34.038 88.5149 34.703 89.2198 34.703 90.3237C34.703 91.4941 33.8784 92.199 32.5085 92.199C32.043 92.199 31.6041 92.1724 31.1519 92.1325V88.5415C31.5908 88.5282 32.1893 88.5149 32.5617 88.5149ZM36.3791 93.795C36.3791 95.5905 37.6559 96.9205 39.5711 96.9205C41.4863 96.9205 42.7631 95.5905 42.7631 93.795C42.7631 91.9995 41.4863 90.6695 39.5711 90.6695C37.6559 90.6695 36.3791 91.9995 36.3791 93.795ZM37.5096 93.795C37.5096 92.5315 38.4007 91.667 39.5711 91.667C40.7681 91.667 41.6326 92.5448 41.6326 93.795C41.6326 95.0718 40.7681 95.923 39.5711 95.923C38.3741 95.923 37.5096 95.0452 37.5096 93.795ZM43.2399 98.2505H44.2374V96.7875H49.0786V98.2505H50.0761V95.79H49.0786V90.8025H44.9955L44.9024 92.3852C44.796 94.0211 44.3837 95.2846 43.9847 95.79H43.2399V98.2505ZM45.9265 92.7975L45.993 91.8H48.0146V95.79H45.1152C45.3945 95.4176 45.7935 94.327 45.9265 92.7975ZM55.623 96.7875H56.687V90.8025H55.623V93.263H52.298V90.8025H51.234V96.7875H52.298V94.2605H55.623V96.7875ZM58.6113 96.7875H60.5398C62.4151 96.7875 63.0269 95.7102 63.0269 94.6595C63.0269 93.5955 62.4949 92.598 60.6595 92.598H59.6753V90.8025H58.6113V96.7875ZM64.1707 96.7875H65.2347V90.8025H64.1707V96.7875ZM60.46 93.5955C61.4841 93.5955 61.8965 93.9812 61.8965 94.6994C61.8965 95.4043 61.5107 95.79 60.4467 95.79H59.6753V93.5955H60.46ZM71.8661 95.2979C71.4804 95.657 70.8021 95.923 70.0307 95.923C68.8603 95.923 68.0357 95.258 67.9426 94.1275H72.5444C72.5843 93.9413 72.6109 93.7019 72.6109 93.4093C72.6109 91.7601 71.374 90.6695 69.8312 90.6695C67.8628 90.6695 66.7456 92.0527 66.7456 93.795C66.7456 95.6836 68.0091 96.9205 69.9509 96.9205C70.7489 96.9205 71.6134 96.6678 72.1986 96.1358L71.8661 95.2979ZM69.778 91.667C70.8154 91.667 71.4538 92.2788 71.507 93.263H67.8761C67.9958 92.3453 68.6874 91.667 69.778 91.667ZM78.1057 96.7875L81.5637 92.332V96.7875H82.6277V90.8025H81.5637L78.1057 95.258V90.8025H77.0417V96.7875H78.1057ZM92.1776 87.3445C91.5658 88.1425 90.7412 87.7701 89.3447 88.3686C87.4428 89.1666 87.1236 91.4276 87.1236 93.1965C87.1236 95.4974 88.3472 96.9205 90.289 96.9205C92.1111 96.9205 93.3613 95.524 93.3613 93.8482C93.3613 92.0527 92.2973 90.869 90.5816 90.869C89.5708 90.869 88.5999 91.4276 88.2142 92.2655H88.1876C88.2674 91.1483 88.5866 89.8848 89.7038 89.3794C91.0205 88.7809 92.018 89.1666 92.7495 88.1824L92.1776 87.3445ZM88.2541 93.396C88.4403 92.6246 89.1851 91.8665 90.3156 91.8665C91.5525 91.8665 92.2308 92.731 92.2308 93.9014C92.2308 95.0186 91.4328 95.923 90.2624 95.923C89.0787 95.923 88.2541 94.9388 88.2541 93.396ZM98.75 96.7875H99.814V90.8025H95.6511L95.5447 92.6645C95.3984 95.4309 94.5474 95.8698 94.0952 95.8299L94.175 96.8673C95.4117 96.8673 96.3161 96.2821 96.5821 92.8773L96.6486 91.8665H98.75V96.7875ZM102.797 96.7875L106.255 92.332V96.7875H107.319V90.8025H106.255L102.797 95.258V90.8025H101.733V96.7875H102.797ZM111.235 96.9205C112.711 96.9205 113.775 96.2422 113.775 95.125C113.775 94.4334 113.363 93.8083 112.525 93.7152V93.6886C113.283 93.4226 113.575 92.864 113.575 92.2788C113.575 91.2946 112.791 90.6695 111.328 90.6695C110.383 90.6695 109.452 90.9621 108.96 91.4675L109.373 92.2921C109.772 91.9729 110.343 91.6271 111.168 91.6271C111.939 91.6271 112.445 91.9463 112.445 92.4916C112.445 92.9704 112.006 93.3428 111.407 93.3428H110.463V94.2073H111.474C112.205 94.2073 112.644 94.4866 112.644 94.9787C112.644 95.5772 111.979 95.9629 111.075 95.9629C110.556 95.9629 109.811 95.7235 109.306 95.3112L108.761 96.1092C109.16 96.588 110.357 96.9205 111.235 96.9205ZM120.636 90.8025H119.239L116.712 93.7285L119.412 96.7875H120.889L118.016 93.662L120.636 90.8025ZM115.396 96.7875H116.46V90.8025H115.396V96.7875ZM123.084 96.7875L126.542 92.332V96.7875H127.606V90.8025H126.542L123.084 95.258V90.8025H122.02V96.7875H123.084ZM134.262 95.2979C133.876 95.657 133.198 95.923 132.426 95.923C131.256 95.923 130.431 95.258 130.338 94.1275H134.94C134.98 93.9413 135.007 93.7019 135.007 93.4093C135.007 91.7601 133.77 90.6695 132.227 90.6695C130.259 90.6695 129.141 92.0527 129.141 93.795C129.141 95.6836 130.405 96.9205 132.347 96.9205C133.145 96.9205 134.009 96.6678 134.594 96.1358L134.262 95.2979ZM132.174 91.667C133.211 91.667 133.85 92.2788 133.903 93.263H130.272C130.392 92.3453 131.083 91.667 132.174 91.667ZM136.211 96.1757C136.211 96.5215 136.451 96.7875 136.717 96.7875C136.823 96.7875 136.943 96.7742 137.009 96.6678C137.076 96.7875 137.102 96.987 137.022 97.3328C136.903 97.8249 136.53 98.1042 136.171 98.2239L136.464 98.7293C137.328 98.4766 137.927 97.7584 137.927 96.7609C137.927 95.9762 137.528 95.4708 136.969 95.4708C136.477 95.4708 136.211 95.7634 136.211 96.1757ZM146.19 96.7875H147.254V90.8025H146.19V93.263H142.865V90.8025H141.801V96.7875H142.865V94.2605H146.19V96.7875ZM154.618 90.8025H153.408L152.025 94.593C151.918 94.9122 151.825 95.2181 151.746 95.5107C151.626 95.2048 151.519 94.9122 151.386 94.6063L149.631 90.8025H148.354L151.227 96.7875L151.094 97.1067C150.695 98.0643 150.322 98.4633 149.817 98.4633C149.578 98.4633 149.351 98.3569 149.152 98.2638L148.806 99.0751C149.125 99.2879 149.484 99.4475 149.937 99.4475C150.788 99.4475 151.347 98.9288 152.224 96.7875L154.618 90.8025ZM163.309 90.8025H161.992L159.931 93.6886L162.152 96.7875H163.469L161.141 93.6886L163.309 90.8025ZM158.601 96.7875H159.665V90.8025H158.601V96.7875ZM157.125 93.6886L154.837 96.7875H156.14L158.335 93.6886L156.287 90.8025H154.957L157.125 93.6886ZM163.758 98.2505H164.755V96.7875H169.597V98.2505H170.594V95.79H169.597V90.8025H165.514L165.42 92.3852C165.314 94.0211 164.902 95.2846 164.503 95.79H163.758V98.2505ZM166.444 92.7975L166.511 91.8H168.533V95.79H165.633C165.913 95.4176 166.311 94.327 166.444 92.7975ZM172.071 92.066C172.55 91.8133 172.989 91.6271 173.72 91.6271C174.904 91.6271 175.077 92.3985 175.077 93.5157C174.678 93.2231 174.053 93.13 173.587 93.13C172.297 93.13 171.326 93.8083 171.326 95.0319C171.326 96.189 172.071 96.8806 173.162 96.8806C174.146 96.8806 174.718 96.4683 175.077 96.0161V96.7875H176.088V93.1167C176.088 91.5606 175.489 90.6695 173.787 90.6695C173.042 90.6695 172.324 90.8823 171.792 91.2148L172.071 92.066ZM173.534 95.923C172.843 95.923 172.457 95.5506 172.457 94.9787C172.457 94.2871 173.095 93.9945 173.734 93.9945C174.252 93.9945 174.705 94.1275 175.077 94.3935V95.1516C174.771 95.5107 174.319 95.923 173.534 95.923ZM177.87 96.7875H179.001V94.2605H180.291C180.477 95.8166 181.634 96.9205 183.323 96.9205C185.172 96.9205 186.449 95.5905 186.449 93.795C186.449 91.9995 185.198 90.6695 183.323 90.6695C181.687 90.6695 180.543 91.7202 180.304 93.1965H179.001V90.8025H177.87V96.7875ZM181.461 93.795C181.461 92.5581 182.246 91.7335 183.363 91.7335C184.507 91.7335 185.252 92.5714 185.252 93.795C185.252 95.0452 184.467 95.8565 183.363 95.8565C182.259 95.8565 181.461 95.0585 181.461 93.795ZM187.975 96.7875H195.556V98.2505H196.553V95.79H195.556V90.8025H194.492V95.79H192.297V90.8025H191.233V95.79H189.039V90.8025H187.975V96.7875ZM198.78 96.7875L202.238 92.332V96.7875H203.302V90.8025H202.238L198.78 95.258V90.8025H197.716V96.7875H198.78ZM209.958 95.2979C209.572 95.657 208.894 95.923 208.123 95.923C206.952 95.923 206.128 95.258 206.034 94.1275H210.636C210.676 93.9413 210.703 93.7019 210.703 93.4093C210.703 91.7601 209.466 90.6695 207.923 90.6695C205.955 90.6695 204.837 92.0527 204.837 93.795C204.837 95.6836 206.101 96.9205 208.043 96.9205C208.841 96.9205 209.705 96.6678 210.29 96.1358L209.958 95.2979ZM207.87 91.667C208.907 91.667 209.546 92.2788 209.599 93.263H205.968C206.088 92.3453 206.779 91.667 207.87 91.667ZM216.669 95.1516C216.27 95.6038 215.672 95.923 214.954 95.923C213.77 95.923 212.799 95.1117 212.799 93.795C212.799 92.5315 213.77 91.667 214.847 91.667C215.472 91.667 216.058 91.8266 216.563 92.2921L217.055 91.4542C216.497 90.8956 215.659 90.6695 214.701 90.6695C212.945 90.6695 211.669 92.0527 211.669 93.795C211.669 95.6836 212.972 96.9205 214.874 96.9205C215.792 96.9205 216.669 96.5747 217.175 95.923L216.669 95.1516ZM220.896 90.8025C218.901 90.8025 218.223 91.7734 218.223 92.7975C218.223 93.7817 218.901 94.3802 219.513 94.5265L217.784 96.7875H219.074L220.537 94.7925H221.694V96.7875H222.758V90.8025H220.896ZM219.354 92.8241C219.354 92.2655 219.726 91.8 220.723 91.8H221.694V93.795H220.471C219.939 93.795 219.354 93.4359 219.354 92.8241ZM29.5825 110.087C30.1278 110.087 31.0322 110.141 31.777 110.141C33.639 110.141 34.5301 109.529 34.5301 108.398C34.5301 107.654 34.0912 107.161 33.1336 106.989V106.962C33.8518 106.856 34.3306 106.297 34.3306 105.592C34.3306 104.515 33.4262 104.049 31.7504 104.049C30.8859 104.049 30.1012 104.102 29.5825 104.102V110.087ZM31.9233 107.401C32.8809 107.401 33.3996 107.693 33.3996 108.319C33.3996 108.944 32.8543 109.276 31.8701 109.276C31.3913 109.276 30.9657 109.25 30.6465 109.236V107.401H31.9233ZM31.8302 104.914C32.6016 104.914 33.2001 105.153 33.2001 105.805C33.2001 106.39 32.6947 106.736 31.9898 106.736H30.6465V104.954C30.9125 104.94 31.3514 104.914 31.8302 104.914ZM44.5816 104.102H43.3713L41.9881 107.893C41.8817 108.212 41.7886 108.518 41.7088 108.811C41.5891 108.505 41.4827 108.212 41.3497 107.906L39.5941 104.102H38.3173L41.1901 110.087L41.0571 110.407C40.6581 111.364 40.2857 111.763 39.7803 111.763C39.5409 111.763 39.3148 111.657 39.1153 111.564L38.7695 112.375C39.0887 112.588 39.4478 112.747 39.9 112.747C40.7512 112.747 41.3098 112.229 42.1876 110.087L44.5816 104.102ZM50.8781 104.102H49.6412L47.992 106.363L46.3694 104.102H45.066L47.194 107.042L44.933 110.087H46.1699L47.9521 107.667L49.7077 110.087H51.0111L48.7368 106.989L50.8781 104.102ZM51.5753 107.095C51.5753 108.89 52.8521 110.22 54.7673 110.22C56.6825 110.22 57.9593 108.89 57.9593 107.095C57.9593 105.299 56.6825 103.969 54.7673 103.969C52.8521 103.969 51.5753 105.299 51.5753 107.095ZM52.7058 107.095C52.7058 105.831 53.5969 104.967 54.7673 104.967C55.9643 104.967 56.8288 105.845 56.8288 107.095C56.8288 108.372 55.9643 109.223 54.7673 109.223C53.5703 109.223 52.7058 108.345 52.7058 107.095ZM58.4361 111.55H59.4336V110.087H64.2748V111.55H65.2723V109.09H64.2748V104.102H60.1917L60.0986 105.685C59.9922 107.321 59.5799 108.585 59.1809 109.09H58.4361V111.55ZM61.1227 106.097L61.1892 105.1H63.2108V109.09H60.3114C60.5907 108.718 60.9897 107.627 61.1227 106.097ZM71.1518 108.598C70.7661 108.957 70.0878 109.223 69.3164 109.223C68.146 109.223 67.3214 108.558 67.2283 107.427H71.83C71.8699 107.241 71.8965 107.002 71.8965 106.709C71.8965 105.06 70.6596 103.969 69.1168 103.969C67.1484 103.969 66.0312 105.353 66.0312 107.095C66.0312 108.984 67.2948 110.22 69.2366 110.22C70.0345 110.22 70.899 109.968 71.4842 109.436L71.1518 108.598ZM69.0637 104.967C70.1011 104.967 70.7395 105.579 70.7927 106.563H67.1618C67.2814 105.645 67.9731 104.967 69.0637 104.967Z" fill="#304960"/>
<path d="M278 12H12V61.875H278V12Z" fill="#17C5CC"/>
<path d="M253.063 45.25C257.653 45.25 261.375 41.5283 261.375 36.9375C261.375 32.3467 257.653 28.625 253.063 28.625C248.472 28.625 244.75 32.3467 244.75 36.9375C244.75 41.5283 248.472 45.25 253.063 45.25Z" stroke="#E8F8FF" stroke-linecap="round" stroke-linejoin="round"/>
<path d="M250.644 34.4438C250.839 33.8882 251.225 33.4197 251.732 33.1214C252.24 32.823 252.837 32.7139 253.417 32.8134C253.998 32.913 254.525 33.2148 254.904 33.6653C255.283 34.1159 255.491 34.6861 255.49 35.275C255.49 36.9375 252.996 37.7688 252.996 37.7688" stroke="#E8F8FF" stroke-linecap="round" stroke-linejoin="round"/>
<path d="M253.062 41.0938H253.071" stroke="#E8F8FF" stroke-linecap="round" stroke-linejoin="round"/>
<path d="M64.7036 42.7562H66.2331V41.0937H72.7368V42.7562H74.2663V39.5642H73.0028V31.7838H67.2306L67.1375 33.6458C66.9779 37.1171 66.0868 39.0854 65.7011 39.5642H64.7036V42.7562ZM68.667 34.9358L68.8133 33.3132H71.3802V39.5642H67.4966C67.8291 39.1519 68.4941 37.3431 68.667 34.9358ZM75.0136 36.4387C75.0136 39.3381 77.0884 41.24 79.8548 41.24C82.6212 41.24 84.7093 39.2317 84.7093 36.4387C84.7093 33.5394 82.6212 31.6375 79.8548 31.6375C76.9953 31.6375 75.0136 33.7389 75.0136 36.4387ZM76.7426 36.4387C76.7426 34.5102 78.0726 33.167 79.8548 33.167C81.6104 33.167 82.9803 34.5102 82.9803 36.4387C82.9803 38.2741 81.8099 39.7105 79.8548 39.7105C78.1125 39.7105 76.7426 38.3007 76.7426 36.4387ZM86.6024 41.0937C87.1477 41.0937 87.9457 41.1469 89.023 41.1469C91.3106 41.1469 92.614 40.043 92.614 38.1145C92.614 36.3988 91.4303 35.3083 89.4885 35.3083C89.156 35.3083 88.5974 35.3348 88.2383 35.388V33.3132H92.0421V31.7838H86.6024V41.0937ZM89.3555 36.8377C90.4993 36.8377 90.9914 37.4362 90.9914 38.2342C90.9914 39.0588 90.486 39.6174 89.2757 39.6174C88.9299 39.6174 88.6107 39.5908 88.2383 39.5642V36.9175C88.6506 36.8643 89.0496 36.8377 89.3555 36.8377ZM93.575 41.0937H95.2239L96.1948 38.7131H100.171L101.142 41.0937H102.885L98.9479 31.7572H97.5115L93.575 41.0937ZM98.1898 33.8719L99.5464 37.1835H96.8199L98.1898 33.8719ZM104.28 41.0805C104.825 41.1203 106.022 41.1469 106.873 41.1469C108.841 41.1469 110.331 40.2691 110.331 38.3539C110.331 37.1171 109.613 36.4122 108.695 36.1861V36.1594C109.493 35.787 110.025 35.1088 110.025 34.0448C110.025 32.7547 109.187 31.7439 106.966 31.7439C106.035 31.7439 104.798 31.7838 104.28 31.8104V41.0805ZM107.073 37.0904C108.097 37.0904 108.695 37.4894 108.695 38.2741C108.695 39.1519 108.097 39.6174 106.993 39.6174C106.527 39.6174 106.142 39.5775 105.915 39.551V37.0904H107.073ZM106.94 33.2733C107.817 33.2733 108.403 33.6723 108.403 34.4304C108.403 35.2816 107.777 35.6673 107.019 35.6673H105.915V33.3132C106.208 33.2866 106.567 33.2733 106.94 33.2733ZM117.981 41.0937H119.604V31.7838H113.738L113.605 33.6458C113.193 39.2583 112.249 39.5642 111.531 39.4711L111.491 41.0937C113.326 41.3597 114.536 40.4819 115.082 35.0689L115.268 33.3132H117.981V41.0937ZM122.177 41.0937H127.697V39.5642H123.813V37.1569H127.165V35.6274H123.813V33.3132H127.564V31.7838H122.177V41.0937ZM135.719 41.0937H137.342V31.7838H135.719V35.5875H131.463V31.7838H129.827V41.0937H131.463V37.117H135.719V41.0937ZM141.356 41.0937L146.237 34.4837V41.0937H147.873V31.7838H146.436L141.555 38.4071V31.7838H139.919V41.0937H141.356ZM150.453 41.0937H155.972V39.5642H152.089V37.1569H155.44V35.6274H152.089V33.3132H155.839V31.7838H150.453V41.0937ZM163.289 41.24C164.978 41.24 166.548 40.2026 166.548 38.4869C166.548 37.4229 166.056 36.5584 164.938 36.2792V36.2392C165.803 35.7339 166.189 34.9092 166.189 34.191C166.189 32.5418 165.031 31.6375 163.396 31.6375C162.119 31.6375 160.988 32.236 160.376 33.0872L161.321 34.1778C161.839 33.4862 162.438 33.167 163.209 33.167C163.981 33.167 164.566 33.5527 164.566 34.3507C164.566 35.1221 163.914 35.5743 163.223 35.5743H162.318V37.1038H163.276C164.366 37.1038 164.925 37.5959 164.925 38.3274C164.925 39.2849 164.1 39.7105 163.209 39.7105C162.451 39.7105 161.56 39.2184 160.988 38.5667L160.097 39.6706C160.589 40.4154 161.64 41.24 163.289 41.24ZM167.504 41.0937H169.154L170.124 38.7131H174.101L175.072 41.0937H176.814L172.878 31.7572H171.441L167.504 41.0937ZM172.119 33.8719L173.476 37.1835H170.75L172.119 33.8719ZM177.026 42.7562H178.556V41.0937H185.06V42.7562H186.589V39.5642H185.326V31.7838H179.553L179.46 33.6458C179.301 37.1171 178.41 39.0854 178.024 39.5642H177.026V42.7562ZM180.99 34.9358L181.136 33.3132H183.703V39.5642H179.819C180.152 39.1519 180.817 37.3431 180.99 34.9358ZM187.013 41.0937H188.662L189.633 38.7131H193.61L194.581 41.0937H196.323L192.386 31.7572H190.95L187.013 41.0937ZM191.628 33.8719L192.985 37.1835H190.258L191.628 33.8719ZM203.609 41.0937H205.232V31.7838H203.609V35.5875H199.353V31.7838H197.717V41.0937H199.353V37.117H203.609V41.0937ZM209.246 41.0937L214.127 34.4837V41.0937H215.763V31.7838H214.326L209.445 38.4071V31.7838H207.809V41.0937H209.246ZM222.546 41.0937H224.168V31.7838C223.623 31.7838 222.453 31.7439 221.854 31.7439C219.141 31.7439 218.024 33.2468 218.024 34.9625C218.024 36.2526 218.795 37.1038 219.66 37.5427L217.279 41.0937H219.114L221.202 37.8751H222.546V41.0937ZM221.056 36.3456C220.391 36.2126 219.753 35.694 219.753 34.8561C219.753 33.9251 220.444 33.2733 221.522 33.2733C221.801 33.2733 222.32 33.2999 222.546 33.3132V36.3456H221.056Z" fill="#E8F8FF"/>
<path d="M39.4313 41.925L34.4438 36.9375L39.4313 31.95" stroke="#E8F8FF" stroke-linecap="round" stroke-linejoin="round"/>
</g>
<path fill-rule="evenodd" clip-rule="evenodd" d="M277 41C277 25.3632 264.594 13 249 13H224C220.882 13 221 13 218 13H213C208 13 211.608 13 203 13H86C77.3917 13 77 13 74 13H72C69.5 13 69 13 66 13C63 13 41 13 41 13C25.4063 13 13 25.401 13 41.0377V559C13 574.637 25.4063 587 41 587H249C264.594 587 277 574.599 277 558.962V41ZM40.9246 0H249.075C271.655 0 290 18.3962 290 41.0377V558.962C290 581.604 271.655 600 249.075 600H40.9246C18.3455 600 0 581.604 0 558.962V41.0377C0 18.3962 18.3455 0 40.9246 0Z" fill="#304960"/>
<defs>
<clipPath id="clip0">
<rect width="266" height="554.444" fill="white" transform="translate(12 12)"/>
</clipPath>
</defs>
</svg>
