<svg width="290" height="470" viewBox="0 0 290 470" fill="none" xmlns="http://www.w3.org/2000/svg">
<g clip-path="url(#clip0)">
<path d="M278 12H12V566.444H278V12Z" fill="#E8F8FF"/>
<path d="M278 12H12V566.444H278V12Z" fill="#D4F1F4"/>
<path d="M267.194 357.384H22.8062C21.6584 357.384 20.728 358.315 20.728 359.462V396.038C20.728 397.185 21.6584 398.116 22.8062 398.116H267.194C268.341 398.116 269.272 397.185 269.272 396.038V359.462C269.272 358.315 268.341 357.384 267.194 357.384Z" fill="#E8F8FF" stroke="#17C5CC"/>
<path d="M243.919 375.256L248.906 380.244L253.894 375.256" stroke="#2884C9" stroke-linecap="round" stroke-linejoin="round"/>
<path d="M36.206 381.906H37.3365V372.596H30.0215V381.906H31.152V373.66H36.206V381.906ZM39.2885 378.914C39.2885 380.709 40.5653 382.039 42.4805 382.039C44.3957 382.039 45.6725 380.709 45.6725 378.914C45.6725 377.118 44.3957 375.788 42.4805 375.788C40.5653 375.788 39.2885 377.118 39.2885 378.914ZM40.419 378.914C40.419 377.65 41.3101 376.786 42.4805 376.786C43.6775 376.786 44.542 377.664 44.542 378.914C44.542 380.191 43.6775 381.042 42.4805 381.042C41.2835 381.042 40.419 380.164 40.419 378.914ZM47.2077 381.906H48.2717V377.544L50.4263 380.324H50.4662L52.541 377.544V381.906H53.605V375.921H52.6607L50.4795 378.887L48.1786 375.921H47.2077V381.906ZM55.1342 378.914C55.1342 380.709 56.411 382.039 58.3262 382.039C60.2414 382.039 61.5182 380.709 61.5182 378.914C61.5182 377.118 60.2414 375.788 58.3262 375.788C56.411 375.788 55.1342 377.118 55.1342 378.914ZM56.2647 378.914C56.2647 377.65 57.1558 376.786 58.3262 376.786C59.5232 376.786 60.3877 377.664 60.3877 378.914C60.3877 380.191 59.5232 381.042 58.3262 381.042C57.1292 381.042 56.2647 380.164 56.2647 378.914ZM63.0534 381.906H70.6344V383.369H71.6319V380.909H70.6344V375.921H69.5704V380.909H67.3759V375.921H66.3119V380.909H64.1174V375.921H63.0534V381.906ZM72.7946 381.906H74.8162C76.7048 381.906 77.3166 380.829 77.3166 379.778C77.3166 378.714 76.7846 377.717 74.9492 377.717H73.8586V375.921H72.7946V381.906ZM74.7497 378.714C75.7738 378.714 76.1861 379.1 76.1861 379.818C76.1861 380.523 75.7871 380.909 74.7364 380.909H73.8586V378.714H74.7497ZM86.3324 380.27C85.9334 380.723 85.3349 381.042 84.6167 381.042C83.433 381.042 82.4621 380.23 82.4621 378.914C82.4621 377.65 83.433 376.786 84.5103 376.786C85.1354 376.786 85.7206 376.945 86.226 377.411L86.7181 376.573C86.1595 376.014 85.3216 375.788 84.364 375.788C82.6084 375.788 81.3316 377.171 81.3316 378.914C81.3316 380.802 82.635 382.039 84.5369 382.039C85.4546 382.039 86.3324 381.693 86.8378 381.042L86.3324 380.27ZM95.5348 381.906H96.5988V375.921H91.212V381.906H92.276V376.919H95.5348V381.906ZM98.1258 378.914C98.1258 380.709 99.4026 382.039 101.318 382.039C103.233 382.039 104.51 380.709 104.51 378.914C104.51 377.118 103.233 375.788 101.318 375.788C99.4026 375.788 98.1258 377.118 98.1258 378.914ZM99.2563 378.914C99.2563 377.65 100.147 376.786 101.318 376.786C102.515 376.786 103.379 377.664 103.379 378.914C103.379 380.191 102.515 381.042 101.318 381.042C100.121 381.042 99.2563 380.164 99.2563 378.914ZM111.284 375.921H109.888L107.361 378.847L110.061 381.906H111.537L108.664 378.781L111.284 375.921ZM106.044 381.906H107.108V375.921H106.044V381.906ZM117.992 375.921H116.782L115.398 379.712C115.292 380.031 115.199 380.337 115.119 380.629C114.999 380.324 114.893 380.031 114.76 379.725L113.004 375.921H111.728L114.6 381.906L114.467 382.225C114.068 383.183 113.696 383.582 113.191 383.582C112.951 383.582 112.725 383.476 112.526 383.383L112.18 384.194C112.499 384.407 112.858 384.566 113.31 384.566C114.161 384.566 114.72 384.048 115.598 381.906L117.992 375.921ZM123.407 381.906H124.471V375.921H119.085V381.906H120.149V376.919H123.407V381.906ZM131.638 375.921H130.241L127.714 378.847L130.414 381.906H131.89L129.018 378.781L131.638 375.921ZM126.397 381.906H127.461V375.921H126.397V381.906ZM133.341 377.185C133.819 376.932 134.259 376.746 134.99 376.746C136.174 376.746 136.347 377.517 136.347 378.634C135.948 378.342 135.323 378.249 134.857 378.249C133.567 378.249 132.596 378.927 132.596 380.151C132.596 381.308 133.341 381.999 134.431 381.999C135.416 381.999 135.988 381.587 136.347 381.135V381.906H137.357V378.235C137.357 376.679 136.759 375.788 135.057 375.788C134.312 375.788 133.594 376.001 133.062 376.334L133.341 377.185ZM134.804 381.042C134.112 381.042 133.727 380.669 133.727 380.097C133.727 379.406 134.365 379.113 135.003 379.113C135.522 379.113 135.973 379.246 136.347 379.512V380.27C136.041 380.629 135.589 381.042 134.804 381.042ZM139.139 381.906H140.203V377.544L142.357 380.324H142.397L144.472 377.544V381.906H145.536V375.921H144.592L142.411 378.887L140.11 375.921H139.139V381.906ZM148.529 381.906L151.987 377.451V381.906H153.051V375.921H151.987L148.529 380.377V375.921H147.465V381.906H148.529Z" fill="#304960"/>
<path d="M267.194 311.666H22.8062C21.6584 311.666 20.728 312.596 20.728 313.744V350.319C20.728 351.466 21.6584 352.397 22.8062 352.397H267.194C268.341 352.397 269.272 351.466 269.272 350.319V313.744C269.272 312.596 268.341 311.666 267.194 311.666Z" fill="#E8F8FF" stroke="#17C5CC"/>
<path d="M243.919 329.538L248.906 334.525L253.894 329.538" stroke="#2884C9" stroke-linecap="round" stroke-linejoin="round"/>
<path d="M36.4984 327.782C35.86 328.301 35.0088 328.606 34.1177 328.606C31.9631 328.606 30.4868 327.104 30.4868 324.882C30.4868 322.675 31.9232 321.159 33.9448 321.159C34.9157 321.159 35.6339 321.398 36.2457 321.85L36.7644 320.999C36.0994 320.427 35.1285 320.095 33.9315 320.095C31.0188 320.095 29.2898 322.209 29.2898 324.882C29.2898 327.782 31.2183 329.67 34.0113 329.67C35.1684 329.67 36.3255 329.271 36.9506 328.633L36.4984 327.782ZM37.5479 326.545C37.5479 328.34 38.8247 329.67 40.7399 329.67C42.6551 329.67 43.9319 328.34 43.9319 326.545C43.9319 324.749 42.6551 323.42 40.7399 323.42C38.8247 323.42 37.5479 324.749 37.5479 326.545ZM38.6784 326.545C38.6784 325.281 39.5695 324.417 40.7399 324.417C41.9369 324.417 42.8014 325.295 42.8014 326.545C42.8014 327.822 41.9369 328.673 40.7399 328.673C39.5429 328.673 38.6784 327.795 38.6784 326.545ZM49.7896 329.537H50.8536V323.552H45.4671V329.537H46.5311V324.55H49.7896V329.537ZM52.7795 332.198H53.8435V329.258C54.2691 329.537 54.8942 329.67 55.5326 329.67C57.4079 329.67 58.6448 328.274 58.6448 326.452C58.6448 324.683 57.5808 323.42 55.8784 323.42C55.0538 323.42 54.2558 323.779 53.8435 324.257V323.552H52.7795V332.198ZM55.5725 324.417C56.8094 324.417 57.5143 325.281 57.5143 326.492C57.5143 327.755 56.7163 328.673 55.4395 328.673C54.8676 328.673 54.3755 328.567 53.8435 328.207V325.242C54.2159 324.776 54.8676 324.417 55.5725 324.417ZM59.7708 326.545C59.7708 328.34 61.0476 329.67 62.9628 329.67C64.878 329.67 66.1548 328.34 66.1548 326.545C66.1548 324.749 64.878 323.42 62.9628 323.42C61.0476 323.42 59.7708 324.749 59.7708 326.545ZM60.9013 326.545C60.9013 325.281 61.7924 324.417 62.9628 324.417C64.1598 324.417 65.0243 325.295 65.0243 326.545C65.0243 327.822 64.1598 328.673 62.9628 328.673C61.7658 328.673 60.9013 327.795 60.9013 326.545ZM67.6901 329.537C68.2354 329.537 69.1398 329.591 69.8846 329.591C71.7466 329.591 72.6377 328.979 72.6377 327.848C72.6377 327.104 72.1988 326.611 71.2412 326.439V326.412C71.9594 326.306 72.4382 325.747 72.4382 325.042C72.4382 323.965 71.5338 323.499 69.858 323.499C68.9935 323.499 68.2088 323.552 67.6901 323.552V329.537ZM70.0309 326.851C70.9885 326.851 71.5072 327.144 71.5072 327.769C71.5072 328.394 70.9619 328.726 69.9777 328.726C69.4989 328.726 69.0733 328.7 68.7541 328.686V326.851H70.0309ZM69.9378 324.364C70.7092 324.364 71.3077 324.603 71.3077 325.255C71.3077 325.84 70.8023 326.186 70.0974 326.186H68.7541V324.404C69.0201 324.39 69.459 324.364 69.9378 324.364ZM73.8631 326.545C73.8631 328.34 75.1399 329.67 77.0551 329.67C78.9703 329.67 80.2471 328.34 80.2471 326.545C80.2471 324.749 78.9703 323.42 77.0551 323.42C75.1399 323.42 73.8631 324.749 73.8631 326.545ZM74.9936 326.545C74.9936 325.281 75.8847 324.417 77.0551 324.417C78.2521 324.417 79.1166 325.295 79.1166 326.545C79.1166 327.822 78.2521 328.673 77.0551 328.673C75.8581 328.673 74.9936 327.795 74.9936 326.545ZM89.1716 323.552H87.8549L85.7935 326.439L88.0145 329.537H89.3312L87.0037 326.439L89.1716 323.552ZM84.4634 329.537H85.5274V323.552H84.4634V329.537ZM82.9871 326.439L80.6996 329.537H82.003L84.1975 326.439L82.1493 323.552H80.8192L82.9871 326.439ZM89.6209 331.001H90.6184V329.537H95.4598V331.001H96.4573V328.54H95.4598V323.552H91.3765L91.2834 325.135C91.177 326.771 90.7647 328.035 90.3657 328.54H89.6209V331.001ZM92.3075 325.548L92.374 324.55H94.3956V328.54H91.4962C91.7755 328.168 92.1745 327.077 92.3075 325.548ZM102.337 328.048C101.951 328.407 101.273 328.673 100.501 328.673C99.3309 328.673 98.5063 328.008 98.4132 326.877H103.015C103.055 326.691 103.082 326.452 103.082 326.159C103.082 324.51 101.845 323.42 100.302 323.42C98.3334 323.42 97.2162 324.803 97.2162 326.545C97.2162 328.434 98.4797 329.67 100.422 329.67C101.22 329.67 102.084 329.418 102.669 328.886L102.337 328.048ZM100.249 324.417C101.286 324.417 101.924 325.029 101.978 326.013H98.3467C98.4664 325.095 99.158 324.417 100.249 324.417ZM108.914 329.537H109.978V323.552H108.914V326.013H105.589V323.552H104.525V329.537H105.589V327.01H108.914V329.537ZM112.966 329.537L116.424 325.082V329.537H117.488V323.552H116.424L112.966 328.008V323.552H111.902V329.537H112.966ZM124.144 328.048C123.758 328.407 123.08 328.673 122.308 328.673C121.138 328.673 120.313 328.008 120.22 326.877H124.822C124.862 326.691 124.889 326.452 124.889 326.159C124.889 324.51 123.652 323.42 122.109 323.42C120.14 323.42 119.023 324.803 119.023 326.545C119.023 328.434 120.287 329.67 122.229 329.67C123.027 329.67 123.891 329.418 124.476 328.886L124.144 328.048ZM122.056 324.417C123.093 324.417 123.731 325.029 123.785 326.013H120.154C120.273 325.095 120.965 324.417 122.056 324.417ZM129.319 329.537C129.864 329.537 130.769 329.591 131.514 329.591C133.376 329.591 134.267 328.979 134.267 327.848C134.267 327.104 133.828 326.611 132.87 326.439V326.412C133.588 326.306 134.067 325.747 134.067 325.042C134.067 323.965 133.163 323.499 131.487 323.499C130.623 323.499 129.838 323.552 129.319 323.552V329.537ZM131.66 326.851C132.618 326.851 133.136 327.144 133.136 327.769C133.136 328.394 132.591 328.726 131.607 328.726C131.128 328.726 130.702 328.7 130.383 328.686V326.851H131.66ZM131.567 324.364C132.338 324.364 132.937 324.603 132.937 325.255C132.937 325.84 132.431 326.186 131.726 326.186H130.383V324.404C130.649 324.39 131.088 324.364 131.567 324.364ZM138.878 329.537H139.942V325.175L142.097 327.955H142.137L144.212 325.175V329.537H145.276V323.552H144.331L142.15 326.518L139.849 323.552H138.878V329.537ZM151.926 328.048C151.54 328.407 150.862 328.673 150.09 328.673C148.92 328.673 148.095 328.008 148.002 326.877H152.604C152.644 326.691 152.671 326.452 152.671 326.159C152.671 324.51 151.434 323.42 149.891 323.42C147.922 323.42 146.805 324.803 146.805 326.545C146.805 328.434 148.069 329.67 150.011 329.67C150.809 329.67 151.673 329.418 152.258 328.886L151.926 328.048ZM149.838 324.417C150.875 324.417 151.513 325.029 151.567 326.013H147.936C148.055 325.095 148.747 324.417 149.838 324.417ZM153.055 331.001H154.053V329.537H158.894V331.001H159.892V328.54H158.894V323.552H154.811L154.718 325.135C154.612 326.771 154.199 328.035 153.8 328.54H153.055V331.001ZM155.742 325.548L155.809 324.55H157.83V328.54H154.931C155.21 328.168 155.609 327.077 155.742 325.548ZM162.114 329.537L165.572 325.082V329.537H166.636V323.552H165.572L162.114 328.008V323.552H161.05V329.537H162.114ZM168.57 329.537H173.89V331.001H174.887V328.54H173.89V323.552H172.826V328.54H169.634V323.552H168.57V329.537ZM177.103 329.537L180.561 325.082V329.537H181.625V323.552H180.561L177.103 328.008V323.552H176.039V329.537H177.103ZM187.947 329.537H189.011V323.552H187.947V326.013H184.622V323.552H183.558V329.537H184.622V327.01H187.947V329.537ZM195.537 327.902C195.138 328.354 194.54 328.673 193.822 328.673C192.638 328.673 191.667 327.862 191.667 326.545C191.667 325.281 192.638 324.417 193.715 324.417C194.34 324.417 194.926 324.577 195.431 325.042L195.923 324.204C195.364 323.646 194.527 323.42 193.569 323.42C191.813 323.42 190.537 324.803 190.537 326.545C190.537 328.434 191.84 329.67 193.742 329.67C194.66 329.67 195.537 329.325 196.043 328.673L195.537 327.902ZM202.67 323.552H201.274L198.747 326.479L201.447 329.537H202.923L200.05 326.412L202.67 323.552ZM197.43 329.537H198.494V323.552H197.43V329.537ZM205.118 329.537L208.576 325.082V329.537H209.64V323.552H208.576L205.118 328.008V323.552H204.054V329.537H205.118ZM216.296 328.048C215.91 328.407 215.232 328.673 214.461 328.673C213.29 328.673 212.466 328.008 212.372 326.877H216.974C217.014 326.691 217.041 326.452 217.041 326.159C217.041 324.51 215.804 323.42 214.261 323.42C212.293 323.42 211.176 324.803 211.176 326.545C211.176 328.434 212.439 329.67 214.381 329.67C215.179 329.67 216.043 329.418 216.629 328.886L216.296 328.048ZM214.208 324.417C215.245 324.417 215.884 325.029 215.937 326.013H212.306C212.426 325.095 213.117 324.417 214.208 324.417ZM35.0221 336.852H33.8118L32.4286 340.643C32.3222 340.962 32.2291 341.268 32.1493 341.561C32.0296 341.255 31.9232 340.962 31.7902 340.656L30.0346 336.852H28.7578L31.6306 342.837L31.4976 343.157C31.0986 344.114 30.7262 344.513 30.2208 344.513C29.9814 344.513 29.7553 344.407 29.5558 344.314L29.21 345.125C29.5292 345.338 29.8883 345.497 30.3405 345.497C31.1917 345.497 31.7503 344.979 32.6281 342.837L35.0221 336.852ZM40.6109 336.852H39.5469V339.579C39.2809 339.765 38.7755 339.951 38.177 339.951C37.3657 339.951 36.8869 339.499 36.8869 338.542V336.852H35.7564V338.661C35.7564 340.204 36.448 340.949 37.8844 340.949C38.5494 340.949 39.1479 340.763 39.5469 340.51V342.837H40.6109V336.852ZM42.5317 345.497H43.5957V342.558C44.0213 342.837 44.6464 342.97 45.2848 342.97C47.1601 342.97 48.397 341.574 48.397 339.752C48.397 337.983 47.333 336.72 45.6306 336.72C44.806 336.72 44.008 337.079 43.5957 337.557V336.852H42.5317V345.497ZM45.3247 337.717C46.5616 337.717 47.2665 338.581 47.2665 339.792C47.2665 341.055 46.4685 341.973 45.1917 341.973C44.6198 341.973 44.1277 341.867 43.5957 341.507V338.542C43.9681 338.076 44.6198 337.717 45.3247 337.717ZM54.6436 341.348C54.2579 341.707 53.5796 341.973 52.8082 341.973C51.6378 341.973 50.8132 341.308 50.72 340.177H55.3219C55.3618 339.991 55.3884 339.752 55.3884 339.459C55.3884 337.81 54.1515 336.72 52.6087 336.72C50.6403 336.72 49.5231 338.103 49.5231 339.845C49.5231 341.734 50.7866 342.97 52.7284 342.97C53.5264 342.97 54.3909 342.718 54.9761 342.186L54.6436 341.348ZM52.5555 337.717C53.5929 337.717 54.2313 338.329 54.2845 339.313H50.6536C50.7733 338.395 51.4649 337.717 52.5555 337.717ZM64.2601 336.852H62.9434L60.8819 339.739L63.103 342.837H64.4197L62.0922 339.739L64.2601 336.852ZM59.5519 342.837H60.6159V336.852H59.5519V342.837ZM58.0756 339.739L55.788 342.837H57.0914L59.2859 339.739L57.2377 336.852H55.9077L58.0756 339.739ZM64.7094 344.3H65.7069V342.837H70.5481V344.3H71.5456V341.84H70.5481V336.852H66.465L66.3719 338.435C66.2655 340.071 65.8532 341.335 65.4542 341.84H64.7094V344.3ZM67.396 338.847L67.4625 337.85H69.4841V341.84H66.5847C66.864 341.468 67.263 340.377 67.396 338.847ZM77.425 341.348C77.0393 341.707 76.361 341.973 75.5896 341.973C74.4192 341.973 73.5946 341.308 73.5015 340.177H78.1033C78.1432 339.991 78.1698 339.752 78.1698 339.459C78.1698 337.81 76.9329 336.72 75.3901 336.72C73.4217 336.72 72.3045 338.103 72.3045 339.845C72.3045 341.734 73.568 342.97 75.5098 342.97C76.3078 342.97 77.1723 342.718 77.7575 342.186L77.425 341.348ZM75.3369 337.717C76.3743 337.717 77.0127 338.329 77.0659 339.313H73.435C73.5547 338.395 74.2463 337.717 75.3369 337.717ZM84.0023 342.837H85.0663V336.852H84.0023V339.313H80.6773V336.852H79.6133V342.837H80.6773V340.31H84.0023V342.837ZM88.0546 342.837L91.5126 338.382V342.837H92.5766V336.852H91.5126L88.0546 341.308V336.852H86.9906V342.837H88.0546ZM97.1306 336.852C95.1356 336.852 94.4576 337.823 94.4576 338.847C94.4576 339.832 95.1356 340.43 95.7474 340.576L94.0188 342.837H95.3085L96.7715 340.842H97.9286V342.837H98.9926V336.852H97.1306ZM95.5878 338.874C95.5878 338.315 95.9602 337.85 96.9577 337.85H97.9286V339.845H96.705C96.173 339.845 95.5878 339.486 95.5878 338.874Z" fill="#304960"/>
<path d="M267.194 265.947H22.8062C21.6584 265.947 20.728 266.877 20.728 268.025V304.6C20.728 305.748 21.6584 306.678 22.8062 306.678H267.194C268.341 306.678 269.272 305.748 269.272 304.6V268.025C269.272 266.877 268.341 265.947 267.194 265.947Z" fill="#E8F8FF" stroke="#17C5CC"/>
<path d="M243.919 283.819L248.906 288.806L253.894 283.819" stroke="#2884C9" stroke-linecap="round" stroke-linejoin="round"/>
<path d="M30.0215 290.469H31.152V282.981L34.4903 287.569H34.6632L37.9616 282.941V290.469H39.0921V281.159H38.0148L34.6632 285.933L31.1653 281.159H30.0215V290.469ZM46.1624 288.979C45.7767 289.338 45.0984 289.604 44.327 289.604C43.1566 289.604 42.332 288.939 42.2389 287.809H46.8407C46.8806 287.623 46.9072 287.383 46.9072 287.091C46.9072 285.441 45.6703 284.351 44.1275 284.351C42.1591 284.351 41.0419 285.734 41.0419 287.476C41.0419 289.365 42.3054 290.602 44.2472 290.602C45.0452 290.602 45.9097 290.349 46.4949 289.817L46.1624 288.979ZM44.0743 285.348C45.1117 285.348 45.7501 285.96 45.8033 286.944H42.1724C42.2921 286.027 42.9837 285.348 44.0743 285.348ZM47.2923 291.932H48.2898V290.469H53.131V291.932H54.1285V289.471H53.131V284.484H49.0479L48.9548 286.066C48.8484 287.702 48.4361 288.966 48.0371 289.471H47.2923V291.932ZM49.9789 286.479L50.0454 285.481H52.067V289.471H49.1676C49.4469 289.099 49.8459 288.008 49.9789 286.479ZM56.3504 290.469L59.8084 286.013V290.469H60.8724V284.484H59.8084L56.3504 288.939V284.484H55.2864V290.469H56.3504ZM62.8066 290.469H68.1266V291.932H69.1242V289.471H68.1266V284.484H67.0626V289.471H63.8706V284.484H62.8066V290.469ZM71.3389 290.469L74.7968 286.013V290.469H75.8609V284.484H74.7968L71.3389 288.939V284.484H70.2749V290.469H71.3389ZM82.1841 290.469H83.2481V284.484H82.1841V286.944H78.8591V284.484H77.7951V290.469H78.8591V287.942H82.1841V290.469ZM89.7742 288.833C89.3752 289.285 88.7767 289.604 88.0585 289.604C86.8748 289.604 85.9039 288.793 85.9039 287.476C85.9039 286.213 86.8748 285.348 87.9521 285.348C88.5772 285.348 89.1624 285.508 89.6678 285.973L90.1599 285.135C89.6013 284.577 88.7634 284.351 87.8058 284.351C86.0502 284.351 84.7734 285.734 84.7734 287.476C84.7734 289.365 86.0768 290.602 87.9787 290.602C88.8964 290.602 89.7742 290.256 90.2796 289.604L89.7742 288.833ZM96.9072 284.484H95.5107L92.9833 287.41L95.6836 290.469H97.1599L94.2867 287.343L96.9072 284.484ZM91.6666 290.469H92.7306V284.484H91.6666V290.469ZM98.6096 285.747C99.0884 285.495 99.5273 285.308 100.259 285.308C101.442 285.308 101.615 286.08 101.615 287.197C101.216 286.904 100.591 286.811 100.126 286.811C98.8357 286.811 97.8648 287.49 97.8648 288.713C97.8648 289.87 98.6096 290.562 99.7002 290.562C100.684 290.562 101.256 290.15 101.615 289.697V290.469H102.626V286.798C102.626 285.242 102.028 284.351 100.325 284.351C99.5805 284.351 98.8623 284.564 98.3303 284.896L98.6096 285.747ZM100.073 289.604C99.381 289.604 98.9953 289.232 98.9953 288.66C98.9953 287.968 99.6337 287.676 100.272 287.676C100.791 287.676 101.243 287.809 101.615 288.075V288.833C101.309 289.192 100.857 289.604 100.073 289.604ZM107.028 284.484C105.033 284.484 104.355 285.455 104.355 286.479C104.355 287.463 105.033 288.061 105.645 288.208L103.916 290.469H105.206L106.669 288.474H107.826V290.469H108.89V284.484H107.028ZM105.486 286.505C105.486 285.947 105.858 285.481 106.856 285.481H107.826V287.476H106.603C106.071 287.476 105.486 287.117 105.486 286.505ZM118.134 290.469H119.198V284.484H113.811V290.469H114.875V285.481H118.134V290.469ZM120.725 287.476C120.725 289.272 122.002 290.602 123.917 290.602C125.832 290.602 127.109 289.272 127.109 287.476C127.109 285.681 125.832 284.351 123.917 284.351C122.002 284.351 120.725 285.681 120.725 287.476ZM121.855 287.476C121.855 286.213 122.747 285.348 123.917 285.348C125.114 285.348 125.978 286.226 125.978 287.476C125.978 288.753 125.114 289.604 123.917 289.604C122.72 289.604 121.855 288.726 121.855 287.476ZM128.644 290.469H129.708V286.106L131.863 288.886H131.903L133.978 286.106V290.469H135.042V284.484H134.097L131.916 287.45L129.615 284.484H128.644V290.469ZM136.571 287.476C136.571 289.272 137.848 290.602 139.763 290.602C141.678 290.602 142.955 289.272 142.955 287.476C142.955 285.681 141.678 284.351 139.763 284.351C137.848 284.351 136.571 285.681 136.571 287.476ZM137.702 287.476C137.702 286.213 138.593 285.348 139.763 285.348C140.96 285.348 141.825 286.226 141.825 287.476C141.825 288.753 140.96 289.604 139.763 289.604C138.566 289.604 137.702 288.726 137.702 287.476ZM144.49 290.469H152.071V291.932H153.068V289.471H152.071V284.484H151.007V289.471H148.812V284.484H147.748V289.471H145.554V284.484H144.49V290.469ZM154.231 290.469H156.253C158.141 290.469 158.753 289.391 158.753 288.341C158.753 287.277 158.221 286.279 156.386 286.279H155.295V284.484H154.231V290.469ZM156.186 287.277C157.21 287.277 157.623 287.662 157.623 288.381C157.623 289.086 157.224 289.471 156.173 289.471H155.295V287.277H156.186Z" fill="#304960"/>
<path d="M267.194 120.478H22.8062C21.6584 120.478 20.728 121.409 20.728 122.556V258.881C20.728 260.029 21.6584 260.959 22.8062 260.959H267.194C268.341 260.959 269.272 260.029 269.272 258.881V122.556C269.272 121.409 268.341 120.478 267.194 120.478Z" fill="#E8F8FF" stroke="#17C5CC"/>
<path d="M61.4361 247.151C60.7977 247.669 59.9465 247.975 59.0554 247.975C56.9008 247.975 55.4245 246.472 55.4245 244.251C55.4245 242.043 56.8609 240.527 58.8825 240.527C59.8534 240.527 60.5716 240.767 61.1834 241.219L61.7021 240.368C61.0371 239.796 60.0662 239.463 58.8692 239.463C55.9565 239.463 54.2275 241.578 54.2275 244.251C54.2275 247.151 56.156 249.039 58.949 249.039C60.1061 249.039 61.2632 248.64 61.8883 248.002L61.4361 247.151ZM63.2483 248.906H64.3123V244.544L66.4669 247.324H66.5068L68.5816 244.544V248.906H69.6456V242.921H68.7013L66.5201 245.887L64.2192 242.921H63.2483V248.906ZM76.2952 247.417C75.9095 247.776 75.2312 248.042 74.4598 248.042C73.2894 248.042 72.4648 247.377 72.3717 246.246H76.9735C77.0134 246.06 77.04 245.821 77.04 245.528C77.04 243.879 75.8031 242.788 74.2603 242.788C72.2919 242.788 71.1747 244.171 71.1747 245.914C71.1747 247.802 72.4382 249.039 74.38 249.039C75.178 249.039 76.0425 248.787 76.6277 248.255L76.2952 247.417ZM74.2071 243.786C75.2445 243.786 75.8829 244.398 75.9361 245.382H72.3052C72.4249 244.464 73.1165 243.786 74.2071 243.786ZM82.8725 248.906H83.9365V242.921H82.8725V245.382H79.5475V242.921H78.4835V248.906H79.5475V246.379H82.8725V248.906ZM86.9248 248.906L90.3828 244.451V248.906H91.4468V242.921H90.3828L86.9248 247.377V242.921H85.8608V248.906H86.9248ZM92.623 243.985H94.8175V248.906H95.8815V243.985H98.076V242.921H92.623V243.985ZM99.2389 248.906H101.26C103.149 248.906 103.761 247.829 103.761 246.778C103.761 245.714 103.229 244.717 101.393 244.717H100.303V242.921H99.2389V248.906ZM101.194 245.714C102.218 245.714 102.63 246.1 102.63 246.818C102.63 247.523 102.231 247.909 101.181 247.909H100.303V245.714H101.194ZM112.497 248.906H113.561V242.921H108.175V248.906H109.239V243.919H112.497V248.906ZM115.088 245.914C115.088 247.709 116.365 249.039 118.28 249.039C120.196 249.039 121.472 247.709 121.472 245.914C121.472 244.118 120.196 242.788 118.28 242.788C116.365 242.788 115.088 244.118 115.088 245.914ZM116.219 245.914C116.219 244.65 117.11 243.786 118.28 243.786C119.477 243.786 120.342 244.664 120.342 245.914C120.342 247.191 119.477 248.042 118.28 248.042C117.083 248.042 116.219 247.164 116.219 245.914ZM127.609 247.27C127.21 247.723 126.612 248.042 125.894 248.042C124.71 248.042 123.739 247.23 123.739 245.914C123.739 244.65 124.71 243.786 125.787 243.786C126.412 243.786 126.998 243.945 127.503 244.411L127.995 243.573C127.437 243.014 126.599 242.788 125.641 242.788C123.885 242.788 122.609 244.171 122.609 245.914C122.609 247.802 123.912 249.039 125.814 249.039C126.732 249.039 127.609 248.693 128.115 248.042L127.609 247.27ZM128.665 243.985H130.86V248.906H131.924V243.985H134.118V242.921H128.665V243.985ZM139.808 247.417C139.422 247.776 138.744 248.042 137.973 248.042C136.802 248.042 135.978 247.377 135.885 246.246H140.486C140.526 246.06 140.553 245.821 140.553 245.528C140.553 243.879 139.316 242.788 137.773 242.788C135.805 242.788 134.688 244.171 134.688 245.914C134.688 247.802 135.951 249.039 137.893 249.039C138.691 249.039 139.555 248.787 140.141 248.255L139.808 247.417ZM137.72 243.786C138.757 243.786 139.396 244.398 139.449 245.382H135.818C135.938 244.464 136.629 243.786 137.72 243.786ZM145.859 248.906H146.923V242.921H142.76L142.653 244.783C142.507 247.55 141.656 247.989 141.204 247.949L141.284 248.986C142.52 248.986 143.425 248.401 143.691 244.996L143.757 243.985H145.859V248.906ZM148.841 248.906H150.863C152.751 248.906 153.363 247.829 153.363 246.778C153.363 245.714 152.831 244.717 150.996 244.717H149.905V242.921H148.841V248.906ZM150.796 245.714C151.82 245.714 152.233 246.1 152.233 246.818C152.233 247.523 151.834 247.909 150.783 247.909H149.905V245.714H150.796ZM159.179 248.906H160.243V242.921H159.179V245.382H155.854V242.921H154.79V248.906H155.854V246.379H159.179V248.906ZM161.768 245.914C161.768 247.709 163.045 249.039 164.96 249.039C166.875 249.039 168.152 247.709 168.152 245.914C168.152 244.118 166.875 242.788 164.96 242.788C163.045 242.788 161.768 244.118 161.768 245.914ZM162.899 245.914C162.899 244.65 163.79 243.786 164.96 243.786C166.157 243.786 167.022 244.664 167.022 245.914C167.022 247.191 166.157 248.042 164.96 248.042C163.763 248.042 162.899 247.164 162.899 245.914ZM174.409 247.417C174.023 247.776 173.345 248.042 172.573 248.042C171.403 248.042 170.578 247.377 170.485 246.246H175.087C175.127 246.06 175.154 245.821 175.154 245.528C175.154 243.879 173.917 242.788 172.374 242.788C170.406 242.788 169.288 244.171 169.288 245.914C169.288 247.802 170.552 249.039 172.494 249.039C173.292 249.039 174.156 248.787 174.741 248.255L174.409 247.417ZM172.321 243.786C173.358 243.786 173.997 244.398 174.05 245.382H170.419C170.539 244.464 171.23 243.786 172.321 243.786ZM184.213 239.463C183.601 240.261 182.776 239.889 181.38 240.487C179.478 241.285 179.159 243.546 179.159 245.315C179.159 247.616 180.382 249.039 182.324 249.039C184.146 249.039 185.396 247.643 185.396 245.967C185.396 244.171 184.332 242.988 182.617 242.988C181.606 242.988 180.635 243.546 180.249 244.384H180.223C180.302 243.267 180.622 242.004 181.739 241.498C183.055 240.9 184.053 241.285 184.784 240.301L184.213 239.463ZM180.289 245.515C180.475 244.743 181.22 243.985 182.351 243.985C183.587 243.985 184.266 244.85 184.266 246.02C184.266 247.137 183.468 248.042 182.297 248.042C181.114 248.042 180.289 247.058 180.289 245.515ZM191.644 247.417C191.258 247.776 190.58 248.042 189.809 248.042C188.638 248.042 187.814 247.377 187.72 246.246H192.322C192.362 246.06 192.389 245.821 192.389 245.528C192.389 243.879 191.152 242.788 189.609 242.788C187.641 242.788 186.523 244.171 186.523 245.914C186.523 247.802 187.787 249.039 189.729 249.039C190.527 249.039 191.391 248.787 191.976 248.255L191.644 247.417ZM189.556 243.786C190.593 243.786 191.232 244.398 191.285 245.382H187.654C187.774 244.464 188.465 243.786 189.556 243.786ZM197.695 248.906H198.759V242.921H194.596L194.49 244.783C194.344 247.55 193.493 247.989 193.04 247.949L193.12 248.986C194.357 248.986 195.262 248.401 195.528 244.996L195.594 243.985H197.695V248.906ZM200.677 248.906H202.699C204.587 248.906 205.199 247.829 205.199 246.778C205.199 245.714 204.667 244.717 202.832 244.717H201.741V242.921H200.677V248.906ZM202.632 245.714C203.656 245.714 204.069 246.1 204.069 246.818C204.069 247.523 203.67 247.909 202.619 247.909H201.741V245.714H202.632ZM211.27 247.417C210.884 247.776 210.206 248.042 209.434 248.042C208.264 248.042 207.439 247.377 207.346 246.246H211.948C211.988 246.06 212.015 245.821 212.015 245.528C212.015 243.879 210.778 242.788 209.235 242.788C207.266 242.788 206.149 244.171 206.149 245.914C206.149 247.802 207.413 249.039 209.355 249.039C210.153 249.039 211.017 248.787 211.602 248.255L211.27 247.417ZM209.182 243.786C210.219 243.786 210.857 244.398 210.911 245.382H207.28C207.399 244.464 208.091 243.786 209.182 243.786ZM207.2 240.793C207.2 241.219 207.479 241.458 207.825 241.458C208.118 241.458 208.41 241.219 208.41 240.793C208.41 240.421 208.118 240.181 207.825 240.181C207.479 240.181 207.2 240.421 207.2 240.793ZM209.9 240.793C209.9 241.219 210.192 241.458 210.538 241.458C210.831 241.458 211.123 241.219 211.123 240.793C211.123 240.421 210.831 240.181 210.538 240.181C210.192 240.181 209.9 240.421 209.9 240.793Z" fill="#2884C9"/>
<path d="M36.9375 253.062C41.5283 253.062 45.25 249.341 45.25 244.75C45.25 240.159 41.5283 236.438 36.9375 236.438C32.3467 236.438 28.625 240.159 28.625 244.75C28.625 249.341 32.3467 253.062 36.9375 253.062Z" fill="#2884C9"/>
<path d="M36.9375 241.425V248.075" stroke="#E8F8FF" stroke-linecap="round" stroke-linejoin="round"/>
<path d="M33.6123 244.75H40.2623" stroke="#E8F8FF" stroke-linecap="round" stroke-linejoin="round"/>
<path d="M61.1435 215.656H62.274V206.346H54.959V215.656H56.0895V207.41H61.1435V215.656ZM64.226 212.664C64.226 214.459 65.5028 215.789 67.418 215.789C69.3332 215.789 70.61 214.459 70.61 212.664C70.61 210.868 69.3332 209.538 67.418 209.538C65.5028 209.538 64.226 210.868 64.226 212.664ZM65.3565 212.664C65.3565 211.4 66.2476 210.536 67.418 210.536C68.615 210.536 69.4795 211.414 69.4795 212.664C69.4795 213.941 68.615 214.792 67.418 214.792C66.221 214.792 65.3565 213.914 65.3565 212.664ZM72.1452 215.656H73.2092V211.294L75.3638 214.074H75.4037L77.4785 211.294V215.656H78.5425V209.671H77.5982L75.417 212.637L73.1161 209.671H72.1452V215.656ZM80.0717 212.664C80.0717 214.459 81.3485 215.789 83.2637 215.789C85.1789 215.789 86.4557 214.459 86.4557 212.664C86.4557 210.868 85.1789 209.538 83.2637 209.538C81.3485 209.538 80.0717 210.868 80.0717 212.664ZM81.2022 212.664C81.2022 211.4 82.0933 210.536 83.2637 210.536C84.4607 210.536 85.3252 211.414 85.3252 212.664C85.3252 213.941 84.4607 214.792 83.2637 214.792C82.0667 214.792 81.2022 213.914 81.2022 212.664ZM92.4863 209.671H91.4223V212.398C91.1563 212.584 90.6509 212.77 90.0524 212.77C89.2411 212.77 88.7623 212.318 88.7623 211.36V209.671H87.6318V211.48C87.6318 213.023 88.3234 213.768 89.7598 213.768C90.4248 213.768 91.0233 213.581 91.4223 213.329V215.656H92.4863V209.671ZM94.4071 215.656H96.4284C98.317 215.656 98.9288 214.579 98.9288 213.528C98.9288 212.464 98.3968 211.467 96.5614 211.467H95.4708V209.671H94.4071V215.656ZM96.3619 212.464C97.386 212.464 97.7983 212.85 97.7983 213.568C97.7983 214.273 97.3993 214.659 96.3486 214.659H95.4708V212.464H96.3619ZM108.782 209.671H107.572L106.189 213.462C106.083 213.781 105.989 214.087 105.91 214.379C105.79 214.074 105.684 213.781 105.551 213.475L103.795 209.671H102.518L105.391 215.656L105.258 215.975C104.859 216.933 104.487 217.332 103.981 217.332C103.742 217.332 103.516 217.226 103.316 217.133L102.97 217.944C103.29 218.157 103.649 218.316 104.101 218.316C104.952 218.316 105.511 217.798 106.388 215.656L108.782 209.671ZM109.876 215.656H110.94V211.294L113.095 214.074H113.135L115.21 211.294V215.656H116.274V209.671H115.329L113.148 212.637L110.847 209.671H109.876V215.656ZM118.201 215.656H120.13C122.005 215.656 122.617 214.579 122.617 213.528C122.617 212.464 122.085 211.467 120.25 211.467H119.265V209.671H118.201V215.656ZM123.761 215.656H124.825V209.671H123.761V215.656ZM120.05 212.464C121.074 212.464 121.486 212.85 121.486 213.568C121.486 214.273 121.101 214.659 120.037 214.659H119.265V212.464H120.05ZM125.977 210.735H128.171V215.656H129.235V210.735H131.43V209.671H125.977V210.735ZM132.593 215.656H134.614C136.503 215.656 137.115 214.579 137.115 213.528C137.115 212.464 136.583 211.467 134.747 211.467H133.657V209.671H132.593V215.656ZM134.548 212.464C135.572 212.464 135.984 212.85 135.984 213.568C135.984 214.273 135.585 214.659 134.535 214.659H133.657V212.464H134.548ZM143.065 214.02C142.666 214.473 142.067 214.792 141.349 214.792C140.165 214.792 139.195 213.98 139.195 212.664C139.195 211.4 140.165 210.536 141.243 210.536C141.868 210.536 142.453 210.695 142.958 211.161L143.451 210.323C142.892 209.764 142.054 209.538 141.096 209.538C139.341 209.538 138.064 210.921 138.064 212.664C138.064 214.552 139.367 215.789 141.269 215.789C142.187 215.789 143.065 215.443 143.57 214.792L143.065 214.02ZM147.292 209.671C145.297 209.671 144.618 210.642 144.618 211.666C144.618 212.65 145.297 213.249 145.909 213.395L144.18 215.656H145.47L146.933 213.661H148.09V215.656H149.154V209.671H147.292ZM145.749 211.693C145.749 211.134 146.121 210.669 147.119 210.669H148.09V212.664H146.866C146.334 212.664 145.749 212.305 145.749 211.693ZM150.849 215.044C150.849 215.39 151.088 215.656 151.354 215.656C151.46 215.656 151.58 215.643 151.647 215.537C151.713 215.656 151.74 215.856 151.66 216.202C151.54 216.694 151.168 216.973 150.809 217.093L151.101 217.598C151.966 217.345 152.564 216.627 152.564 215.63C152.564 214.845 152.165 214.34 151.607 214.34C151.115 214.34 150.849 214.632 150.849 215.044ZM160.761 215.656H161.825V209.671H156.439V215.656H157.503V210.669H160.761V215.656ZM163.751 218.316H164.815V215.377C165.241 215.656 165.866 215.789 166.504 215.789C168.38 215.789 169.617 214.393 169.617 212.571C169.617 210.802 168.553 209.538 166.85 209.538C166.026 209.538 165.228 209.897 164.815 210.376V209.671H163.751V218.316ZM166.544 210.536C167.781 210.536 168.486 211.4 168.486 212.611C168.486 213.874 167.688 214.792 166.411 214.792C165.839 214.792 165.347 214.685 164.815 214.326V211.36C165.188 210.895 165.839 210.536 166.544 210.536ZM172.206 215.656L175.664 211.201V215.656H176.728V209.671H175.664L172.206 214.127V209.671H171.142V215.656H172.206ZM183.158 209.671H182.094V212.398C181.828 212.584 181.322 212.77 180.724 212.77C179.912 212.77 179.434 212.318 179.434 211.36V209.671H178.303V211.48C178.303 213.023 178.995 213.768 180.431 213.768C181.096 213.768 181.695 213.581 182.094 213.329V215.656H183.158V209.671ZM189.8 214.167C189.414 214.526 188.736 214.792 187.965 214.792C186.794 214.792 185.97 214.127 185.876 212.996H190.479C190.518 212.81 190.545 212.571 190.545 212.278C190.545 210.629 189.308 209.538 187.765 209.538C185.797 209.538 184.68 210.921 184.68 212.664C184.68 214.552 185.943 215.789 187.885 215.789C188.683 215.789 189.547 215.537 190.133 215.005L189.8 214.167ZM187.712 210.536C188.749 210.536 189.388 211.148 189.441 212.132H185.81C185.93 211.214 186.621 210.536 187.712 210.536ZM196.512 214.02C196.113 214.473 195.514 214.792 194.796 214.792C193.612 214.792 192.641 213.98 192.641 212.664C192.641 211.4 193.612 210.536 194.69 210.536C195.315 210.536 195.9 210.695 196.405 211.161L196.897 210.323C196.339 209.764 195.501 209.538 194.543 209.538C192.788 209.538 191.511 210.921 191.511 212.664C191.511 214.552 192.814 215.789 194.716 215.789C195.634 215.789 196.512 215.443 197.017 214.792L196.512 214.02ZM198.724 210.935C199.202 210.682 199.641 210.496 200.373 210.496C201.557 210.496 201.729 211.267 201.729 212.384C201.33 212.092 200.705 211.999 200.24 211.999C198.95 211.999 197.979 212.677 197.979 213.901C197.979 215.058 198.724 215.749 199.814 215.749C200.798 215.749 201.37 215.337 201.729 214.885V215.656H202.74V211.985C202.74 210.429 202.142 209.538 200.439 209.538C199.695 209.538 198.976 209.751 198.444 210.084L198.724 210.935ZM200.187 214.792C199.495 214.792 199.109 214.419 199.109 213.847C199.109 213.156 199.748 212.863 200.386 212.863C200.905 212.863 201.357 212.996 201.729 213.262V214.02C201.424 214.379 200.971 214.792 200.187 214.792ZM203.764 210.735H205.958V215.656H207.022V210.735H209.217V209.671H203.764V210.735ZM210.379 215.656H212.401C214.29 215.656 214.901 214.579 214.901 213.528C214.901 212.464 214.369 211.467 212.534 211.467H211.443V209.671H210.379V215.656ZM212.335 212.464C213.359 212.464 213.771 212.85 213.771 213.568C213.771 214.273 213.372 214.659 212.321 214.659H211.443V212.464H212.335Z" fill="#2884C9"/>
<path d="M36.9375 219.812C41.5283 219.812 45.25 216.091 45.25 211.5C45.25 206.909 41.5283 203.188 36.9375 203.188C32.3467 203.188 28.625 206.909 28.625 211.5C28.625 216.091 32.3467 219.812 36.9375 219.812Z" fill="#2884C9"/>
<path d="M36.9375 208.175V214.825" stroke="#E8F8FF" stroke-linecap="round" stroke-linejoin="round"/>
<path d="M33.6123 211.5H40.2623" stroke="#E8F8FF" stroke-linecap="round" stroke-linejoin="round"/>
<path d="M61.1435 182.406H62.274V173.096H54.959V182.406H56.0895V174.16H61.1435V182.406ZM64.226 179.414C64.226 181.209 65.5028 182.539 67.418 182.539C69.3332 182.539 70.61 181.209 70.61 179.414C70.61 177.618 69.3332 176.288 67.418 176.288C65.5028 176.288 64.226 177.618 64.226 179.414ZM65.3565 179.414C65.3565 178.15 66.2476 177.286 67.418 177.286C68.615 177.286 69.4795 178.164 69.4795 179.414C69.4795 180.691 68.615 181.542 67.418 181.542C66.221 181.542 65.3565 180.664 65.3565 179.414ZM72.1452 182.406H73.2092V178.044L75.3638 180.824H75.4037L77.4785 178.044V182.406H78.5425V176.421H77.5982L75.417 179.387L73.1161 176.421H72.1452V182.406ZM80.0717 179.414C80.0717 181.209 81.3485 182.539 83.2637 182.539C85.1789 182.539 86.4557 181.209 86.4557 179.414C86.4557 177.618 85.1789 176.288 83.2637 176.288C81.3485 176.288 80.0717 177.618 80.0717 179.414ZM81.2022 179.414C81.2022 178.15 82.0933 177.286 83.2637 177.286C84.4607 177.286 85.3252 178.164 85.3252 179.414C85.3252 180.691 84.4607 181.542 83.2637 181.542C82.0667 181.542 81.2022 180.664 81.2022 179.414ZM92.4863 176.421H91.4223V179.148C91.1563 179.334 90.6509 179.52 90.0524 179.52C89.2411 179.52 88.7623 179.068 88.7623 178.11V176.421H87.6318V178.23C87.6318 179.773 88.3234 180.518 89.7598 180.518C90.4248 180.518 91.0233 180.331 91.4223 180.079V182.406H92.4863V176.421ZM94.4071 182.406H96.4284C98.317 182.406 98.9288 181.329 98.9288 180.278C98.9288 179.214 98.3968 178.217 96.5614 178.217H95.4708V176.421H94.4071V182.406ZM96.3619 179.214C97.386 179.214 97.7983 179.6 97.7983 180.318C97.7983 181.023 97.3993 181.409 96.3486 181.409H95.4708V179.214H96.3619ZM107.665 182.406H108.729V176.421H103.343V182.406H104.407V177.419H107.665V182.406ZM110.655 185.066H111.719V182.127C112.145 182.406 112.77 182.539 113.408 182.539C115.284 182.539 116.521 181.143 116.521 179.321C116.521 177.552 115.457 176.288 113.754 176.288C112.93 176.288 112.132 176.647 111.719 177.126V176.421H110.655V185.066ZM113.448 177.286C114.685 177.286 115.39 178.15 115.39 179.361C115.39 180.624 114.592 181.542 113.315 181.542C112.743 181.542 112.251 181.435 111.719 181.076V178.11C112.092 177.645 112.743 177.286 113.448 177.286ZM119.11 182.406L122.568 177.951V182.406H123.632V176.421H122.568L119.11 180.877V176.421H118.046V182.406H119.11ZM129.955 182.406H131.019V176.421H129.955V178.882H126.63V176.421H125.566V182.406H126.63V179.879H129.955V182.406ZM135.564 176.421C133.569 176.421 132.89 177.392 132.89 178.416C132.89 179.4 133.569 179.999 134.18 180.145L132.451 182.406H133.742L135.205 180.411H136.362V182.406H137.426V176.421H135.564ZM134.021 178.443C134.021 177.884 134.393 177.419 135.391 177.419H136.362V179.414H135.138C134.606 179.414 134.021 179.055 134.021 178.443ZM138.602 177.485H140.796V182.406H141.86V177.485H144.055V176.421H138.602V177.485ZM145.217 182.406H147.239C149.127 182.406 149.739 181.329 149.739 180.278C149.739 179.214 149.207 178.217 147.372 178.217H146.281V176.421H145.217V182.406ZM147.172 179.214C148.196 179.214 148.608 179.6 148.608 180.318C148.608 181.023 148.209 181.409 147.159 181.409H146.281V179.214H147.172ZM153.328 183.869H154.326V182.406H159.167V183.869H160.164V181.409H159.167V176.421H155.084L154.991 178.004C154.884 179.64 154.472 180.903 154.073 181.409H153.328V183.869ZM156.015 178.416L156.081 177.419H158.103V181.409H155.204C155.483 181.036 155.882 179.946 156.015 178.416ZM166.762 176.421H165.552L164.169 180.212C164.062 180.531 163.969 180.837 163.889 181.129C163.77 180.824 163.663 180.531 163.53 180.225L161.775 176.421H160.498L163.371 182.406L163.238 182.725C162.839 183.683 162.466 184.082 161.961 184.082C161.721 184.082 161.495 183.976 161.296 183.883L160.95 184.694C161.269 184.907 161.628 185.066 162.081 185.066C162.932 185.066 163.49 184.548 164.368 182.406L166.762 176.421ZM167.856 182.406H175.437V176.421H174.373V181.409H172.179V176.421H171.115V181.409H168.92V176.421H167.856V182.406ZM178.994 184.867L179.832 185.173L184.247 173.269L183.423 172.963L178.994 184.867ZM187.793 182.406C188.338 182.406 189.242 182.459 189.987 182.459C191.849 182.459 192.74 181.848 192.74 180.717C192.74 179.972 192.301 179.48 191.344 179.307V179.281C192.062 179.174 192.541 178.616 192.541 177.911C192.541 176.834 191.636 176.368 189.961 176.368C189.096 176.368 188.311 176.421 187.793 176.421V182.406ZM190.134 179.72C191.091 179.72 191.61 180.012 191.61 180.637C191.61 181.262 191.065 181.595 190.08 181.595C189.602 181.595 189.176 181.568 188.857 181.555V179.72H190.134ZM190.04 177.233C190.812 177.233 191.41 177.472 191.41 178.124C191.41 178.709 190.905 179.055 190.2 179.055H188.857V177.272C189.123 177.259 189.562 177.233 190.04 177.233ZM194.684 177.685C195.163 177.432 195.602 177.246 196.333 177.246C197.517 177.246 197.69 178.017 197.69 179.134C197.291 178.842 196.666 178.749 196.2 178.749C194.91 178.749 193.939 179.427 193.939 180.651C193.939 181.808 194.684 182.499 195.774 182.499C196.759 182.499 197.331 182.087 197.69 181.635V182.406H198.7V178.735C198.7 177.179 198.102 176.288 196.4 176.288C195.655 176.288 194.937 176.501 194.405 176.834L194.684 177.685ZM196.147 181.542C195.455 181.542 195.07 181.169 195.07 180.597C195.07 179.906 195.708 179.613 196.346 179.613C196.865 179.613 197.317 179.746 197.69 180.012V180.77C197.384 181.129 196.932 181.542 196.147 181.542ZM204.872 182.406H205.936V176.421H204.872V178.882H201.547V176.421H200.483V182.406H201.547V179.879H204.872V182.406ZM212.249 182.406H213.313V176.421H212.249V178.882H208.924V176.421H207.86V182.406H208.924V179.879H212.249V182.406ZM220.677 176.421H219.467L218.083 180.212C217.977 180.531 217.884 180.837 217.804 181.129C217.684 180.824 217.578 180.531 217.445 180.225L215.689 176.421H214.413L217.285 182.406L217.152 182.725C216.753 183.683 216.381 184.082 215.876 184.082C215.636 184.082 215.41 183.976 215.211 183.883L214.865 184.694C215.184 184.907 215.543 185.066 215.995 185.066C216.847 185.066 217.405 184.548 218.283 182.406L220.677 176.421Z" fill="#2884C9"/>
<path d="M36.9375 186.562C41.5283 186.562 45.25 182.841 45.25 178.25C45.25 173.659 41.5283 169.938 36.9375 169.938C32.3467 169.938 28.625 173.659 28.625 178.25C28.625 182.841 32.3467 186.562 36.9375 186.562Z" fill="#2884C9"/>
<path d="M36.9375 174.925V181.575" stroke="#E8F8FF" stroke-linecap="round" stroke-linejoin="round"/>
<path d="M33.6123 178.25H40.2623" stroke="#E8F8FF" stroke-linecap="round" stroke-linejoin="round"/>
<path d="M253.894 143.337L248.906 138.35L243.919 143.337" stroke="#2884C9" stroke-linecap="round" stroke-linejoin="round"/>
<path d="M30.0215 145H31.152V136.754H35.2085V135.69H30.0215V145ZM35.6082 145L39.0661 140.544V145H40.1301V139.015H39.0661L35.6082 143.47V139.015H34.5441V145H35.6082ZM42.0643 145H43.1283V140.012H45.8548V139.015H42.0643V145ZM47.947 145L51.405 140.544V145H52.469V139.015H51.405L47.947 143.47V139.015H46.883V145H47.947ZM59.1247 143.51C58.739 143.869 58.0607 144.135 57.2893 144.135C56.1189 144.135 55.2943 143.47 55.2012 142.34H59.803C59.8429 142.154 59.8695 141.914 59.8695 141.622C59.8695 139.973 58.6326 138.882 57.0898 138.882C55.1214 138.882 54.0042 140.265 54.0042 142.007C54.0042 143.896 55.2677 145.133 57.2095 145.133C58.0075 145.133 58.872 144.88 59.4572 144.348L59.1247 143.51ZM57.0366 139.879C58.074 139.879 58.7124 140.491 58.7656 141.475H55.1347C55.2544 140.558 55.946 139.879 57.0366 139.879ZM65.702 145H66.766V139.015H65.702V141.475H62.377V139.015H61.313V145H62.377V142.473H65.702V145ZM69.7543 145L73.2123 140.544V145H74.2763V139.015H73.2123L69.7543 143.47V139.015H68.6903V145H69.7543ZM80.706 139.015H79.642V141.741C79.376 141.928 78.8706 142.114 78.2721 142.114C77.4608 142.114 76.982 141.662 76.982 140.704V139.015H75.8515V140.824C75.8515 142.367 76.5431 143.111 77.9795 143.111C78.6445 143.111 79.243 142.925 79.642 142.672V145H80.706V139.015ZM87.3482 143.51C86.9625 143.869 86.2842 144.135 85.5128 144.135C84.3424 144.135 83.5178 143.47 83.4247 142.34H88.0265C88.0664 142.154 88.093 141.914 88.093 141.622C88.093 139.973 86.8561 138.882 85.3133 138.882C83.3449 138.882 82.2277 140.265 82.2277 142.007C82.2277 143.896 83.4912 145.133 85.433 145.133C86.231 145.133 87.0955 144.88 87.6807 144.348L87.3482 143.51ZM85.2601 139.879C86.2975 139.879 86.9359 140.491 86.9891 141.475H83.3582C83.4779 140.558 84.1695 139.879 85.2601 139.879ZM94.0604 143.364C93.6614 143.816 93.0629 144.135 92.3447 144.135C91.161 144.135 90.1901 143.324 90.1901 142.007C90.1901 140.744 91.161 139.879 92.2383 139.879C92.8634 139.879 93.4486 140.039 93.954 140.505L94.4461 139.667C93.8875 139.108 93.0496 138.882 92.092 138.882C90.3364 138.882 89.0596 140.265 89.0596 142.007C89.0596 143.896 90.363 145.133 92.2649 145.133C93.1826 145.133 94.0604 144.787 94.5658 144.135L94.0604 143.364ZM101.193 139.015H99.7966L97.2696 141.941L99.9695 145H101.446L98.573 141.874L101.193 139.015ZM95.9529 145H97.0169V139.015H95.9529V145ZM103.641 145L107.099 140.544V145H108.163V139.015H107.099L103.641 143.47V139.015H102.577V145H103.641ZM111.161 145L114.619 140.544V145H115.683V139.015H114.619L111.161 143.47V139.015H110.097V145H111.161ZM110.948 135.956C110.948 137.007 111.653 137.818 112.969 137.818C114.166 137.818 114.938 137.007 114.938 135.956H113.94C113.887 136.674 113.555 137.007 112.969 137.007C112.331 137.007 111.999 136.674 111.945 135.956H110.948ZM126.044 139.015H124.834L123.451 142.805C123.344 143.125 123.251 143.431 123.171 143.723C123.052 143.417 122.945 143.125 122.812 142.819L121.057 139.015H119.78L122.653 145L122.52 145.319C122.121 146.277 121.748 146.676 121.243 146.676C121.003 146.676 120.777 146.569 120.578 146.476L120.232 147.288C120.551 147.5 120.91 147.66 121.363 147.66C122.214 147.66 122.772 147.141 123.65 145L126.044 139.015ZM132.341 139.015H131.104L129.455 141.276L127.832 139.015H126.529L128.657 141.954L126.396 145H127.633L129.415 142.579L131.17 145H132.474L130.2 141.901L132.341 139.015ZM133.038 142.007C133.038 143.803 134.315 145.133 136.23 145.133C138.145 145.133 139.422 143.803 139.422 142.007C139.422 140.212 138.145 138.882 136.23 138.882C134.315 138.882 133.038 140.212 133.038 142.007ZM134.169 142.007C134.169 140.744 135.06 139.879 136.23 139.879C137.427 139.879 138.292 140.757 138.292 142.007C138.292 143.284 137.427 144.135 136.23 144.135C135.033 144.135 134.169 143.258 134.169 142.007ZM139.899 146.463H140.896V145H145.737V146.463H146.735V144.002H145.737V139.015H141.654L141.561 140.598C141.455 142.234 141.042 143.497 140.643 144.002H139.899V146.463ZM142.585 141.01L142.652 140.012H144.673V144.002H141.774C142.053 143.63 142.452 142.539 142.585 141.01Z" fill="#304960"/>
<path d="M267.194 78.9156H22.8062C21.6584 78.9156 20.728 79.846 20.728 80.9937V109.256C20.728 110.404 21.6584 111.334 22.8062 111.334H267.194C268.341 111.334 269.272 110.404 269.272 109.256V80.9937C269.272 79.846 268.341 78.9156 267.194 78.9156Z" fill="#E8F8FF" stroke="#17C5CC"/>
<path d="M58.909 99.2812H59.973V93.2962H58.909V95.7567H55.584V93.2962H54.52V99.2812H55.584V96.7542H58.909V99.2812ZM62.2166 94.5597C62.6954 94.307 63.1343 94.1208 63.8658 94.1208C65.0495 94.1208 65.2224 94.8922 65.2224 96.0094C64.8234 95.7168 64.1983 95.6237 63.7328 95.6237C62.4427 95.6237 61.4718 96.302 61.4718 97.5256C61.4718 98.6827 62.2166 99.3743 63.3072 99.3743C64.2914 99.3743 64.8633 98.962 65.2224 98.5098V99.2812H66.2332V95.6104C66.2332 94.0543 65.6347 93.1632 63.9323 93.1632C63.1875 93.1632 62.4693 93.376 61.9373 93.7085L62.2166 94.5597ZM63.6796 98.4167C62.988 98.4167 62.6023 98.0443 62.6023 97.4724C62.6023 96.7808 63.2407 96.4882 63.8791 96.4882C64.3978 96.4882 64.85 96.6212 65.2224 96.8872V97.6453C64.9165 98.0044 64.4643 98.4167 63.6796 98.4167ZM69.0789 99.2812L72.5369 94.8257V99.2812H73.6009V93.2962H72.5369L69.0789 97.7517V93.2962H68.0149V99.2812H69.0789ZM68.8661 90.2372C68.8661 91.2879 69.571 92.0992 70.8877 92.0992C72.0847 92.0992 72.8561 91.2879 72.8561 90.2372H71.8586C71.8054 90.9554 71.4729 91.2879 70.8877 91.2879C70.2493 91.2879 69.9168 90.9554 69.8636 90.2372H68.8661ZM74.777 94.3602H76.9715V99.2812H78.0355V94.3602H80.23V93.2962H74.777V94.3602ZM82.4568 99.2812L85.9148 94.8257V99.2812H86.9788V93.2962H85.9148L82.4568 97.7517V93.2962H81.3928V99.2812H82.4568ZM91.9003 99.2812H99.4815V93.2962H98.4175V98.2837H96.223V93.2962H95.159V98.2837H92.9643V93.2962H91.9003V99.2812ZM101.727 94.5597C102.206 94.307 102.644 94.1208 103.376 94.1208C104.56 94.1208 104.733 94.8922 104.733 96.0094C104.334 95.7168 103.708 95.6237 103.243 95.6237C101.953 95.6237 100.982 96.302 100.982 97.5256C100.982 98.6827 101.727 99.3743 102.817 99.3743C103.802 99.3743 104.373 98.962 104.733 98.5098V99.2812H105.743V95.6104C105.743 94.0543 105.145 93.1632 103.442 93.1632C102.698 93.1632 101.979 93.376 101.447 93.7085L101.727 94.5597ZM103.19 98.4167C102.498 98.4167 102.112 98.0443 102.112 97.4724C102.112 96.7808 102.751 96.4882 103.389 96.4882C103.908 96.4882 104.36 96.6212 104.733 96.8872V97.6453C104.427 98.0044 103.974 98.4167 103.19 98.4167ZM112.154 89.8382C111.542 90.6362 110.718 90.2638 109.321 90.8623C107.419 91.6603 107.1 93.9213 107.1 95.6902C107.1 97.9911 108.324 99.4142 110.265 99.4142C112.087 99.4142 113.338 98.0177 113.338 96.3419C113.338 94.5464 112.274 93.3627 110.558 93.3627C109.547 93.3627 108.576 93.9213 108.191 94.7592H108.164C108.244 93.642 108.563 92.3785 109.68 91.8731C110.997 91.2746 111.994 91.6603 112.726 90.6761L112.154 89.8382ZM108.23 95.8897C108.417 95.1183 109.161 94.3602 110.292 94.3602C111.529 94.3602 112.207 95.2247 112.207 96.3951C112.207 97.5123 111.409 98.4167 110.239 98.4167C109.055 98.4167 108.23 97.4325 108.23 95.8897ZM118.727 99.2812H119.791V93.2962H115.627L115.521 95.1582C115.375 97.9246 114.524 98.3635 114.072 98.3236L114.151 99.361C115.388 99.361 116.293 98.7758 116.559 95.371L116.625 94.3602H118.727V99.2812ZM121.309 96.2887C121.309 98.0842 122.586 99.4142 124.501 99.4142C126.416 99.4142 127.693 98.0842 127.693 96.2887C127.693 94.4932 126.416 93.1632 124.501 93.1632C122.586 93.1632 121.309 94.4932 121.309 96.2887ZM122.44 96.2887C122.44 95.0252 123.331 94.1607 124.501 94.1607C125.698 94.1607 126.563 95.0385 126.563 96.2887C126.563 97.5655 125.698 98.4167 124.501 98.4167C123.304 98.4167 122.44 97.5389 122.44 96.2887ZM133.618 99.2812H134.682V93.2962H133.618V95.7567H130.293V93.2962H129.229V99.2812H130.293V96.7542H133.618V99.2812ZM141.575 99.4142C143.051 99.4142 144.115 98.7359 144.115 97.6187C144.115 96.9271 143.703 96.302 142.865 96.2089V96.1823C143.623 95.9163 143.916 95.3577 143.916 94.7725C143.916 93.7883 143.131 93.1632 141.668 93.1632C140.724 93.1632 139.793 93.4558 139.301 93.9612L139.713 94.7858C140.112 94.4666 140.684 94.1208 141.509 94.1208C142.28 94.1208 142.785 94.44 142.785 94.9853C142.785 95.4641 142.347 95.8365 141.748 95.8365H140.804V96.701H141.815C142.546 96.701 142.985 96.9803 142.985 97.4724C142.985 98.0709 142.32 98.4566 141.416 98.4566C140.897 98.4566 140.152 98.2172 139.647 97.8049L139.101 98.6029C139.5 99.0817 140.697 99.4142 141.575 99.4142ZM146.056 94.5597C146.534 94.307 146.973 94.1208 147.705 94.1208C148.889 94.1208 149.061 94.8922 149.061 96.0094C148.662 95.7168 148.037 95.6237 147.572 95.6237C146.282 95.6237 145.311 96.302 145.311 97.5256C145.311 98.6827 146.056 99.3743 147.146 99.3743C148.13 99.3743 148.702 98.962 149.061 98.5098V99.2812H150.072V95.6104C150.072 94.0543 149.474 93.1632 147.771 93.1632C147.027 93.1632 146.308 93.376 145.776 93.7085L146.056 94.5597ZM147.519 98.4167C146.827 98.4167 146.441 98.0443 146.441 97.4724C146.441 96.7808 147.08 96.4882 147.718 96.4882C148.237 96.4882 148.689 96.6212 149.061 96.8872V97.6453C148.756 98.0044 148.303 98.4167 147.519 98.4167ZM151.03 100.744H152.027V99.2812H156.869V100.744H157.866V98.2837H156.869V93.2962H152.785L152.692 94.8789C152.586 96.5148 152.174 97.7783 151.775 98.2837H151.03V100.744ZM153.716 95.2912L153.783 94.2937H155.805V98.2837H152.905C153.184 97.9113 153.583 96.8207 153.716 95.2912ZM159.343 94.5597C159.822 94.307 160.261 94.1208 160.992 94.1208C162.176 94.1208 162.349 94.8922 162.349 96.0094C161.95 95.7168 161.325 95.6237 160.859 95.6237C159.569 95.6237 158.598 96.302 158.598 97.5256C158.598 98.6827 159.343 99.3743 160.434 99.3743C161.418 99.3743 161.99 98.962 162.349 98.5098V99.2812H163.36V95.6104C163.36 94.0543 162.761 93.1632 161.059 93.1632C160.314 93.1632 159.596 93.376 159.064 93.7085L159.343 94.5597ZM160.806 98.4167C160.115 98.4167 159.729 98.0443 159.729 97.4724C159.729 96.7808 160.367 96.4882 161.006 96.4882C161.524 96.4882 161.977 96.6212 162.349 96.8872V97.6453C162.043 98.0044 161.591 98.4167 160.806 98.4167ZM169.53 99.2812H170.594V93.2962H169.53V95.7567H166.205V93.2962H165.141V99.2812H166.205V96.7542H169.53V99.2812ZM173.582 99.2812L177.04 94.8257V99.2812H178.104V93.2962H177.04L173.582 97.7517V93.2962H172.518V99.2812H173.582ZM182.659 93.2962C180.664 93.2962 179.986 94.2671 179.986 95.2912C179.986 96.2754 180.664 96.8739 181.276 97.0202L179.547 99.2812H180.837L182.3 97.2862H183.457V99.2812H184.521V93.2962H182.659ZM181.116 95.3178C181.116 94.7592 181.488 94.2937 182.486 94.2937H183.457V96.2887H182.233C181.701 96.2887 181.116 95.9296 181.116 95.3178Z" fill="#304960"/>
<path d="M36.3835 99.0044C38.832 99.0044 40.8169 97.0194 40.8169 94.5708C40.8169 92.1224 38.832 90.1375 36.3835 90.1375C33.9351 90.1375 31.9502 92.1224 31.9502 94.5708C31.9502 97.0194 33.9351 99.0044 36.3835 99.0044Z" stroke="#304960" stroke-linecap="round" stroke-linejoin="round"/>
<path d="M41.9248 100.112L39.5142 97.7019" stroke="#304960" stroke-linecap="round" stroke-linejoin="round"/>
<path d="M278 12H12V61.875H278V12Z" fill="#17C5CC"/>
<path d="M253.063 45.25C257.653 45.25 261.375 41.5283 261.375 36.9375C261.375 32.3467 257.653 28.625 253.063 28.625C248.472 28.625 244.75 32.3467 244.75 36.9375C244.75 41.5283 248.472 45.25 253.063 45.25Z" stroke="#E8F8FF" stroke-linecap="round" stroke-linejoin="round"/>
<path d="M250.644 34.4438C250.839 33.8882 251.225 33.4197 251.732 33.1214C252.24 32.823 252.837 32.7139 253.417 32.8134C253.998 32.913 254.525 33.2148 254.904 33.6653C255.283 34.1159 255.491 34.6861 255.49 35.275C255.49 36.9375 252.996 37.7688 252.996 37.7688" stroke="#E8F8FF" stroke-linecap="round" stroke-linejoin="round"/>
<path d="M253.062 41.0938H253.071" stroke="#E8F8FF" stroke-linecap="round" stroke-linejoin="round"/>
<path d="M74.3481 41.0938H85.0281V31.7838H83.3921V39.5643H80.506V31.7838H78.8701V39.5643H75.984V31.7838H74.3481V41.0938ZM86.4122 41.0938H88.0614L89.0323 38.7131H93.009L93.9799 41.0938H95.722L91.7854 31.7572H90.349L86.4122 41.0938ZM91.0273 33.8719L92.3839 37.1836H89.6574L91.0273 33.8719ZM97.1168 41.0938C97.6621 41.0938 98.4601 41.147 99.5374 41.147C101.825 41.147 103.128 40.0431 103.128 38.1146C103.128 36.3989 101.945 35.3083 100.003 35.3083C99.6704 35.3083 99.1118 35.3349 98.7527 35.3881V33.3133H102.557V31.7838H97.1168V41.0938ZM99.8699 36.8378C101.014 36.8378 101.506 37.4363 101.506 38.2343C101.506 39.0589 101 39.6175 99.7901 39.6175C99.4443 39.6175 99.1251 39.5909 98.7527 39.5643V36.9176C99.165 36.8644 99.564 36.8378 99.8699 36.8378ZM110.779 41.0938H112.402V31.7838H106.537L106.404 33.6458C105.991 39.2584 105.047 39.5643 104.329 39.4712L104.289 41.0938C106.124 41.3598 107.335 40.482 107.88 35.0689L108.066 33.3133H110.779V41.0938ZM114.284 36.4388C114.284 39.3382 116.359 41.2401 119.125 41.2401C121.891 41.2401 123.98 39.2318 123.98 36.4388C123.98 33.5394 121.891 31.6375 119.125 31.6375C116.266 31.6375 114.284 33.7389 114.284 36.4388ZM116.013 36.4388C116.013 34.5103 117.343 33.167 119.125 33.167C120.881 33.167 122.251 34.5103 122.251 36.4388C122.251 38.2742 121.08 39.7106 119.125 39.7106C117.383 39.7106 116.013 38.3008 116.013 36.4388ZM131.765 41.0938H133.388V31.7838H131.765V35.5876H127.509V31.7838H125.873V41.0938H127.509V37.1171H131.765V41.0938ZM143.253 41.0938H144.875V31.7838H143.253V41.0938ZM138.505 36.4388C139.649 36.4388 140.314 36.9575 140.314 37.955C140.314 39.0456 139.675 39.5909 138.478 39.5909C138.159 39.5909 137.893 39.5643 137.6 39.551V36.5053C137.973 36.4654 138.252 36.4388 138.505 36.4388ZM137.6 31.7838H135.964V41.0938C136.51 41.0938 137.401 41.1204 138.279 41.1204C140.659 41.1204 142.043 39.8835 142.043 37.9151C142.043 36.093 140.939 34.9093 138.638 34.9093C138.372 34.9093 138.013 34.9226 137.6 34.9758V31.7838ZM152.645 41.2401C154.334 41.2401 155.904 40.2027 155.904 38.487C155.904 37.423 155.412 36.5585 154.294 36.2792V36.2393C155.159 35.7339 155.545 34.9093 155.545 34.1911C155.545 32.5419 154.387 31.6375 152.752 31.6375C151.475 31.6375 150.344 32.236 149.732 33.0872L150.677 34.1778C151.195 33.4862 151.794 33.167 152.565 33.167C153.337 33.167 153.922 33.5527 153.922 34.3507C153.922 35.1221 153.27 35.5743 152.579 35.5743H151.674V37.1038H152.632C153.722 37.1038 154.281 37.5959 154.281 38.3274C154.281 39.285 153.456 39.7106 152.565 39.7106C151.807 39.7106 150.916 39.2185 150.344 38.5668L149.453 39.6707C149.945 40.4155 150.996 41.2401 152.645 41.2401ZM156.86 41.0938H158.51L159.481 38.7131H163.457L164.428 41.0938H166.17L162.234 31.7572H160.797L156.86 41.0938ZM161.476 33.8719L162.832 37.1836H160.106L161.476 33.8719ZM166.382 42.7563H167.912V41.0938H174.416V42.7563H175.945V39.5643H174.682V31.7838H168.909L168.816 33.6458C168.657 37.1171 167.766 39.0855 167.38 39.5643H166.382V42.7563ZM170.346 34.9359L170.492 33.3133H173.059V39.5643H169.175C169.508 39.152 170.173 37.3432 170.346 34.9359ZM176.369 41.0938H178.018L178.989 38.7131H182.966L183.937 41.0938H185.679L181.742 31.7572H180.306L176.369 41.0938ZM180.984 33.8719L182.341 37.1836H179.614L180.984 33.8719ZM192.966 41.0938H194.588V31.7838H192.966V35.5876H188.71V31.7838H187.074V41.0938H188.71V37.1171H192.966V41.0938ZM198.602 41.0938L203.483 34.4837V41.0938H205.119V31.7838H203.682L198.801 38.4072V31.7838H197.165V41.0938H198.602ZM209.135 41.0938L214.016 34.4837V41.0938H215.652V31.7838H214.216L209.335 38.4072V31.7838H207.699V41.0938H209.135ZM209.175 29.5228C209.268 30.6533 210.239 31.4247 211.835 31.4247C213.298 31.4247 214.389 30.6666 214.429 29.5228H212.899C212.846 30.0947 212.434 30.2942 211.835 30.2942C211.17 30.2942 210.811 30.0415 210.705 29.5228H209.175Z" fill="#E8F8FF"/>
<path d="M29.4561 36.9375H44.4186" stroke="#E8F8FF" stroke-linecap="round" stroke-linejoin="round"/>
<path d="M29.4561 31.95H44.4186" stroke="#E8F8FF" stroke-linecap="round" stroke-linejoin="round"/>
<path d="M29.4561 41.925H44.4186" stroke="#E8F8FF" stroke-linecap="round" stroke-linejoin="round"/>
</g>
<path fill-rule="evenodd" clip-rule="evenodd" d="M277 41C277 25.3632 264.594 13 249 13H224C220.882 13 221 13 218 13H213C208 13 211.608 13 203 13H86C77.3917 13 77 13 74 13H72C69.5 13 69 13 66 13C63 13 41 13 41 13C25.4063 13 13 25.401 13 41.0377V559C13 574.637 25.4063 587 41 587H249C264.594 587 277 574.599 277 558.962V41ZM40.9246 0H249.075C271.655 0 290 18.3962 290 41.0377V558.962C290 581.604 271.655 600 249.075 600H40.9246C18.3455 600 0 581.604 0 558.962V41.0377C0 18.3962 18.3455 0 40.9246 0Z" fill="#304960"/>
<defs>
<clipPath id="clip0">
<rect width="266" height="554.444" fill="white" transform="translate(12 12)"/>
</clipPath>
</defs>
</svg>
