<svg width="290" height="470" viewBox="0 0 290 470" fill="none" xmlns="http://www.w3.org/2000/svg">
<path fill-rule="evenodd" clip-rule="evenodd" d="M277 41C277 25.3632 264.594 13 249 13H224C220.882 13 221 13 218 13H213C208 13 211.608 13 203 13H86C77.3917 13 77 13 74 13H72C69.5 13 69 13 66 13C63 13 41 13 41 13C25.4063 13 13 25.401 13 41.0377V559C13 574.637 25.4063 587 41 587H249C264.594 587 277 574.599 277 558.962V41ZM40.9246 0H249.075C271.655 0 290 18.3962 290 41.0377V558.962C290 581.604 271.655 600 249.075 600H40.9246C18.3455 600 0 581.604 0 558.962V41.0377C0 18.3962 18.3455 0 40.9246 0Z" fill="#304960"/>
</svg>
