<svg width="180" height="180" viewBox="0 0 180 180" fill="none" xmlns="http://www.w3.org/2000/svg">
<path d="M20 40V50H30V60H20V90H10V120H20V140H30V150H40V160H60V170H120V160H140V150H150V140H160V120H170V60H160V40H150V30H140L139.75 20H120V10H60V20H40V30H30V40H20Z" fill="#E8F8FF"/>
<path d="M30 60H20V90H30V100H40V110H70V100H80V90H90V100H100V110H130V100H140V90H150V60H140V50H130V40H100V50H90V60H80V50H70V40H40V50H30V60Z" fill="#D4F1F4"/>
<rect x="60" width="10" height="10" rx="1" fill="#17C5CC"/>
<rect x="64.5" y="1.50024" width="1" height="7" rx="0.5" fill="white" stroke="white"/>
<rect x="61.5" y="4.49976" width="7" height="1" rx="0.5" fill="white" stroke="white"/>
<rect x="40" y="10" width="10" height="10" rx="1" fill="#17C5CC"/>
<rect x="44.5" y="11.5002" width="1" height="7" rx="0.5" fill="white" stroke="white"/>
<rect x="41.5" y="14.4998" width="7" height="1" rx="0.5" fill="white" stroke="white"/>
<rect x="50" y="10" width="10" height="10" rx="1" fill="#17C5CC"/>
<rect x="54.5" y="11.5002" width="1" height="7" rx="0.5" fill="white" stroke="white"/>
<rect x="51.5" y="14.4998" width="7" height="1" rx="0.5" fill="white" stroke="white"/>
<rect x="120" y="10" width="10" height="10" rx="1" fill="#17C5CC"/>
<rect x="124.5" y="11.5002" width="1" height="7" rx="0.5" fill="white" stroke="white"/>
<rect x="121.5" y="14.4998" width="7" height="1" rx="0.5" fill="white" stroke="white"/>
<rect x="130" y="10" width="10" height="10" rx="1" fill="#17C5CC"/>
<rect x="134.5" y="11.5002" width="1" height="7" rx="0.5" fill="white" stroke="white"/>
<rect x="131.5" y="14.4998" width="7" height="1" rx="0.5" fill="white" stroke="white"/>
<rect x="30" y="20" width="10" height="10" rx="1" fill="#17C5CC"/>
<rect x="34.5" y="21.5002" width="1" height="7" rx="0.5" fill="white" stroke="white"/>
<rect x="31.5" y="24.4998" width="7" height="1" rx="0.5" fill="white" stroke="white"/>
<rect x="20" y="30" width="10" height="10" rx="1" fill="#17C5CC"/>
<rect x="24.5" y="31.5002" width="1" height="7" rx="0.5" fill="white" stroke="white"/>
<rect x="21.5" y="34.4998" width="7" height="1" rx="0.5" fill="white" stroke="white"/>
<rect x="40" y="30" width="10" height="10" rx="1" fill="#17C5CC"/>
<rect x="44.5" y="31.5002" width="1" height="7" rx="0.5" fill="white" stroke="white"/>
<rect x="41.5" y="34.4998" width="7" height="1" rx="0.5" fill="white" stroke="white"/>
<rect x="50" y="30" width="10" height="10" rx="1" fill="#17C5CC"/>
<rect x="54.5" y="31.5002" width="1" height="7" rx="0.5" fill="white" stroke="white"/>
<rect x="51.5" y="34.4998" width="7" height="1" rx="0.5" fill="white" stroke="white"/>
<rect x="60" y="30" width="10" height="10" rx="1" fill="#17C5CC"/>
<rect x="64.5" y="31.5002" width="1" height="7" rx="0.5" fill="white" stroke="white"/>
<rect x="61.5" y="34.4998" width="7" height="1" rx="0.5" fill="white" stroke="white"/>
<rect x="100" y="30" width="10" height="10" rx="1" fill="#17C5CC"/>
<rect x="104.5" y="31.5002" width="1" height="7" rx="0.5" fill="white" stroke="white"/>
<rect x="101.5" y="34.4998" width="7" height="1" rx="0.5" fill="white" stroke="white"/>
<rect x="110" y="30" width="10" height="10" rx="1" fill="#17C5CC"/>
<rect x="114.5" y="31.5002" width="1" height="7" rx="0.5" fill="white" stroke="white"/>
<rect x="111.5" y="34.4998" width="7" height="1" rx="0.5" fill="white" stroke="white"/>
<rect x="120" y="30" width="10" height="10" rx="1" fill="#17C5CC"/>
<rect x="124.5" y="31.5002" width="1" height="7" rx="0.5" fill="white" stroke="white"/>
<rect x="121.5" y="34.4998" width="7" height="1" rx="0.5" fill="white" stroke="white"/>
<rect x="150" y="30" width="10" height="10" rx="1" fill="#17C5CC"/>
<rect x="154.5" y="31.5002" width="1" height="7" rx="0.5" fill="white" stroke="white"/>
<rect x="151.5" y="34.4998" width="7" height="1" rx="0.5" fill="white" stroke="white"/>
<rect x="10" y="40" width="10" height="10" rx="1" fill="#17C5CC"/>
<rect x="14.5" y="41.5002" width="1" height="7" rx="0.5" fill="white" stroke="white"/>
<rect x="11.5" y="44.4998" width="7" height="1" rx="0.5" fill="white" stroke="white"/>
<rect x="10" y="50" width="10" height="10" rx="1" fill="#17C5CC"/>
<rect x="14.5" y="51.5002" width="1" height="7" rx="0.5" fill="white" stroke="white"/>
<rect x="11.5" y="54.4998" width="7" height="1" rx="0.5" fill="white" stroke="white"/>
<rect y="60" width="10" height="10" rx="1" fill="#17C5CC"/>
<rect x="4.5" y="61.5002" width="1" height="7" rx="0.5" fill="white" stroke="white"/>
<rect x="1.5" y="64.4998" width="7" height="1" rx="0.5" fill="white" stroke="white"/>
<rect y="70" width="10" height="10" rx="1" fill="#17C5CC"/>
<rect x="4.5" y="71.5002" width="1" height="7" rx="0.5" fill="white" stroke="white"/>
<rect x="1.5" y="74.4998" width="7" height="1" rx="0.5" fill="white" stroke="white"/>
<rect y="80" width="10" height="10" rx="1" fill="#17C5CC"/>
<rect x="4.5" y="81.5002" width="1" height="7" rx="0.5" fill="white" stroke="white"/>
<rect x="1.5" y="84.4998" width="7" height="1" rx="0.5" fill="white" stroke="white"/>
<rect x="10" y="80" width="10" height="10" rx="1" fill="#17C5CC"/>
<rect x="14.5" y="81.5002" width="1" height="7" rx="0.5" fill="white" stroke="white"/>
<rect x="11.5" y="84.4998" width="7" height="1" rx="0.5" fill="white" stroke="white"/>
<rect x="150" y="80" width="10" height="10" rx="1" fill="#17C5CC"/>
<rect x="154.5" y="81.5002" width="1" height="7" rx="0.5" fill="white" stroke="white"/>
<rect x="151.5" y="84.4998" width="7" height="1" rx="0.5" fill="white" stroke="white"/>
<rect x="170" y="80" width="10" height="10" rx="1" fill="#17C5CC"/>
<rect x="174.5" y="81.5002" width="1" height="7" rx="0.5" fill="white" stroke="white"/>
<rect x="171.5" y="84.4998" width="7" height="1" rx="0.5" fill="white" stroke="white"/>
<rect y="90" width="10" height="10" rx="1" fill="#17C5CC"/>
<rect x="4.5" y="91.5002" width="1" height="7" rx="0.5" fill="white" stroke="white"/>
<rect x="1.5" y="94.4998" width="7" height="1" rx="0.5" fill="white" stroke="white"/>
<rect x="20" y="90" width="10" height="10" rx="1" fill="#17C5CC"/>
<rect x="24.5" y="91.5002" width="1" height="7" rx="0.5" fill="white" stroke="white"/>
<rect x="21.5" y="94.4998" width="7" height="1" rx="0.5" fill="white" stroke="white"/>
<rect x="80" y="90" width="10" height="10" rx="1" fill="#17C5CC"/>
<rect x="84.5" y="91.5002" width="1" height="7" rx="0.5" fill="white" stroke="white"/>
<rect x="81.5" y="94.4998" width="7" height="1" rx="0.5" fill="white" stroke="white"/>
<rect x="140" y="90" width="10" height="10" rx="1" fill="#17C5CC"/>
<rect x="144.5" y="91.5002" width="1" height="7" rx="0.5" fill="white" stroke="white"/>
<rect x="141.5" y="94.4998" width="7" height="1" rx="0.5" fill="white" stroke="white"/>
<rect y="100" width="10" height="10" rx="1" fill="#17C5CC"/>
<rect x="4.5" y="101.5" width="1" height="7" rx="0.5" fill="white" stroke="white"/>
<rect x="1.5" y="104.5" width="7" height="1" rx="0.5" fill="white" stroke="white"/>
<rect x="30" y="100" width="10" height="10" rx="1" fill="#17C5CC"/>
<rect x="34.5" y="101.5" width="1" height="7" rx="0.5" fill="white" stroke="white"/>
<rect x="31.5" y="104.5" width="7" height="1" rx="0.5" fill="white" stroke="white"/>
<rect x="70" y="100" width="10" height="10" rx="1" fill="#17C5CC"/>
<rect x="74.5" y="101.5" width="1" height="7" rx="0.5" fill="white" stroke="white"/>
<rect x="71.5" y="104.5" width="7" height="1" rx="0.5" fill="white" stroke="white"/>
<rect x="90" y="100" width="10" height="10" rx="1" fill="#17C5CC"/>
<rect x="94.5" y="101.5" width="1" height="7" rx="0.5" fill="white" stroke="white"/>
<rect x="91.5" y="104.5" width="7" height="1" rx="0.5" fill="white" stroke="white"/>
<rect x="130" y="100" width="10" height="10" rx="1" fill="#17C5CC"/>
<rect x="134.5" y="101.5" width="1" height="7" rx="0.5" fill="white" stroke="white"/>
<rect x="131.5" y="104.5" width="7" height="1" rx="0.5" fill="white" stroke="white"/>
<rect x="170" y="90" width="10" height="10" rx="1" fill="#17C5CC"/>
<rect x="174.5" y="91.5002" width="1" height="7" rx="0.5" fill="white" stroke="white"/>
<rect x="171.5" y="94.4998" width="7" height="1" rx="0.5" fill="white" stroke="white"/>
<rect x="170" y="100" width="10" height="10" rx="1" fill="#17C5CC"/>
<rect x="174.5" y="101.5" width="1" height="7" rx="0.5" fill="white" stroke="white"/>
<rect x="171.5" y="104.5" width="7" height="1" rx="0.5" fill="white" stroke="white"/>
<rect y="110" width="10" height="10" rx="1" fill="#17C5CC"/>
<rect x="4.5" y="111.5" width="1" height="7" rx="0.5" fill="white" stroke="white"/>
<rect x="1.5" y="114.5" width="7" height="1" rx="0.5" fill="white" stroke="white"/>
<rect x="40" y="110" width="10" height="10" rx="1" fill="#17C5CC"/>
<rect x="44.5" y="111.5" width="1" height="7" rx="0.5" fill="white" stroke="white"/>
<rect x="41.5" y="114.5" width="7" height="1" rx="0.5" fill="white" stroke="white"/>
<rect x="50" y="110" width="10" height="10" rx="1" fill="#17C5CC"/>
<rect x="54.5" y="111.5" width="1" height="7" rx="0.5" fill="white" stroke="white"/>
<rect x="51.5" y="114.5" width="7" height="1" rx="0.5" fill="white" stroke="white"/>
<rect x="60" y="110" width="10" height="10" rx="1" fill="#17C5CC"/>
<rect x="64.5" y="111.5" width="1" height="7" rx="0.5" fill="white" stroke="white"/>
<rect x="61.5" y="114.5" width="7" height="1" rx="0.5" fill="white" stroke="white"/>
<rect x="100" y="110" width="10" height="10" rx="1" fill="#17C5CC"/>
<rect x="104.5" y="111.5" width="1" height="7" rx="0.5" fill="white" stroke="white"/>
<rect x="101.5" y="114.5" width="7" height="1" rx="0.5" fill="white" stroke="white"/>
<rect x="110" y="110" width="10" height="10" rx="1" fill="#17C5CC"/>
<rect x="114.5" y="111.5" width="1" height="7" rx="0.5" fill="white" stroke="white"/>
<rect x="111.5" y="114.5" width="7" height="1" rx="0.5" fill="white" stroke="white"/>
<rect x="120" y="110" width="10" height="10" rx="1" fill="#17C5CC"/>
<rect x="124.5" y="111.5" width="1" height="7" rx="0.5" fill="white" stroke="white"/>
<rect x="121.5" y="114.5" width="7" height="1" rx="0.5" fill="white" stroke="white"/>
<rect x="170" y="110" width="10" height="10" rx="1" fill="#17C5CC"/>
<rect x="174.5" y="111.5" width="1" height="7" rx="0.5" fill="white" stroke="white"/>
<rect x="171.5" y="114.5" width="7" height="1" rx="0.5" fill="white" stroke="white"/>
<rect x="10" y="120" width="10" height="10" rx="1" fill="#17C5CC"/>
<rect x="14.5" y="121.5" width="1" height="7" rx="0.5" fill="white" stroke="white"/>
<rect x="11.5" y="124.5" width="7" height="1" rx="0.5" fill="white" stroke="white"/>
<rect x="160" y="120" width="10" height="10" rx="1" fill="#17C5CC"/>
<rect x="164.5" y="121.5" width="1" height="7" rx="0.5" fill="white" stroke="white"/>
<rect x="161.5" y="124.5" width="7" height="1" rx="0.5" fill="white" stroke="white"/>
<rect x="10" y="130" width="10" height="10" rx="1" fill="#17C5CC"/>
<rect x="14.5" y="131.5" width="1" height="7" rx="0.5" fill="white" stroke="white"/>
<rect x="11.5" y="134.5" width="7" height="1" rx="0.5" fill="white" stroke="white"/>
<rect x="160" y="130" width="10" height="10" rx="1" fill="#17C5CC"/>
<rect x="164.5" y="131.5" width="1" height="7" rx="0.5" fill="white" stroke="white"/>
<rect x="161.5" y="134.5" width="7" height="1" rx="0.5" fill="white" stroke="white"/>
<rect x="20" y="140" width="10" height="10" rx="1" fill="#17C5CC"/>
<rect x="24.5" y="141.5" width="1" height="7" rx="0.5" fill="white" stroke="white"/>
<rect x="21.5" y="144.5" width="7" height="1" rx="0.5" fill="white" stroke="white"/>
<rect x="150" y="140" width="10" height="10" rx="1" fill="#17C5CC"/>
<rect x="154.5" y="141.5" width="1" height="7" rx="0.5" fill="white" stroke="white"/>
<rect x="151.5" y="144.5" width="7" height="1" rx="0.5" fill="white" stroke="white"/>
<rect x="70" y="140" width="10" height="10" rx="1" fill="#17C5CC"/>
<rect x="74.5" y="141.5" width="1" height="7" rx="0.5" fill="white" stroke="white"/>
<rect x="71.5" y="144.5" width="7" height="1" rx="0.5" fill="white" stroke="white"/>
<rect x="80" y="140" width="10" height="10" rx="1" fill="#17C5CC"/>
<rect x="84.5" y="141.5" width="1" height="7" rx="0.5" fill="white" stroke="white"/>
<rect x="81.5" y="144.5" width="7" height="1" rx="0.5" fill="white" stroke="white"/>
<rect x="90" y="140" width="10" height="10" rx="1" fill="#17C5CC"/>
<rect x="94.5" y="141.5" width="1" height="7" rx="0.5" fill="white" stroke="white"/>
<rect x="91.5" y="144.5" width="7" height="1" rx="0.5" fill="white" stroke="white"/>
<rect x="30" y="150" width="10" height="10" rx="1" fill="#17C5CC"/>
<rect x="34.5" y="151.5" width="1" height="7" rx="0.5" fill="white" stroke="white"/>
<rect x="31.5" y="154.5" width="7" height="1" rx="0.5" fill="white" stroke="white"/>
<rect x="70" y="150" width="10" height="10" rx="1" fill="#17C5CC"/>
<rect x="74.5" y="151.5" width="1" height="7" rx="0.5" fill="white" stroke="white"/>
<rect x="71.5" y="154.5" width="7" height="1" rx="0.5" fill="white" stroke="white"/>
<rect x="80" y="150" width="10" height="10" rx="1" fill="#17C5CC"/>
<rect x="84.5" y="151.5" width="1" height="7" rx="0.5" fill="white" stroke="white"/>
<rect x="81.5" y="154.5" width="7" height="1" rx="0.5" fill="white" stroke="white"/>
<rect x="90" y="150" width="10" height="10" rx="1" fill="#17C5CC"/>
<rect x="94.5" y="151.5" width="1" height="7" rx="0.5" fill="white" stroke="white"/>
<rect x="91.5" y="154.5" width="7" height="1" rx="0.5" fill="white" stroke="white"/>
<rect x="140" y="150" width="10" height="10" rx="1" fill="#17C5CC"/>
<rect x="144.5" y="151.5" width="1" height="7" rx="0.5" fill="white" stroke="white"/>
<rect x="141.5" y="154.5" width="7" height="1" rx="0.5" fill="white" stroke="white"/>
<rect x="40" y="160" width="10" height="10" rx="1" fill="#17C5CC"/>
<rect x="44.5" y="161.5" width="1" height="7" rx="0.5" fill="white" stroke="white"/>
<rect x="41.5" y="164.5" width="7" height="1" rx="0.5" fill="white" stroke="white"/>
<rect x="50" y="160" width="10" height="10" rx="1" fill="#17C5CC"/>
<rect x="54.5" y="161.5" width="1" height="7" rx="0.5" fill="white" stroke="white"/>
<rect x="51.5" y="164.5" width="7" height="1" rx="0.5" fill="white" stroke="white"/>
<rect x="120" y="160" width="10" height="10" rx="1" fill="#17C5CC"/>
<rect x="124.5" y="161.5" width="1" height="7" rx="0.5" fill="white" stroke="white"/>
<rect x="121.5" y="164.5" width="7" height="1" rx="0.5" fill="white" stroke="white"/>
<rect x="130" y="160" width="10" height="10" rx="1" fill="#17C5CC"/>
<rect x="134.5" y="161.5" width="1" height="7" rx="0.5" fill="white" stroke="white"/>
<rect x="131.5" y="164.5" width="7" height="1" rx="0.5" fill="white" stroke="white"/>
<rect x="60" y="170" width="10" height="10" rx="1" fill="#17C5CC"/>
<rect x="64.5" y="171.5" width="1" height="7" rx="0.5" fill="white" stroke="white"/>
<rect x="61.5" y="174.5" width="7" height="1" rx="0.5" fill="white" stroke="white"/>
<rect x="70" y="170" width="10" height="10" rx="1" fill="#17C5CC"/>
<rect x="74.5" y="171.5" width="1" height="7" rx="0.5" fill="white" stroke="white"/>
<rect x="71.5" y="174.5" width="7" height="1" rx="0.5" fill="white" stroke="white"/>
<rect x="80" y="170" width="10" height="10" rx="1" fill="#17C5CC"/>
<rect x="84.5" y="171.5" width="1" height="7" rx="0.5" fill="white" stroke="white"/>
<rect x="81.5" y="174.5" width="7" height="1" rx="0.5" fill="white" stroke="white"/>
<rect x="90" y="170" width="10" height="10" rx="1" fill="#17C5CC"/>
<rect x="94.5" y="171.5" width="1" height="7" rx="0.5" fill="white" stroke="white"/>
<rect x="91.5" y="174.5" width="7" height="1" rx="0.5" fill="white" stroke="white"/>
<rect x="100" y="170" width="10" height="10" rx="1" fill="#17C5CC"/>
<rect x="104.5" y="171.5" width="1" height="7" rx="0.5" fill="white" stroke="white"/>
<rect x="101.5" y="174.5" width="7" height="1" rx="0.5" fill="white" stroke="white"/>
<rect x="110" y="170" width="10" height="10" rx="1" fill="#17C5CC"/>
<rect x="114.5" y="171.5" width="1" height="7" rx="0.5" fill="white" stroke="white"/>
<rect x="111.5" y="174.5" width="7" height="1" rx="0.5" fill="white" stroke="white"/>
<rect x="10" y="70" width="10" height="10" rx="1" fill="#17C5CC"/>
<rect x="14.5" y="71.5002" width="1" height="7" rx="0.5" fill="white" stroke="white"/>
<rect x="11.5" y="74.4998" width="7" height="1" rx="0.5" fill="white" stroke="white"/>
<rect x="50" y="70" width="10" height="10" rx="1" fill="#17C5CC"/>
<rect x="54.5" y="71.5002" width="1" height="7" rx="0.5" fill="white" stroke="white"/>
<rect x="51.5" y="74.4998" width="7" height="1" rx="0.5" fill="white" stroke="white"/>
<rect x="110" y="70" width="10" height="10" rx="1" fill="#17C5CC"/>
<rect x="114.5" y="71.5002" width="1" height="7" rx="0.5" fill="white" stroke="white"/>
<rect x="111.5" y="74.4998" width="7" height="1" rx="0.5" fill="white" stroke="white"/>
<rect x="150" y="70" width="10" height="10" rx="1" fill="#17C5CC"/>
<rect x="154.5" y="71.5002" width="1" height="7" rx="0.5" fill="white" stroke="white"/>
<rect x="151.5" y="74.4998" width="7" height="1" rx="0.5" fill="white" stroke="white"/>
<rect x="170" y="70" width="10" height="10" rx="1" fill="#17C5CC"/>
<rect x="174.5" y="71.5002" width="1" height="7" rx="0.5" fill="white" stroke="white"/>
<rect x="171.5" y="74.4998" width="7" height="1" rx="0.5" fill="white" stroke="white"/>
<rect x="10" y="60" width="10" height="10" rx="1" fill="#17C5CC"/>
<rect x="14.5" y="61.5002" width="1" height="7" rx="0.5" fill="white" stroke="white"/>
<rect x="11.5" y="64.4998" width="7" height="1" rx="0.5" fill="white" stroke="white"/>
<rect x="150" y="60" width="10" height="10" rx="1" fill="#17C5CC"/>
<rect x="154.5" y="61.5002" width="1" height="7" rx="0.5" fill="white" stroke="white"/>
<rect x="151.5" y="64.4998" width="7" height="1" rx="0.5" fill="white" stroke="white"/>
<rect x="170" y="60" width="10" height="10" rx="1" fill="#17C5CC"/>
<rect x="174.5" y="61.5002" width="1" height="7" rx="0.5" fill="white" stroke="white"/>
<rect x="171.5" y="64.4998" width="7" height="1" rx="0.5" fill="white" stroke="white"/>
<rect x="30" y="40" width="10" height="10" rx="1" fill="#17C5CC"/>
<rect x="34.5" y="41.5002" width="1" height="7" rx="0.5" fill="white" stroke="white"/>
<rect x="31.5" y="44.4998" width="7" height="1" rx="0.5" fill="white" stroke="white"/>
<rect x="20" y="50" width="10" height="10" rx="1" fill="#17C5CC"/>
<rect x="24.5" y="51.5002" width="1" height="7" rx="0.5" fill="white" stroke="white"/>
<rect x="21.5" y="54.4998" width="7" height="1" rx="0.5" fill="white" stroke="white"/>
<rect x="140" y="50" width="10" height="10" rx="1" fill="#17C5CC"/>
<rect x="144.5" y="51.5002" width="1" height="7" rx="0.5" fill="white" stroke="white"/>
<rect x="141.5" y="54.4998" width="7" height="1" rx="0.5" fill="white" stroke="white"/>
<rect x="160" y="50" width="10" height="10" rx="1" fill="#17C5CC"/>
<rect x="164.5" y="51.5002" width="1" height="7" rx="0.5" fill="white" stroke="white"/>
<rect x="161.5" y="54.4998" width="7" height="1" rx="0.5" fill="white" stroke="white"/>
<rect x="70" y="40" width="10" height="10" rx="1" fill="#17C5CC"/>
<rect x="74.5" y="41.5002" width="1" height="7" rx="0.5" fill="white" stroke="white"/>
<rect x="71.5" y="44.4998" width="7" height="1" rx="0.5" fill="white" stroke="white"/>
<rect x="80" y="50" width="10" height="10" rx="1" fill="#17C5CC"/>
<rect x="84.5" y="51.5002" width="1" height="7" rx="0.5" fill="white" stroke="white"/>
<rect x="81.5" y="54.4998" width="7" height="1" rx="0.5" fill="white" stroke="white"/>
<rect x="90" y="40" width="10" height="10" rx="1" fill="#17C5CC"/>
<rect x="94.5" y="41.5002" width="1" height="7" rx="0.5" fill="white" stroke="white"/>
<rect x="91.5" y="44.4998" width="7" height="1" rx="0.5" fill="white" stroke="white"/>
<rect x="130" y="40" width="10" height="10" rx="1" fill="#17C5CC"/>
<rect x="134.5" y="41.5002" width="1" height="7" rx="0.5" fill="white" stroke="white"/>
<rect x="131.5" y="44.4998" width="7" height="1" rx="0.5" fill="white" stroke="white"/>
<rect x="160" y="40" width="10" height="10" rx="1" fill="#17C5CC"/>
<rect x="164.5" y="41.5002" width="1" height="7" rx="0.5" fill="white" stroke="white"/>
<rect x="161.5" y="44.4998" width="7" height="1" rx="0.5" fill="white" stroke="white"/>
<rect x="140" y="20" width="10" height="10" rx="1" fill="#17C5CC"/>
<rect x="144.5" y="21.5002" width="1" height="7" rx="0.5" fill="white" stroke="white"/>
<rect x="141.5" y="24.4998" width="7" height="1" rx="0.5" fill="white" stroke="white"/>
<rect x="70" width="10" height="10" rx="1" fill="#17C5CC"/>
<rect x="74.5" y="1.50024" width="1" height="7" rx="0.5" fill="white" stroke="white"/>
<rect x="71.5" y="4.49976" width="7" height="1" rx="0.5" fill="white" stroke="white"/>
<rect x="80" width="10" height="10" rx="1" fill="#17C5CC"/>
<rect x="84.5" y="1.50024" width="1" height="7" rx="0.5" fill="white" stroke="white"/>
<rect x="81.5" y="4.49976" width="7" height="1" rx="0.5" fill="white" stroke="white"/>
<rect x="90" width="10" height="10" rx="1" fill="#17C5CC"/>
<rect x="94.5" y="1.50024" width="1" height="7" rx="0.5" fill="white" stroke="white"/>
<rect x="91.5" y="4.49976" width="7" height="1" rx="0.5" fill="white" stroke="white"/>
<rect x="100" width="10" height="10" rx="1" fill="#17C5CC"/>
<rect x="104.5" y="1.50024" width="1" height="7" rx="0.5" fill="white" stroke="white"/>
<rect x="101.5" y="4.49976" width="7" height="1" rx="0.5" fill="white" stroke="white"/>
<rect x="110" width="10" height="10" rx="1" fill="#17C5CC"/>
<rect x="114.5" y="1.50024" width="1" height="7" rx="0.5" fill="white" stroke="white"/>
<rect x="111.5" y="4.49976" width="7" height="1" rx="0.5" fill="white" stroke="white"/>
</svg>
